<?xml version="1.0" encoding="UTF-8" standalone="no"?>
<svg width="373px" height="177px" viewBox="0 0 373 177" version="1.1" xmlns="http://www.w3.org/2000/svg" xmlns:xlink="http://www.w3.org/1999/xlink" xmlns:sketch="http://www.bohemiancoding.com/sketch/ns">
    <title>Slice 2</title>
    <description>Created with Sketch (http://www.bohemiancoding.com/sketch)</description>
    <defs></defs>
    <g id="Page-1" stroke="none" stroke-width="1" fill="none" fill-rule="evenodd" sketch:type="MSPage">
        <g id="logo-eccc" sketch:type="MSLayerGroup" transform="translate(-1.000000, -7.000000)">
            <text id="CYCLING-CONFERENCE" fill="#000000" sketch:type="MSTextLayer" font-family="Helvetica" font-size="32" font-weight="normal">
                <tspan x="0" y="183">CYCLING CONFERENCE</tspan>
            </text>
            <path d="M106.667,62 L106.667,129.334 L124,149 L161,149 L176.667,129.334 L176.667,112.334 L156,112.334 L156,124.667 L151.333,129.334 L134.667,129.334 L130,124.667 L130,69 L134.667,66 L151.333,66 L156,69 L156,79.667 L176.667,79.667 L176.667,62 L161,45 L124,45 L106.667,62 Z M106.667,62" id="Shape" fill="#000000" sketch:type="MSShapeGroup"></path>
            <path d="M101.333,60 L101.333,134.667 L120.984,154 L162.328,154 L181.666,134.667 L181.666,107 L150,107 L150,123.667 L136,123.667 L136,69.667 L150,69.667 L150,84.334 L181.666,84.334 L181.666,60 L162.328,40.359 L120.984,40.344 L101.333,60 Z M101.333,60" id="Shape" stroke="#000000" stroke-width="2" sketch:type="MSShapeGroup"></path>
            <path d="M199.334,62 L199.334,129.334 L216.666,149 L253.666,149 L269.334,129.334 L269.334,112.334 L248.666,112.334 L248.666,124.667 L244,129.334 L227.334,129.334 L222.666,124.667 L222.666,69 L227.334,66 L244,66 L248.666,69 L248.666,79.667 L269.334,79.667 L269.334,62 L253.666,45 L216.666,45 L199.334,62 Z M199.334,62" id="Shape" fill="#000000" sketch:type="MSShapeGroup"></path>
            <path d="M193.999,60 L193.999,134.667 L213.65,154 L254.994,154 L274.332,134.667 L274.332,107 L242.666,107 L242.666,123.667 L228.666,123.667 L228.666,69.667 L242.666,69.667 L242.666,84.334 L274.332,84.334 L274.332,60 L254.994,40.359 L213.65,40.344 L193.999,60 Z M193.999,60" id="Shape" stroke="#000000" stroke-width="2" sketch:type="MSShapeGroup"></path>
            <path d="M290.667,62 L290.667,129.334 L307.999,149 L344.999,149 L360.667,129.334 L360.667,112.334 L339.999,112.334 L339.999,124.667 L335.333,129.334 L318.667,129.334 L313.999,124.667 L313.999,69 L318.667,66 L335.333,66 L339.999,69 L339.999,79.667 L360.667,79.667 L360.667,62 L344.999,45 L307.999,45 L290.667,62 Z M290.667,62" id="Shape" fill="#000000" sketch:type="MSShapeGroup"></path>
            <path d="M285.332,60 L285.332,134.667 L304.983,154 L346.327,154 L365.665,134.667 L365.665,107 L333.999,107 L333.999,123.667 L319.999,123.667 L319.999,69.667 L333.999,69.667 L333.999,84.334 L365.665,84.334 L365.665,60 L346.327,40.359 L304.983,40.344 L285.332,60 Z M285.332,60" id="Shape" stroke="#000000" stroke-width="2" sketch:type="MSShapeGroup"></path>
            <path d="M8.333,45 L84.667,45 L84.667,72.667 L65.333,72.667 L65.333,66 L38.667,66 L38.667,86.667 L65.333,86.667 L65.333,106 L38.667,106 L38.667,128.667 L65.333,128.667 L65.333,121 L84.667,121 L84.667,149.334 L8.333,149.334 L8.333,128.667 L15.667,128.667 L15.667,66 L8.333,66 L8.333,45 Z M8.333,45" id="Shape" fill="#000000" sketch:type="MSShapeGroup"></path>
            <path d="M3,69.667 L10.333,69.667 L10.333,123.334 L3,123.334 L3,153.672 L90,153.672 L90,116 L59.333,116 L59.333,123.334 L44.667,123.334 L44.667,110.667 L72,110.667 L72,81.667 L44.667,81.667 L44.667,69.667 L59.333,69.667 L59.333,76.667 L90,76.667 L90,41.016 L3,41.016 L3,69.667 Z M3,69.667" id="Shape" stroke="#000000" stroke-width="2" sketch:type="MSShapeGroup"></path>
            <text id="EASTERN-COLLEGIATE" fill="#000000" sketch:type="MSTextLayer" font-family="Helvetica" font-size="32" font-weight="normal">
                <tspan x="0" y="31.5">EASTERN COLLEGIATE</tspan>
            </text>
        </g>
    </g>
</svg>