<?xml version="1.0" encoding="UTF-8" standalone="no"?>
<svg width="771px" height="504px" viewBox="0 0 771 504" version="1.1" xmlns="http://www.w3.org/2000/svg" xmlns:xlink="http://www.w3.org/1999/xlink" xmlns:sketch="http://www.bohemiancoding.com/sketch/ns">
    <title>Slice 1</title>
    <description>Created with Sketch (http://www.bohemiancoding.com/sketch)</description>
    <defs></defs>
    <g id="Page-1" stroke="none" stroke-width="1" fill="none" fill-rule="evenodd" sketch:type="MSPage">
        <g id="ivy-logo" sketch:type="MSLayerGroup" fill="#146634">
            <g id="Page-1" sketch:type="MSShapeGroup">
                <path d="M128.999,214.479 C122.095,219.099 113.866,223.211 109.413,231.774 C107.114,236.196 108.05,240.391 109.337,245.182 C110.82,250.701 110.566,256.902 110.013,262.706 C109.013,273.205 106.573,283.598 106.074,294.099 C105.846,298.88 108.304,304.054 110.468,308.611 C112.65,313.208 114.066,317.435 113.978,322.778 C113.854,330.309 115.562,337.872 116.664,346.861 C122.816,342.475 125.584,337.249 128.426,332.186 C128.714,331.673 127.244,329.719 126.201,328.989 C116.94,322.496 114.454,314.038 119.272,303.801 C122.804,296.296 126.606,288.916 130.42,281.55 C132.343,277.835 134.915,279.34 136.801,281.458 C139.227,284.183 141.356,287.208 143.336,290.282 C145.343,293.397 147.767,294.051 151.389,293.401 C160.392,291.789 169.448,290.311 178.546,289.446 C185.165,288.816 187.459,291.034 186.402,297.587 C185.414,303.716 182.856,309.596 180.926,315.565 C180.572,316.664 179.984,317.705 179.389,318.705 C176.321,323.861 174.788,328.788 179.637,334.017 C181.473,335.997 182.583,338.897 183.343,341.572 C184.483,345.588 182.392,348.008 178.399,347.189 C170.983,345.67 164.169,347.471 157.463,350.211 C143.985,355.719 139.265,354.642 130.092,343.605 C120.401,353.441 114.826,364.465 119.29,378.578 C121.635,385.993 120.375,392.951 117.628,400.006 C114.5,408.037 111.459,416.149 109.18,424.445 C107.938,428.966 108.353,433.943 109.134,439.197 C110.323,437.049 111.622,434.952 112.682,432.741 C115.504,426.853 119.338,422.116 125.554,419.382 C127.284,418.621 128.744,416.521 129.633,414.695 C133.837,406.066 139.698,399.975 149.955,399.059 C151.576,398.914 153.512,396.394 154.36,394.541 C158.025,386.536 163.376,380.124 171.19,376.051 C180.407,371.246 187.715,373.243 193.723,381.826 C198.861,389.165 203.623,396.842 211.348,401.899 C213.283,403.166 215.332,404.257 217.311,405.461 C220.879,407.631 221.364,410.203 218.375,413.139 C214.943,416.51 211.052,419.419 207.697,422.858 C206.24,424.351 204.712,426.695 204.778,428.599 C205.151,439.388 205.798,450.18 206.764,460.933 C207.268,466.536 205.474,468.794 200.092,466.811 C192.782,464.117 185.613,460.908 178.699,457.314 C171.775,453.714 169.838,453.629 164.258,459.173 C161.067,462.344 158.11,465.782 154.68,468.662 C153.482,469.668 151.185,469.364 149.389,469.658 C149.165,468.176 148.5,466.598 148.794,465.227 C150.139,458.962 149.155,453.418 144.923,448.412 C139.876,442.441 135.174,436.175 130.019,430.303 C129.125,429.285 125.982,428.731 125.153,429.445 C122.457,431.765 119.579,434.424 118.157,437.577 C112.619,449.856 107.471,462.319 102.468,474.829 C99.697,481.757 99.197,488.555 104.22,495.187 C105.605,497.016 104.68,500.593 104.815,503.368 C102.462,503.457 100.064,503.84 97.778,503.487 C96.881,503.349 95.816,501.668 95.541,500.518 C92.63,488.349 91.546,476.301 98.198,464.795 C103.473,455.671 100.753,445.782 100.003,436.352 C98.869,422.105 96.42,407.96 94.468,393.781 C94.229,392.044 93.614,390.359 92.883,387.525 C91.662,389.597 90.936,390.607 90.434,391.717 C85.877,401.804 78.424,408.285 67.451,410.615 C62.474,411.673 58.069,413.517 55.335,418.485 C53.383,422.031 50.235,421.738 48.689,417.876 C46.718,412.955 45.392,407.766 43.946,402.647 C42.334,396.938 41.301,396.181 35.482,397.034 C25.879,398.44 16.526,397.289 7.466,393.978 C1.68,391.865 0.174,387.386 4.01,382.71 C10.43,374.881 17.129,367.264 24.036,359.862 C26.142,357.605 25.482,356.586 24.071,354.508 C20.283,348.927 16.691,343.192 13.432,337.291 C12.647,335.87 12.734,332.847 13.721,331.853 C14.941,330.626 17.948,329.785 19.439,330.448 C29.472,334.907 38.195,331.237 47.164,327.111 C51.719,325.015 56.893,322.638 61.64,322.915 C72.878,323.569 81.202,335.902 79.042,347.106 C78.322,350.843 75.799,355.224 77.015,358.062 C78.218,360.869 83.111,362.082 86.367,364.024 C92.669,367.785 97.014,373.003 98.516,380.35 C100.513,390.112 102.538,399.867 105.135,409.794 C108.305,401.251 114.968,393.899 113.456,383.819 C112.173,375.273 109.616,366.743 109.678,358.22 C109.738,350.113 109.081,342.47 106.988,334.661 C105.771,330.118 106.479,325.068 106.242,320.25 C106.169,318.774 106.366,316.823 105.536,315.921 C100.366,310.305 100.369,303.112 99.188,296.299 C97.635,287.332 93.449,283.367 83.437,282.156 C83.179,283.314 82.611,284.544 82.687,285.733 C83.539,299.221 68.425,305.734 58.799,301.172 C52.489,298.182 46.568,294.238 40.062,291.833 C34.234,289.678 27.852,289.007 21.701,287.748 C14.692,286.313 14.342,284.436 18.381,278.55 C22.307,272.83 25.434,266.519 28.451,260.244 C29.362,258.349 29.269,255.579 28.717,253.447 C27.006,246.843 24.757,240.38 22.937,233.801 C22.461,232.079 22.784,230.137 22.741,228.295 C24.79,228.263 26.916,227.861 28.875,228.266 C34.888,229.506 40.873,230.926 46.801,232.524 C51.329,233.745 53.718,231.457 55.51,227.873 C56.997,224.896 58.153,221.721 59.915,218.923 C62.725,214.461 67.324,213.645 70.169,217.867 C77.836,229.245 91.312,233.372 101.008,244.399 C101.176,241.295 101.241,239.464 101.385,237.64 C101.529,235.817 101.576,233.96 101.972,232.187 C104.589,220.466 106.021,209.231 100.002,197.568 C96.294,190.382 95.657,181.613 93.458,172.82 C89.965,186.548 80.895,193.957 68.831,197.739 C61.497,200.039 54.877,202.5 50.411,209.364 C47.982,213.098 43.777,212.105 42.154,207.532 C40.772,203.639 39.981,199.491 39.344,195.392 C38.801,191.901 37.57,190.919 33.76,191.107 C25.989,191.492 18.152,191.11 10.378,190.547 C7.884,190.366 5.305,188.931 3.118,187.523 C0.201,185.646 -0.564,182.81 1.524,179.751 C7.334,171.238 13.314,162.838 18.963,154.221 C19.922,152.757 20.357,150.095 19.686,148.585 C18.016,144.829 15.397,141.507 13.505,137.833 C12.598,136.072 11.687,133.635 12.249,132.014 C12.687,130.748 15.464,129.439 17.083,129.574 C27.815,130.466 36.598,125.414 43.791,118.954 C54.614,109.232 68.449,113.379 74.166,127.438 C76.016,131.989 76.272,137.165 77.603,141.959 C78.323,144.551 79.213,147.487 81.002,149.312 C85.056,153.443 90.169,156.58 93.98,160.891 C96.898,164.192 99.211,168.45 100.509,172.676 C103.267,181.656 105.188,190.894 108.451,199.962 C110.806,192.78 113.963,186.158 112.945,178.393 C112.225,172.907 113.044,167.236 112.766,161.667 C112.523,156.781 112.718,151.512 110.932,147.142 C107.617,139.026 107.683,131.509 112.135,124.205 C116.727,116.669 116.474,109.542 113.138,101.443 C109.043,91.502 104.66,81.932 97.579,73.731 C96.307,72.257 95.68,70.227 94.754,68.455 C94.037,68.995 93.319,69.535 92.602,70.075 C92.289,71.095 91.779,72.098 91.693,73.137 C90.979,81.802 85.529,87.481 78.942,91.882 C73.603,95.449 68.052,93.387 63.06,90.033 C58.374,86.885 54,82.994 48.895,80.828 C44.148,78.813 38.65,78.397 33.425,77.731 C28.629,77.12 26.781,74.335 29.355,70.357 C31.42,67.165 33.615,63.953 36.28,61.275 C40.801,56.732 42.111,51.868 39.637,45.874 C36.653,38.639 33.759,31.36 31.094,24.004 C30.365,21.992 29.768,18.156 30.548,17.72 C32.608,16.565 35.476,16.435 37.985,16.574 C44.759,16.95 51.514,17.677 58.276,18.266 C61.536,18.549 63.521,17.173 64.756,14.054 C66.099,10.664 67.917,7.458 69.581,4.2 C71.898,-0.339 75.962,-0.96 78.22,3.494 C82.587,12.105 90.2,16.604 97.969,21.216 C111.012,28.96 115.019,41.189 108.83,54.867 C107.796,57.152 105.65,59.271 103.493,60.637 C99.599,63.103 100.005,65.15 102.466,68.57 C107.423,75.46 112.091,82.594 116.344,89.937 C118.704,94.011 119.986,98.709 122,103.741 C126.221,100.602 128.769,96.853 129.289,91.84 C129.459,90.197 129.495,88.453 129.136,86.858 C126.303,74.254 135.468,65.781 144.813,63.196 C148.52,62.17 149.888,60.746 149.375,56.695 C148.458,49.453 149.916,42.542 153.334,35.933 C157.076,28.701 165.092,25.932 172.226,30.004 C173.806,30.906 175.506,31.883 176.629,33.252 C183.165,41.22 191.875,43.759 201.757,44.575 C212.709,45.48 214.092,49.079 207.843,58.088 C206.039,60.689 204.644,63.649 202.514,65.933 C198.299,70.454 199.269,74.99 201.924,79.555 C205.271,85.309 209.016,90.834 212.279,96.633 C213.414,98.65 214.696,101.652 213.954,103.351 C213.233,105.003 210.106,106.097 207.865,106.507 C199.208,108.091 190.476,109.259 181.787,110.673 C177.517,111.368 176.574,114.926 175.724,118.352 C174.601,122.875 173.887,127.513 172.527,131.957 C172.021,133.612 170.189,134.861 168.962,136.296 C167.61,135.062 165.713,134.081 164.998,132.55 C161.035,124.063 155.507,117.726 146.309,114.225 C141.421,112.365 137.505,107.952 132.71,104.361 C132.167,104.939 131.101,105.724 130.491,106.775 C126.224,114.127 122.064,121.541 117.843,128.92 C115.215,133.514 115.259,137.079 117.952,142.512 C120.888,148.433 119.876,156.372 120.312,163.449 C120.613,168.332 120.67,173.256 120.424,178.14 C120.225,182.079 119.595,186.025 118.83,189.904 C117.236,197.983 115.426,206.019 113.424,215.386 C119.652,211.569 124.787,208.837 129.385,205.39 C131.142,204.073 131.909,201.198 132.715,198.889 C136.515,188 144.32,182.982 155.433,185.292 C160.645,186.376 161.228,182.809 161.878,179.87 C163.944,170.526 176.683,164.868 184.653,168.6 C187.938,170.138 191.071,172.739 193.299,175.611 C196.123,179.253 197.638,183.884 200.296,187.684 C203.496,192.258 207.239,196.461 210.877,200.714 C212.6,202.73 214.727,204.397 216.486,206.384 C219.627,209.934 218.415,214.067 213.87,215.701 C203.7,219.359 201.733,222.024 201.604,232.917 C201.511,240.748 201.687,248.582 201.612,256.413 C201.554,262.375 198.501,264.067 193.172,261.371 C186.356,257.924 179.524,254.504 172.635,251.205 C165.622,247.848 162.211,248.811 156.943,254.462 C154.845,256.711 151.925,258.194 149.38,260.025 C148.698,257.003 147.571,254.001 147.425,250.953 C147.107,244.312 144.268,238.863 140.698,233.501 C136.774,227.613 133.26,221.454 128.999,214.479 C128.999,214.479 133.26,221.454 128.999,214.479 L128.999,214.479 L128.999,214.479 L128.999,214.479 L128.999,214.479 Z M46.637,197.246 C52.581,194.943 57.712,193.457 62.353,191.033 C68.494,187.827 74.863,184.587 80.02,180.086 C86.562,174.375 85.378,165.126 78.551,159.678 C75.562,157.293 72.388,155.063 69.786,152.302 C68.494,150.931 67.221,148.066 67.81,146.662 C69.862,141.777 68.244,137.498 66.725,133.122 C63.334,123.355 56.628,121.525 48.101,127.456 C43.5,130.655 38.532,133.495 33.391,135.713 C23.21,140.106 22.999,140.117 29.228,149.613 C31.147,152.539 31.184,154.987 28.843,157.724 C23.788,163.636 18.892,169.685 13.974,175.712 C10.708,179.716 11.316,181.866 16.356,182.138 C23.276,182.51 30.272,182.448 37.177,181.875 C43.653,181.339 45.035,182.189 45.485,188.868 C45.68,191.76 46.266,194.624 46.637,197.246 C46.637,197.246 46.266,194.624 46.637,197.246 L46.637,197.246 L46.637,197.246 L46.637,197.246 L46.637,197.246 Z M202.159,53.575 C199.255,53.075 198.16,52.768 197.053,52.716 C188.484,52.305 180.681,50.023 174.353,43.838 C173.058,42.572 171.571,41.405 169.978,40.557 C165.89,38.377 161.038,39.261 159.518,42.826 C156.572,49.73 153.756,56.705 157.827,64.348 C159.872,68.189 158.231,69.945 153.761,70.159 C150.867,70.298 147.806,70.765 145.184,71.917 C139.953,74.212 137.359,78.647 137.713,84.346 C138.204,92.275 139.295,100.165 147.08,104.697 C153.968,108.706 161.042,112.395 168.154,116.292 C168.16,116.275 168.772,115.242 168.894,114.153 C169.877,105.411 174.865,101.564 183.496,100.964 C189.534,100.544 195.49,98.953 201.827,97.824 C198.005,89.72 194.531,82.049 190.768,74.519 C189.101,71.185 189.527,68.755 192.058,66.029 C195.386,62.443 198.26,58.435 202.159,53.575 C202.159,53.575 198.26,58.435 202.159,53.575 L202.159,53.575 L202.159,53.575 L202.159,53.575 L202.159,53.575 Z M157.108,452.609 C159.395,451.104 160.558,450.499 161.534,449.671 C170.981,441.667 171.13,441.658 181.828,448.302 C183.523,449.354 185.264,450.381 187.098,451.149 C190.017,452.371 193.032,453.364 197.494,454.999 C196.15,444.187 195.669,434.861 193.658,425.879 C192.077,418.821 191.268,419.108 198.142,416.936 C202.151,415.669 206.651,414.949 208.588,410.342 C204.94,407.423 201.217,404.909 198.079,401.805 C194.781,398.543 192.035,394.723 189.063,391.133 C187.469,389.208 186.207,386.838 184.246,385.439 C182.41,384.128 179.731,382.963 177.629,383.25 C170.673,384.195 162.32,393.55 161.48,400.571 C160.697,407.112 158.979,408.357 152.34,407.5 C150.421,407.252 148.154,406.798 146.544,407.53 C137.096,411.827 134.95,422.169 141.797,429.954 C147.688,436.651 155.234,442.096 157.108,452.609 C157.108,452.609 155.234,442.096 157.108,452.609 L157.108,452.609 L157.108,452.609 L157.108,452.609 L157.108,452.609 Z M52.165,405.18 C56.837,403.951 61.003,402.921 65.13,401.758 C75.549,398.82 81.687,391.865 84.414,381.493 C85.669,376.717 84.226,373.205 80.214,370.86 C77.219,369.109 73.928,367.828 70.687,366.544 C66.898,365.043 65.677,363.077 67.409,358.863 C69.152,354.624 70.196,349.973 70.768,345.406 C71.758,337.502 63.846,330.658 56.774,333.151 C46.811,336.663 36.956,340.479 26.435,344.396 C28.354,346.921 30.351,350.132 32.915,352.796 C37.801,357.87 37.47,359.775 32.515,364.472 C25.925,370.719 19.975,377.645 13.802,384.326 C13.437,384.721 13.525,385.534 13.328,386.525 C14.894,386.973 16.28,387.68 17.685,387.721 C24.822,387.931 31.965,388.102 39.103,388.027 C45.445,387.96 47.463,389.252 49.212,395.242 C50.132,398.395 51.081,401.537 52.165,405.18 C52.165,405.18 51.081,401.537 52.165,405.18 L52.165,405.18 L52.165,405.18 L52.165,405.18 L52.165,405.18 Z M157.312,243.197 C157.312,243.197 158.387,243.067 159.09,242.486 C164.113,238.338 168.92,239.267 174.311,242.14 C180.403,245.386 186.953,247.774 193.838,250.768 C193.838,245.459 193.851,240.869 193.836,236.279 C193.803,226.276 192.836,215.909 204.218,210.481 C204.538,210.328 204.593,209.621 204.772,209.171 C204.392,209.365 204.011,209.56 203.631,209.755 C198.806,201.694 193.745,193.765 189.241,185.528 C186.331,180.207 182.652,177.246 177.661,177.732 C173.184,178.169 168.543,182.958 167.555,188.161 C166.065,196.003 164.015,196.876 156.116,194.649 C153.443,193.895 149.598,194.223 147.326,195.677 C139.36,200.778 137.181,211.378 142.112,219.488 C146.901,227.367 152.052,235.025 157.312,243.197 C157.312,243.197 152.052,235.025 157.312,243.197 L157.312,243.197 L157.312,243.197 L157.312,243.197 L157.312,243.197 Z M40.781,26.639 C43.449,34.632 45.335,41.531 48.073,48.074 C50.112,52.947 49.15,56.72 46.091,60.497 C44.272,62.743 42.554,65.071 40.389,67.885 C43.214,69.098 45.208,69.838 47.097,70.788 C51.651,73.08 56.532,74.954 60.611,77.919 C73.29,87.133 80.031,85.06 83.107,69.543 C84.496,62.535 85.772,57.447 94.073,55.843 C102.019,54.309 104.884,37.808 97.495,32.951 C90.436,28.311 83.652,23.195 77.117,17.838 C72.402,13.973 72.082,13.796 69.943,19.754 C67.465,26.657 66.338,27.573 59.091,27.459 C53.331,27.367 47.575,26.956 40.781,26.639 C40.781,26.639 47.575,26.956 40.781,26.639 L40.781,26.639 L40.781,26.639 L40.781,26.639 L40.781,26.639 Z M33.935,239.601 C34.384,241.471 34.431,242.322 34.78,243.02 C39.814,253.086 39.025,262.515 32.135,271.541 C30.653,273.483 30.082,276.121 29.149,278.306 C33.813,279.867 37.695,280.872 41.332,282.446 C47.747,285.222 53.948,288.493 60.356,291.286 C68.952,295.031 75.579,290.413 75.12,281.102 C74.99,278.451 74.713,275.758 74.08,273.189 C73.002,268.814 75.162,266.755 78.814,265.191 C82.151,263.762 85.573,262.297 88.513,260.219 C95.095,255.57 95.044,249.645 88.596,244.802 C82.338,240.101 75.767,235.794 69.716,230.848 C64.02,226.191 63.81,226.038 61.142,233.167 C60.734,234.257 60.348,235.366 59.816,236.397 C57.026,241.806 54.984,242.608 48.943,241.533 C44.265,240.699 39.507,240.3 33.935,239.601 C33.935,239.601 39.507,240.3 33.935,239.601 L33.935,239.601 L33.935,239.601 L33.935,239.601 L33.935,239.601 Z M171.193,335.781 C170.822,335.096 170.477,333.897 169.705,333.124 C165.184,328.595 166.08,324.28 169.257,319.274 C172.082,314.823 174.12,309.822 176.102,304.901 C178.158,299.799 177.116,298.152 171.869,298.793 C164.319,299.715 156.768,300.996 149.393,302.828 C145.696,303.746 143.448,303.472 141.514,300.094 C140.097,297.62 138.163,295.443 136.027,292.545 C134.278,295.431 133.173,297.436 131.891,299.32 C130.583,301.242 129.063,303.018 127.702,304.905 C123.075,311.321 123.187,316.29 129.657,320.861 C135.522,325.006 138.023,329.898 137.617,336.81 C137.376,340.922 139.978,342.997 143.72,343.232 C146.3,343.394 149.041,343.04 151.523,342.294 C157.972,340.361 164.317,338.085 171.193,335.781 C171.193,335.781 164.317,338.085 171.193,335.781 L171.193,335.781 L171.193,335.781 L171.193,335.781 L171.193,335.781 Z M85.729,273.099 C90.606,275.465 94.33,277.272 99.243,279.656 C100.299,269.672 105.374,261.308 103.327,250.626 C100.884,260.92 95.16,267.426 85.729,273.099 C85.729,273.099 95.16,267.426 85.729,273.099 L85.729,273.099 L85.729,273.099 L85.729,273.099 L85.729,273.099 Z M85.729,273.099" id="Shape"></path>
                <path d="M453.912,295.203 C457.037,286.832 460.189,278.472 463.283,270.09 C475.855,236.028 488.438,201.969 500.939,167.881 C502.714,163.039 504.024,158.029 505.623,153.121 C507.11,148.555 505.322,145.36 501.06,144.121 C495.978,142.642 490.674,141.926 485.466,140.88 C481.019,139.987 480.052,137.57 480.399,130.267 C480.615,125.71 483.376,125.331 486.836,125.385 C507.641,125.705 528.445,126.072 549.252,126.237 C553.223,126.268 554.713,127.871 554.45,131.622 C554.334,133.281 554.37,134.951 554.268,136.612 C554.079,139.726 552.658,141.664 549.274,141.487 C539.51,140.977 534.171,145.896 530.731,154.826 C515.703,193.836 500.237,232.678 484.996,271.605 C474.854,297.506 464.756,323.425 454.808,349.402 C453.069,353.944 450.537,356.286 445.525,355.696 C443.223,355.425 440.865,355.657 438.533,355.619 C425.665,355.407 428.297,357.184 423.629,345.433 C407.335,304.412 391.426,263.239 375.354,222.129 C367.653,202.43 359.875,182.762 352.209,163.049 C347.449,150.806 338.154,144.018 325.85,140.788 C320.875,139.482 317.794,129.785 321.386,125.949 C322.21,125.069 324.066,124.812 325.436,124.837 C349.733,125.266 374.028,125.871 398.326,126.218 C404.803,126.311 411.291,125.699 417.77,125.35 C421.074,125.171 422.494,126.523 422.783,129.94 C423.641,140.058 422.987,140.933 412.627,141.455 C398.438,142.171 396.306,144.405 400.536,157.808 C404.838,171.439 410.505,184.638 415.56,198.031 C426.855,227.948 438.132,257.871 449.451,287.779 C450.386,290.25 451.572,292.624 452.642,295.043 C453.065,295.095 453.488,295.148 453.912,295.203 C453.912,295.203 453.488,295.148 453.912,295.203 L453.912,295.203 L453.912,295.203 L453.912,295.203 L453.912,295.203 Z M453.912,295.203" id="Shape"></path>
                <path d="M684.712,233.987 C687.753,228.931 690.342,224.945 692.62,220.789 C708.632,191.589 724.628,162.38 740.484,133.095 C742.318,129.707 744.63,128.179 748.386,128.302 C752.547,128.439 756.715,128.325 760.88,128.364 C767.613,128.425 769.777,131.948 766.399,137.934 C763.539,143.003 760.071,147.726 757.042,152.705 C740.77,179.454 724.418,206.157 708.407,233.063 C704.423,239.758 701.345,247.042 698.367,254.267 C697.075,257.401 696.61,261.069 696.588,264.499 C696.459,284.491 696.548,304.484 696.636,324.477 C696.647,326.79 697.009,329.119 697.38,331.412 C698.371,337.539 700.761,340.097 706.911,341.163 C710.505,341.786 714.176,342.006 717.822,342.267 C722.273,342.584 723.744,344.956 723.422,351.312 C723.211,355.482 721.598,357.674 716.949,357.511 C696.66,356.797 676.367,356.142 656.069,355.795 C647.427,355.648 638.771,356.279 630.124,356.621 C626.717,356.756 623.915,356.143 624.321,351.892 C624.691,348.014 622.176,342.56 629.133,341.862 C632.276,341.546 635.451,341.573 638.601,341.311 C645.081,340.771 648.666,337.65 649.811,331.264 C650.307,328.498 650.388,325.632 650.395,322.811 C650.427,309.483 649.646,296.106 650.527,282.838 C651.628,266.251 646.763,251.743 638.509,237.801 C627.31,218.884 616.856,199.513 605.245,180.859 C599.4,171.467 592.245,162.715 584.609,154.696 C581.144,151.056 575.249,149.263 570.121,147.84 C566.667,146.88 564.593,145.851 564.553,142.253 C564.509,138.313 563.758,133.804 569.119,132.501 C577.858,130.378 586.647,128.462 595.42,126.482 C598.994,125.675 602.788,125.43 606.122,124.056 C614.535,120.589 621.198,123.979 626.104,129.943 C633.671,139.142 641.332,148.59 646.928,159.019 C659.053,181.61 669.89,204.892 681.275,227.88 C682.125,229.596 683.149,231.224 684.712,233.987 C684.712,233.987 683.149,231.224 684.712,233.987 L684.712,233.987 L684.712,233.987 L684.712,233.987 L684.712,233.987 Z M684.712,233.987" id="Shape"></path>
                <path d="M293.474,354.663 C273.829,354.663 254.184,354.582 234.54,354.705 C227.39,354.75 220.237,355.18 213.098,355.625 C208.71,355.898 206.976,353.962 207.286,349.74 C207.408,348.082 206.799,346.113 207.502,344.818 C208.436,343.097 210.118,341.136 211.859,340.653 C214.502,339.92 217.482,340.496 220.303,340.292 C228.457,339.701 232.764,335.464 233.263,327.273 C233.728,319.632 234.123,311.975 234.143,304.324 C234.235,269.833 234.178,235.342 234.186,200.85 C234.189,188.715 234.263,176.58 234.218,164.447 C234.207,161.462 234.083,158.44 233.618,155.498 C231.656,143.074 228.209,140.223 215.477,139.634 C213.003,139.519 208.613,138.788 208.467,137.828 C207.888,134.033 208.453,130.003 209.08,126.139 C209.194,125.435 211.585,124.653 212.921,124.66 C241.367,124.826 269.812,125.121 298.257,125.338 C306.001,125.397 309.312,130.813 305.434,137.714 C304.711,139 302.581,139.951 300.973,140.189 C297.697,140.671 294.322,140.433 291.008,140.725 C284.564,141.292 281.336,144.172 280.272,150.452 C279.774,153.39 279.555,156.408 279.553,159.39 C279.511,214.043 279.513,268.696 279.529,323.349 C279.532,336.495 283.34,340.276 296.507,340.384 C305.16,340.455 307.82,343.987 305.359,352.612 C305.019,353.801 303.234,355.18 301.952,355.375 C299.184,355.796 296.308,355.505 293.476,355.505 C293.476,355.224 293.475,354.943 293.474,354.663 C293.474,354.663 293.475,354.943 293.474,354.663 L293.474,354.663 L293.474,354.663 L293.474,354.663 L293.474,354.663 Z M293.474,354.663" id="Shape"></path>
                <path d="M562.003,448.431 C567.502,448.431 573.004,448.318 578.495,448.515 C579.775,448.561 581.692,449.383 582.091,450.352 C582.495,451.337 581.793,453.579 580.871,454.17 C576.776,456.798 576.968,460.948 576.734,464.847 C576.457,469.496 576.915,474.198 576.498,478.826 C576.337,480.61 575.034,483.25 573.592,483.816 C554.716,491.216 535.454,494.488 515.585,487.822 C496.319,481.359 485.888,467.522 483.515,447.759 C481.213,428.59 486.406,411.927 501.37,398.718 C507.843,393.006 515.437,390.633 523.458,388.992 C539.618,385.686 555.229,388.101 570.506,393.832 C574.156,395.201 576.022,397.467 575.535,401.356 C574.915,406.305 574.301,411.265 573.35,416.155 C573.125,417.31 571.452,419.116 570.647,419.014 C569.335,418.848 568.146,417.41 567.001,416.4 C566.689,416.127 566.73,415.463 566.592,414.984 C565.613,411.588 565.682,406.615 563.435,405.117 C558.339,401.719 552.284,398.667 546.3,397.877 C514.708,393.706 503.251,419.048 505.166,440.325 C506.096,450.655 508.039,460.385 514.145,468.974 C522.707,481.019 539.495,485.771 552.867,479.592 C554.402,478.883 555.936,476.543 556.107,474.823 C556.549,470.37 556.159,465.84 556.235,461.343 C556.3,457.529 554.223,455.938 550.743,455.652 C549.084,455.516 547.151,455.96 545.823,455.246 C544.24,454.394 543.173,452.584 541.883,451.189 C543.429,450.126 544.914,448.269 546.534,448.144 C551.663,447.748 556.843,447.998 562.003,447.998 L562.003,448.431 C562.003,448.431 562.003,448.286 562.003,448.431 L562.003,448.431 L562.003,448.431 L562.003,448.431 L562.003,448.431 Z M562.003,448.431" id="Shape"></path>
                <path d="M602.264,434.181 C602.261,424.517 602.14,414.851 602.315,405.191 C602.398,400.629 600.804,397.864 596.091,397.188 C593.522,396.82 590.526,396.044 591.702,392.724 C592.234,391.222 595.06,389.626 596.848,389.624 C607.995,389.612 619.148,389.947 630.286,390.44 C631.665,390.501 632.972,392.18 634.311,393.109 C633.202,394.52 632.138,397.104 630.975,397.15 C623.881,397.428 623.333,401.807 623.39,407.378 C623.567,424.841 623.279,442.309 623.552,459.769 C623.708,469.728 628.288,475.395 637.998,477.385 C642.943,478.399 648.332,478.535 653.322,477.774 C663.433,476.231 669.655,468.893 670.043,457.124 C670.635,439.171 670.272,421.187 670.328,403.217 C670.34,399.396 668.126,397.905 664.656,397.701 C662.014,397.545 659.381,397.219 659.607,393.681 C659.836,390.094 662.677,390.31 665.196,390.311 C672.194,390.312 679.203,390.148 686.182,390.526 C687.985,390.625 690.757,392.139 691.219,393.596 C692.134,396.478 689.628,397.501 687.011,397.682 C682.217,398.013 680.577,400.75 680.524,405.355 C680.314,423.17 679.891,440.984 679.555,458.798 C679.308,471.886 673.753,481.892 662.144,488.173 C649.095,495.233 622.29,492.41 611.302,482.561 C605.682,477.523 602.358,470.957 602.286,463.173 C602.198,453.51 602.267,443.845 602.264,434.181 C602.264,434.181 602.267,443.845 602.264,434.181 L602.264,434.181 L602.264,434.181 L602.264,434.181 L602.264,434.181 Z M602.264,434.181" id="Shape"></path>
                <path d="M336.715,488.679 C327.382,488.679 318.048,488.786 308.719,488.591 C306.79,488.55 304.886,487.382 302.969,486.734 C304.035,485.028 305.22,483.382 306.14,481.6 C307.579,478.812 309.987,475.932 309.992,473.087 C310.036,449.936 309.53,426.783 309.412,403.631 C309.388,398.919 307.488,396.693 303.024,395.652 C301.442,395.283 300.244,393.272 298.871,392.01 C300.601,390.813 302.316,388.615 304.063,388.59 C311.709,388.478 319.361,389.156 327.015,389.245 C339.68,389.392 352.348,389.403 365.012,389.264 C369.106,389.218 370.919,390.769 370.536,394.855 C370.148,398.998 370.093,403.203 369.275,407.255 C368.989,408.67 366.863,409.714 365.578,410.928 C364.49,409.718 362.677,408.637 362.433,407.276 C360.908,398.732 361.024,398.686 352.243,398.59 C346.911,398.532 341.575,398.662 336.246,398.527 C332.948,398.443 331.045,399.918 330.964,403.098 C330.743,411.755 330.629,420.419 330.784,429.076 C330.804,430.158 332.651,432.072 333.726,432.127 C339.375,432.413 345.062,432.427 350.704,432.048 C351.99,431.962 353.481,430.141 354.267,428.769 C355.059,427.388 354.801,425.419 355.549,423.995 C356.13,422.888 357.658,421.433 358.567,421.56 C359.637,421.708 361.288,423.375 361.316,424.42 C361.542,433.075 361.545,441.742 361.326,450.398 C361.301,451.398 359.426,453.206 358.547,453.126 C357.285,453.011 355.531,451.749 355.06,450.553 C351.496,441.52 351.577,441.437 341.67,441.513 C329.191,441.61 330.637,440.287 330.524,452.906 C330.464,459.571 330.678,466.24 330.566,472.903 C330.504,476.636 331.857,478.534 335.782,478.387 C342.932,478.12 350.09,478.031 357.241,477.758 C361.654,477.591 363.628,474.971 364.22,470.75 C364.682,467.458 364.342,462.456 369.177,463.051 C373.553,463.59 371.352,468.269 371.436,471.076 C371.565,475.379 370.788,479.701 370.696,484.021 C370.623,487.5 368.979,488.678 365.713,488.653 C356.047,488.575 346.381,488.625 336.715,488.625 C336.714,488.643 336.715,488.66 336.715,488.679 C336.715,488.679 336.715,488.66 336.715,488.679 L336.715,488.679 L336.715,488.679 L336.715,488.679 L336.715,488.679 Z M336.715,488.679" id="Shape"></path>
                <path d="M425.204,458.692 C422.04,458.685 418.849,458.952 415.719,458.624 C410.685,458.098 407.871,460.038 406.876,465.037 C406.327,467.799 405.405,470.51 404.417,473.156 C402.809,477.46 403.662,480.303 408.568,481.187 C409.539,481.363 410.772,481.507 411.342,482.148 C412.234,483.149 413.177,484.586 413.12,485.792 C413.078,486.698 411.516,488.262 410.6,488.284 C401.787,488.497 392.963,488.536 384.149,488.339 C383.203,488.318 381.541,486.471 381.56,485.497 C381.585,484.191 382.714,482.006 383.737,481.766 C390.236,480.24 392.431,475.34 394.488,469.8 C403.986,444.209 413.734,418.711 423.285,393.141 C424.616,389.579 427.019,388.413 430.532,388.295 C434.386,388.165 436.682,389.748 438.095,393.395 C445.913,413.576 453.853,433.709 461.79,453.844 C464.782,461.432 467.955,468.949 470.884,476.562 C472.017,479.504 473.762,480.969 476.946,481.662 C478.657,482.034 479.944,484.35 481.423,485.789 C479.747,486.741 478.108,488.44 476.39,488.523 C465.759,489.038 455.111,489.237 444.466,489.427 C441.875,489.474 438.769,489.847 438.392,485.967 C438.035,482.287 440.598,481.574 443.479,481.293 C447.297,480.92 448.253,478.633 447.174,475.335 C445.675,470.754 444.269,466.098 442.202,461.771 C441.493,460.288 438.989,459.038 437.176,458.835 C433.23,458.396 429.2,458.7 425.204,458.692 C425.204,458.692 429.2,458.7 425.204,458.692 L425.204,458.692 L425.204,458.692 L425.204,458.692 L425.204,458.692 Z M412.821,449.347 C420.487,449.347 426.413,449.535 432.307,449.195 C433.548,449.123 435.891,446.699 435.672,446.047 C432.588,436.85 429.149,427.772 425.796,418.664 C425.301,418.643 424.807,418.622 424.311,418.601 C420.658,428.378 417.004,438.155 412.821,449.347 C412.821,449.347 417.004,438.155 412.821,449.347 L412.821,449.347 L412.821,449.347 L412.821,449.347 L412.821,449.347 Z M412.821,449.347" id="Shape"></path>
                <path d="M734.347,390.402 C744.505,390.4 754.664,390.523 764.82,390.341 C769.147,390.264 770.988,391.832 770.472,396.223 C770.006,400.183 770.112,404.239 769.321,408.12 C768.985,409.766 767.001,411.075 765.765,412.538 C764.601,411.063 762.648,409.706 762.41,408.096 C761.379,401.134 761.417,400.915 754.562,400.549 C748.255,400.212 741.944,399.954 735.632,399.727 C732.112,399.601 730.507,401.341 730.544,404.915 C730.628,412.907 730.635,420.901 730.524,428.893 C730.471,432.717 732.189,434.378 735.934,434.315 C740.262,434.241 744.592,434.244 748.92,434.294 C752.387,434.334 754.158,432.675 754.43,429.249 C754.508,428.262 754.518,427.051 755.078,426.369 C756.015,425.227 757.409,423.655 758.534,423.715 C759.561,423.77 761.292,425.724 761.327,426.883 C761.572,435.033 761.57,443.197 761.346,451.349 C761.311,452.608 759.732,453.824 758.867,455.059 C757.423,453.945 755.155,453.11 754.669,451.671 C751.645,442.73 751.776,442.605 741.992,442.695 C728.921,442.816 730.687,441.204 730.491,454.145 C730.388,460.965 730.582,467.791 730.446,474.61 C730.369,478.533 731.749,480.506 735.942,480.353 C742.593,480.11 749.254,480.147 755.91,480.018 C761.109,479.916 763.705,477.228 764.173,472.03 C764.424,469.234 763.982,465.323 768.091,465.287 C768.899,465.28 770.243,469.814 770.465,472.331 C770.857,476.793 770.537,481.313 770.592,485.81 C770.632,489.086 769.278,490.668 765.824,490.656 C746.176,490.582 726.526,490.647 706.879,490.52 C705.463,490.511 704.055,489.349 702.644,488.723 C703.388,487.225 704.072,485.694 704.889,484.238 C706.339,481.653 709.033,479.174 709.17,476.545 C709.873,463.1 709.999,449.621 710.18,436.151 C710.307,426.662 710.264,417.168 710.173,407.677 C710.108,400.834 708.792,399.512 702.45,397.416 C700.833,396.881 699.749,394.729 698.421,393.32 C700.072,392.348 701.703,390.578 703.378,390.536 C713.695,390.275 724.022,390.404 734.347,390.402 C734.347,390.402 724.022,390.404 734.347,390.402 L734.347,390.402 L734.347,390.402 L734.347,390.402 L734.347,390.402 Z M734.347,390.402" id="Shape"></path>
                <path d="M347.827,15.446 C351.657,15.446 355.515,15.187 359.304,15.582 C360.693,15.727 361.921,17.42 363.222,18.407 C362.141,19.459 361.181,21.216 359.956,21.425 C356.74,21.974 355.746,23.964 355.732,26.665 C355.643,44.151 355.649,61.638 355.611,79.124 C355.605,82.061 357.207,83.024 359.934,83.508 C361.288,83.748 362.388,85.425 363.603,86.452 C362.293,87.195 361.018,88.505 359.667,88.588 C352.033,89.057 344.38,89.379 336.733,89.387 C335.094,89.389 333.454,87.885 331.814,87.075 C333.098,85.864 334.197,84.005 335.703,83.578 C338.857,82.683 340.118,80.812 340.141,77.822 C340.193,71.327 340.131,64.831 340.204,58.337 C340.239,55.258 338.99,53.608 335.783,53.725 C328.305,53.999 320.81,54.07 313.365,54.72 C311.998,54.84 309.836,57.248 309.753,58.699 C309.381,65.172 309.327,71.704 309.847,78.159 C309.993,79.982 312.397,81.688 313.91,83.313 C314.916,84.394 316.179,85.237 317.327,86.186 C316.098,87.015 314.91,88.483 313.632,88.568 C306.166,89.063 298.679,89.375 291.198,89.405 C289.506,89.412 287.809,88.055 286.114,87.327 C287.355,86.071 288.688,84.892 289.813,83.54 C291.367,81.672 294.024,79.676 294.029,77.729 C294.068,60.423 293.718,43.114 293.162,25.815 C293.115,24.336 290.819,22.869 289.458,21.506 C288.287,20.334 286.959,19.319 285.701,18.235 C287.087,17.328 288.449,15.682 289.864,15.635 C297.849,15.37 305.85,15.376 313.837,15.596 C315.053,15.629 316.226,17.259 317.418,18.15 C316.38,19.235 315.464,21.073 314.28,21.267 C310.375,21.905 309.491,24.265 309.551,27.649 C309.631,32.145 309.698,36.645 309.592,41.139 C309.509,44.64 310.808,46.481 314.53,46.31 C321.674,45.981 328.822,45.731 335.969,45.486 C338.841,45.387 340.217,43.984 340.173,41.101 C340.113,37.106 340.248,33.103 340.045,29.116 C339.842,25.155 339.12,21.47 334.035,20.773 C333.144,20.651 331.626,18.597 331.844,18.161 C332.411,17.029 333.737,15.611 334.845,15.534 C339.153,15.234 343.494,15.412 347.824,15.412 C347.827,15.423 347.827,15.435 347.827,15.446 C347.827,15.446 347.827,15.435 347.827,15.446 L347.827,15.446 L347.827,15.446 L347.827,15.446 L347.827,15.446 Z M347.827,15.446" id="Shape"></path>
                <path d="M270.176,488.52 C255.704,488.52 241.232,488.593 226.761,488.439 C224.64,488.417 222.53,487.314 220.415,486.711 C221.549,484.935 222.805,483.222 223.787,481.365 C225.06,478.958 227.086,476.447 227.115,473.963 C227.386,450.315 227.332,426.662 227.294,403.012 C227.287,398.627 225.505,395.843 220.506,395.498 C219.075,395.399 217.794,393.127 216.444,391.851 C217.966,390.685 219.468,388.541 221.015,388.508 C232.141,388.267 243.281,388.298 254.402,388.675 C256.052,388.731 257.625,391.061 259.233,392.338 C257.838,393.654 256.641,395.73 255.014,396.153 C248.344,397.889 247.67,398.309 247.654,404.97 C247.598,427.455 247.696,449.942 247.56,472.427 C247.534,476.689 248.946,478.602 253.336,478.31 C260.305,477.846 267.286,477.522 274.266,477.273 C279.956,477.07 281.194,473.128 282.08,468.61 C282.642,465.743 281.837,461.141 286.496,461.665 C291.55,462.232 289.306,466.89 289.354,469.8 C289.43,474.44 288.717,479.085 288.542,483.737 C288.406,487.34 286.633,488.777 283.168,488.713 C278.839,488.632 274.508,488.693 270.177,488.693 C270.176,488.635 270.176,488.577 270.176,488.52 C270.176,488.52 270.176,488.577 270.176,488.52 L270.176,488.52 L270.176,488.52 L270.176,488.52 L270.176,488.52 Z M270.176,488.52" id="Shape"></path>
                <path d="M417.229,15.47 C421.339,15.466 423.085,17.067 422.606,21.153 C422.317,23.628 422.395,26.174 421.828,28.573 C421.556,29.727 420.171,30.618 419.29,31.629 C418.411,30.742 416.764,29.846 416.776,28.972 C416.867,22.496 412.642,22.534 408.008,22.593 C391.161,22.809 393.803,20.779 393.62,36.866 C393.499,47.574 393.598,47.466 404.2,47.477 C408.314,47.481 411.536,47.058 411.603,41.843 C411.612,41.103 413.359,39.632 413.802,39.802 C414.827,40.196 416.24,41.36 416.275,42.26 C416.521,48.411 416.529,54.578 416.386,60.735 C416.366,61.546 414.878,63.082 414.378,62.964 C413.304,62.714 412.203,61.766 411.523,60.811 C410.169,58.914 409.423,55.468 407.832,55.077 C404.092,54.157 399.98,54.418 396.068,54.762 C395.16,54.842 393.804,57.141 393.756,58.459 C393.522,64.782 393.469,71.131 393.832,77.442 C393.91,78.785 395.918,81.019 397.168,81.115 C402.299,81.507 407.485,81.343 412.644,81.16 C416.112,81.038 418.162,79.209 418.344,75.515 C418.399,74.389 418.639,73.009 419.341,72.249 C420.11,71.417 421.529,70.77 422.625,70.826 C423.215,70.857 424.189,72.538 424.18,73.465 C424.134,77.454 424.2,81.529 423.358,85.384 C423.001,87.021 420.538,89.358 418.988,89.393 C404.997,89.706 390.996,89.628 376.999,89.497 C375.775,89.485 374.22,88.518 373.499,87.51 C373.174,87.054 374.591,85.436 375.094,84.29 C376.172,81.836 378.019,79.36 378.06,76.869 C378.324,60.876 378.143,44.875 378.207,28.877 C378.223,24.977 377.32,22.112 372.991,21.009 C371.749,20.693 370.892,18.869 369.859,17.738 C371.318,16.939 372.755,15.499 374.239,15.45 C381.564,15.21 410.231,15.478 417.229,15.47 C417.229,15.47 410.231,15.478 417.229,15.47 L417.229,15.47 L417.229,15.47 L417.229,15.47 L417.229,15.47 Z M417.229,15.47" id="Shape"></path>
                <path d="M248.778,15.425 C257.437,15.425 266.101,15.602 274.753,15.357 C279.554,15.22 281.015,17.315 280.422,21.708 C280.022,24.674 280.002,27.706 279.386,30.618 C279.141,31.776 277.746,32.691 276.875,33.717 C276.04,32.837 274.951,32.087 274.423,31.051 C273.285,28.818 272.822,24.763 271.394,24.433 C267.297,23.487 262.845,23.849 258.562,24.141 C257.818,24.192 256.65,26.401 256.643,27.619 C256.539,44.435 256.568,61.253 256.663,78.07 C256.679,80.952 257.738,83.116 261.203,83.605 C262.381,83.771 263.336,85.511 264.393,86.533 C263.083,87.532 261.802,89.348 260.459,89.394 C252.477,89.669 244.476,89.65 236.491,89.42 C235.227,89.384 234.008,87.782 232.768,86.904 C233.9,85.729 234.887,83.778 236.192,83.535 C239.307,82.955 240.455,81.339 240.486,78.447 C240.663,62.145 240.914,45.843 240.968,29.541 C240.978,26.491 240.32,23.777 235.979,23.601 C227.279,23.246 225.067,24.057 223.535,28.694 C222.957,30.444 221.343,31.852 220.201,33.417 C219.264,31.578 217.564,29.761 217.511,27.896 C217.094,13.365 216.432,15.414 229.299,15.363 C235.793,15.338 242.287,15.359 248.781,15.359 C248.778,15.379 248.778,15.402 248.778,15.425 C248.778,15.425 248.778,15.402 248.778,15.425 L248.778,15.425 L248.778,15.425 L248.778,15.425 L248.778,15.425 Z M248.778,15.425" id="Shape"></path>
            </g>
        </g>
    </g>
</svg>