<?xml version="1.0" encoding="UTF-8" standalone="no"?>
<svg width="1280px" height="500px" viewBox="0 0 1280 500" version="1.1" xmlns="http://www.w3.org/2000/svg" xmlns:xlink="http://www.w3.org/1999/xlink" xmlns:sketch="http://www.bohemiancoding.com/sketch/ns">
    <title>header-design-and-develop</title>
    <description>Created with Sketch (http://www.bohemiancoding.com/sketch)</description>
    <defs>
        <linearGradient x1="49.9995119%" y1="5.97959165e-05%" x2="49.9995119%" y2="99.9999701%" id="linearGradient-1">
            <stop stop-color="#FFFFFF" offset="0%"></stop>
            <stop stop-color="#E6E6E6" offset="100%"></stop>
        </linearGradient>
    </defs>
    <g id="Page-1" stroke="none" stroke-width="1" fill="none" fill-rule="evenodd" sketch:type="MSPage">
        <rect d="M0,0 L0,500 L1280,500 L1280,0 L0,0 Z M0,0" id="bg" fill="#72E6A7" sketch:type="MSShapeGroup" x="0" y="0" width="1280" height="500"></rect>
        <g id="sharpie" sketch:type="MSLayerGroup" transform="translate(261.000000, 299.000000)">
            <path d="M-4.19504426,141.08 C-3.61957394,144.897734 -1.20942021,151.857266 -1.20942021,151.857266 L1.19260761,151.857266 L3.59463544,151.857266 C3.59463544,151.857266 6.00478917,144.897734 6.58025949,141.08 C7.00774317,138.244025 6.80305251,89.9548289 6.66950742,65.3064941 C7.04170924,65.2781433 7.33609106,64.9162829 7.33609106,64.4692866 L7.33609106,52.5986114 C7.35525314,52.5995334 7.37453844,52.5999999 7.39393577,52.5999999 C8.02990006,52.5999999 8.54545092,52.0985589 8.54545092,51.4799999 C8.54545092,50.861441 8.02990006,50.3599999 7.39393577,50.3599999 C7.37453844,50.3599999 7.35525314,50.3604664 7.33609106,50.3613885 L7.33609106,19.025703 C7.33609106,17.8952434 6.86224049,15.9577179 6.25329924,13.9345479 C7.03296852,13.9821087 7.71392249,14.141828 8.0667385,14.4724218 C8.51340045,14.8909506 8.92715225,23.3382592 8.84322378,32.6119921 C8.77406716,40.2534971 8.63887283,48.479489 8.55065919,53.4037417 C7.77506642,53.4382159 7.34838488,54.4158981 7.34838488,55.6312246 C7.34838488,56.8024074 7.73070646,57.7752452 8.46677541,57.8743824 C8.4665976,57.8832544 11.0763923,57.8751713 11.0763923,57.8751713 C11.229251,57.8747358 11.3542986,57.7447064 11.3556853,57.5857148 L11.7474505,12.6697281 C11.7582545,11.4310564 10.3051738,10.3965602 9.03599056,10.3398907 L5.01619746,10.1604055 C4.2677818,8.02063086 3.62757442,6.38427227 3.62757442,6.38427227 C1.69844946,4.8963671 0.765088337,4.86710928 -1.21807164,6.38427221 C-1.21807164,6.38427221 -4.950882,15.167996 -4.950882,19.025703 L-4.950882,64.4681211 C-4.950882,64.9135035 -4.65679941,65.2779423 -4.2843035,65.3064832 C-4.41782212,89.947363 -4.62259471,138.243582 -4.19504426,141.08 Z M-4.19504426,141.08" id="shadow" fill-opacity="0.1" fill="#000000" sketch:type="MSShapeGroup"></path>
            <path d="M1.65047938,45.2539062 C1.18351157,45.2539062 0.802550521,45.6231305 0.799558353,46.0878871 C0.799558353,46.0878871 0.229489064,132.262265 0.804959367,136.08 C1.38042968,139.897734 3.79058341,146.857266 3.79058341,146.857266 L6.19261124,146.857266 L8.59463906,146.857266 C8.59463906,146.857266 11.0047928,139.897734 11.5802631,136.08 C12.1557334,132.262265 11.5855757,46.0740829 11.5855757,46.0740829 C11.5826417,45.6211119 11.1967644,45.2539062 10.7347431,45.2539062 L1.65047938,45.2539062 Z M1.65047938,45.2539062" id="marker" fill="#EAEAEA" sketch:type="MSShapeGroup"></path>
            <g id="labeling" transform="translate(2.586548, 75.805586)">
                <g id="logo" transform="translate(4.227273, 13.240000) rotate(-270.000000) translate(-4.227273, -13.240000) translate(-9.303030, 9.240000)" sketch:type="MSShapeGroup">
                    <path d="M6.02084091,0.04886 C6.77263636,-0.01386 8.19029545,0.13244 8.23318939,0.8218 C8.29767424,1.84562 6.88001515,2.47226 6.42890909,2.66028 C6.02084091,2.76472 5.65566667,2.51398 5.93490909,2.1588 C7.20229545,1.344 7.86801515,1.1977 7.50298485,0.90524 C6.62236364,0.23674 3.20711364,1.23956 3.07828788,1.88706 C3.01380303,2.2631 3.57228788,2.5347 4.71070455,2.9526 C6.25733333,3.51666 7.84671212,4.24788 7.15940152,5.60588 C6.53643182,6.8593 4.62477273,7.21448 3.3575303,7.40264 C2.39097727,7.56966 0.393242424,7.36078 0.199931818,7.0056 C0.0711060606,6.8593 0.0925530303,6.52512 0.307310606,6.4834 C0.736825758,6.42082 1.68207576,7.04746 3.93731818,6.6087 C4.56028788,6.4834 6.17125758,5.87748 6.38601515,5.20898 C6.70829545,4.06 2.64862879,3.74668 2.32634848,2.4514 C1.9182803,0.78008 4.94690909,0.13244 6.02084091,0.04886 L6.02084091,0.04886 L6.02084091,0.04886 L6.02084091,0.04886 L6.02084091,0.04886 Z M6.02084091,0.04886" id="Shape" fill="#040607"></path>
                    <path d="M9.71533333,0.13244 C9.90864394,0.38318 9.39305303,2.63942 9.39305303,2.63942 C10.0589167,2.59756 10.7462273,2.34696 10.9611288,2.91102 C11.2189242,3.62138 10.1664394,5.25084 10.4456818,5.79418 C11.6914773,5.66874 11.1758864,3.9557 12.1425833,2.89016 C12.808447,2.13808 13.7321061,2.13808 13.9899015,3.09904 C14.741697,3.24534 13.3025909,5.37642 13.8394848,5.60602 C14.247553,5.79418 14.5267955,5.2927 14.7201061,4.81222 C14.8274848,4.4989 15.0638333,3.80926 14.9992045,3.47508 C14.6554773,3.41236 14.4408636,3.20348 14.5696894,2.89002 C14.6127273,2.76472 14.9992045,2.68114 15.235553,2.68114 C15.5792803,2.09622 15.5147955,1.94992 15.9228636,1.9082 C16.1592121,1.88734 16.0302424,2.36782 16.0302424,2.59756 C16.7391439,2.47226 17.1256212,2.3261 17.2331439,2.97374 C17.3403788,4.12272 16.266447,5.06296 16.6745152,5.64788 C16.7605909,5.62688 17.5551364,5.48086 17.9633485,3.9557 C18.2854848,2.68128 18.6077652,1.13526 19.0372803,1.95006 C19.187697,2.22152 18.8870076,2.49312 18.9513485,2.76486 C18.9727955,2.76486 20.0039773,1.76204 20.5194242,2.55584 C20.6053561,2.723 20.8201136,3.8094 20.3904545,4.89566 C20.2830758,5.20898 19.8964545,6.21194 19.3808636,6.35824 C18.736447,6.54612 18.199553,5.71046 18.9297576,5.0001 C19.2734848,4.83308 18.9727955,5.35528 19.0587273,5.56416 C19.4667955,6.52526 20.4549394,3.24534 19.9179015,3.05718 C19.4667955,2.9946 19.2305909,3.3705 19.0156894,3.74654 C18.1134773,5.20884 18.3285227,7.84126 17.9847955,7.90384 C17.3189318,8.05014 17.3189318,7.63238 17.5980303,5.85662 C17.3402348,5.9192 16.4810606,6.88044 15.9872045,6.02364 C15.4930606,5.22984 17.0180985,3.3495 16.4812045,3.2032 C16.3307879,3.16148 16.1374773,3.24506 16.0086515,3.30764 C15.751,3.39122 15.6650682,4.64464 15.0206515,5.66832 C14.5695455,6.48312 13.6460303,6.75472 13.2808561,5.91906 C12.5290606,6.52498 11.6484394,6.88016 11.4765758,5.91906 C10.9609848,6.04436 10.381053,7.00546 9.7367803,6.35796 C9.17829545,5.7939 10.0160227,4.79094 10.2307803,3.3285 C10.0160227,3.20306 9.2427803,3.3285 9.11395455,3.57924 C8.98498485,3.82998 8.87760606,6.37868 8.46953788,6.60842 C7.50298485,7.15176 8.14740152,5.06268 8.31912121,3.8717 C7.95394697,3.66282 7.52443182,3.62096 7.7607803,3.16134 C7.82512121,3.0359 8.34071212,3.09862 8.49112879,2.88974 C8.85630303,2.34654 8.87775,0.67522 9.24292424,0.13202 C9.30726515,-0.03472 9.60795455,-0.01386 9.71533333,0.13244 L9.71533333,0.13244 L9.71533333,0.13244 L9.71533333,0.13244 L9.71533333,0.13244 Z M12.2714091,5.68974 C12.9801667,5.5853 12.9587197,4.70778 13.5816894,3.1409 C13.4314167,3.07818 13.3454848,3.01546 13.2165152,3.05732 C12.5077576,3.24534 11.820303,5.08382 12.2714091,5.68974 L12.2714091,5.68974 L12.2714091,5.68974 L12.2714091,5.68974 L12.2714091,5.68974 Z M12.2714091,5.68974" id="Shape" fill="#040607"></path>
                    <path d="M21.9801212,1.40672 C22.1090909,1.0724 22.4096364,0.88452 22.6459848,0.9471 C22.8823333,1.03068 22.9681212,1.344 22.8177045,1.67832 C22.6887348,1.99164 22.3881894,2.20052 22.1518409,2.11694 C21.9157803,2.0545 21.8297045,1.72018 21.9801212,1.40672 L21.9801212,1.40672 L21.9801212,1.40672 L21.9801212,1.40672 L21.9801212,1.40672 Z M21.9801212,1.40672" id="Shape" fill="#040607"></path>
                    <path d="M23.6555758,2.26338 C24.4288182,2.0545 24.8799242,2.99474 24.4288182,4.22716 C23.9562652,5.39714 22.9466742,5.5853 23.2475076,6.0032 C23.5266061,6.39996 24.2140606,6.5254 24.6221288,6.21208 C24.9013712,6.0032 24.9013712,5.66874 25.2020606,5.14654 C25.8035833,5.00024 25.4168182,6.52554 24.7725455,6.83886 C24.0852348,7.17304 23.011303,6.92258 22.6675758,6.19108 C22.2164697,6.19108 21.2713636,6.6507 20.8632955,6.0032 C20.5411591,5.54358 20.6055,5.10468 20.9492273,4.08114 C21.2284697,3.2872 21.7439167,2.38882 22.066197,2.43054 C22.7750985,2.49312 21.6150909,3.62138 21.4003333,4.93752 C21.2929545,5.5853 21.6795758,5.62688 22.3239924,5.5643 C22.2379167,5.25098 22.1521288,4.8958 22.2166136,4.3946 C22.3238485,3.60038 22.7749545,2.49312 23.6555758,2.26338 L23.6555758,2.26338 L23.6555758,2.26338 L23.6555758,2.26338 L23.6555758,2.26338 Z M23.0111591,4.97924 C23.9346742,4.14358 23.9132273,3.2452 23.8058485,3.07804 C23.7197727,3.05718 23.6768788,3.05718 23.6123939,3.07804 C23.2259167,3.22434 22.7749545,4.54048 23.0111591,4.97924 L23.0111591,4.97924 L23.0111591,4.97924 L23.0111591,4.97924 L23.0111591,4.97924 Z M23.0111591,4.97924" id="Shape" fill="#040607"></path>
                    <path d="M25.975303,5.60602 C25.975303,5.33456 26.1900606,5.12554 26.4478561,5.12554 C26.7269545,5.12554 26.9202652,5.33442 26.9202652,5.60602 C26.9202652,5.87762 26.7269545,6.06564 26.4478561,6.06564 C26.1900606,6.06564 25.975303,5.87748 25.975303,5.60602 L25.975303,5.60602 L25.975303,5.60602 L25.975303,5.60602 L25.975303,5.60602 Z M26.4478561,6.17008 C26.7699924,6.17008 27.0492348,5.91934 27.0492348,5.60602 C27.0492348,5.27184 26.7701364,5.04196 26.4478561,5.04196 C26.1255758,5.04196 25.8679242,5.27198 25.8679242,5.60602 C25.8679242,5.91934 26.1257197,6.17008 26.4478561,6.17008 L26.4478561,6.17008 L26.4478561,6.17008 L26.4478561,6.17008 L26.4478561,6.17008 Z M26.3404773,5.64788 L26.4478561,5.64788 L26.6195758,5.91934 L26.7485455,5.91934 L26.5552348,5.64788 C26.6411667,5.62688 26.7269545,5.5853 26.7269545,5.45972 C26.7269545,5.33442 26.6410227,5.27184 26.49075,5.27184 L26.2329545,5.27184 L26.2329545,5.91934 L26.3403333,5.91934 L26.3403333,5.64788 L26.3404773,5.64788 L26.3404773,5.64788 L26.3404773,5.64788 L26.3404773,5.64788 Z M26.3404773,5.56416 L26.3404773,5.35528 L26.469447,5.35528 C26.5337879,5.35528 26.6197197,5.37628 26.6197197,5.45972 C26.6197197,5.56416 26.5337879,5.56416 26.448,5.56416 L26.3404773,5.56416 L26.3404773,5.56416 L26.3404773,5.56416 L26.3404773,5.56416 L26.3404773,5.56416 Z M26.3404773,5.56416" id="Shape" fill="#000000"></path>
                </g>
                <text id="FINE" fill="#000000" sketch:type="MSTextLayer" transform="translate(3.393939, 34.860000) rotate(-270.000000) translate(-3.393939, -34.860000) " font-family="Open Sans" font-size="3.36" font-weight="633" line-spacing="3.08">
                    <tspan x="-2.37184186" y="34.8330469">FINE</tspan>
                    <tspan x="-2.37184186" y="37.9130469">POINT</tspan>
                </text>
            </g>
            <path d="M8.62757804,1.38427237 C6.69845309,-0.103632807 5.76509196,-0.132890624 3.78193198,1.38427231 C3.78193198,1.38427231 0.0491216267,10.1679961 0.0491216267,14.0257031 L0.0491216245,59.4681212 C0.0491216249,59.9321298 0.368316086,60.3082831 0.762829979,60.3082831 L11.6223863,60.3082831 C12.0165566,60.3082831 12.3360947,59.9349905 12.3360947,59.4692867 L12.3360947,47.5986114 C12.3552568,47.5995335 12.3745421,47.6 12.3939394,47.6 C13.0299037,47.6 13.5454545,47.098559 13.5454545,46.48 C13.5454545,45.861441 13.0299037,45.36 12.3939394,45.36 C12.3745421,45.36 12.3552568,45.3604665 12.3360947,45.3613886 L12.3360947,14.0257031 C12.3360947,12.8952435 11.8622441,10.957718 11.2533029,8.93454795 C12.0329721,8.98210884 12.7139261,9.14182814 13.0667421,9.47242188 C13.5134041,9.8909507 13.9271559,18.3382593 13.8432274,27.6119922 C13.7740708,35.2534972 13.6388765,43.4794891 13.5506628,48.4037418 C12.77507,48.438216 12.3483885,49.4158981 12.3483885,50.6312247 C12.3483885,51.8024075 12.7307101,52.7752453 13.466779,52.8743825 C13.4666012,52.8832545 16.0763959,52.8751714 16.0763959,52.8751714 C16.2292547,52.8747359 16.3543022,52.7447065 16.355689,52.5857149 L16.7474542,7.66972824 C16.7582581,6.43105654 15.3051775,5.3965603 14.0359942,5.33989082 L10.0162011,5.16040562 C9.26778542,3.02063095 8.62757804,1.38427237 8.62757804,1.38427237 Z M8.62757804,1.38427237" id="cap" fill="#1B1B1B" sketch:type="MSShapeGroup"></path>
        </g>
        <g id="pencil" sketch:type="MSLayerGroup" transform="translate(295.947947, 371.964638) rotate(-269.000000) translate(-295.947947, -371.964638) translate(216.947947, 364.964638)">
            <path d="M144.915449,8.28089526 L144.915505,8.40453354 L157.0734,10.6816169 L157.0734,10.774437 L157.633487,10.774437 C157.691243,10.774437 157.75772,10.8284351 157.75772,10.8950451 L157.75772,10.950354 C157.75772,11.013789 157.702099,11.0709621 157.633487,11.0709621 L157.194858,11.1496617 L157.194858,11.3090243 L157.073343,11.3701642 L157.073343,11.1324849 L157.073343,10.9119824 L157.194858,10.9731223 L157.194858,11.0709621 L157.0734,11.1390822 L144.915449,13.4045335 L144.915449,13.5430695 L144.129099,13.9119824 L11.1719168,13.9119824 L6.12619625,13.9119824 C5.55865639,13.9119824 5.09965907,13.4562897 5.09965907,12.8941642 L5.09965907,8.9298006 C5.09965907,8.36295757 5.55925542,7.91198239 6.12619625,7.91198239 L11.1719168,7.91198239 L17.2575538,7.91198239 L23.553476,4.91198239 C23.553476,4.91198239 56.4730139,6.02937929 57.2396461,6.09934444 C58.0062782,6.16930959 57.9534143,7.049311 57.1413903,7.049311 L24.9807406,7.04931108 L24.9807406,7.91198239 L143.902291,7.91198239 L144.915449,8.28089526 Z M144.915449,8.28089526" id="shadow" fill-opacity="0.1" fill="#000000" sketch:type="MSShapeGroup"></path>
            <rect d="M151.782294,5.86245463 C151.713682,5.86245463 151.658061,5.91962764 151.658061,5.98306271 L151.658061,6.03837158 C151.658061,6.10498159 151.724537,6.15897967 151.782294,6.15897967 L152.546985,6.15897967 C152.615597,6.15897967 152.671218,6.10180666 152.671218,6.03837158 L152.671218,5.98306271 C152.671218,5.91645271 152.604742,5.86245463 152.546985,5.86245463 L151.782294,5.86245463 Z M151.782294,5.86245463" id="led" fill="#626262" sketch:type="MSShapeGroup" x="151.658061" y="4.86245463" width="1.01315789" height="2.29652504" rx="0.126"></rect>
            <path id="tip-cap" fill="#DFDAB1" sketch:type="MSShapeGroup" d="M152.108357,6.06113995 L152.108357,6.22050248 L152.108357,6.23767934 L152.108357,6.39704187 L151.986842,6.45818182 L151.986842,6.23767935 L151.986842,6.22050247 L151.986842,6 L152.108357,6.06113995 Z M152.108357,6.06113995"></path>
            <path d="M151.986899,6.22709985 L139.829004,8.49255116 L139.829004,3.49255116 L151.986899,5.76963449 L151.986899,6.22709985 Z M151.986899,6.22709985" id="nose" fill="#ECE7BF" sketch:type="MSShapeGroup"></path>
            <g id="indents" transform="translate(139.828947, 3.000000)" fill-opacity="0.0601160386" fill="#000000" sketch:type="MSShapeGroup">
                <polygon id="Triangle-1" transform="translate(2.207237, 1.000000) rotate(-259.000000) translate(-2.207237, -1.000000) " points="2.20723684 -1 2.38815789 3 2.02631579 3 "></polygon>
                <polygon id="Triangle-1" transform="translate(2.207237, 2.000000) rotate(-264.000000) translate(-2.207237, -2.000000) " points="2.20723684 -7.10542736e-15 2.38815789 4 2.02631579 4 "></polygon>
                <polygon id="Triangle-1" transform="translate(2.207237, 2.000000) rotate(-266.000000) translate(-2.207237, -2.000000) " points="2.20723684 -7.10542736e-15 2.38815789 4 2.02631579 4 "></polygon>
                <polygon id="Triangle-1" transform="translate(2.207237, 3.000000) rotate(-269.000000) translate(-2.207237, -3.000000) " points="2.20723684 1 2.38815789 5 2.02631579 5 "></polygon>
                <polygon id="Triangle-1" transform="translate(2.207237, 4.000000) scale(1, -1) rotate(-268.000000) translate(-2.207237, -4.000000) " points="2.20723684 2 2.38815789 6 2.02631579 6 "></polygon>
                <polygon id="Triangle-1" transform="translate(2.207237, 4.000000) scale(1, -1) rotate(-260.000000) translate(-2.207237, -4.000000) " points="2.20723684 2 2.38815789 6 2.02631579 6 "></polygon>
                <polygon id="Triangle-1" transform="translate(2.207237, 4.000000) scale(1, -1) rotate(-264.000000) translate(-2.207237, -4.000000) " points="2.20723684 2 2.38815789 6 2.02631579 6 "></polygon>
                <polygon id="Triangle-1" transform="translate(2.207237, 5.000000) scale(1, -1) rotate(-259.000000) translate(-2.207237, -5.000000) " points="2.20723684 3 2.38815789 7 2.02631579 7 "></polygon>
            </g>
            <rect d="M1.03969507,3 C0.472754245,3 0.0131578947,3.45097518 0.0131578947,4.01781821 L0.0131578947,7.98218179 C0.0131578947,8.54430726 0.472155207,9 1.03969507,9 L7.09188387,9 C7.6588247,9 8.11842105,8.54902482 8.11842105,7.98218179 L8.11842105,4.01781821 C8.11842105,3.45569274 7.65942374,3 7.09188387,3 L1.03969507,3 Z M1.03969507,3" id="eraser" fill="#D79694" sketch:type="MSShapeGroup" x="0.0131578947" y="3" width="8.10526316" height="6" rx="8"></rect>
            <path d="M139.042598,3 L139.828947,3.36891287 L139.828947,5.78743503 L139.828947,6.21256497 L139.828947,8.63108713 L139.042598,9 L138.815789,9 L138.815789,6 L138.815789,5.78743502 L138.815789,3 L139.042598,3 Z M139.042598,3" id="end-cap" fill="#E5A32F" sketch:type="MSShapeGroup"></path>
            <path d="M19.8942394,3 L138.815789,3 L138.815789,9 L5.07894737,9 L5.07894737,3 L12.1710526,3 L12.1710526,2.97860461 L18.4669749,1.13686838e-13 C18.4669749,1.13686838e-13 51.3865127,1.1173969 52.1531449,1.18736205 C52.919777,1.25732721 52.8669131,2.13732861 52.0548891,2.13732861 L19.8942394,2.1373287 L19.8942394,3 Z M19.8942394,3" id="body" fill="#F3AD33" sketch:type="MSShapeGroup"></path>
            <rect d="M139.075773,3 L5.07894737,3 L5.07894737,5 L139.828947,5 L139.828947,3.36733806 L139.075773,3 Z M139.075773,3" id="shine" fill-opacity="0.150649127" fill="#FFFFFF" sketch:type="MSShapeGroup" x="5.07894737" y="3" width="134.75" height="2"></rect>
        </g>
        <g id="eraser" sketch:type="MSLayerGroup" transform="translate(341.343074, 337.000000) rotate(-90.000000) translate(-341.343074, -337.000000) translate(305.843074, 323.000000)">
            <path d="M60.989625,0.0163626504 C60.989625,0.0163626504 65.4832607,5.51636275 65.483261,11.0163628 C65.483261,16.5163628 60.989625,22.0163627 60.989625,22.0163627 L52.280136,22.0163627 L0.999999892,22.0000052 L0.999999892,5.2285472e-06 L55.8437499,5.2285472e-06 L60.989625,0.0163626504 Z M60.989625,0.0163626504" id="shadow" fill-opacity="0.1" fill="#000000" sketch:type="MSShapeGroup"></path>
            <path d="M65.9896251,5.01635742 L57.2801361,5.01635742 L57.2801361,27.0163574 L65.9896251,27.0163574 C65.9896251,27.0163574 70.4832611,21.5163575 70.4832611,16.0163575 C70.4832608,10.5163575 65.9896251,5.01635742 65.9896251,5.01635742 Z M65.9896251,5.01635742" id="tip" fill="#E6E6E8" sketch:type="MSShapeGroup"></path>
            <rect d="M58.072075,11 C52.4861375,11.0000003 46.625,12.7256811 46.625,12.7256811 L46.625,21 L68.96875,21 L68.96875,12.7256811 C68.96875,12.7256811 63.6580125,11 58.072075,11 Z M58.072075,11" id="highlight" fill="#EEEEEE" sketch:type="MSShapeGroup" transform="translate(57.796875, 16.000000) rotate(-270.000000) translate(-57.796875, -16.000000) " x="46.625" y="11" width="22.34375" height="10"></rect>
            <rect d="M6,5 L6,27 L60.84375,27 L60.84375,5 L6,5 Z M6,5" id="back" fill="#00356B" sketch:type="MSShapeGroup" x="6" y="5" width="54.84375" height="22"></rect>
            <rect d="M6.00495911,6.57421875 L6.00495911,25.5742188 L60.8487091,25.5742188 L60.8487091,6.57421875 L6.00495911,6.57421875 Z M6.00495911,6.57421875" id="cover" fill="#004082" sketch:type="MSShapeGroup" x="6.00495911" y="6.57421875" width="54.84375" height="19"></rect>
            <text id="Latex-Free-•-Sans-la" fill="#EEEEEE" sketch:type="MSTextLayer" font-family="Open Sans" font-size="0.4752" font-weight="260" letter-spacing="0.179858118">
                <tspan x="16.15625" y="22">Latex Free • Sans-latex • Libre de latex</tspan>
            </text>
            <text id="Mars-plastic" fill="#EEEEEE" sketch:type="MSTextLayer" font-family="Open Sans" font-size="3.822336" font-weight="260" letter-spacing="0.0525413603">
                <tspan x="16.15625" y="17">Mars plastic</tspan>
            </text>
            <g id="Staedtler_Logo" transform="translate(8.031250, 7.200000)" fill="#FFFFFF" sketch:type="MSShapeGroup">
                <path d="M16.5011858,4.9185 L15.9412319,5.9481 L14.7310965,5.9481 L17.1218959,1.6047 C17.1218959,1.6047 17.2533831,1.4355 17.355399,1.34685 C17.5626046,1.1673 17.7376186,1.1052 18.007394,1.1052 L19.9642857,1.1052 L19.9642857,5.9481 L18.9078544,5.9481 L18.9078544,4.9185 L16.5011858,4.9185 L16.5011858,4.9185 L16.5011858,4.9185 L16.5011858,4.9185 Z M18.9074009,3.95325 L18.9074009,2.0547 L18.4263393,2.0547 C18.2712751,2.0547 18.1629116,2.10285 18.0844727,2.1672 C18.0069406,2.2158 17.8858817,2.36205 17.8518764,2.4246 L17.0289481,3.95325 L18.9074009,3.95325 L18.9074009,3.95325 L18.9074009,3.95325 L18.9074009,3.95325 Z M18.9074009,3.95325" id="Shape"></path>
                <path d="M11.7499651,1.1178 L15.9480329,1.1178 L15.9480329,2.1249 L14.1747698,2.1249 L14.1747698,5.95125 L13.1070033,5.95125 L13.1070033,2.1249 L11.7499651,2.1249 L11.7499651,1.1178 Z M11.7499651,1.1178" id="Shape"></path>
                <path d="M30.5295061,3.47085 C30.5295061,5.0949 29.7827497,5.9481 28.595738,5.9481 L25.6726423,5.9481 L25.6726423,1.1061 C25.6726423,1.1061 27.8521554,1.10565 28.5653599,1.10565 C29.7750419,1.10565 30.5208915,2.24145 30.5295061,3.47085 L30.5295061,3.47085 Z M26.7771345,4.9986 L28.2883301,4.9986 C29.018764,4.9986 29.425014,4.5324 29.425014,3.5028 C29.425014,2.5857 29.0024414,2.07135 28.2883301,2.07135 L26.7771345,2.07135 L26.7771345,4.9986 L26.7771345,4.9986 L26.7771345,4.9986 L26.7771345,4.9986 Z M26.7771345,4.9986" id="Shape"></path>
                <path d="M45.6423689,3.9852 L44.9767718,3.9852 L44.9767718,5.9481 L43.8713728,5.9481 L43.8713728,1.10565 L46.5845424,1.10565 C47.3013742,1.10565 47.8835449,1.6371 47.8835449,2.39265 C47.8835449,3.08475 47.375279,3.56355 46.7137626,3.6153 C46.9096331,3.64725 47.0882743,3.7278 47.2011719,3.80835 C47.3154297,3.9051 47.3643973,3.9906 47.4292341,4.1301 L48.2734724,5.9481 L47.0719517,5.9481 L46.406808,4.5 C46.3347168,4.34475 46.2444894,4.2264 46.1465541,4.14585 C45.9996512,4.03335 45.8491211,3.9852 45.6423689,3.9852 L45.6423689,3.9852 Z M44.9767718,3.03615 L46.244036,3.03615 C46.5124512,3.03615 46.7314453,2.8197 46.7314453,2.5542 C46.7314453,2.2878 46.5124512,2.07135 46.244036,2.07135 L44.9767718,2.07135 L44.9767718,3.03615 L44.9767718,3.03615 L44.9767718,3.03615 L44.9767718,3.03615 Z M44.9767718,3.03615" id="Shape"></path>
                <path d="M11.101144,1.09755 L8.60243443,1.0989 C7.80671038,1.0989 7.15879604,1.7397 7.15879604,2.5281 C7.15879604,3.31245 7.77769252,3.9744 8.56978934,3.9744 L10.0614886,3.9744 C10.3398786,3.9744 10.564767,4.1985 10.564767,4.47255 C10.564767,4.752 10.3439593,4.98645 10.0614886,4.98645 L7.15335519,4.98375 L7.15199498,5.9481 L10.2501046,5.9481 C11.0612444,5.9481 11.7331892,5.2794 11.7331892,4.47255 C11.7331892,3.6657 11.0675921,3.0105 10.2564523,3.0105 L8.8128139,3.0105 C8.54439872,3.0105 8.32631138,2.79405 8.32631138,2.5281 C8.32631138,2.25855 8.55573382,2.106 8.82868304,2.106 L11.101144,2.10555 L11.101144,1.09755 L11.101144,1.09755 L11.101144,1.09755 L11.101144,1.09755 Z M11.101144,1.09755" id="Shape"></path>
                <path d="M49.7987235,1.31895 L50.0997838,1.77345 L49.9315709,1.77345 L49.6336844,1.31895 L49.4659249,1.31895 L49.4659249,1.77345 L49.3253697,1.77345 L49.3253697,0.7875 L49.7588239,0.7875 C49.9388253,0.7875 50.1129325,0.83565 50.1129325,1.0485 C50.1129325,1.24245 49.9764579,1.314 49.7987235,1.31895 L49.7987235,1.31895 Z M49.4659249,1.18035 L49.6336844,1.18035 C49.7565569,1.18035 49.9741908,1.2033 49.9741908,1.0467 C49.9741908,0.945 49.838623,0.92655 49.7311663,0.92655 L49.4659249,0.92655 L49.4659249,1.18035 L49.4659249,1.18035 L49.4659249,1.18035 L49.4659249,1.18035 Z M49.4659249,1.18035" id="Shape"></path>
                <path d="M49.6654227,2.18745 C49.1548898,2.18745 48.7518136,1.7874 48.7518136,1.28655 C48.7518136,0.7857 49.1548898,0.3861 49.6654227,0.3861 C50.176409,0.3861 50.5799386,0.7857 50.5799386,1.28655 C50.5799386,1.7874 50.176409,2.18745 49.6654227,2.18745 M49.6654227,2.0484 C50.0830078,2.0484 50.4398368,1.71135 50.4398368,1.28655 C50.4398368,0.8622 50.0830078,0.5247 49.6654227,0.5247 C49.2487444,0.5247 48.8914621,0.8622 48.8914621,1.28655 C48.8914621,1.71135 49.2487444,2.0484 49.6654227,2.0484" id="Shape"></path>
                <path d="M0.167306083,3.35115 C0.167306083,3.35115 1.91608538,2.06955 2.35362026,1.83735 C2.51140485,1.75365 3.14254325,1.6713 3.50163923,2.1141 C3.81992885,2.5074 3.61861747,3.0789 3.49030413,3.2913 C3.36153739,3.5037 2.93035017,4.2849 2.93035017,4.2849 L1.79003906,4.2849 L2.01402065,3.3507 L0.167306083,3.3507 L0.167306083,3.3507 L0.167306083,3.35115 L0.167306083,3.35115 Z M0.167306083,3.35115" id="Shape"></path>
                <path d="M2.86914062,0.43065 C3.46309989,0.45 4.20169503,0.68625 4.62744141,1.2987 C4.99560547,1.82835 5.1007952,2.3841 4.9430106,3.0951 C4.76935686,3.87315 3.72834124,5.4 3.73604911,5.40225 L3.11261858,4.49145 C3.12395368,4.49145 3.44496373,3.88485 3.80133929,3.2391 C3.97635324,2.9223 3.99086217,2.4165 3.79680525,2.08575 C3.57463728,1.70595 3.12848772,1.53585 2.74672154,1.53585 C2.28742327,1.53585 1.91563198,1.7685 1.46041434,2.12445 L0.807059152,1.19565 C1.1285226,0.9135 2.02127511,0.4023 2.86914062,0.43065" id="Shape"></path>
                <path d="M0.352748326,3.57885 L1.65991211,3.5802 L1.44545201,4.50315 L2.79160854,4.50315 L3.75871931,5.9238 L1.80636161,5.9238 L1.37200056,5.2884 L0.545898437,5.2884 L0.481515067,4.46895 L0.146449498,4.4685 L0.352748326,3.57885 Z M0.352748326,3.57885" id="Shape"></path>
                <path d="M20.9663086,1.10565 L24.7671945,1.1043 L24.7671945,2.10375 L22.0649065,2.10555 L22.0712542,3.03615 L24.4421038,3.03615 L24.4421038,3.9852 L22.0712542,3.9852 L22.0712542,4.99905 L24.7671945,4.9995 L24.7671945,5.9481 L20.9663086,5.94765 L20.9663086,1.10565 Z M20.9663086,1.10565" id="Shape"></path>
                <path d="M30.6818499,1.10565 L34.9152832,1.10565 L34.9152832,2.11455 L33.3401576,2.11455 L33.3401576,5.9481 L32.271031,5.9481 L32.271031,2.11455 L30.6818499,2.11455 L30.6818499,1.10565 Z M30.6818499,1.10565" id="Shape"></path>
                <path d="M38.6182338,4.9986 L38.6182338,5.9481 L35.4176549,5.9481 L35.4176549,1.10565 L36.5226004,1.10565 L36.5226004,4.9986 L38.6182338,4.9986 Z M38.6182338,4.9986" id="Shape"></path>
                <path d="M39.3441336,1.10385 L43.1463797,1.10385 L43.154541,2.10195 L40.4459054,2.10195 L40.4472656,3.033 L42.8217425,3.033 L42.8217425,3.9834 L40.4472656,3.9834 L40.4472656,4.9977 L43.1518206,4.9977 L43.1518206,5.9481 L39.34232,5.9481 L39.3441336,1.10385 Z M39.3441336,1.10385" id="Shape"></path>
            </g>
        </g>
        <g id="moleskine" sketch:type="MSLayerGroup" transform="translate(103.000000, 282.000000)">
            <path d="M117.998572,190.5 L0,190.5 L0,98.25 L0,6 L99.5,6 L99.5,5 L106.5,5 L106.5,6 L117.998572,6 C122.415313,6 126,9.57907609 126,13.9940902 L126,98.25 L126,182.50591 C126,186.924297 122.417639,190.5 117.998572,190.5 Z M117.998572,190.5" id="shadow" fill-opacity="0.1" fill="#000000" sketch:type="MSShapeGroup"></path>
            <path d="M5,185.5 L122.998572,185.5 C127.417639,185.5 131,181.924297 131,177.50591 L131,15.4940902 C131,11.0790761 127.415313,7.5 122.998572,7.5 L5,7.5 L5,185.5 Z M5,185.5" id="back" fill="#1B1B1B" sketch:type="MSShapeGroup"></path>
            <path d="M7.02484608,183.205078 C7.02484608,183.205078 110.63798,183.205078 120.655172,183.205078 C130.672363,183.205078 130.911072,175.13444 130.911072,175.13444 L130.911072,172.24673 C130.911072,172.24673 130.394745,179.118164 121.860565,179.118164 C113.326385,179.118164 7.02484608,179.013267 7.02484608,179.013267 L7.02484608,183.205078 Z M7.02484608,183.205078" id="pages" fill="#FAF3D2" sketch:type="MSShapeGroup"></path>
            <path d="M5,179 L122.998572,179 C127.417639,179 131,175.424297 131,171.00591 L131,8.99409019 C131,4.57907609 127.415313,1 122.998572,1 L5,1 L5,179 Z M5,179" id="top" fill="#272727" sketch:type="MSShapeGroup"></path>
            <path d="M104.5,185.5 L111.5,185.5 L111.5,0 L104.5,0 L104.5,185.5 Z M104.5,185.5" id="strap" fill="#AEAEAE" sketch:type="MSShapeGroup"></path>
            <g id="vertical-accent" transform="translate(105.500000, 0.000000)" fill="#909090" sketch:type="MSShapeGroup">
                <rect d="M0,0 L0,185.5 L0.5,185.5 L0.5,0 L0,0 Z M0,0" id="Rectangle-3" x="0" y="0" width="0.5" height="185.5"></rect>
                <rect d="M4.5,0 L4.5,185.5 L5,185.5 L5,0 L4.5,0 Z M4.5,0" id="Rectangle-3" x="4.5" y="0" width="0.5" height="185.5"></rect>
                <rect d="M3,0 L3,185.5 L3.5,185.5 L3.5,0 L3,0 Z M3,0" id="Rectangle-3" x="3" y="0" width="0.5" height="185.5"></rect>
                <rect d="M1.5,0 L1.5,185.5 L2,185.5 L2,0 L1.5,0 Z M1.5,0" id="Rectangle-3" x="1.5" y="0" width="0.5" height="185.5"></rect>
            </g>
        </g>
        <g id="macbook" sketch:type="MSLayerGroup" transform="translate(38.000000, 31.000000)">
            <path d="M0.500824,194.211914 L1.57772719,199.174529 C2.45566689,203.220275 6.51887051,206.5 10.6724144,206.5 L289.581894,206.5 C293.726812,206.5 297.829556,203.227988 298.747684,199.182705 L299.999989,193.665039 L299.999989,105.75399 L299.999989,12.4964266 C299.999989,8.3562645 296.636473,5 292.503141,5 L7.9976721,5 C3.85727722,5 0.500824,8.35855484 0.500824,12.4964266 L0.500824,105.751063 L0.500824,194.211914 Z M0.500824,194.211914" id="shadow" fill-opacity="0.1" fill="#000000" sketch:type="MSShapeGroup"></path>
            <path d="M5.50083472,15.4985521 L5.50083472,189.211914 L6.57773792,194.174529 C7.45567761,198.220275 11.5188812,201.5 15.6724251,201.5 L294.581905,201.5 C298.726822,201.5 302.829567,198.227988 303.747695,194.182705 L305,188.665039 L305,15.5044063 C305,11.3598372 301.636484,8 297.503152,8 L12.9976828,8 C8.85728795,8 5.50083472,11.3588701 5.50083472,15.4985521 Z M5.50083472,15.4985521" id="base" fill="#CACACA" sketch:type="MSShapeGroup"></path>
            <rect d="M274.943647,197.5 C274.670506,197.5 274.449082,197.731934 274.449082,198 L274.449082,198 C274.449082,198.276142 274.675098,198.5 274.943647,198.5 L286.976219,198.5 C287.24936,198.5 287.470785,198.268066 287.470785,198 L287.470785,198 C287.470785,197.723858 287.244769,197.5 286.976219,197.5 L274.943647,197.5 Z M274.943647,197.5" id="slot" fill="#7A7A7A" sketch:type="MSShapeGroup" x="274.449082" y="197.5" width="13.0217028" height="1" rx="6"></rect>
            <rect d="M265.180189,197.820435 C265.041767,197.820435 264.929554,197.936401 264.929554,198.070435 L264.929554,198.070435 C264.929554,198.208506 265.045145,198.320435 265.180189,198.320435 L268.685596,198.320435 C268.824018,198.320435 268.936232,198.204468 268.936232,198.070435 L268.936232,198.070435 C268.936232,197.932363 268.820641,197.820435 268.685596,197.820435 L265.180189,197.820435 Z M265.180189,197.820435" id="light" fill="#FFFFFF" sketch:type="MSShapeGroup" x="264.929554" y="197.820435" width="4.0066778" height="0.5" rx="2"></rect>
            <rect d="M12.9976828,1 C8.85728795,1 5.50083472,4.35855484 5.50083472,8.49642659 L5.50083472,187.003573 C5.50083472,191.143735 8.86435074,194.5 12.9976828,194.5 L297.503152,194.5 C301.643547,194.5 305,191.141445 305,187.003573 L305,8.49642659 C305,4.3562645 301.636484,1 297.503152,1 L12.9976828,1 Z M12.9976828,1" id="pipe" fill="#9E9E9E" sketch:type="MSShapeGroup" x="5.50083472" y="1" width="299.499165" height="193.5" rx="7.5"></rect>
            <path d="M136.041728,194.5 L174.459106,194.5 L174.459106,196.004627 C174.459106,197.106641 173.566027,198 172.461135,198 L138.0397,198 C136.936251,198 136.041728,197.098663 136.041728,196.004627 L136.041728,194.5 Z M136.041728,194.5" id="indent" fill="#E0E0E0" sketch:type="MSShapeGroup"></path>
            <rect d="M12.9976828,0 C8.85728795,0 5.50083472,3.35855484 5.50083472,7.49642659 L5.50083472,186.003573 C5.50083472,190.143735 8.86435074,193.5 12.9976828,193.5 L297.503152,193.5 C301.643547,193.5 305,190.141445 305,186.003573 L305,7.49642659 C305,3.3562645 301.636484,0 297.503152,0 L12.9976828,0 Z M12.9976828,0" id="lid" fill="#CACACA" sketch:type="MSShapeGroup" x="5.50083472" y="0" width="299.499165" height="193.5" rx="7.5"></rect>
            <path d="M162.128783,80.6106216 C163.739968,78.6021216 164.913925,75.8396216 164.61092,73.0546216 C162.203908,73.1426216 159.337631,74.6391216 157.629785,76.6601216 C156.092222,78.4011216 154.756997,81.2726216 155.139635,83.9741216 C157.755995,84.1471216 160.445478,82.6316216 162.128783,80.6106216 Z M169.076135,102.535543 C168.326385,100.956543 167.984816,98.6000427 168.271794,96.6905427 C168.573797,94.1195427 170.186986,91.5620427 171.476135,90.6340427 C171.815701,90.2755427 172.63106,89.6220427 173.181477,89.2265427 C171.148589,86.2400427 167.820041,84.6295427 164.429891,84.5780427 C161.012195,84.2910427 157.464782,86.7375427 155.552095,86.6815427 C153.70101,86.7375427 150.905851,84.5295427 147.955934,84.6695427 C147.860776,84.6650427 147.32939,84.6940427 147.32939,84.6940427 C143.418873,84.7905427 139.953096,87.0910427 137.984816,90.5790427 C137.193998,91.8355427 136.259941,94.7655427 136.120709,96.6195427 C135.931894,97.8950427 136.114198,101.030043 136.326051,102.537543 C136.508355,104.113543 137.27313,107.017543 137.846585,108.437043 C138.393497,110.019543 139.930559,112.962543 140.923213,114.468043 C142.93757,117.351043 145.297504,120.580043 148.407687,120.441043 C151.413196,120.327043 152.51954,118.448543 156.138572,118.477043 C159.756602,118.448543 160.757771,120.351043 163.927554,120.365543 C167.159941,120.227043 169.162779,117.355543 171.168121,114.479043 C172.149257,112.996543 173.689323,110.144043 174.234232,108.450543 C174.302846,108.271043 174.393998,107.996543 174.459106,107.796043 C172.333564,107.195043 169.94909,104.399543 169.114699,102.537543 L169.076135,102.535543 Z M169.076135,102.535543" id="Fill-17" fill="#FFFFFF" sketch:type="MSShapeGroup"></path>
            <g id="giro-logo" transform="translate(211.844741, 10.500000)" sketch:type="MSShapeGroup">
                <path d="M0.532844942,22.9733731 C0.280056974,24.9489858 1.52840127,26.7190484 4.13891586,28.2934136 C8.32796869,30.8194916 11.3184318,32.3740031 15.6288809,33.9540848 C21.8234669,36.2248347 28.5723073,37.5 36.0222058,37.5 C52.1500375,37.5 71.5547874,25.3022934 78.8447695,11.3486245 C80.7258426,7.78064195 80.5744287,5.13961902 78.2147253,3.68936914 C76.749518,2.78886749 75.4777658,2.62254192 71.3421176,2.42381084 C70.8361114,2.39949563 70.486774,2.38087689 70.1434381,2.35890247 C70.294659,2.36860286 62.3167303,1.72962237 58.6568403,1.50249747 C52.0265461,1.09103566 45.8159983,0.911576248 39.9508402,1.04184591 C34.6043997,1.16059445 29.785354,1.53702722 25.5801869,2.21200778 C20.8393673,3.0340266 18.4189363,4.1270691 17.6791473,6.06620888 C17.3070887,7.04145119 17.4362384,8.02332319 17.9102148,9.07972427 C18.0735801,9.44383369 18.4707101,10.0345469 18.4256998,10.0599037 L17.2930221,10.6980035 C17.1818327,10.7606426 16.9741841,10.8779026 16.6838393,11.0423091 C16.2003778,11.3160672 15.6617736,11.6220077 15.0817797,11.9526622 C13.4243302,12.8975741 11.7667332,13.8515144 10.2186427,14.754964 C6.6769803,16.8218417 4.26661094,18.2957728 3.33753036,19.0050142 C1.71349962,20.245825 0.727381352,21.4530136 0.532844942,22.9733731 Z M0.532844942,22.9733731" id="Path" fill="#1B1B1B"></path>
                <path d="M17.2352119,12.0512503 C17.2352119,12.0512503 6.36615613,18.1189238 4.22396926,19.7580658 C2.08257696,21.397999 0.271729818,23.6937471 4.88347041,26.4815544 C9.49441642,29.2685705 19.8708328,35.5 36.0111302,35.5 C52.1522223,35.5 70.7636627,23.0387232 77.516001,10.0838052 C81.1384898,3.19656062 75.2093361,3.68861968 70.1041615,3.3611077 C64.9981924,3.03280464 42.104762,0.573300474 25.7999865,3.19656062 C15.4235702,5.00024975 19.5410822,7.78805698 21.3527239,11.3954352 C23.1643656,15.0028135 32.8812808,28.4497906 34.5284445,27.4656725 C36.1756082,26.4815544 40.7873488,21.234243 40.7873488,17.9543767 C40.7873488,14.6753015 32.5523248,6.96848595 44.5759049,6.96848595 C56.5994849,6.96848595 66.6461507,6.31187983 61.2104309,13.8549394 C55.7747112,21.397999 49.1876454,30.7447477 34.6937171,30.7447477 C20.1997887,30.7447477 11.7994921,23.0379321 15.7525262,19.2660068 C19.7063548,15.4948725 19.3773988,15.1673606 17.2352119,12.0512503" id="Fill-6" fill="#D9222A"></path>
            </g>
        </g>
        <g id="magic-mouse" sketch:type="MSLayerGroup" transform="translate(979.000000, 329.000000)">
            <path d="M31.1353015,6.00295956 C30.954801,6.00118382 30.909602,6.00029596 30.8646985,6 C26.2284059,6.04853671 21.5469143,6.38119072 18.4104597,6.86537395 C0.214178166,9.67399188 0,31.3104124 0,46.9273935 L0,59.7428596 L0,60.4262209 L0,70.0734831 L0,73.1129464 L0,83.5726065 C0,99.1901795 0.214473584,120.8266 18.4104597,123.634626 C21.5469143,124.118513 26.2284059,124.451463 30.8646985,124.49704 C31.045199,124.498816 31.090398,124.5 31.1353015,124.5 C35.7712987,124.451463 40.4530857,124.118513 43.5895403,123.634626 C61.7861173,120.8266 62,100.374298 62,83.5726065 L62,73.1129464 L62,70.0734831 L62,60.4262209 L62,59.7428596 L62,46.9273935 C62,30.1257024 61.7858218,9.67369592 43.5895403,6.86537395 C40.4530857,6.38119072 35.7712987,6.04883266 31.1353015,6.00295956 Z M31.1353015,6.00295956" id="shadow" fill-opacity="0.1" fill="#000000" sketch:type="MSShapeGroup"></path>
            <path d="M37.1353015,0.00295955524 C36.954801,0.0011838221 36.909602,0.000295955524 36.8646985,0 C32.2284059,0.048536706 27.5469143,0.381190715 24.4104597,0.865373953 C6.21417817,3.67399188 6,25.3104124 6,40.9273935 L6,53.7428596 L6,54.4262209 L6,64.0734831 L6,67.1129464 L6,77.5726065 C6,93.1901795 6.21447358,114.8266 24.4104597,117.634626 C27.5469143,118.118513 32.2284059,118.451463 36.8646985,118.49704 C37.045199,118.498816 37.090398,118.5 37.1353015,118.5 C41.7712987,118.451463 46.4530857,118.118513 49.5895403,117.634626 C67.7861173,114.8266 68,94.3742976 68,77.5726065 L68,67.1129464 L68,64.0734831 L68,54.4262209 L68,53.7428596 L68,40.9273935 C68,24.1257024 67.7858218,3.67369592 49.5895403,0.865373953 C46.4530857,0.381190715 41.7712987,0.0488326615 37.1353015,0.00295955524 Z M37.1353015,0.00295955524" id="Shape" fill="#FFFFFF" sketch:type="MSShapeGroup"></path>
            <path d="M37.1192283,0.00295989787 C36.9386355,0.00118395915 36.8934134,0.000295989787 36.8484869,0 C32.2098243,0.048542325 27.5262352,0.381234845 24.3881772,0.865474137 C19.6389717,1.59834485 16.1163783,3.6140353 13.5,6.46826481 C39.3002332,15.3855491 67.7591111,57.7162325 66.590135,98.998816 C67.9612804,92.2582406 68,84.6018728 68,77.5812911 L68,67.12042 L68,64.0806049 L68,54.4325218 L68,53.7490814 L68,40.9318356 C67.9997044,24.1284954 67.7854168,3.67441721 49.5798335,0.865474137 C46.4417756,0.381234845 41.7575953,0.0488383148 37.1192283,0.00295989787 Z M37.1192283,0.00295989787" id="Shape" fill="url(#linearGradient-1)" sketch:type="MSShapeGroup"></path>
            <path d="M39.9339375,90.942483 C39.9200524,89.441368 41.1395781,88.7206886 41.1948231,88.6855555 C40.5091353,87.6660944 39.4414595,87.5264628 39.0609485,87.5093467 C38.1525082,87.4159586 37.2880866,88.0531593 36.8272193,88.0531593 C36.3669429,88.0531593 35.6552575,87.52346 34.9022121,87.5378735 C33.911052,87.5522871 32.9987712,88.122825 32.4879766,89.0236742 C31.459888,90.8388854 32.2250459,93.5267192 33.2277277,94.9987068 C33.7175469,95.7184853 34.3016075,96.5286491 35.0694242,96.4992213 C35.8085845,96.4697936 36.0877637,96.0139639 36.9805463,96.0139639 C37.8736244,96.0139639 38.1250334,96.4992213 38.9064398,96.4842072 C39.7017313,96.4697936 40.2054356,95.7503153 40.6920051,95.0278343 C41.2544995,94.1921465 41.4861149,93.3828836 41.5,93.3411442 C41.4825698,93.3339374 39.9495952,92.7366744 39.9339375,90.942483 Z M38.8452738,86.7294735 C39.2763661,86.2711877 39.56626,85.634634 39.4869141,85 C38.866516,85.0219407 38.1152284,85.3628439 37.6697663,85.8205811 C37.2708498,86.2259351 36.9209778,86.8742819 37.0156306,87.4957515 C37.7072526,87.5431982 38.4141815,87.1872108 38.8452738,86.7294735 Z M38.8452738,86.7294735" id="Shape" fill="#E2E2E2" sketch:type="MSShapeGroup"></path>
        </g>
        <g id="headphones" sketch:type="MSLayerGroup" transform="translate(940.000000, 50.000000)">
            <path d="M223.15107,141.625222 C228.898086,95.6998183 210.433129,67.6796796 189.150524,50.8661534 C186.5975,52.6507165 183.060001,53.2149246 180.225265,52.0710584 C180.225265,52.0710584 150.520164,39.3447846 137.394162,36.2118933 C124.268161,33.0790013 114.384765,33.669076 101.812221,36.2118933 C89.2396766,38.7547104 58.9811179,52.0710584 58.9811179,52.0710584 C55.9547143,53.2922657 52.1273032,52.5666112 49.552023,50.4875837 C28.863189,67.7587214 10.4068027,97.0882107 15.9800787,141.625222 C16.8828004,143.742961 18.8476475,147.958926 21.4454315,153.413544 C21.8918109,153.306442 22.3610052,153.517566 22.5677307,153.9433 L22.9722836,154.776444 C21.833661,151.196773 21.6668791,146.395555 22.6751561,143.162017 L27.3727501,128.096864 C27.8688367,126.505917 28.8580583,126.435363 29.5846164,127.93165 L31.4531588,127.648454 L30.6640901,126.023432 L37.2602431,122.791971 L47.6538875,117.700117 C55.705693,113.755531 65.3979007,117.112746 69.3199523,125.189892 L103.776144,196.149607 C107.694372,204.218877 104.35687,213.969106 96.3130848,217.909763 L85.9194404,223.001617 L79.3232874,226.233078 L78.53422,224.608058 L76.9136671,225.401968 C77.7591785,227.14323 77.0937966,227.880705 75.540241,227.29388 L60.829151,221.737056 C57.6697731,220.543664 54.0048771,217.451237 51.8993724,214.349423 L53.0370519,216.692381 C53.269684,217.171468 53.2292899,217.707842 52.9784898,218.129408 C54.8359412,221.901922 55.949206,224.157773 55.949206,224.157773 C55.949206,224.157773 56.9097122,236.291156 46.4162952,228.826858 C24.4911627,196.103007 12.107069,168.88175 3.02148629,144.308943 C-12.6115577,69.0314286 45.7145569,27.0413548 81.1509378,12.7828102 C89.1619316,9.55942465 97.4125934,7.7169755 103.724032,6.51718929 C112.220871,4.9019649 126.910277,4.9019649 135.407116,6.51718929 C141.718555,7.7169755 149.969217,9.55942465 157.980211,12.7828102 C192.702261,26.7539296 248.616238,68.0946037 236.14979,140.571934 C228.980152,166.355727 216.795611,193.701755 193.675358,228.826863 C183.181941,236.29116 183.181942,224.157773 183.181942,224.157773 C183.181942,224.157773 184.311724,221.868453 186.193966,218.045511 C185.985426,217.638125 185.964311,217.140223 186.181771,216.692381 L187.319451,214.349423 C185.213946,217.451237 181.54905,220.543664 178.389672,221.737056 L163.678582,227.29388 C162.125026,227.880705 161.459645,227.14323 162.305156,225.401968 L160.684603,224.608058 L159.895536,226.233078 L153.299383,223.001617 L142.905738,217.909763 C134.861953,213.969106 131.524451,204.218877 135.442679,196.149607 L169.898871,125.189892 C173.820922,117.112746 183.51313,113.755531 191.564936,117.700117 L201.95858,122.791971 L208.554733,126.023432 L207.765664,127.648454 L209.386217,128.442364 C210.360765,126.435363 211.349986,126.505917 211.846073,128.096864 L216.543667,143.162017 C217.551944,146.395555 217.385162,151.196773 216.246539,154.776444 L216.651092,153.9433 C216.845473,153.542988 217.271914,153.332421 217.693244,153.397739 C220.287296,147.950783 222.24922,143.740915 223.15107,141.625222 Z M223.15107,141.625222" id="shadow" fill-opacity="0.1" fill="#000000" sketch:type="MSShapeGroup"></path>
            <path d="M106.812219,22.0751154 C104.447806,22.4888059 89.8574613,22.0751154 60.9492019,40.3833986 C37.8915238,56.665613 14.8365637,87.1453117 20.9800768,136.021907 C25.803419,147.287142 60.9492041,218.189186 60.9492041,218.189186 C60.9492041,218.189186 61.9097103,230.268869 51.4162933,222.837607 C29.4911608,190.258585 17.107067,163.157804 8.02148437,138.69375 C-7.61155959,63.7493984 50.714555,21.9451639 86.1509359,7.74972458 C94.1619297,4.54060502 102.412592,2.70631017 108.72403,1.51183395 C117.220869,-0.0962417901 131.910275,-0.0962417901 140.407114,1.51183395 C146.718553,2.70631017 154.969215,4.54060502 162.980209,7.74972458 C197.702259,21.6590107 253.616236,62.8167197 241.149788,134.973281 C233.98015,160.64296 221.795609,187.86796 198.675356,222.837612 C188.181939,230.268874 188.181941,218.189186 188.181941,218.189186 C188.181941,218.189186 223.327726,147.287142 228.151068,136.021907 C240.079709,41.1199541 147.698037,23.0162737 142.318925,22.0751154 C133.26069,20.4902376 115.870455,20.4902376 106.812219,22.0751154 Z M106.812219,22.0751154" id="top" fill="#47A5BC" sketch:type="MSShapeGroup"></path>
            <g id="padding" transform="translate(15.217172, 9.000000)" fill="#1B1B1B" sketch:type="MSShapeGroup">
                <path d="M34.7951534,40.2960961 C23.8041644,50.6058239 14.2600118,64.4272118 9.02571597,82.4557271 C9.02571633,82.4557285 0.152600171,80.5769556 0.152600152,80.5769538 C5.01785459,59.4382012 13.5971995,47.6028873 26.8834635,34.1449219 C26.8834644,34.1449218 34.7951543,40.2960958 34.7951534,40.2960961 Z M34.7951534,40.2960961" id="Path"></path>
                <path d="M217.706518,40.9906543 C206.715529,51.3003821 197.171377,65.12177 191.937081,83.1502853 C191.937081,83.1502866 184.319601,80.7726567 184.319601,80.7726549 C189.184856,59.6339023 198.398309,47.9496191 211.684573,34.4916536 C211.684574,34.4916535 217.706519,40.990654 217.706518,40.9906543 Z M217.706518,40.9906543" id="Path" transform="translate(201.013060, 58.820969) scale(-1, 1) translate(-201.013060, -58.820969) "></path>
                <path d="M127.176988,22.0751154 C140.302991,25.1941413 170.008091,37.8640912 170.008091,37.8640912 C173.702719,39.3483407 178.591127,37.9439297 180.937806,34.7258813 C180.937806,34.7258813 182.936451,31.9385292 184.319601,30.1652345 C181.447658,25.3061288 159.850348,12.5616351 147.838272,7.74972458 C139.827278,4.54060502 131.576616,2.70631017 125.265177,1.51183395 C121.137556,0.73065792 115.548581,0.328964009 109.918054,0.306752219 C109.73645,0.306035811 109.559073,0.324416533 109.386018,0.3607295 C109.212963,0.324416533 109.035586,0.306035811 108.853982,0.306752219 C103.223455,0.328964009 97.6344794,0.73065792 93.5068584,1.51183395 C87.1954198,2.70631017 78.944758,4.54060502 70.9337641,7.74972458 C58.9216881,12.5616351 37.3243779,25.3061288 34.4524345,30.1652345 C35.8355846,31.9385292 37.8342297,34.7258813 37.8342297,34.7258813 C40.1809083,37.9439297 45.0693164,39.3483407 48.7639443,37.8640912 C48.7639443,37.8640912 79.0225029,24.6066786 91.5950475,22.0751154 C104.167592,19.5435521 114.050988,18.956089 127.176988,22.0751154 Z M127.176988,22.0751154" id="Path"></path>
            </g>
            <g id="right-ear" transform="translate(183.889149, 167.773473) scale(-1, 1) rotate(-26.000000) translate(-183.889149, -167.773473) translate(154.889149, 111.773473)" sketch:type="MSShapeGroup">
                <path d="M29.4494949,111.6 L41.7412654,111.6 C50.6907968,111.6 57.9458254,104.338403 57.9458254,95.4002505 L57.9458254,16.7997495 C57.9458254,7.85287489 50.6997199,0.6 41.7412654,0.6 L29.4494949,0.6 L29.4494949,111.6 Z M29.4494949,111.6" id="Rectangle-14" fill="#1B1B1B"></path>
                <rect d="M22.8383838,0.6 L22.8383838,111.6 L29.4494949,111.6 L29.4494949,0.6 L22.8383838,0.6 Z M22.8383838,0.6" id="Rectangle-15" fill="#47A5BC" x="22.8383838" y="0.6" width="6.61111111" height="111"></rect>
                <path d="M21.0353535,1.83429469 C21.0353535,0.176890682 20.115455,-0.193622384 18.975237,1.01251207 L8.1781673,12.4337655 C5.44431046,15.3256679 3.2280816,20.8866177 3.2280816,24.8729094 L3.2280816,87.0304478 C3.2280816,91.0084948 5.44254529,96.575822 8.1781673,99.4695916 L18.975237,110.890845 C20.115455,112.09698 21.0353535,111.728759 21.0353535,110.074182 L21.0353535,1.83429469 Z M21.0353535,1.83429469" id="Rectangle-15" fill="#47A5BC"></path>
                <rect d="M21.0353535,2.4 L21.0353535,109.8 L22.8383838,109.8 L22.8383838,2.4 L21.0353535,2.4 Z M21.0353535,2.4" id="Rectangle-15" fill="#367D8E" x="21.0353535" y="2.4" width="1.8030303" height="107.4"></rect>
                <rect d="M1.87380251,21.0435254 C1.04398072,21.0435254 0.371277255,21.7103215 0.371277255,22.5473477 L0.371277255,91.5397031 C0.371277255,92.3702412 1.03819536,93.0435254 1.87380251,93.0435254 L1.87380251,93.0435254 C2.70362429,93.0435254 3.37632776,92.3767293 3.37632776,91.5397031 L3.37632776,22.5473477 C3.37632776,21.7168096 2.70940966,21.0435254 1.87380251,21.0435254 L1.87380251,21.0435254 Z M1.87380251,21.0435254" id="Rectangle-15" fill="#3D8B9E" x="0.371277255" y="21.0435254" width="3.00505051" height="72" rx="3"></rect>
                <ellipse d="M51.5194692,92.2508452 C52.8471842,92.2508452 53.9235096,75.5958389 53.9235096,55.0508452 C53.9235096,34.5058514 52.8471842,17.8508452 51.5194692,17.8508452 C50.1917543,17.8508452 49.1154288,34.5058514 49.1154288,55.0508452 C49.1154288,75.5958389 50.1917543,92.2508452 51.5194692,92.2508452 Z M51.5194692,92.2508452" id="Oval-1" fill="#3D3D3D" transform="translate(51.519469, 55.050845) scale(-1, 1) rotate(1.000000) translate(-51.519469, -55.050845) " cx="51.5194692" cy="55.0508452" rx="2.4040404" ry="37.2"></ellipse>
            </g>
            <g id="left-ear" transform="translate(65.248627, 167.773473) rotate(-26.000000) translate(-65.248627, -167.773473) translate(36.248627, 111.773473)" sketch:type="MSShapeGroup">
                <path d="M29.4494949,111.6 L41.7412654,111.6 C50.6907968,111.6 57.9458254,104.338403 57.9458254,95.4002505 L57.9458254,16.7997495 C57.9458254,7.85287489 50.6997199,0.6 41.7412654,0.6 L29.4494949,0.6 L29.4494949,111.6 Z M29.4494949,111.6" id="Rectangle-14" fill="#1B1B1B"></path>
                <rect d="M22.8383838,0.6 L22.8383838,111.6 L29.4494949,111.6 L29.4494949,0.6 L22.8383838,0.6 Z M22.8383838,0.6" id="Rectangle-15" fill="#47A5BC" x="22.8383838" y="0.6" width="6.61111111" height="111"></rect>
                <path d="M21.0353535,1.83429469 C21.0353535,0.176890682 20.115455,-0.193622384 18.975237,1.01251207 L8.1781673,12.4337655 C5.44431046,15.3256679 3.2280816,20.8866177 3.2280816,24.8729094 L3.2280816,87.0304478 C3.2280816,91.0084948 5.44254529,96.575822 8.1781673,99.4695916 L18.975237,110.890845 C20.115455,112.09698 21.0353535,111.728759 21.0353535,110.074182 L21.0353535,1.83429469 Z M21.0353535,1.83429469" id="Rectangle-15" fill="#47A5BC"></path>
                <rect d="M21.0353535,2.4 L21.0353535,109.8 L22.8383838,109.8 L22.8383838,2.4 L21.0353535,2.4 Z M21.0353535,2.4" id="Rectangle-15" fill="#367D8E" x="21.0353535" y="2.4" width="1.8030303" height="107.4"></rect>
                <rect d="M1.87380251,21.0435254 C1.04398072,21.0435254 0.371277255,21.7103215 0.371277255,22.5473477 L0.371277255,91.5397031 C0.371277255,92.3702412 1.03819536,93.0435254 1.87380251,93.0435254 L1.87380251,93.0435254 C2.70362429,93.0435254 3.37632776,92.3767293 3.37632776,91.5397031 L3.37632776,22.5473477 C3.37632776,21.7168096 2.70940966,21.0435254 1.87380251,21.0435254 L1.87380251,21.0435254 Z M1.87380251,21.0435254" id="Rectangle-15" fill="#3D8B9E" x="0.371277255" y="21.0435254" width="3.00505051" height="72" rx="3"></rect>
                <ellipse d="M50.5568619,91.7821393 C51.8845768,91.7821393 52.9609023,75.127133 52.9609023,54.5821393 C52.9609023,34.0371455 51.8845768,17.3821393 50.5568619,17.3821393 C49.229147,17.3821393 48.1528215,34.0371455 48.1528215,54.5821393 C48.1528215,75.127133 49.229147,91.7821393 50.5568619,91.7821393 Z M50.5568619,91.7821393" id="Oval-1" fill="#3D3D3D" transform="translate(50.556862, 54.582139) scale(-1, 1) rotate(1.000000) translate(-50.556862, -54.582139) " cx="50.5568619" cy="54.5821393" rx="2.4040404" ry="37.2"></ellipse>
            </g>
        </g>
        <g id="tea" sketch:type="MSLayerGroup" transform="translate(1090.000000, 329.000000)">
            <path d="M101.854514,51.6378082 C99.8817212,25.5518825 78.0909367,5 51.5,5 C23.6096188,5 1,27.6096188 1,55.5 C1,58.0883573 1.19472997,60.631233 1.57033897,63.1147761 C2.17688429,77.5138948 21.4315669,108.167249 30.5908203,117.182617 C39.7060661,126.154669 64.7607117,126.043976 73.8994141,116.905273 C77.9731836,112.831504 83.7905216,104.336576 88.9874566,94.936381 C98.1991445,89.4795644 112.056011,80.8937359 117.767476,75.4080602 C126.676869,66.8508804 124.962937,57.8213665 118.210205,54.4783448 C115.368973,53.0717585 108.666259,52.1887826 101.854514,51.6378082 Z M101.120726,64.9319111 C100.588321,67.750049 99.8217797,70.4854306 98.8420886,73.1170685 C98.4247744,74.4033632 97.9538603,75.7293793 97.4369976,77.0837375 C101.548959,74.9867235 105.108902,73.1773753 106.65692,72.4060748 C111.45339,70.0162332 113.561222,67.0668098 109.743819,65.7114593 C108.623604,65.3137325 105.282631,65.0732237 101.120726,64.9319111 Z M101.120726,64.9319111" id="shadow" fill-opacity="0.1" fill="#000000" sketch:type="MSShapeGroup"></path>
            <path d="M78.8994141,111.905273 C88.0381162,102.766571 105.951172,71.3787839 105.951172,57.4335933 C105.951172,29.543212 6.55566406,29.5432122 6.55566406,57.4335935 C6.55566406,71.5234791 26.2844325,103.022426 35.5908203,112.182617 C44.7060661,121.154669 69.7607117,121.043976 78.8994141,111.905273 Z M78.8994141,111.905273" id="cup" fill="#2B468F" sketch:type="MSShapeGroup"></path>
            <path d="M87.8925224,45.75 C87.8925224,45.75 95.03376,45.8463306 103.019089,46.3605391 C111.004418,46.8747475 119.833839,47.8068337 123.210205,49.4783448 C129.962937,52.8213665 131.676869,61.8508804 122.767476,70.4080602 C113.858084,78.9652407 85.1282359,95.0661178 85.1282359,95.0661178 L85.9438649,80.514928 C92.6635297,77.0742792 107.944806,69.2556362 111.65692,67.4060748 C116.45339,65.0162332 118.561222,62.0668098 114.743819,60.7114593 C111.999391,59.7370636 95.9258209,59.7063012 87.1068927,59.7659883 L87.8925224,45.75 Z M87.8925224,45.75" id="handle" fill="#2B468E" sketch:type="MSShapeGroup"></path>
            <circle d="M56.5,101 C84.3903812,101 107,78.3903812 107,50.5 C107,22.6096188 84.3903812,0 56.5,0 C28.6096188,0 6,22.6096188 6,50.5 C6,78.3903812 28.6096188,101 56.5,101 Z M56.5,101" id="rim" fill="#1A2952" sketch:type="MSShapeGroup" cx="56.5" cy="50.5" r="50.5"></circle>
            <circle d="M56.25,97.5 C82.0693133,97.5 103,76.5693133 103,50.75 C103,24.9306867 82.0693133,4 56.25,4 C30.4306867,4 9.5,24.9306867 9.5,50.75 C9.5,76.5693133 30.4306867,97.5 56.25,97.5 Z M56.25,97.5" id="inside" fill="#203467" sketch:type="MSShapeGroup" cx="56.25" cy="50.75" r="46.75"></circle>
            <g id="tea-bag" transform="translate(40.310629, 46.427455) rotate(306.000000) translate(-40.310629, -46.427455) translate(21.310629, 10.927455)" sketch:type="MSShapeGroup">
                <path d="M29.5551134,21 L8.98351227,21.0000005 L0.5,32.7913889 L2.29190163,68.9985079 C2.33294153,69.8277591 3.03701499,70.5 3.87437882,70.5 L34.439586,70.5 C35.2725241,70.5 35.9842455,69.8294924 36.0294708,68.9985079 L38,32.7913884 L29.5551134,21 Z M29.5551134,21" id="bag" fill-opacity="0.810977711" fill="#F0EEEE"></path>
                <path d="M24.7685544,46.8281252 C17.8972721,48.0095806 15.5932615,46.0971679 10.3569333,46.8281252 C5.77061584,47.4683456 1.37403082,50.4520336 1.37403082,50.4520336 L2.29163617,68.9931441 C2.33282268,69.8253576 3.03701499,70.5 3.87437882,70.5 L34.439586,70.5 C35.2725241,70.5 35.9843552,69.8274766 36.0295813,68.9964786 L37.4899698,42.1628425 C37.4899698,42.1628425 31.6398368,45.6466697 24.7685544,46.8281252 Z M24.7685544,46.8281252" id="leaves" fill="#327B60"></path>
                <path d="M8.98351227,21.5000005 L0.5,33 L19.25,28.6238797 L38,32.9999995 L29.5551134,21.5 L8.98351227,21.5000005 Z M8.98351227,21.5000005" id="fold" fill-opacity="0.810977711" fill="#F0EEEE"></path>
                <path d="M14.2718099,34 L24.5218099,34 L29.5,21 L9,21 L14.2718099,34 Z M14.2718099,34" id="fold" fill-opacity="0.810977711" fill="#F0EEEE"></path>
                <rect d="M16.7456326,27.5 C16.3338311,27.5 16,27.8328986 16,28.25 L16,28.25 C16,28.6642136 16.3312722,29 16.7456326,29 L21.7543674,29 C22.1661689,29 22.5,28.6671014 22.5,28.25 L22.5,28.25 C22.5,27.8357864 22.1687278,27.5 21.7543674,27.5 L16.7456326,27.5 Z M16.7456326,27.5" id="staple" fill="#6B6B6B" x="16" y="27.5" width="6.5" height="1.5" rx="1"></rect>
                <path d="M20.0949601,9.34920513 C19.5304729,6.73198065 17.6329062,2.8393981 16.4449974,1.26298988 C15.177013,-0.419682209 14.2950929,1.65252142 14.2950929,1.65252142 C14.2950929,1.65252142 15.1636331,0.999053122 15.5816418,1.55376942 C16.2102945,2.38801989 18.6923863,5.75044417 19.2823795,9.50817958 C19.2578611,10.735439 18.5136121,12.1055051 18.2176481,13.4020345 C17.9216843,14.698564 19.2094743,20.9029546 19.2094743,20.9029546 L20.1153917,21.0349799 C20.1153917,21.0349799 18.8374858,14.7855784 19.0332727,13.3728609 C19.2290596,11.9601433 20.265932,10.1419101 20.0949601,9.34920513 Z M20.0949601,9.34920513" id="string" fill="#FFFFFF"></path>
            </g>
            <circle d="M56.5,90 C78.0391063,90 95.5,72.5391063 95.5,51 C95.5,29.4608937 78.0391063,12 56.5,12 C34.9608937,12 17.5,29.4608937 17.5,51 C17.5,72.5391063 34.9608937,90 56.5,90 Z M56.5,90" id="water" fill-opacity="0.278693704" fill="#FACF1C" sketch:type="MSShapeGroup" cx="56.5" cy="51" r="39"></circle>
        </g>
        <g id="iPhone" sketch:type="MSLayerGroup" transform="translate(363.000000, 424.500000) rotate(-270.000000) translate(-363.000000, -424.500000) translate(336.000000, 373.000000)">
            <path d="M14.0922745,102.508499 L47.600192,102.508499 C48.9759421,102.508499 50.2552734,102.077062 51.3449034,101.425999 C52.7138725,100.245999 53.5827384,98.513499 53.5827384,96.585499 L53.5827384,12.366999 C53.5827384,8.833999 50.6624395,5.944499 47.0950374,5.944499 L46.9493765,5.944499 C46.4055515,5.79687558 45.8338096,5.717999 45.2444034,5.717999 L44.711718,5.717999 L44.7117178,5.241499 L37.3167591,5.241499 L37.3167592,5.717999 L11.7364859,5.717999 C10.360381,5.717999 9.08104823,6.14866987 7.99177452,6.799499 C6.62280544,7.979499 5.752424,9.714499 5.752424,11.640499 L5.752424,19.163499 L5.27126421,19.163499 L5.27126421,23.350499 L5.752424,23.350499 L5.752424,28.270499 L5.27126421,28.270499 L5.27126421,31.538499 L5.752424,31.538499 L5.752424,36.308999 L5.270477,36.308999 L5.270477,39.576499 L5.752424,39.576499 L5.752424,95.858999 C5.752424,99.391999 8.67272297,102.281999 12.2416405,102.281999 L12.3868017,102.281999 C12.9307611,102.429622 13.5026664,102.508499 14.0922745,102.508499 Z M14.0922745,102.508499" id="shadow" fill-opacity="0.1" fill="#000000" sketch:type="MSShapeGroup"></path>
            <path d="M42.0950412,0.9445 C45.6624433,0.9445 48.5827423,3.834 48.5827423,7.367 L48.5827423,91.5855 C48.5827423,93.5135 47.7138763,95.246 46.3449072,96.426 C45.2552772,97.0770626 43.9759459,97.5085 42.6001959,97.5085 L9.09227835,97.5085 C5.52336082,97.5085 2.60306186,94.6185 2.60306186,91.0855 L2.60306186,6.867 C2.60306186,4.941 3.4734433,3.206 4.84241237,2.026 C5.93168608,1.37517087 7.21101883,0.9445 8.58712371,0.9445 L42.0950412,0.9445 Z M42.0950412,0.9445" id="back" fill="#3D3D3D" sketch:type="MSShapeGroup"></path>
            <rect d="M38.3917526,14 L38.3917526,84 L48.4948454,84 L48.4948454,14 L38.3917526,14 Z M38.3917526,14" id="stripe" fill="#696969" sketch:type="MSShapeGroup" x="38.3917526" y="14" width="10.1030928" height="70"></rect>
            <path d="M40.2444072,0.718 C43.8118093,0.718 46.7321082,3.6075 46.7321082,7.1405 L46.7321082,91.359 C46.7321082,93.287 45.8632423,95.0195 44.4942732,96.1995 C43.4046432,96.8505626 42.1253119,97.282 40.7495619,97.282 L7.24164433,97.282 C3.6727268,97.282 0.752427835,94.392 0.752427835,90.859 L0.752427835,6.6405 C0.752427835,4.7145 1.62280928,2.9795 2.99177835,1.7995 C4.08105206,1.14867087 5.36038481,0.718 6.73648969,0.718 L40.2444072,0.718 Z M32.3167629,0.6945 L39.7117216,0.6945 L39.7117216,0.2415 L32.3167629,0.2415 L32.3167629,0.6945 Z M0.271268041,18.3505 L0.72843299,18.3505 L0.72843299,14.1635 L0.271268041,14.1635 L0.271268041,18.3505 Z M0.271268041,26.5385 L0.72843299,26.5385 L0.72843299,23.2705 L0.271268041,23.2705 L0.271268041,26.5385 Z M0.271268041,34.5765 L0.72843299,34.5765 L0.72843299,31.309 L0.271268041,31.309 L0.271268041,34.5765 Z M0.271268041,34.5765" id="Shape" fill="#141414" sketch:type="MSShapeGroup"></path>
            <g id="face-components" transform="translate(19.701031, 4.500000)" sketch:type="MSShapeGroup">
                <path d="M9.24180412,4.5165 C9.24180412,4.859 8.96295876,5.136 8.61743299,5.136 L1.82461856,5.136 C1.47808247,5.136 1.19873196,4.8585 1.19873196,4.5165 L1.19873196,4.5165 C1.19873196,4.1745 1.47858763,3.8965 1.82461856,3.8965 L8.61743299,3.8965 C8.96295876,3.896 9.24180412,4.1745 9.24180412,4.5165 L9.24180412,4.5165 L9.24180412,4.5165 L9.24180412,4.5165 L9.24180412,4.5165 Z M9.24180412,4.5165" id="ear" fill="#282828"></path>
                <ellipse d="M5.2207732,1.562 C5.60856821,1.562 5.92293814,1.25083792 5.92293814,0.867 C5.92293814,0.48316208 5.60856821,0.172 5.2207732,0.172 C4.83297818,0.172 4.51860825,0.48316208 4.51860825,0.867 C4.51860825,1.25083792 4.83297818,1.562 5.2207732,1.562 Z M5.2207732,1.562" id="mic" fill="#282828" cx="5.2207732" cy="0.867" rx="0.702164948" ry="0.695"></ellipse>
                <g id="home" transform="translate(0.000000, 81.500000)">
                    <path d="M8.53357732,4.705 C8.53357732,7.034 6.62459794,8.924 4.27057732,8.924 C1.91605155,8.924 0.00707216495,7.0345 0.00707216495,4.705 C0.00707216495,2.3735 1.9165567,0.484 4.27057732,0.484 C6.62409278,0.484 8.53357732,2.3735 8.53357732,4.705 C8.53357732,4.705 8.53357732,2.3735 8.53357732,4.705 L8.53357732,4.705 L8.53357732,4.705 Z M8.53357732,4.705" id="Shape" fill="#1C1C1C"></path>
                    <path d="M4.97072165,6.3415 L3.56992784,6.3415 C3.04456701,6.3415 2.61771134,5.9175 2.61771134,5.3975 L2.61771134,4.01 C2.61771134,3.491 3.04456701,3.068 3.56992784,3.068 L4.97072165,3.068 C5.49608247,3.068 5.9234433,3.491 5.9234433,4.01 L5.9234433,5.3975 C5.9234433,5.9175 5.49608247,6.3415 4.97072165,6.3415 L4.97072165,6.3415 L4.97072165,6.3415 L4.97072165,6.3415 Z M3.56992784,3.1815 C3.10720619,3.1815 2.73086598,3.552 2.73086598,4.0095 L2.73086598,5.397 C2.73086598,5.8545 3.10720619,6.227 3.56992784,6.227 L4.97072165,6.227 C5.4334433,6.227 5.80826804,5.8545 5.80826804,5.397 L5.80826804,4.0095 C5.80826804,3.552 5.4334433,3.1815 4.97072165,3.1815 L3.56992784,3.1815 L3.56992784,3.1815 L3.56992784,3.1815 L3.56992784,3.1815 Z M3.56992784,3.1815" id="Shape" opacity="0.23" fill="#FFFFFF"></path>
                </g>
            </g>
            <rect d="M4.11852577,14.2645 L4.11852577,84.1885 L43.8236804,84.1885 L43.8236804,14.2645 L4.11852577,14.2645 Z M4.11852577,14.2645" id="screen" fill="#262626" sketch:type="MSShapeGroup" x="4.11852577" y="14.2645" width="39.7051546" height="69.924"></rect>
            <rect d="M4.11852577,14.2645 L43.8236804,84.1885 L43.8236804,14.2645 L4.11852577,14.2645 Z M4.11852577,14.2645" id="screen" fill="#2E2E2E" sketch:type="MSShapeGroup" transform="translate(23.971103, 49.226500) scale(1, -1) translate(-23.971103, -49.226500) " x="4.11852577" y="14.2645" width="39.7051546" height="69.924"></rect>
        </g>
        <g id="dd" sketch:type="MSLayerGroup" transform="translate(414.000000, 153.000000)" fill="#54AF7D">
            <path d="M41.9430918,99.4980024 L124.203492,49.7817843 C130.873016,45.7500746 132.996663,37.101407 128.943712,30.4650793 L128.514389,29.7620785 C124.459673,23.1257507 115.765441,21.0132332 109.095917,25.0467004 L6.78984464,86.8791376 C2.25986898,89.6190833 -0.167660877,94.487364 0.00901524109,99.4101273 C-0.167660877,104.512156 2.25810222,109.380436 6.78984464,112.118625 L109.094151,173.952819 C115.763674,177.986286 124.457906,175.875527 128.512623,169.239199 L128.941946,168.536198 C132.994896,161.894598 130.873016,153.247688 124.203492,149.21422 L41.9430918,99.4980024 Z M41.9430918,99.4980024" id="Shape" sketch:type="MSShapeGroup"></path>
            <path d="M324.796599,49.7848607 L407.058109,99.5017134 L324.796599,149.216809 C318.126986,153.250327 316.003311,161.900863 320.056315,168.535518 L320.485644,169.238528 C324.540416,175.873183 333.234765,177.985727 339.904378,173.955723 L442.210064,112.122497 C446.740101,109.382516 449.167663,104.512416 448.990985,99.5895897 C448.992751,99.5614693 448.989218,99.5315914 448.990985,99.4999559 C448.989218,99.4718355 448.992751,99.4419576 448.990985,99.4138372 C449.167663,94.4910111 446.741867,89.6209108 442.210064,86.8809301 L339.904378,25.045946 C333.234765,21.0141848 324.540416,23.1249718 320.485644,29.7613842 L320.056315,30.464394 C316.003311,37.102564 318.126986,45.751342 324.796599,49.7848607 L324.796599,49.7848607 Z M324.796599,49.7848607" id="Shape" sketch:type="MSShapeGroup"></path>
            <path d="M283.198361,101.25 L297.745902,101.25 L297.745902,75.25 L215.477049,75.25 C203.688525,75.25 181.616393,70.25 181.616393,52.5 C181.365574,42.25 189.893443,28 215.727869,28 C233.536066,28 249.337705,33.5 249.337705,49.5 L280.690164,49.5 C280.439344,11.75 247.080328,0 216.480328,0 C185.127869,0 149.762295,15.25 149.511475,52.5 C149.511475,66.25 157.286885,83 173.088525,88 C156.785246,93.5 146,109.75 146,124.5 C146.25082,167.75 177.352459,180 215.727869,180 C234.288525,180 254.354098,174.25 265.891803,155.5 C271.409836,175.5 285.957377,178.5 299,178.5 L299,145.75 C287.713115,145.75 283.198361,137 283.198361,126.75 C283.198361,126.75 283.198361,137 283.198361,126.75 L283.198361,101.25 Z M215,101 L253,101 L253,126.634518 C253,144.654822 228.25,151 216.5,151 C198.25,151 180,143.639594 180,124.857868 C180,114.19797 190.75,101 215,101 C215,101 190.75,101 215,101 Z M215,101" id="&amp;" sketch:type="MSShapeGroup"></path>
        </g>
    </g>
</svg>