<?xml version="1.0" encoding="UTF-8" standalone="no"?>
<svg width="1280px" height="500px" viewBox="0 0 1280 500" version="1.1" xmlns="http://www.w3.org/2000/svg" xmlns:xlink="http://www.w3.org/1999/xlink" xmlns:sketch="http://www.bohemiancoding.com/sketch/ns">
    <title>header-the-wheels-spin</title>
    <description>Created with Sketch (http://www.bohemiancoding.com/sketch)</description>
    <defs></defs>
    <g id="Page-1" stroke="none" stroke-width="1" fill="none" fill-rule="evenodd" sketch:type="MSPage">
        <rect d="M0,0 L0,500 L1280,500 L1280,0 L0,0 Z M0,0" id="Rectangle-1" fill="#6DB6D9" sketch:type="MSShapeGroup" x="0" y="0" width="1280" height="500"></rect>
        <g id="wheel" sketch:type="MSLayerGroup" transform="translate(-43.000000, -117.000000)">
            <g id="shadows" transform="translate(-6.000000, 6.000000)" fill-opacity="0.1" sketch:type="MSShapeGroup">
                <path d="M195.137379,204.171813 L60.3568001,135.497678 L58.1756446,139.778436 L189.102478,206.48899 L49.3557564,161.082528 L47.8711127,165.651791 L191.666741,212.373823 C191.214408,214.309368 190.975207,216.326776 190.975207,218.4 C190.975207,218.90345 190.989312,219.403609 191.017149,219.900103 L41.7409312,243.543133 L42.4925061,248.288391 L187.62185,225.302161 L47.8711127,270.709928 L49.3557564,275.279191 L193.019672,228.599955 C194.01851,230.980164 195.356371,233.183208 196.972909,235.148799 L90.2206457,341.901062 L93.617875,345.298291 L197.482018,241.434149 L111.140532,360.273009 L115.027379,363.096969 L203.735358,241.000911 C205.928428,242.327211 208.330045,243.343884 210.879492,243.990271 L187.27834,393.002079 L192.023598,393.753653 L214.997245,248.703753 L214.997245,395.561719 L219.801653,395.561719 L219.801653,244.692377 C222.443251,244.454548 224.97275,243.82832 227.3325,242.87129 L295.841275,377.327331 L300.122034,375.146176 L233.434048,244.263635 L319.771519,363.096969 L323.658367,360.273009 L234.932241,238.151972 C236.847726,236.453568 238.514426,234.481282 239.870841,232.296561 L374.442098,300.864041 L376.623253,296.583282 L245.69642,229.872729 L385.443142,275.279191 L386.927785,270.709928 L243.224161,224.01779 C243.616862,222.207418 243.823691,220.32784 243.823691,218.4 C243.823691,217.74958 243.800149,217.104654 243.753868,216.466032 L393.057967,192.818586 L392.306392,188.073328 L247.177049,211.059558 L386.927785,165.651791 L385.443142,161.082528 L241.614186,207.815388 C240.592643,205.485973 239.244228,203.332207 237.626906,201.412003 L344.578252,94.4606567 L341.181023,91.0634275 L237.31688,194.92757 L323.658367,76.0887097 L319.771519,73.2647497 L230.841565,195.666331 C228.689512,194.393437 226.341111,193.416881 223.852655,192.792898 L247.520558,43.3596402 L242.7753,42.6080653 L219.801653,187.657965 L219.801653,40.8 L214.997245,40.8 L214.997245,192.107623 C212.424706,192.339234 209.958481,192.939203 207.651816,193.854331 L138.957623,59.0343874 L134.676865,61.2155429 L201.36485,192.098084 L115.027379,73.2647497 L111.140532,76.0887097 L200.061067,198.477327 C198.162061,200.128379 196.501368,202.045984 195.137379,204.171813 Z M195.137379,204.171813" id="inner-spokes" fill="#000000"></path>
                <path d="M218,435.6 C338.398081,435.6 436,338.087624 436,217.8 C436,97.5123755 338.398081,0 218,0 C97.6019186,0 0,97.5123755 0,217.8 C0,338.087624 97.6019186,435.6 218,435.6 Z M218,367.2 C300.587114,367.2 367.53719,300.579975 367.53719,218.4 C367.53719,136.220025 300.587114,69.6 218,69.6 C135.412886,69.6 68.4628099,136.220025 68.4628099,218.4 C68.4628099,300.579975 135.412886,367.2 218,367.2 Z M218,367.2" id="Oval-1" fill="#6B6B6B"></path>
            </g>
            <path d="M214.997245,40.8 L214.997245,196.8 L219.801653,196.8 L219.801653,40.8 L214.997245,40.8 Z M319.771519,73.2647497 L228.07702,199.471401 L231.963867,202.295361 L323.658367,76.0887097 L319.771519,73.2647497 Z M385.443142,161.082528 L237.078325,209.289179 L238.562969,213.858442 L386.927785,165.651791 L385.443142,161.082528 Z M386.927785,270.709928 L238.562969,222.503277 L237.078325,227.07254 L385.443142,275.279191 L386.927785,270.709928 Z M323.658367,360.273009 L231.963867,234.066358 L228.07702,236.890318 L319.771519,363.096969 L323.658367,360.273009 Z M219.801653,395.561719 L219.801653,239.561719 L214.997245,239.561719 L214.997245,395.561719 L219.801653,395.561719 Z M115.027379,363.096969 L206.721878,236.890318 L202.835031,234.066358 L111.140532,360.273009 L115.027379,363.096969 Z M49.3557564,275.279191 L197.720573,227.07254 L196.235929,222.503277 L47.8711127,270.709928 L49.3557564,275.279191 Z M47.8711127,165.651791 L196.235929,213.858442 L197.720573,209.289179 L49.3557564,161.082528 L47.8711127,165.651791 Z M111.140532,76.0887097 L202.835031,202.295361 L206.721878,199.471401 L115.027379,73.2647497 L111.140532,76.0887097 Z M111.140532,76.0887097" id="inner-spokes" fill="#111111" sketch:type="MSShapeGroup" transform="translate(217.399449, 218.180859) rotate(9.000000) translate(-217.399449, -218.180859) "></path>
            <ellipse d="M217.399449,244.8 C231.993156,244.8 243.823691,232.980318 243.823691,218.4 C243.823691,203.819682 231.993156,192 217.399449,192 C202.805742,192 190.975207,203.819682 190.975207,218.4 C190.975207,232.980318 202.805742,244.8 217.399449,244.8 Z M217.399449,244.8" id="hub" fill="#292929" sketch:type="MSShapeGroup" cx="217.399449" cy="218.4" rx="26.4242424" ry="26.4"></ellipse>
            <ellipse d="M217.399449,228 C223.369602,228 228.209366,223.164676 228.209366,217.2 C228.209366,211.235324 223.369602,206.4 217.399449,206.4 C211.429296,206.4 206.589532,211.235324 206.589532,217.2 C206.589532,223.164676 211.429296,228 217.399449,228 Z M217.399449,228" id="spindle" fill="#111111" sketch:type="MSShapeGroup" cx="217.399449" cy="217.2" rx="10.8099174" ry="10.8"></ellipse>
            <path d="M214.997245,40.8 L214.997245,196.8 L219.801653,196.8 L219.801653,40.8 L214.997245,40.8 Z M319.771519,73.2647497 L228.07702,199.471401 L231.963867,202.295361 L323.658367,76.0887097 L319.771519,73.2647497 Z M385.443142,161.082528 L237.078325,209.289179 L238.562969,213.858442 L386.927785,165.651791 L385.443142,161.082528 Z M386.927785,270.709928 L238.562969,222.503277 L237.078325,227.07254 L385.443142,275.279191 L386.927785,270.709928 Z M323.658367,360.273009 L231.963867,234.066358 L228.07702,236.890318 L319.771519,363.096969 L323.658367,360.273009 Z M219.801653,395.561719 L219.801653,239.561719 L214.997245,239.561719 L214.997245,395.561719 L219.801653,395.561719 Z M115.027379,363.096969 L206.721878,236.890318 L202.835031,234.066358 L111.140532,360.273009 L115.027379,363.096969 Z M49.3557564,275.279191 L197.720573,227.07254 L196.235929,222.503277 L47.8711127,270.709928 L49.3557564,275.279191 Z M47.8711127,165.651791 L196.235929,213.858442 L197.720573,209.289179 L49.3557564,161.082528 L47.8711127,165.651791 Z M111.140532,76.0887097 L202.835031,202.295361 L206.721878,199.471401 L115.027379,73.2647497 L111.140532,76.0887097 Z M111.140532,76.0887097" id="outer-spokes" fill="#111111" sketch:type="MSShapeGroup"></path>
            <path d="M217.399449,199.2 C218.72615,199.2 219.801653,198.125483 219.801653,196.8 C219.801653,195.474517 218.72615,194.4 217.399449,194.4 C216.072748,194.4 214.997245,195.474517 214.997245,196.8 C214.997245,198.125483 216.072748,199.2 217.399449,199.2 Z M228.309807,202.741317 C229.38313,203.521132 230.884815,203.283995 231.663915,202.211657 C232.443015,201.139318 232.204499,199.637851 231.131176,198.858036 C230.057853,198.078221 228.556167,198.315358 227.777068,199.387697 C226.997968,200.460035 227.236483,201.961502 228.309807,202.741317 Z M235.052779,212.012606 C235.462752,213.274374 236.817026,213.965194 238.077636,213.555597 C239.338246,213.146 240.027823,211.791092 239.61785,210.529325 C239.207877,209.267558 237.853602,208.576737 236.592992,208.986334 C235.332383,209.395931 234.642806,210.750839 235.052779,212.012606 Z M235.052779,223.47255 C234.642806,224.734317 235.332383,226.089225 236.592992,226.498822 C237.853602,226.908419 239.207877,226.217599 239.61785,224.955831 C240.027823,223.694064 239.338246,222.339156 238.077636,221.929559 C236.817026,221.519962 235.462752,222.210783 235.052779,223.47255 Z M228.309807,232.743839 C227.236483,233.523654 226.997968,235.025121 227.777068,236.09746 C228.556167,237.169798 230.057853,237.406936 231.131176,236.627121 C232.204499,235.847305 232.443015,234.345838 231.663915,233.2735 C230.884815,232.201161 229.38313,231.964024 228.309807,232.743839 Z M217.399449,236.285156 C216.072748,236.285156 214.997245,237.359673 214.997245,238.685156 C214.997245,240.01064 216.072748,241.085156 217.399449,241.085156 C218.72615,241.085156 219.801653,240.01064 219.801653,238.685156 C219.801653,237.359673 218.72615,236.285156 217.399449,236.285156 Z M206.489091,232.743839 C205.415768,231.964024 203.914083,232.201161 203.134983,233.2735 C202.355883,234.345838 202.594399,235.847305 203.667722,236.627121 C204.741046,237.406936 206.242731,237.169798 207.021831,236.09746 C207.80093,235.025121 207.562415,233.523654 206.489091,232.743839 Z M199.746119,223.47255 C199.336146,222.210783 197.981872,221.519962 196.721262,221.929559 C195.460652,222.339156 194.771075,223.694064 195.181048,224.955831 C195.591021,226.217599 196.945296,226.908419 198.205906,226.498822 C199.466515,226.089225 200.156093,224.734317 199.746119,223.47255 Z M199.746119,212.012606 C200.156093,210.750839 199.466515,209.395931 198.205906,208.986334 C196.945296,208.576737 195.591021,209.267558 195.181048,210.529325 C194.771075,211.791092 195.460652,213.146 196.721262,213.555597 C197.981872,213.965194 199.336146,213.274374 199.746119,212.012606 Z M206.489091,202.741317 C207.562415,201.961502 207.80093,200.460035 207.021831,199.387697 C206.242731,198.315358 204.741046,198.078221 203.667722,198.858036 C202.594399,199.637851 202.355883,201.139318 203.134983,202.211657 C203.914083,203.283995 205.415768,203.521132 206.489091,202.741317 Z M206.489091,202.741317" id="rivets" fill="#898484" sketch:type="MSShapeGroup"></path>
            <path d="M218,435.6 C338.398081,435.6 436,338.087624 436,217.8 C436,97.5123755 338.398081,0 218,0 C97.6019186,0 0,97.5123755 0,217.8 C0,338.087624 97.6019186,435.6 218,435.6 Z M218,398.4 C317.834222,398.4 398.76584,317.81126 398.76584,218.4 C398.76584,118.98874 317.834222,38.4 218,38.4 C118.165778,38.4 37.2341598,118.98874 37.2341598,218.4 C37.2341598,317.81126 118.165778,398.4 218,398.4 Z M218,398.4" id="tire" fill="#292929" sketch:type="MSShapeGroup"></path>
            <path d="M217.399449,422.4 C330.169002,422.4 421.586777,331.066095 421.586777,218.4 C421.586777,105.733905 330.169002,14.4 217.399449,14.4 C104.629896,14.4 13.2121212,105.733905 13.2121212,218.4 C13.2121212,331.066095 104.629896,422.4 217.399449,422.4 Z M218,367.2 C300.587114,367.2 367.53719,300.579975 367.53719,218.4 C367.53719,136.220025 300.587114,69.6 218,69.6 C135.412886,69.6 68.4628099,136.220025 68.4628099,218.4 C68.4628099,300.579975 135.412886,367.2 218,367.2 Z M218,367.2" id="rim" fill="#3C3C3C" sketch:type="MSShapeGroup"></path>
        </g>
        <g id="gloves" sketch:type="MSLayerGroup" transform="translate(160.000000, 343.000000)">
            <g id="left" transform="translate(0.000000, 2.400000)" sketch:type="MSShapeGroup">
                <path d="M27.4237078,56.7693567 C25.5916456,54.9440628 23.723525,53.1584664 21.8075143,51.4256056 C18.5471157,48.4752056 10.2327789,48.1840056 5.92508135,50.2320056 C2.53657276,51.8448056 -0.890368819,59.7296056 0.249809875,63.4288056 C6.07881331,82.3472056 13.768614,100.680006 20.0395968,119.473606 C22.4038449,126.560262 36.9558637,133.687856 50.0733881,136.373745 C50.1825425,136.4368 50.2907417,136.489397 50.397943,136.531256 C58.8133697,139.817193 77.0705805,135.624046 79.7199871,134.873443 C80.7304483,134.58717 81.6503549,133.981073 82.4497904,133.2596 C98.5094208,122.726139 103.877952,106.237104 106.347281,88.1264056 C107.439418,80.1072056 107.894209,71.3168056 111.593384,64.4656056 C120.266428,48.3920056 120.125507,39.1408056 107.471446,23.9184056 C104.790745,29.6560056 102.161288,35.2784056 99.5350332,40.9040056 C97.5685453,32.4912056 100.995487,24.5808056 99.0706346,18.3120056 C97.7575075,14.0336056 88.9691638,12.0464056 82.9832257,8.7344056 C79.799693,19.0832056 77.7851638,25.6208056 75.7738374,32.1584056 C74.8354319,31.9152056 73.8970264,31.6720056 72.9586209,31.4256056 C73.7721192,23.3264056 74.5856174,15.2208056 75.5464422,5.6592056 L56.9000367,5.6592056 C55.2185934,15.1568056 53.7133013,23.6464056 52.2112119,32.1328056 C44.2235556,1.6176056 44.2235556,1.6176056 27.4603666,9.5440056 L27.4603666,44.9883833 L27.4237078,56.7693567 Z M27.4237078,56.7693567" id="shadow" fill-opacity="0.1" fill="#000000"></path>
                <path d="M32.4344864,40.0117188 L32.4172841,58.784375 C32.4172841,58.784375 46.982521,128.245312 55.3979475,131.53125 C63.8133742,134.817187 82.070585,130.62404 84.7199917,129.873438 C88.2826906,128.86409 90.7196729,123.878906 90.7196729,123.878906 L109.332525,53.18125 L37.6796137,35.2820313 L32.4344864,40.0117188 Z M32.4344864,40.0117188" id="Path-5" fill="#6B6B6B"></path>
                <path d="M62.3228041,73.1136 C54.7194777,67.3696 47.1129485,61.6256 39.5064192,55.8784 C40.1693883,54.3264 40.8291546,52.7712 41.488921,51.2192 C54.3351478,53.8784 67.6425704,55.312 79.7905979,59.8432 C84.2648385,61.5168 89.1586392,70.9472 88.4252096,76.0544 C86.0295533,92.6976 81.1421581,108.9856 77.1419244,125.3888 C76.7704055,126.9088 76.2323436,128.688 75.1594227,129.6896 C66.2045361,138.0288 28.9501581,126.1952 25.0396014,114.4736 C18.7686186,95.68 11.0788179,77.3472 5.24981443,58.4288 C4.10963574,54.7296 7.53657732,46.8448 10.9250859,45.232 C15.2327835,43.184 23.5471203,43.4752 26.8075189,46.4256 C37.5495395,56.1408 46.786268,67.5136 56.6026942,78.2464 C58.5115326,76.5344 60.4171684,74.8256 62.3228041,73.1136" id="Fill-2" fill="#000000"></path>
                <path d="M96.8612509,85.7568 C101.60132,63.0368 93.7481787,51.392 70.8805498,47.1488 C58.3962337,44.8352 45.7645911,43.3312 32.4603711,41.3536 L32.4603711,4.544 C49.2235601,-3.3824 49.2235601,-3.3824 57.2112165,27.1328 C58.7133058,18.6464 60.2185979,10.1568 61.9000412,0.6592 L80.5464467,0.6592 C79.585622,10.2208 78.7721237,18.3264 77.9586254,26.4256 C78.8970309,26.672 79.8354364,26.9152 80.7738419,27.1584 C82.7851684,20.6208 84.7996976,14.0832 87.9832302,3.7344 C93.9691684,7.0464 102.757512,9.0336 104.070639,13.312 C105.995491,19.5808 102.56855,27.4912 104.535038,35.904 C107.161292,30.2784 109.790749,24.656 112.47145,18.9184 C125.125512,34.1408 125.266433,43.392 116.593388,59.4656 C112.894213,66.3168 112.439423,75.1072 111.347285,83.1264 C108.83633,101.5424 103.327601,118.2816 86.6284674,128.7872 C90.0650172,114.4512 93.8474639,100.1856 96.8612509,85.7568 Z M96.8612509,85.7568" id="Fill-3" fill="#000000"></path>
            </g>
            <g id="right" transform="translate(117.701031, 0.000000)" sketch:type="MSShapeGroup">
                <path d="M113.506156,93.0835035 C113.590921,88.201163 113.84617,80.7357226 113.84617,77.600781 C113.84617,76.1087958 113.741588,75.0812068 113.591146,74.3748549 C113.589984,74.1497526 113.573523,73.9330798 113.54067,73.7263998 C109.956794,51.2655998 105.165481,28.9903998 100.838567,7.00319978 C78.5218111,2.94239978 89.14533,21.6687998 83.5885602,32.2159998 C80.1071719,21.3487998 77.6058248,13.5279998 75.2518042,6.18079978 C47.8106496,1.63039978 62.9788695,22.4431998 59.206031,32.3823998 C45.5046702,6.77599978 45.5046702,6.77599978 32.2452887,14.7055998 C34.3366839,23.5759998 36.4504984,32.5615998 38.5675155,41.5503998 C37.4689726,41.8063998 36.3704296,42.0591998 35.2718867,42.3119998 C31.7008214,35.3103998 28.1297561,28.3023998 23.3320379,18.8847998 C16.9809863,22.2255998 11.5907595,25.0607998 5.69770111,28.1551998 C9.34242963,36.8847998 12.2921616,44.2063998 15.4436667,51.4415998 C19.6567981,61.1125039 24.3024075,69.1800115 29.443954,75.6618278 C28.0831259,77.168886 26.9121366,78.7471764 26.3796851,80.153906 C26.041443,81.0475369 25.8436037,82.2450733 25.7424568,83.5818711 C24.2566957,81.3389466 22.8247171,78.9728263 21.2758729,76.8975998 C18.9795018,73.8287998 13.4035155,69.0351998 12.9359142,69.4191998 C8.27591417,73.2591998 3.59349492,77.5823998 0.707817945,82.7631998 C-0.230587553,84.4431998 3.50702069,89.6623998 6.13647774,92.1967998 C12.5227595,98.3567998 20.6097011,103.0064 26.0799966,109.816 C57.0121478,148.3248 46.8466221,147.2848 92.2744159,131.3936 C116.161216,123.036742 117.576445,119.450521 113.503064,93.6346519 C113.501989,93.4542984 113.502912,93.2703906 113.506156,93.0835035 Z M113.506156,93.0835035" id="shadow" fill-opacity="0.1" fill="#000000"></path>
                <path d="M117.519294,67.8640408 C117.519294,67.8640408 118.84616,67.2864445 118.84616,72.6007813 C118.846159,75.7357228 118.59091,83.2011632 118.506146,88.0835037 C118.46209,90.6210888 118.84616,92.609375 118.84616,92.609375 L57.2073131,114.267969 L31.3796747,90.8203125 C31.3796747,90.8203125 29.7499679,79.4595685 31.3796747,75.1539063 C33.091638,70.6309226 41.4046862,64.334375 41.4046862,64.334375 L117.519294,67.8640408 Z M117.519294,67.8640408" id="Path-6" fill="#6B6B6B"></path>
                <path d="M28.3320275,13.8848 C33.1297457,23.3024 36.700811,30.3104 40.2718763,37.312 C41.3704192,37.0592 42.4689622,36.8064 43.5675052,36.5504 C41.450488,27.5616 39.3366735,18.576 37.2452784,9.7056 C50.5046598,1.776 50.5046598,1.776 64.2060206,27.3824 C67.9788591,17.4432 52.8106392,-3.3696 80.2517938,1.1808 C82.6058144,8.528 85.1071615,16.3488 88.5885498,27.216 C94.1453196,16.6688 83.5218007,-2.0576 105.838557,2.0032 C110.165471,23.9904 114.956784,46.2656 118.54066,68.7264 C119.091533,72.192 115.033649,78.4672 111.517031,80.1824 C68.0525223,101.3728 39.7210034,90.6912 20.4436564,46.4416 C17.2921512,39.2064 14.3424192,31.8848 10.6976907,23.1552 C16.5907491,20.0608 21.9809759,17.2256 28.3320275,13.8848" id="Fill-1" fill="#000000"></path>
                <path d="M97.2744055,126.3936 C51.8466117,142.2848 62.0121375,143.3248 31.0799863,104.816 C25.6096907,98.0064 17.5227491,93.3568 11.1364674,87.1968 C8.50701031,84.6624 4.76940206,79.4432 5.70780756,77.7632 C8.59348454,72.5824 13.2759038,68.2592 17.9359038,64.4192 C18.4035052,64.0352 23.9794914,68.8288 26.2758625,71.8976 C30.0326873,76.9312 33.1019477,83.6762374 37.9188824,86.2234374 C54.3201607,94.8954374 69.7243574,105.7408 89.773567,97.5008 C99.0199038,93.6992 108.8011,91.2 118.415753,88.0832 C122.59534,114.4 121.330254,117.9776 97.2744055,126.3936 Z M97.2744055,126.3936" id="Fill-4" fill="#000000"></path>
            </g>
        </g>
        <g id="bottle" sketch:type="MSLayerGroup" transform="translate(896.000000, 78.000000)">
            <path d="M41.4770431,16.5428571 L55.0375089,16.5428571 C57.6938667,16.5428571 60.0632283,18.6806395 60.3300353,21.3217767 L60.4302983,22.3142857 L61.238914,22.3142857 C62.8273212,22.3142857 64.1697491,23.6055263 64.2368166,25.1867059 C64.2368166,25.1867059 64.5670643,32.0637576 64.5688557,32.1122655 L66,70.8653287 C66,74.0709446 63.2072796,76.651771 59.7622844,76.6517705 L60.7072038,76.6517707 C57.2607035,76.6517701 54.4694882,79.2448456 54.4694882,82.4435668 C54.4694882,85.7177094 57.2622086,88.3036368 60.7072038,88.3036373 L59.7622844,88.3036371 C63.2087847,88.3036377 66,90.8937553 66,94.0888267 L66,193.562335 C66,200.983752 59.9826378,207 52.5643629,207 L13.4356371,207 C6.01533964,207 0,200.989239 0,193.562335 L0,94.0888267 C0,90.8937553 2.79121527,88.3036377 6.23771559,88.3036371 L5.29279623,88.3036373 C8.73779142,88.3036368 11.5305118,85.7177094 11.5305118,82.5118391 C11.5305118,79.2448456 8.73929654,76.6517701 5.29279623,76.6517707 L6.23771559,76.6517705 C2.79272039,76.651771 0,74.0709446 0,70.8653287 C0,70.8653287 1.82221678,33.2413402 1.84554777,33.1933278 L2.21042727,25.1867059 C2.28272275,23.600312 3.63156029,22.3142857 5.21739543,22.3142857 L6.92454328,22.3142857 L6.97470124,21.3371016 C7.11060975,18.6893135 9.36542374,16.5428571 12.0305465,16.5428571 L26.5918343,16.5428571 L27.514463,11.7333333 L25.8390653,11.7333333 C24.7761549,11.7333333 23.9130435,10.8766435 23.9130435,9.81986305 L23.9130435,8.71197799 L29.0137635,5 L39.0572418,5 L44,8.71197799 L44,9.81986305 C44,10.8756159 43.1376907,11.7333333 42.0739782,11.7333333 L40.8284271,11.7333333 L41.4770431,16.5428571 Z M41.4770431,16.5428571" id="shadow" fill-opacity="0.1" fill="#000000" sketch:type="MSShapeGroup"></path>
            <path d="M18.4356371,202 C11.0153396,202 5,195.989239 5,188.562335 L5,89.0888267 C5,85.8937553 7.79121527,83.3036377 11.2377156,83.3036371 L10.2927962,83.3036373 C13.7377914,83.3036368 16.5305118,80.7177094 16.5305118,77.5118391 C16.5305118,74.2448456 13.7392965,71.6517701 10.2927962,71.6517707 L11.2377156,71.6517705 C7.79272039,71.651771 5,69.0709446 5,65.8653287 L6.8068723,28.3388725 C6.98756758,24.5860583 69.4453644,23.7683203 69.5688557,27.1122655 L71,65.8653287 C71,69.0709446 68.2072796,71.651771 64.7622844,71.6517705 L65.7072038,71.6517707 C62.2607035,71.6517701 59.4694882,74.2448456 59.4694882,77.4435668 C59.4694882,80.7177094 62.2622086,83.3036368 65.7072038,83.3036373 L64.7622844,83.3036371 C68.2087847,83.3036377 71,85.8937553 71,89.0888267 L71,188.562335 C71,195.983752 64.9826378,202 57.5643629,202 L18.4356371,202 Z M18.4356371,202" id="Rectangle-45" fill-opacity="0.513384651" fill="#FFFFFF" sketch:type="MSShapeGroup"></path>
            <path d="M6.72762398,30.7809524 L7.21042727,20.1867059 C7.28272275,18.600312 8.63156029,17.3142857 10.2173954,17.3142857 L66.238914,17.3142857 C67.8273212,17.3142857 69.1697491,18.6055263 69.2368166,20.1867059 L69.6861838,30.7809524 L6.72762398,30.7809524 Z M6.72762398,30.7809524" id="Rectangle-45" fill="#A2251F" sketch:type="MSShapeGroup"></path>
            <rect d="M32.5490184,6.73333333 L30.826087,15.3904762 L47.0869565,15.3904762 L45.7146513,6.73333333 L32.5490184,6.73333333 Z M32.5490184,6.73333333" id="Rectangle-45" fill="#A2251F" sketch:type="MSShapeGroup" x="30.826087" y="6.73333333" width="16.2608696" height="8.65714286"></rect>
            <path d="M11.6956522,17.3142857 L11.7859258,16.3221418 C12.0260921,13.6826158 14.3654237,11.5428571 17.0305465,11.5428571 L60.0375089,11.5428571 C62.6938667,11.5428571 65.0012792,13.6919241 65.190708,16.3352415 L65.2608696,17.3142857 L11.6956522,17.3142857 Z M11.6956522,17.3142857" id="Rectangle-45" fill="#89211C" sketch:type="MSShapeGroup"></path>
            <path d="M34.0137635,0 L28.9130435,3.71197799 L28.9130435,4.81986305 C28.9130435,5.87664351 29.7761549,6.73333333 30.8390653,6.73333333 L47.0739782,6.73333333 C48.1376907,6.73333333 49,5.87561587 49,4.81986305 L49,3.71197799 L44.0572418,0 L34.0137635,0 Z M34.0137635,0" id="Rectangle-47" fill="#88221D" sketch:type="MSShapeGroup"></path>
            <g id="indents" transform="translate(7.869565, 18.276190)" fill="#791B16" sketch:type="MSShapeGroup">
                <polygon d="M1.91304348,0 L3.82608696,9.61904762 L0,9.61904762 L1.91304348,0 Z M1.91304348,0" id="Triangle-1" points="1.91304348 0 3.82608696 9.61904762 0 9.61904762 "></polygon>
                <polygon d="M8.60869565,0 L10.5217391,9.61904762 L6.69565217,9.61904762 L8.60869565,0 Z M8.60869565,0" id="Triangle-1" points="8.60869565 0 10.5217391 9.61904762 6.69565217 9.61904762 "></polygon>
                <polygon d="M14.3478261,0 L16.2608696,9.61904762 L12.4347826,9.61904762 L14.3478261,0 Z M14.3478261,0" id="Triangle-1" points="14.3478261 0 16.2608696 9.61904762 12.4347826 9.61904762 "></polygon>
                <polygon d="M21.0434783,0 L22.9565217,9.61904762 L19.1304348,9.61904762 L21.0434783,0 Z M21.0434783,0" id="Triangle-1" points="21.0434783 0 22.9565217 9.61904762 19.1304348 9.61904762 "></polygon>
                <polygon d="M26.7826087,0 L28.6956522,9.61904762 L24.8695652,9.61904762 L26.7826087,0 Z M26.7826087,0" id="Triangle-1" points="26.7826087 0 28.6956522 9.61904762 24.8695652 9.61904762 "></polygon>
                <polygon d="M33.4782609,0 L35.3913043,9.61904762 L31.5652174,9.61904762 L33.4782609,0 Z M33.4782609,0" id="Triangle-1" points="33.4782609 0 35.3913043 9.61904762 31.5652174 9.61904762 "></polygon>
                <polygon d="M39.2173913,0 L41.1304348,9.61904762 L37.3043478,9.61904762 L39.2173913,0 Z M39.2173913,0" id="Triangle-1" points="39.2173913 0 41.1304348 9.61904762 37.3043478 9.61904762 "></polygon>
                <polygon d="M45.9130435,0 L47.826087,9.61904762 L44,9.61904762 L45.9130435,0 Z M45.9130435,0" id="Triangle-1" points="45.9130435 0 47.826087 9.61904762 44 9.61904762 "></polygon>
                <polygon d="M51.6521739,0 L53.5652174,9.61904762 L49.7391304,9.61904762 L51.6521739,0 Z M51.6521739,0" id="Triangle-1" points="51.6521739 0 53.5652174 9.61904762 49.7391304 9.61904762 "></polygon>
                <polygon d="M58.3478261,0 L60.2608696,9.61904762 L56.4347826,9.61904762 L58.3478261,0 Z M58.3478261,0" id="Triangle-1" points="58.3478261 0 60.2608696 9.61904762 56.4347826 9.61904762 "></polygon>
            </g>
        </g>
        <g id="allen-wrenches" sketch:type="MSLayerGroup" transform="translate(1125.000000, 403.500000) rotate(-90.000000) translate(-1125.000000, -403.500000) translate(1084.000000, 312.000000)">
            <path d="M3.02272727,10.3712965 C3.02272727,4.64594787 7.66266239,-7.67386155e-16 13.3863124,0 L66.6720526,3.83693077e-15 L66.6720526,9.9781875 L17.3908589,9.9781875 C15.0039797,9.9781875 13.0726207,11.911049 13.0726207,14.2953546 L13.0766405,39.4945471 L17.4914871,41.3375271 L17.4914871,23.0413944 C17.4914871,18.1915238 21.1900456,14.256 25.7524487,14.256 L68.2272727,14.256 L68.2272727,22.7083967 L28.9445299,22.7083967 C27.0419144,22.7083967 25.5024006,24.3456993 25.5024006,26.3654144 L25.5051503,44.6828351 L30.0632065,46.585598 L30.0632065,34.0841844 C30.0632065,30.054206 33.0341797,26.784 36.6990609,26.784 L70.8181818,26.784 L70.8181818,33.8074815 L39.2631917,33.8074815 C37.7348612,33.8074815 36.4982026,35.1679908 36.4982026,36.8462641 L36.5000058,49.2726433 L40.9714575,51.1392531 L40.9714575,43.7010511 C40.9714575,40.3242071 43.3361096,37.584 46.2530559,37.584 L73.4090909,37.584 L73.4090909,43.4691931 L48.2938947,43.4691931 C47.0774684,43.4691931 46.0931891,44.6092061 46.0931891,46.0154834 L46.0941901,53.2777406 L50.2162401,54.9984925 L50.2162401,52.12261 C50.2162401,49.3433145 52.0958354,47.088 54.4144337,47.088 L76,47.088 L76,51.9317803 L56.0366389,51.9317803 C55.0697359,51.9317803 54.2873601,52.8700626 54.2873601,54.0274925 L54.2877469,56.9330948 C56.2337591,58.4031936 57.6392933,60.954227 57.6392933,63.2751802 L57.6392933,83.6299687 L57.6392933,103.984757 C57.6392933,106.189742 56.2497004,108.082715 54.2946548,108.826235 L54.2972119,128.035573 L55.2143744,130.761786 L54.2972119,133.488 L50.2162401,133.488 L49.2272727,130.761786 L50.2162401,128.035573 L50.2162401,109.162688 L46.1018931,109.162688 L46.1055833,135.935301 L47.2594329,139.24765 L46.1055833,142.56 L40.9714575,142.56 L39.7272727,139.24765 L40.9714575,135.935301 L40.9714575,109.162688 L36.5086966,109.162688 L36.5137749,144.157981 L37.9634833,148.11099 L36.5137749,152.064 L30.0632065,152.064 L28.5,148.11099 L30.0632065,144.157981 L30.0632065,109.162688 L25.5148294,109.162688 L25.5217865,155.509515 L27.3265256,160.266757 L25.5217865,165.024 L17.4914871,165.024 L15.5454545,160.266757 L17.4914871,155.509515 L17.4914871,109.162688 L13.0877541,109.162688 L13.0969408,166.752 L15.3610317,172.368 L13.0969408,177.984 L3.02272727,177.984 L0.58138023,172.368 L3.02272727,166.752 L3.02272727,108.649285 C1.28815838,107.810861 0.0877130682,106.033431 0.0877130682,103.976265 L0.0877130682,71.6175 L0.0877130682,39.2587352 C0.0877130682,37.1034149 1.29870223,35.7623328 3.02272727,35.6986317 L3.02272727,10.3712965 Z M3.02272727,10.3712965" id="shadow" fill-opacity="0.1" fill="#000000" sketch:type="MSShapeGroup"></path>
            <path d="M62.6392933,73.0271802 C62.6392933,70.1674883 60.5055256,66.9585075 57.8560811,65.8524956 L9.87092525,45.8210669 C7.22923011,44.7182899 5.08771307,46.1445618 5.08771307,49.0107352 L5.08771307,108.976265 C5.08771307,111.840647 7.41508314,114.162688 10.2710825,114.162688 L57.4559239,114.162688 C60.3186198,114.162688 62.6392933,111.834258 62.6392933,108.984757 L62.6392933,73.0271802 Z M62.6392933,73.0271802" id="Path-12" fill="#A9A63D" sketch:type="MSShapeGroup"></path>
            <path d="M18.0726207,19.2953546 C18.0726207,16.911049 20.0039797,14.9781875 22.3908589,14.9781875 L71.6720526,14.9781875 L71.6720526,5 L18.3863124,5 C12.6626624,5 8.02272727,9.64594787 8.02272727,15.3712965 L8.02272727,171.752 L5.58138023,177.368 L8.02272727,182.984 L18.0969408,182.984 L20.3610317,177.368 L18.0969408,171.752 L18.0726207,19.2953546 Z M30.5024006,31.3654144 C30.5024006,29.3456993 32.0419144,27.7083967 33.9445299,27.7083967 L73.2272727,27.7083967 L73.2272727,19.256 L30.7524487,19.256 C26.1900456,19.256 22.4914871,23.1915238 22.4914871,28.0413944 L22.4914871,160.509515 L20.5454545,165.266757 L22.4914871,170.024 L30.5217865,170.024 L32.3265256,165.266757 L30.5217865,160.509515 L30.5024006,31.3654144 Z M41.4982026,41.8462641 C41.4982026,40.1679908 42.7348612,38.8074815 44.2631917,38.8074815 L75.8181818,38.8074815 L75.8181818,31.784 L41.6990609,31.784 C38.0341797,31.784 35.0632065,35.054206 35.0632065,39.0841844 L35.0632065,149.157981 L33.5,153.11099 L35.0632065,157.064 L41.5137749,157.064 L42.9634833,153.11099 L41.5137749,149.157981 L41.4982026,41.8462641 Z M51.0931891,51.0154834 C51.0931891,49.6092061 52.0774684,48.4691931 53.2938947,48.4691931 L78.4090909,48.4691931 L78.4090909,42.584 L51.2530559,42.584 C48.3361096,42.584 45.9714575,45.3242071 45.9714575,48.7010511 L45.9714575,140.935301 L44.7272727,144.24765 L45.9714575,147.56 L51.1055833,147.56 L52.2594329,144.24765 L51.1055833,140.935301 L51.0931891,51.0154834 Z M59.2873601,59.0274925 C59.2873601,57.8700626 60.0697359,56.9317803 61.0366389,56.9317803 L81,56.9317803 L81,52.088 L59.4144337,52.088 C57.0958354,52.088 55.2162401,54.3433145 55.2162401,57.12261 L55.2162401,133.035573 L54.2272727,135.761786 L55.2162401,138.488 L59.2972119,138.488 L60.2143744,135.761786 L59.2972119,133.035573 L59.2873601,59.0274925 Z M59.2873601,59.0274925" id="wrenches" fill="#1B1B1B" sketch:type="MSShapeGroup"></path>
            <path d="M62.6392933,68.2751802 C62.6392933,65.4154883 60.5055256,62.2065075 57.8560811,61.1004956 L9.87092525,41.0690669 C7.22923011,39.9662899 5.08771307,41.3925618 5.08771307,44.2587352 L5.08771307,104.224265 C5.08771307,107.088647 7.41508314,109.410687 10.2710825,109.410687 L57.4559239,109.410687 C60.3186198,109.410687 62.6392933,107.082258 62.6392933,104.232757 L62.6392933,68.2751802 Z M62.6392933,68.2751802" id="Path-12" fill="#BAB744" sketch:type="MSShapeGroup"></path>
            <path d="M18.8181818,44.744 L18.8181818,109.544 L21.4090909,109.544 L21.4090909,45.8350086 L18.8181818,44.744 Z M31.3409091,50.0757964 L31.3409091,109.544 L33.9318182,109.544 L33.9318182,51.1423953 L31.3409091,50.0757964 Z M42.5681818,54.7473796 L42.5681818,109.544 L45.1590909,109.544 L45.1590909,55.8332941 L42.5681818,54.7473796 Z M51.6363636,58.4648916 L51.6363636,109.544 L54.2272727,109.544 L54.2272727,59.6355311 L51.6363636,58.4648916 Z M51.6363636,58.4648916" id="unions" fill="#A9A63D" sketch:type="MSShapeGroup"></path>
        </g>
        <g id="helmet" sketch:type="MSLayerGroup" transform="translate(1016.000000, 37.000000)">
            <path d="M101.412788,67.8319993 C101.077625,71.028201 100.711373,74.3563394 100.325052,77.770111 L100.325052,77.770111 C102.269146,78.4569501 104.233407,78.9825621 105.692058,78.9825618 C108.031776,78.9825618 111.672386,77.6302087 114.443986,76.4293294 C114.113159,73.4842342 113.798565,70.6083415 113.50743,67.8319993 L101.412788,67.8319993 Z M103.294012,43.8079993 C103.397861,39.5133923 103.199716,36.4937646 102.587354,35.2205942 L102.467722,8.00955123 C102.760109,7.5601708 102.967933,7.17288259 103.069413,6.84799929 C93.6715553,0.394436985 79.5837211,12.8067212 63.6756265,30.8431248 C60.723021,34.190752 57.5372479,39.199659 54.5167726,44.4338207 C41.4579556,52.4441116 2.80578066,82.6303019 0.231815263,160.458187 C-1.67422557,218.090338 34.0694587,256.729271 62.0831571,274.858531 C79.6421131,286.221931 94.3114299,287.093109 94.3114299,287.093109 C94.3114299,287.093109 94.4789125,287.075888 94.7503411,287.033054 C97.3958515,287.616649 101.342847,288.052 107.231606,288.051999 C113.267445,288.051999 117.263313,287.59463 119.908672,286.989051 L119.908672,286.989051 C120.32991,287.064435 120.608788,287.093109 120.608788,287.093109 C120.608788,287.093109 135.278105,286.221931 152.837061,274.858531 C180.850759,256.729271 216.594444,218.090338 214.688403,160.458187 C212.114437,82.6303019 173.462262,52.4441116 160.403446,44.4338207 C157.38297,39.199659 154.197197,34.190752 151.244592,30.8431248 C135.336497,12.8067212 121.248663,0.394436985 111.850805,6.84799929 C111.935568,7.11936315 112.094523,7.43426496 112.31498,7.79252251 L112.192892,35.562001 C111.690541,36.9884949 111.530722,39.85932 111.626206,43.8079993 L103.294012,43.8079993 Z M89.7076529,65.7186223 C88.0809892,72.4718946 86.3818375,79.8663728 84.5207733,87.3563329 C79.2043957,108.7524 74.4670534,134.997672 72.0541876,153.602592 L73.6478088,135.450031 C73.6478088,135.450031 70.1174481,137.771288 66.2146785,132.023531 C66.0528774,131.78524 65.8850721,131.512828 65.7120386,131.209535 C65.9618488,125.055606 69.4020365,105.987188 74.023675,90.3448743 C77.9858753,76.9344835 82.7602879,66.2333868 83.1779719,65.2982181 C83.8767187,63.7337675 88.2544011,62.5758117 89.7076529,65.7186223 Z M70.2249502,173.557618 C69.9816376,178.499223 69.8052121,184.376228 69.8056408,190.217676 C67.3552804,180.354419 66.0137744,165.413351 65.5527226,159.484334 C68.119607,165.563048 69.8903278,172.255245 70.2249502,173.557618 Z M149.398073,159.087616 C148.967899,164.719566 147.621606,180.126316 145.114577,190.217676 C145.115019,184.199543 144.927746,178.14367 144.673009,173.11181 C145.211037,171.073402 146.961383,164.753929 149.398073,159.087616 Z M142.461146,150.567936 C139.947092,132.216827 135.432779,107.613276 130.399445,87.3563329 C128.521083,79.7967581 126.807658,72.3344484 125.167227,65.530486 C126.705519,62.6235221 130.919372,63.7658813 131.603775,65.2982181 C132.021459,66.2333868 136.795872,76.9344835 140.758072,90.3448743 C145.379711,105.987188 148.819898,125.055606 149.069709,131.209535 C148.896675,131.512828 148.72887,131.78524 148.567069,132.023531 C144.664299,137.771288 141.133938,135.450031 141.133938,135.450031 L142.461146,150.567936 Z M98.0583144,97.1748132 C96.0046121,114.331258 93.5059619,133.163251 91.6659336,151.21157 C90.9772743,157.966434 90.8936295,164.773086 91.2203062,171.319999 C91.2203062,171.319999 95.2143984,186.872457 107.450526,186.872457 C119.686656,186.872457 123.680746,171.319999 124.128294,171.319999 C124.026589,164.773086 123.942944,157.966434 123.254285,151.21157 C121.477188,133.78053 119.085751,115.618506 117.07414,98.9409234 C114.575402,97.1368491 108.906228,93.3177962 105.692058,93.3177962 C103.655968,93.3177962 100.634715,95.215655 98.0583144,97.1748132 L98.0583144,97.1748132 Z M98.7018741,255.402222 C100.956388,255.756648 103.755741,255.976687 107.231606,255.976687 C110.928504,255.976686 113.860117,255.727771 116.184863,255.332996 L115.238458,250.756327 C115.238458,250.756327 120.665346,224.704891 119.686654,216.314918 C116.160988,213.266406 115.238458,209.321132 107.450526,208.638002 C99.6625949,209.321132 98.7400647,213.266406 95.2143981,216.314918 C94.2357069,224.704891 99.6625944,250.756327 99.6625944,250.756327 L98.7018741,255.402222 L98.7018741,255.402222 Z M98.7018741,255.402222" id="shadow" fill-opacity="0.1" fill="#000000" sketch:type="MSShapeGroup"></path>
            <g id="middle" transform="translate(91.909605, 38.808000)" sketch:type="MSShapeGroup">
                <rect d="M20.3220339,212.168688 C2.46327684,212.16869 2.46327684,206.36 2.46327684,206.36 L2.46327684,239.008 L38.180791,239.008 L38.180791,206.36 C38.180791,206.36 38.180791,212.168685 20.3220339,212.168688 Z M20.3220339,212.168688" id="bottom-foam" fill="#3F3F3F" x="2.46327684" y="206.36" width="35.7175141" height="32.648"></rect>
                <path d="M4.31073446,127.512 L2.2852989,127.512 L2.2852989,173.650641 C2.2852989,174.024052 -0.75012992,186.629587 0.175637,200.459875 C1.33683924,217.807393 6.5130421,237.123906 6.5130421,237.123906 L12.7530227,206.948328 C12.7530227,206.948328 7.32613517,180.896892 8.30482635,172.506919 C11.830493,169.458406 12.7530231,165.513133 20.5409545,164.830003 C28.328886,165.513133 29.251416,169.458406 32.7770827,172.506919 C33.7557739,180.896892 28.3288864,206.948328 28.3288864,206.948328 L34.568867,237.123906 C34.568867,237.123906 39.7450698,217.807393 40.9062721,200.459875 C41.832039,186.629587 38.7966102,174.024052 38.7966102,173.650641 L38.7966102,127.512 L36.7711746,127.512 C36.7711746,127.512 32.7770844,143.064458 20.5409545,143.064458 C8.30482674,143.064458 4.31073446,127.512 4.31073446,127.512 Z M4.31073446,127.512" id="middle-connector" fill="#181818"></path>
                <path d="M2.46327684,232.232 L2.46327684,240.24 C2.46327684,240.24 2.46327684,244.244001 20.3220339,244.244 C38.180791,244.243999 38.180791,240.24 38.180791,240.24 L38.180791,232.232 C38.180791,232.232 38.180791,236.236001 20.3220339,236.236 C2.46327684,236.235999 2.46327684,232.232 2.46327684,232.232 Z M2.46327684,232.232" id="bottom-connector" fill="#181818"></path>
                <path d="M6.15819209,30.8 L6.15819209,57.6164531 C6.15819209,57.6164531 14.5743879,49.5097969 18.7824859,49.5097969 C22.9905838,49.5097969 31.4067797,56.056 31.4067797,56.056 L31.4067797,30.8 C31.4067797,30.8 22.9905838,35.1745625 18.7824859,35.1745625 C14.5743879,35.1745632 6.15819209,30.8 6.15819209,30.8 Z M6.15819209,30.8" id="top-connector" fill="#181818"></path>
                <rect d="M6.15819209,0 L6.15819209,24.024 L27.7118644,24.024 L27.7118644,0 L6.15819209,0 Z M6.15819209,0" id="top-foam" fill="#3F3F3F" x="6.15819209" y="0" width="21.5536723" height="24.024"></rect>
            </g>
            <g id="right-side" transform="translate(116.542373, 0.000000)" sketch:type="MSShapeGroup">
                <g id="foam" transform="translate(0.615819, 1.848000)" fill="#3F3F3F">
                    <path d="M15.6216013,273.295258 L47.7506455,254.620953 C47.7506455,254.620953 80.2635084,210.403578 78.7749437,206.166297 C78.6768402,205.88704 89.1638859,153.62703 89.1638859,153.62703 L85.003498,105.600686 L60.8734883,59.2081864 L68.8334326,102.798607 L60.8734883,202.145453 L22.5646021,234.463797 L15.6216013,273.295258 Z M15.6216013,273.295258" id="Path-27"></path>
                    <path d="M0.458256091,0 L0.323545639,30.6405859 C0.323545639,30.6405859 14.4128154,71.7236532 12.93942,63.3739655 C11.4660245,55.024278 18.8191704,56.3820472 19.7428992,58.4502188 C20.1605832,59.3853875 24.9349959,70.0864842 28.8971961,83.496875 C33.6975974,99.7442265 37.2233845,119.687847 37.2233845,125.016719 C37.2233845,134.743984 51.9795915,103.904281 51.9795915,103.904281 L25.1060591,15.1274922 L0.458256091,0 Z M0.458256091,0" id="Path-25"></path>
                    <path d="M37.5535454,150.082023 C37.5535454,150.082023 35.1762668,187.363859 29.2911039,192.181172 C23.405941,196.998484 24.5569937,232.562859 24.5569937,232.562859 L51.2032022,228.431328 L66.0778822,125.751828 L43.9973958,127.412141 L37.5535454,150.082023 Z M37.5535454,150.082023" id="Path-26"></path>
                </g>
                <g id="connection" transform="translate(25.248588, 95.480000)" fill="#181818">
                    <path d="M4.64029396,34.9700312 L8.00564972,73.304 C8.00564972,73.304 11.7534328,58.22167 16.7437875,51.5587187 C19.4527766,47.941769 31.1036811,42.4642969 31.1036811,42.4642969 L23.3722634,0.196109375 C23.3722634,0.196109375 15.9761937,25.7957729 12.0734243,31.5435312 C8.1706547,37.2912889 4.64029396,34.9700312 4.64029396,34.9700312 Z M4.64029396,34.9700312" id="top"></path>
                    <path d="M3.84526174,129.430984 L0,150.92 C0,150.92 6.01068,146.580535 8.34483139,146.379406 C10.6789828,146.178277 14.5210651,149.66875 14.5210651,149.66875 L29.0421301,98.0967969 C29.0421301,98.0967969 16.2092423,120.548933 11.6247903,124.508398 C8.58006012,127.138048 3.84526174,129.430984 3.84526174,129.430984 Z M3.84526174,129.430984" id="bottom"></path>
                    <path d="M47.4180791,68.376 L35.4829736,123.716141 C35.4829736,123.716141 38.0364584,115.994485 42.7272687,114.698719 C47.4180791,113.402953 48.6509203,118.878375 48.6509203,118.878375 C48.6509203,118.878375 58.2508887,107.453118 60.2829273,94.6323984 C62.314966,81.811679 61.8946416,64.2589062 61.8946416,64.2589062 C61.8946416,64.2589062 57.2062932,67.7356384 54.9546478,68.376 C52.3807724,69.1080023 47.4180791,68.376 47.4180791,68.376 Z M47.4180791,68.376" id="outside"></path>
                </g>
                <g id="frame" fill="#D6D66C">
                    <path d="M7.86733081,39.3927187 C5.50358729,33.0084592 2.82771679,28.9965156 1.23163842,29.789375 C-1.50226217,32.6858984 1.78229627,60.9547334 5.20800241,89.9035156 C7.30927794,107.660255 9.94916885,127.363256 11.8707568,146.21157 C13.084135,158.113255 12.4192806,170.175712 13.2843205,180.694937 C14.9019658,200.366143 13.6293506,216.757591 13.2843206,224.533203 C11.9862231,253.787188 12.0782352,255.851148 10.2211385,265.345515 C8.36404178,274.839883 2.1854634,278.943163 5.20800265,280.565746 C8.39915515,278.626693 13.3645462,276.683086 15.8405062,273.422192 C29.8739622,254.939821 31.6308928,218.505277 32.0944843,213.650411 C32.6398686,207.938989 33.1445236,203.837136 33.5293841,195.178607 C34.0576578,183.293592 33.4500307,168.57796 32.8332675,160.980531 C31.4134893,143.49138 25.6679711,109.127907 19.015917,82.3563336 C14.818017,65.4616427 11.4439169,49.0527571 7.86733081,39.3927187 Z M7.86733081,39.3927187" id="inside"></path>
                    <path d="M39.8610639,25.8431255 C23.9529692,7.80672189 9.86513506,-4.60556236 0.467276881,1.84799994 C0.971094527,3.46094339 4.09608714,6.61204953 7.17693988,11.2630543 C9.12144867,14.198579 10.6150395,18.131546 12.7902763,21.3885554 C16.9760207,27.6559236 21.1647175,34.2567127 22.2368474,36.36325 C34.213276,59.8947202 51.2985278,96.1936377 54.4284351,134.689847 C55.6463481,149.669533 56.3293567,167.113207 54.4284351,183.415798 C53.5807156,190.685968 51.3695241,197.660498 49.9222519,204.206406 C44.2370594,229.920124 33.4008249,249.178041 36.67492,250.969469 C42.6514935,254.239562 79.5176552,210.862094 76.1210275,130.859094 C74.7924243,99.5656304 68.1351422,74.6337207 57.3583579,54.6934745 C52.7758345,46.2144483 45.8403422,32.6223567 39.8610639,25.8431255 Z M39.8610639,25.8431255" id="middle"></path>
                    <path d="M44.7467227,37.0839219 C44.7467227,37.0839219 56.7485272,53.65767 67.9742794,75.9809531 C72.7013241,85.3810497 75.8042155,95.3305886 79.2879277,105.488797 C86.4286131,126.310429 85.1246556,151.518594 84.6510828,159.588516 C83.3977945,180.945187 79.2879277,201.807375 67.9742784,223.033021 C56.6606301,244.258671 33.3736834,263.962194 19.2455531,269.858531 C-6.25561628,280.50138 9.22526042,282.093109 9.22526042,282.093109 C9.22526042,282.093109 23.8945773,281.221931 41.4535333,269.858531 C69.4672317,251.729271 105.210916,213.090339 103.304875,155.458188 C100.204129,61.7022656 44.7467227,37.0839219 44.7467227,37.0839219 Z M44.7467227,37.0839219" id="outside"></path>
                </g>
                <g id="decals" transform="translate(8.005650, 9.240000)">
                    <path d="M13.0332362,242.567643 C10.2191687,251.440467 0.324748411,268.779328 0.324748411,268.779328 C0.324748411,268.779328 32.8861891,246.646641 17.3836622,138.654141 C17.3836622,157.66655 16.8411117,175.401025 14.4224378,188.344406 C11.6698017,203.074966 6.99772687,211.752406 6.99772687,211.752406 L6.7846459,216.038151 L12.5773857,220.813143 C12.5773857,220.813143 15.2511653,235.574457 13.0332362,242.567643 Z M13.0332362,242.567643" id="black-lil" fill="#232323"></path>
                    <path d="M11.9061628,235.175934 C13.3428127,227.865353 12.9281307,222.013032 12.9281307,222.013032 C12.9281307,222.013032 13.7123199,228.630069 13.977299,232.182216 C14.2422782,235.734363 14.6017582,235.651799 14.2851158,240.203934 C13.9684734,244.756069 14.5036708,240.769778 12.9281307,247.265338 C11.3525907,253.760899 10.4163343,256.930229 9.69570035,259.124955 C8.91376337,261.506382 8.01463841,264.457167 6.26702259,270.032975 C6.9849327,268.637181 8.34716649,266.617238 9.84136919,264.081844 C11.1387422,261.880435 12.5356058,259.290431 13.6965804,256.382986 C14.9226648,253.312485 15.6696841,250.208679 16.5274268,246.201987 C17.3851694,242.195295 17.6240457,240.329292 18.0633865,235.984735 C18.2482484,234.15667 18.2796111,232.284802 18.4552517,230.712787 C19.3255242,222.923686 18.6757723,214.460637 18.5672527,211.321194 C18.4073729,206.695912 17.6945669,201.003168 17.040954,193.886658 C16.5666984,188.722984 15.4710351,183.225468 14.2851158,177.645204 C13.8116497,175.417341 12.6144219,173.467857 12.2802983,171.140311 C12.2802983,177.628321 12.7462526,188.802597 11.4224224,196.813772 C9.97676982,205.562156 7.78612349,212.666334 7.78612349,212.666334 L6.26702259,216.894412 L8.01463841,241.956239 C8.01463841,241.956239 11.0833897,239.362722 11.9061628,235.175934 Z M11.9061628,235.175934" id="white-lil" fill="#F0F0F0" transform="translate(12.584591, 220.586643) rotate(7.000000) translate(-12.584591, -220.586643) "></path>
                    <path d="M24.6002935,28.58625 C17.9784897,18.3408971 2.02907618,0.1780625 2.02907618,0.1780625 C2.02907618,0.1780625 44.2896687,69.849828 41.5822299,85.4206719 C48.6425009,100.306938 61.1393008,113.487172 64.8895436,137.276563 C70.2009843,104.255594 51.1490775,56.6876406 51.1490775,56.6876406 L31.2973274,20.8357187 L40.611593,59.8735156 C40.611593,59.8735156 30.8393291,38.2393801 24.6002935,28.58625 Z M24.6002935,28.58625" id="white-big" fill="#FFFFFF"></path>
                    <path d="M24.6002935,28.58625 C17.9784897,18.3408971 2.02907618,0.1780625 2.02907618,0.1780625 C2.02907618,0.1780625 44.3365768,69.7908749 41.629138,85.3617187 L43.126589,84.7216562 C44.5240108,85.9395109 62.2283915,116.009919 63.9189067,126.733578 C67.2264272,106.170884 53.6096481,70.3473203 53.6096481,70.3473203 C53.6096481,70.3473203 55.866542,69.7774703 55.7380516,69.4185078 C52.981641,61.7179452 51.1490775,56.6876406 51.1490775,56.6876406 L31.2973274,20.8357187 L40.611593,59.8735156 C40.611593,59.8735156 30.8393291,38.2393801 24.6002935,28.58625 Z M24.6002935,28.58625" id="black-big" fill="#232323"></path>
                </g>
                <g id="giro" transform="translate(83.751412, 89.936000)" fill="#232323">
                    <path d="M19.4559027,45.3704433 L8.3610762,45.3704433 C7.35252545,45.3704433 5.12285487,45.4950451 5.12285487,47.907225 L5.12285487,51.2345565 C5.12285487,52.3158439 5.22913942,53.7298043 8.57338919,53.7298043 L19.084547,53.7298043 C19.9870693,53.7298043 20.8363213,53.4803999 19.8277705,52.0662389 C18.8189637,50.6522785 16.5892931,48.2402993 15.8993399,48.9471791 C15.2091306,49.654059 14.5721916,50.527476 15.1031022,51.2760904 C15.6337566,52.0247049 16.2709517,52.7315848 14.6784762,52.7315848 L10.856074,52.7315848 C10.1658647,52.7315848 8.73268796,52.8563873 8.73268796,51.1095533 L8.73268796,48.0322282 C8.73268796,47.4912835 8.73294407,46.2851936 11.0153728,46.2851936 L18.6066507,46.2851936 C19.29686,46.2851936 21.7918578,45.3704433 19.4559027,45.3704433 Z M19.4559027,45.3704433" id="Fill-1" transform="translate(12.778121, 49.550124) rotate(268.000000) translate(-12.778121, -49.550124) "></path>
                    <path d="M9.53730551,32.3549672 L11.0777694,32.3549672 C11.8478852,32.3549672 12.7626881,32.5475527 12.7626881,34.5700487 L12.7626881,41.8411379 L10.9816211,41.8411379 C10.3076536,41.8411379 9.48923133,41.6964084 9.48923133,40.107404 C9.48923133,38.5183995 9.53730551,32.3549672 9.53730551,32.3549672" id="Fill-3" transform="translate(11.125960, 37.098053) rotate(280.000000) translate(-11.125960, -37.098053) "></path>
                    <path d="M2.57388446,30.6195944 C3.18727824,30.6195944 4.0561911,30.4453551 4.0561911,29.1819629 C4.0561911,27.9183605 4.44957539,25.975643 4.65733632,25.0821162 C4.86509718,24.1885894 5.75215939,23.7168478 7.69173423,23.5286881 C9.63130904,23.3405283 11.9110885,22.9000553 12.7800014,22.9000553 C13.6491609,22.9000553 13.9557345,22.9870699 13.9557345,24.1636578 C13.9557345,25.3396151 12.8823571,25.1220787 12.166361,25.2526006 C11.4506116,25.3831224 7.88165418,25.177822 9.00608612,26.8332 C10.1307647,28.4885781 11.8690837,30.2311808 11.8690837,30.2311808 L15.4986385,30.2311808 C15.4986385,30.2311808 13.8116207,27.9660705 13.3003359,27.3559178 C12.7892977,26.7459753 13.4955042,25.6880936 15.0804131,25.5140645 C16.665322,25.3396151 17.3810714,25.2526006 17.3810714,23.9019836 C17.3810714,22.5515768 16.2053383,21.3316919 14.1091446,21.3316919 C12.0129509,21.3316919 2.21625526,22.9000553 2.21625526,22.9000553 L0.631100866,30.6195944 L2.57388446,30.6195944 Z M2.57388446,30.6195944" id="Fill-4" transform="translate(9.006086, 25.975643) rotate(266.000000) translate(-9.006086, -25.975643) "></path>
                    <path d="M4.33569579,76.3971258 C4.33569579,76.3971258 0.583107349,78.127816 -0.156491924,78.5953505 C-0.895816865,79.0631107 -1.52101966,79.7179299 0.0712036978,80.5130996 C1.66315273,81.3080437 5.24565529,83.0854422 10.8181627,83.0854422 C16.3909445,83.0854422 22.8166247,79.5310966 25.1478986,75.835949 C26.3985785,73.8714916 24.3515126,74.0118422 22.588929,73.9184256 C20.8260711,73.8247833 12.9220154,73.1232558 7.29272123,73.8714916 C3.71021867,74.3859601 5.13180747,75.1811299 5.7572846,76.2100669 C6.38276173,77.2390039 9.73756867,81.0745021 10.3062591,80.7938009 C10.8749495,80.5130996 12.4671728,79.0164024 12.4671728,78.080882 C12.4671728,77.1455873 9.62399519,74.9473626 13.7751881,74.9473626 C17.9263811,74.9473626 21.3950358,74.760078 19.5183301,76.9115944 C17.6416244,79.0631107 15.3674115,81.7290956 10.3633201,81.7290956 C5.35922876,81.7290956 2.45899007,79.5308709 3.82379214,78.4549999 C5.18886855,77.3793546 5.07529507,77.2859379 4.33569579,76.3971258" id="Fill-6" transform="translate(12.304850, 78.307819) rotate(276.000000) translate(-12.304850, -78.307819) "></path>
                    <path d="M1.93117646,0.188085241 C0.62132732,-0.176761015 -0.163200862,0.58537858 0.186562957,1.91966663 L2.90684748,12.2970783 C3.33843179,13.9434973 5.00942364,15.6812828 6.62550016,16.1743776 L8.23715212,16.6661224 C9.85932297,17.1610767 10.787826,16.2435372 10.308029,14.6065297 L7.31739036,4.40284526 C6.8389332,2.77040936 5.12230067,1.07694312 3.48842068,0.621841089 L1.93117646,0.188085241 Z M2.7945416,4.16304699 C2.1451037,3.9654045 1.76220979,4.33699934 1.94044517,4.99717972 L3.38572942,10.3504843 C3.56346289,11.0088056 4.23403558,11.6861818 4.88963398,11.8651218 L7.63875233,12.6154704 C8.61841715,12.8828616 9.15493434,12.3064549 8.84008552,11.3372298 L7.29614662,6.58439515 C7.08682777,5.94003164 6.38972881,5.25716512 5.74122998,5.05980841 L2.7945416,4.16304699 Z M2.7945416,4.16304699" id="Path-23"></path>
                </g>
            </g>
            <g id="left-side" transform="translate(55.036723, 141.500000) scale(-1, 1) translate(-55.036723, -141.500000) translate(1.536723, 0.000000)" sketch:type="MSShapeGroup">
                <g id="foam" transform="translate(0.615819, 1.848000)" fill="#3F3F3F">
                    <path d="M15.6216013,273.295258 L47.7506455,254.620953 C47.7506455,254.620953 80.2635084,210.403578 78.7749437,206.166297 C78.6768402,205.88704 89.1638859,153.62703 89.1638859,153.62703 L85.003498,105.600686 L60.8734883,59.2081864 L68.8334326,102.798607 L60.8734883,202.145453 L22.5646021,234.463797 L15.6216013,273.295258 Z M15.6216013,273.295258" id="Path-27"></path>
                    <path d="M0.458256091,0 L0.323545639,30.6405859 C0.323545639,30.6405859 14.4128154,71.7236532 12.93942,63.3739655 C11.4660245,55.024278 18.8191704,56.3820472 19.7428992,58.4502188 C20.1605832,59.3853875 24.9349959,70.0864842 28.8971961,83.496875 C33.6975974,99.7442265 37.2233845,119.687847 37.2233845,125.016719 C37.2233845,134.743984 51.9795915,103.904281 51.9795915,103.904281 L25.1060591,15.1274922 L0.458256091,0 Z M0.458256091,0" id="Path-25"></path>
                    <path d="M37.5535454,150.082023 C37.5535454,150.082023 35.1762668,187.363859 29.2911039,192.181172 C23.405941,196.998484 24.5569937,232.562859 24.5569937,232.562859 L51.2032022,228.431328 L66.0778822,125.751828 L43.9973958,127.412141 L37.5535454,150.082023 Z M37.5535454,150.082023" id="Path-26"></path>
                </g>
                <g id="connection" transform="translate(25.248588, 95.480000)" fill="#181818">
                    <path d="M4.64029396,34.9700313 L8.00564972,73.304 C8.00564972,73.304 11.7534328,58.22167 16.7437875,51.5587188 C19.4527766,47.941769 31.1036811,42.4642969 31.1036811,42.4642969 L23.3722634,0.196109375 C23.3722634,0.196109375 15.9761937,25.7957729 12.0734243,31.5435313 C8.1706547,37.2912889 4.64029396,34.9700313 4.64029396,34.9700313 Z M4.64029396,34.9700313" id="top"></path>
                    <path d="M3.84526174,129.430984 L0,150.92 C0,150.92 6.01068,146.580535 8.34483139,146.379406 C10.6789828,146.178277 14.5210651,149.66875 14.5210651,149.66875 L29.0421301,98.0967969 C29.0421301,98.0967969 16.2092423,120.548933 11.6247903,124.508398 C8.58006012,127.138048 3.84526174,129.430984 3.84526174,129.430984 Z M3.84526174,129.430984" id="bottom"></path>
                    <path d="M35.4829736,123.716141 L47.4180791,68.376 C47.4180791,68.376 52.3807724,69.1080023 54.9546478,68.376 C56.0804705,68.0558192 57.815469,67.0265457 59.2690117,66.0773175 C57.815469,67.0265457 56.0804705,68.0558192 54.9546478,68.376 C52.3807724,69.1080023 47.4180791,68.376 47.4180791,68.376 L35.4829736,123.716141 C35.4829736,123.716141 36.1213448,121.785727 37.3460673,119.693342 C36.1213448,121.785727 35.4829736,123.716141 35.4829736,123.716141 Z M35.4829736,123.716141" id="outside"></path>
                </g>
                <g id="frame" fill="#D6D66C">
                    <path d="M7.86733081,39.3927187 C5.50358729,33.0084592 2.82771679,28.9965156 1.23163842,29.789375 C-1.50226217,32.6858984 1.78229627,60.9547334 5.20800241,89.9035156 C7.30927794,107.660255 9.94916885,127.363256 11.8707568,146.21157 C13.084135,158.113255 12.4192806,170.175712 13.2843205,180.694937 C14.9019658,200.366143 13.6293506,216.757591 13.2843206,224.533203 C11.9862231,253.787188 12.0782352,255.851148 10.2211385,265.345515 C8.36404178,274.839883 2.1854634,278.943163 5.20800265,280.565746 C8.39915515,278.626693 13.3645462,276.683086 15.8405062,273.422192 C29.8739622,254.939821 31.6308928,218.505277 32.0944843,213.650411 C32.6398686,207.938989 33.1445236,203.837136 33.5293841,195.178607 C34.0576578,183.293592 33.4500307,168.57796 32.8332675,160.980531 C31.4134893,143.49138 25.6679711,109.127907 19.015917,82.3563336 C14.818017,65.4616427 11.4439169,49.0527571 7.86733081,39.3927187 Z M7.86733081,39.3927187" id="inside"></path>
                    <path d="M39.8610639,25.8431255 C23.9529692,7.80672189 9.86513506,-4.60556236 0.467276881,1.84799994 C0.971094527,3.46094339 4.09608714,6.61204953 7.17693988,11.2630543 C9.12144867,14.198579 10.6150395,18.131546 12.7902763,21.3885554 C16.9760207,27.6559236 21.1647175,34.2567127 22.2368474,36.36325 C34.213276,59.8947202 51.2985278,96.1936377 54.4284351,134.689847 C55.6463481,149.669533 56.3293567,167.113207 54.4284351,183.415798 C53.5807156,190.685968 51.3695241,197.660498 49.9222519,204.206406 C44.2370594,229.920124 33.4008249,249.178041 36.67492,250.969469 C42.6514935,254.239562 79.5176552,210.862094 76.1210275,130.859094 C74.7924243,99.5656304 68.1351422,74.6337207 57.3583579,54.6934745 C52.7758345,46.2144483 45.8403422,32.6223567 39.8610639,25.8431255 Z M39.8610639,25.8431255" id="middle"></path>
                    <path d="M44.7467227,37.0839219 C44.7467227,37.0839219 56.7485272,53.65767 67.9742794,75.9809531 C72.7013241,85.3810497 75.8042155,95.3305886 79.2879277,105.488797 C86.4286131,126.310429 85.1246556,151.518594 84.6510828,159.588516 C83.3977945,180.945187 79.2879277,201.807375 67.9742784,223.033021 C56.6606301,244.258671 33.3736834,263.962194 19.2455531,269.858531 C-6.25561628,280.50138 9.22526042,282.093109 9.22526042,282.093109 C9.22526042,282.093109 23.8945773,281.221931 41.4535333,269.858531 C69.4672317,251.729271 105.210916,213.090339 103.304875,155.458188 C100.204129,61.7022656 44.7467227,37.0839219 44.7467227,37.0839219 Z M44.7467227,37.0839219" id="outside"></path>
                </g>
                <g id="decals" transform="translate(8.005650, 9.240000)">
                    <path d="M13.0332362,242.567643 C10.2191687,251.440467 0.324748411,268.779328 0.324748411,268.779328 C0.324748411,268.779328 32.8861891,246.646641 17.3836622,138.654141 C17.3836622,157.66655 16.8411117,175.401025 14.4224378,188.344406 C11.6698017,203.074966 6.99772687,211.752406 6.99772687,211.752406 L6.7846459,216.038151 L12.5773857,220.813143 C12.5773857,220.813143 15.2511653,235.574457 13.0332362,242.567643 Z M13.0332362,242.567643" id="black-lil" fill="#232323"></path>
                    <path d="M11.9061628,235.175934 C13.3428127,227.865353 12.9281307,222.013032 12.9281307,222.013032 C12.9281307,222.013032 13.7123199,228.630069 13.977299,232.182216 C14.2422782,235.734363 14.6017582,235.651799 14.2851158,240.203934 C13.9684734,244.756069 14.5036708,240.769778 12.9281307,247.265338 C11.3525907,253.760899 10.4163343,256.930229 9.69570035,259.124955 C8.91376337,261.506382 8.01463841,264.457167 6.26702259,270.032975 C6.9849327,268.637181 8.34716649,266.617238 9.84136919,264.081844 C11.1387422,261.880435 12.5356058,259.290431 13.6965804,256.382986 C14.9226648,253.312485 15.6696841,250.208679 16.5274268,246.201987 C17.3851694,242.195295 17.6240457,240.329292 18.0633865,235.984735 C18.2482484,234.15667 18.2796111,232.284802 18.4552517,230.712787 C19.3255242,222.923686 18.6757723,214.460637 18.5672527,211.321194 C18.4073729,206.695912 17.6945669,201.003168 17.040954,193.886658 C16.5666984,188.722984 15.4710351,183.225468 14.2851158,177.645204 C13.8116497,175.417341 12.6144219,173.467857 12.2802983,171.140311 C12.2802983,177.628321 12.7462526,188.802597 11.4224224,196.813772 C9.97676982,205.562156 7.78612349,212.666334 7.78612349,212.666334 L6.26702259,216.894412 L8.01463841,241.956239 C8.01463841,241.956239 11.0833897,239.362722 11.9061628,235.175934 Z M11.9061628,235.175934" id="white-lil" fill="#F0F0F0" transform="translate(12.584591, 220.586643) rotate(7.000000) translate(-12.584591, -220.586643) "></path>
                    <path d="M24.6002935,28.58625 C17.9784897,18.3408971 2.02907618,0.1780625 2.02907618,0.1780625 C2.02907618,0.1780625 44.2896687,69.849828 41.5822299,85.4206719 C48.6425009,100.306938 61.1393008,113.487172 64.8895436,137.276563 C70.2009843,104.255594 51.1490775,56.6876406 51.1490775,56.6876406 L31.2973274,20.8357187 L40.611593,59.8735156 C40.611593,59.8735156 30.8393291,38.2393801 24.6002935,28.58625 Z M24.6002935,28.58625" id="white-big" fill="#FFFFFF"></path>
                    <path d="M24.6002935,28.58625 C17.9784897,18.3408971 2.02907618,0.1780625 2.02907618,0.1780625 C2.02907618,0.1780625 44.3365768,69.7908749 41.629138,85.3617187 L43.126589,84.7216562 C44.5240108,85.9395109 62.2283915,116.009919 63.9189067,126.733578 C67.2264272,106.170884 53.6096481,70.3473203 53.6096481,70.3473203 C53.6096481,70.3473203 55.866542,69.7774703 55.7380516,69.4185078 C52.981641,61.7179452 51.1490775,56.6876406 51.1490775,56.6876406 L31.2973274,20.8357187 L40.611593,59.8735156 C40.611593,59.8735156 30.8393291,38.2393801 24.6002935,28.58625 Z M24.6002935,28.58625" id="black-big" fill="#232323"></path>
                </g>
                <g id="giro" transform="translate(89.909605, 135.204000) scale(-1, 1) rotate(-171.000000) translate(-89.909605, -135.204000) translate(80.672316, 88.704000)" fill="#232323">
                    <path d="M19.4559027,45.3704433 L8.3610762,45.3704433 C7.35252545,45.3704433 5.12285487,45.4950451 5.12285487,47.907225 L5.12285487,51.2345565 C5.12285487,52.3158439 5.22913942,53.7298043 8.57338919,53.7298043 L19.084547,53.7298043 C19.9870693,53.7298043 20.8363213,53.4803999 19.8277705,52.0662389 C18.8189637,50.6522785 16.5892931,48.2402993 15.8993399,48.9471791 C15.2091306,49.654059 14.5721916,50.527476 15.1031022,51.2760904 C15.6337566,52.0247049 16.2709517,52.7315848 14.6784762,52.7315848 L10.856074,52.7315848 C10.1658647,52.7315848 8.73268796,52.8563873 8.73268796,51.1095533 L8.73268796,48.0322282 C8.73268796,47.4912835 8.73294407,46.2851936 11.0153728,46.2851936 L18.6066507,46.2851936 C19.29686,46.2851936 21.7918578,45.3704433 19.4559027,45.3704433 Z M19.4559027,45.3704433" id="Fill-1" transform="translate(12.778121, 49.550124) rotate(268.000000) translate(-12.778121, -49.550124) "></path>
                    <path d="M9.53730551,32.3549672 L11.0777694,32.3549672 C11.8478852,32.3549672 12.7626881,32.5475527 12.7626881,34.5700487 L12.7626881,41.8411379 L10.9816211,41.8411379 C10.3076536,41.8411379 9.48923133,41.6964084 9.48923133,40.107404 C9.48923133,38.5183995 9.53730551,32.3549672 9.53730551,32.3549672" id="Fill-3" transform="translate(11.125960, 37.098053) rotate(280.000000) translate(-11.125960, -37.098053) "></path>
                    <path d="M2.57388446,30.6195944 C3.18727824,30.6195944 4.0561911,30.4453551 4.0561911,29.1819629 C4.0561911,27.9183605 4.44957539,25.975643 4.65733632,25.0821162 C4.86509718,24.1885894 5.75215939,23.7168478 7.69173423,23.5286881 C9.63130904,23.3405283 11.9110885,22.9000553 12.7800014,22.9000553 C13.6491609,22.9000553 13.9557345,22.9870699 13.9557345,24.1636578 C13.9557345,25.3396151 12.8823571,25.1220787 12.166361,25.2526006 C11.4506116,25.3831224 7.88165418,25.177822 9.00608612,26.8332 C10.1307647,28.4885781 11.8690837,30.2311808 11.8690837,30.2311808 L15.4986385,30.2311808 C15.4986385,30.2311808 13.8116207,27.9660705 13.3003359,27.3559178 C12.7892977,26.7459753 13.4955042,25.6880936 15.0804131,25.5140645 C16.665322,25.3396151 17.3810714,25.2526006 17.3810714,23.9019836 C17.3810714,22.5515768 16.2053383,21.3316919 14.1091446,21.3316919 C12.0129509,21.3316919 2.21625526,22.9000553 2.21625526,22.9000553 L0.631100866,30.6195944 L2.57388446,30.6195944 Z M2.57388446,30.6195944" id="Fill-4" transform="translate(9.006086, 25.975643) rotate(266.000000) translate(-9.006086, -25.975643) "></path>
                    <path d="M4.33569579,76.3971258 C4.33569579,76.3971258 0.583107349,78.127816 -0.156491924,78.5953505 C-0.895816865,79.0631107 -1.52101966,79.7179299 0.0712036978,80.5130996 C1.66315273,81.3080437 5.24565529,83.0854422 10.8181627,83.0854422 C16.3909445,83.0854422 22.8166247,79.5310966 25.1478986,75.835949 C26.3985785,73.8714916 24.3515126,74.0118422 22.588929,73.9184256 C20.8260711,73.8247833 12.9220154,73.1232558 7.29272123,73.8714916 C3.71021867,74.3859601 5.13180747,75.1811299 5.7572846,76.2100669 C6.38276173,77.2390039 9.73756867,81.0745021 10.3062591,80.7938009 C10.8749495,80.5130996 12.4671728,79.0164024 12.4671728,78.080882 C12.4671728,77.1455873 9.62399519,74.9473626 13.7751881,74.9473626 C17.9263811,74.9473626 21.3950358,74.760078 19.5183301,76.9115944 C17.6416244,79.0631107 15.3674115,81.7290956 10.3633201,81.7290956 C5.35922876,81.7290956 2.45899007,79.5308709 3.82379214,78.4549999 C5.18886855,77.3793546 5.07529507,77.2859379 4.33569579,76.3971258" id="Fill-6" transform="translate(12.304850, 78.307819) rotate(276.000000) translate(-12.304850, -78.307819) "></path>
                    <path d="M1.93117646,0.188085241 C0.62132732,-0.176761015 -0.163200862,0.58537858 0.186562957,1.91966663 L2.90684748,12.2970783 C3.33843179,13.9434973 5.00942364,15.6812828 6.62550016,16.1743776 L8.23715212,16.6661224 C9.85932297,17.1610767 10.787826,16.2435372 10.308029,14.6065297 L7.31739036,4.40284526 C6.8389332,2.77040936 5.12230067,1.07694312 3.48842068,0.621841089 L1.93117646,0.188085241 Z M2.7945416,4.16304699 C2.1451037,3.9654045 1.76220979,4.33699934 1.94044517,4.99717972 L3.38572942,10.3504843 C3.56346289,11.0088056 4.23403558,11.6861818 4.88963398,11.8651218 L7.63875233,12.6154704 C8.61841715,12.8828616 9.15493434,12.3064549 8.84008552,11.3372298 L7.29614662,6.58439515 C7.08682777,5.94003164 6.38972881,5.25716512 5.74122998,5.05980841 L2.7945416,4.16304699 Z M2.7945416,4.16304699" id="Path-23"></path>
                </g>
            </g>
        </g>
        <g id="usac-license" sketch:type="MSLayerGroup" transform="translate(881.000000, 371.000000)">
            <path d="M-5,64.328 L85.5803035,64.328 L99.4264573,49.496 L99.4264573,5 L-5,5 L-5,64.328 Z M-5,64.328" id="shadow" fill-opacity="0.1" fill="#000000" sketch:type="MSShapeGroup"></path>
            <path d="M0,59.328 L90.5803035,59.328 L104.426457,44.496 L104.426457,0 L0,0 L0,59.328 Z M0,59.328" id="back" fill="#F0F0F0" sketch:type="MSShapeGroup"></path>
            <rect d="M3.46153846,44.928 L3.46153846,48.384 L53.0769231,48.384 L53.0769231,44.928 L3.46153846,44.928 Z M3.46153846,44.928" id="long" fill="#1B1B1B" sketch:type="MSShapeGroup" x="3.46153846" y="44.928" width="49.6153846" height="3.456"></rect>
            <rect d="M4.03846154,37.44 L4.03846154,40.896 L45,40.896 L45,37.44 L4.03846154,37.44 Z M4.03846154,37.44" id="middle" fill="#1B1B1B" sketch:type="MSShapeGroup" x="4.03846154" y="37.44" width="40.9615385" height="3.456"></rect>
            <rect d="M4.03846154,29.952 L4.03846154,33.408 L39.8076923,33.408 L39.8076923,29.952 L4.03846154,29.952 Z M4.03846154,29.952" id="short" fill="#1B1B1B" sketch:type="MSShapeGroup" x="4.03846154" y="29.952" width="35.7692308" height="3.456"></rect>
            <text id="Cat.-2" fill="#8E9662" sketch:type="MSTextLayer" font-family="Raleway" font-size="13.824" font-weight="633">
                <tspan x="57.1153846" y="41.8">Cat. 2</tspan>
            </text>
            <rect d="M4.03846154,19.008 L4.03846154,22.464 L98.0769231,22.464 L98.0769231,19.008 L4.03846154,19.008 Z M4.03846154,19.008" id="underline" fill="#A66060" sketch:type="MSShapeGroup" x="4.03846154" y="19.008" width="94.0384615" height="3.456"></rect>
            <text id="USAC" fill="#A66060" sketch:type="MSTextLayer" font-family="Raleway" font-size="13.824" font-weight="633" letter-spacing="1.03680019">
                <tspan x="4.03846154" y="15.88">USAC</tspan>
            </text>
        </g>
        <g id="bike" sketch:type="MSLayerGroup" transform="translate(463.000000, 150.000000)" fill="#4D7E96">
            <path d="M253.983964,53.5626979 C254.24934,57.5392675 251.18953,60.9711797 247.14652,61.2349536 L141.82089,68.9870545 C137.77498,69.2494025 134.283026,65.469594 134.016199,62.6179843 L134.016199,62.6179843 C133.749372,58.3405698 136.810632,54.8516254 140.855092,54.5892773 L246.180722,47.0168279 C250.225182,46.7544798 253.717136,49.587554 253.983964,53.5626979 L253.983964,53.5626979 L253.983964,53.5626979 Z M253.983964,53.5626979" id="Shape" sketch:type="MSShapeGroup"></path>
            <path d="M285.112136,15.2369719 C298.284225,15.8948236 308.606026,27.1997528 307.972308,39.7943605 C307.324121,52.6766881 296.578393,62.8639922 283.50035,62.9753209 C279.643057,63.0071291 275.785765,62.9145962 271.931367,62.9970084 C266.970131,63.1039996 263.63515,60.3337932 263.766813,55.8806429 C263.886901,51.8294328 265.808313,47.5960484 271.634763,47.9401555 C275.696061,48.180163 279.844169,48.2625752 283.856274,47.7146063 C288.737933,47.0466338 292.603906,44.3892019 292.311643,38.8936097 C292.020827,33.4139215 288.774104,30.2634623 283.006975,30.2605707 C268.939288,30.2547874 254.874496,30.1116504 240.812596,30.3299704 C235.117809,30.4181659 231.092683,28.2103866 231.001532,22.6034656 C230.904593,16.6625583 235.421647,14.9015398 240.882045,15.0041936 C248.139426,15.1343181 277.644963,14.8639482 285.112136,15.2369719 L285.112136,15.2369719 Z M285.112136,15.2369719" id="Shape" sketch:type="MSShapeGroup"></path>
            <path d="M251.158664,49.4881025 C254.334689,51.9180656 254.938692,56.4547596 252.51123,59.6313035 L183.996966,149.158068 C181.56521,152.334612 177.022306,152.939599 173.843419,150.509636 L173.843419,150.509636 C170.664531,148.082534 170.060528,143.540119 172.490853,140.366435 L241.005116,50.8396712 C243.43401,47.6645575 247.979776,47.0624301 251.158664,49.4881025 L251.158664,49.4881025 L251.158664,49.4881025 Z M251.158664,49.4881025" id="Shape" sketch:type="MSShapeGroup"></path>
            <path d="M119.182414,3.338522 C123.089402,2.13114794 127.249824,4.25555135 128.483301,8.0860893 L171.655001,143.536211 C172.885548,147.371061 170.720371,151.453135 166.813383,152.660509 L166.813383,152.660509 C162.910791,153.870758 158.747439,151.742042 157.518357,147.915817 L114.345192,12.4642576 C113.11318,8.63084497 115.284217,4.54877076 119.182414,3.338522 L119.182414,3.338522 L119.182414,3.338522 Z M119.182414,3.338522" id="Shape" sketch:type="MSShapeGroup"></path>
            <path d="M239.661607,35.5010369 C243.436606,34.0405406 247.688555,35.881225 249.167241,39.6156769 L289.493339,140.091513 C290.970576,143.830269 289.107721,148.039597 285.332721,149.498659 L285.332721,149.498659 C281.562071,150.96059 277.305774,149.115601 275.834336,145.389757 L235.506788,44.9096175 C234.028102,41.1708616 235.896755,36.9629679 239.661607,35.5010369 L239.661607,35.5010369 L239.661607,35.5010369 Z M239.661607,35.5010369" id="Shape" sketch:type="MSShapeGroup"></path>
            <path d="M59.0007278,146.124089 C58.9443913,142.269319 62.1656842,139.101374 66.2016898,139.043449 L178.587255,139.000695 C182.624705,138.946907 185.942782,142.023827 185.999118,145.878598 L185.999118,145.878598 C186.061233,149.73061 182.834162,152.901313 178.805379,152.95648 L66.4198132,152.999234 C62.3794741,153.05578 59.0628424,149.973343 59.0007278,146.124089 L59.0007278,146.124089 L59.0007278,146.124089 Z M59.0007278,146.124089" id="Shape" sketch:type="MSShapeGroup"></path>
            <path d="M91.0007242,7.12408942 C90.9446679,3.26931912 94.1499389,0.101373728 98.1658703,0.0434487362 L149.624125,0.000694575485 C153.641493,-0.053092917 156.943066,3.02382749 156.999123,6.87859778 L156.999123,6.87859778 C157.060928,10.7306097 153.849908,13.9013135 149.841163,13.9564801 L98.3829089,13.9992343 C94.3626654,14.0557801 91.0625299,10.973343 91.0007242,7.12408942 L91.0007242,7.12408942 L91.0007242,7.12408942 Z M91.0007242,7.12408942" id="Shape" sketch:type="MSShapeGroup"></path>
            <path d="M61.4060245,149.125939 C58.4076128,146.439483 58.1799771,141.873937 60.9014562,138.913119 L136.230026,62.3705584 C138.952955,59.4140279 143.592664,59.1925381 146.592525,61.8775651 L146.592525,61.8775651 C149.593837,64.5568763 149.818573,69.1338542 147.099993,72.0860978 L71.7714236,148.625801 C69.0470447,151.588047 64.4058861,151.80525 61.4060245,149.125939 L61.4060245,149.125939 L61.4060245,149.125939 Z M61.4060245,149.125939" id="Shape" sketch:type="MSShapeGroup"></path>
            <path d="M284.5,74 C246.114505,74 215,105.114505 215,143.5 C215,181.885495 246.114505,213 284.5,213 C322.884062,213 354,181.885495 354,143.5 C354,105.115938 322.884062,74 284.5,74 L284.5,74 Z M283.301724,195.025862 C254.188025,195.025862 230.577586,171.415423 230.577586,142.301724 C230.577586,113.18945 254.188025,89.5775862 283.301724,89.5775862 C312.413998,89.5775862 336.025862,113.18945 336.025862,142.301724 C336.025862,171.413998 312.413998,195.025862 283.301724,195.025862 L283.301724,195.025862 Z M283.301724,195.025862" id="Shape" sketch:type="MSShapeGroup"></path>
            <path d="M69.5,74 C31.1145052,74 0,105.114505 0,143.5 C0,181.885495 31.1145052,213 69.5,213 C107.884062,213 139,181.885495 139,143.5 C139,105.115938 107.885495,74 69.5,74 L69.5,74 Z M68.3017241,195.025862 C39.1880252,195.025862 15.5775862,171.415423 15.5775862,142.301724 C15.5775862,113.18945 39.1880252,89.5775862 68.3017241,89.5775862 C97.4139981,89.5775862 121.025862,113.18945 121.025862,142.301724 C121.025862,171.413998 97.4139981,195.025862 68.3017241,195.025862 L68.3017241,195.025862 Z M68.3017241,195.025862" id="Shape" sketch:type="MSShapeGroup"></path>
        </g>
    </g>
</svg>