<?xml version="1.0" encoding="UTF-8" standalone="no"?>
<svg width="33px" height="28px" viewBox="0 0 33 28" version="1.1" xmlns="http://www.w3.org/2000/svg" xmlns:xlink="http://www.w3.org/1999/xlink" xmlns:sketch="http://www.bohemiancoding.com/sketch/ns">
    <title>icon-arrow-gray</title>
    <description>Created with Sketch (http://www.bohemiancoding.com/sketch)</description>
    <defs></defs>
    <g id="Page-1" stroke="none" stroke-width="1" fill="none" fill-rule="evenodd" sketch:type="MSPage">
        <g id="Artboard-7" sketch:type="MSArtboardGroup" transform="translate(-25.000000, -33.000000)" fill="#C5C5C5">
            <path d="M25.4568528,48.5619118 C25.5204556,48.6596055 25.5557815,48.7104733 25.5968589,48.7631006 C25.6351389,48.81456 25.6773453,48.8641325 25.7448481,48.9391315 C25.7834765,48.9860251 25.7834765,48.9860251 25.817731,49.0237958 L36.7800027,60.156084 C37.3189902,60.7033018 38.0411314,61.0000604 38.7905932,61.0000604 C39.5409279,61.0000604 40.2632696,60.7023629 40.8031114,60.1532885 C41.9086511,59.0318811 41.9080344,57.214993 40.8029537,56.0920234 L34.6817112,49.8765469 L55.1588536,49.8765465 C55.9244264,49.8765465 56.6423102,49.5679821 57.1705915,49.0305864 C57.697784,48.4953441 58.000029,47.7707907 58.000029,47.0004794 C58.000029,46.4203473 57.8295327,45.864551 57.5156528,45.3938317 C56.9928993,44.6065893 56.1166462,44.1235742 55.158873,44.1235742 L34.681711,44.1195596 L40.8019489,37.9066032 C41.9075962,36.786101 41.9075962,34.967168 40.8018111,33.8455118 C39.6934225,32.7181627 37.8915966,32.7181627 36.7802006,33.8455121 L25.8246408,44.9692 C25.7789475,45.0187505 25.7789475,45.0187505 25.755758,45.0477944 C25.6848453,45.126546 25.6364445,45.1828044 25.5893203,45.2452941 C25.5662487,45.273792 25.5432589,45.3064386 25.5060407,45.3620915 C25.4349773,45.4678871 25.3953772,45.5313429 25.3594349,45.5974214 C25.3320863,45.6475793 25.3097391,45.6925545 25.2761176,45.7632626 C25.2473279,45.8173502 25.2149996,45.8865386 25.1784028,45.9905744 C25.1594101,46.0428421 25.1411261,46.1005387 25.122838,46.1649783 C25.0964125,46.2481292 25.0778971,46.3139226 25.0622497,46.3893828 C25.0527183,46.4332001 25.0461128,46.4728206 25.0362656,46.5391251 C25.0180454,46.6594577 25.0096604,46.7275617 25.0049487,46.8021873 C25.0017195,46.852859 25.0017195,46.852859 25.0007935,46.9034388 C24.9992555,47.0899861 24.9997694,47.1430337 25.0055001,47.215761 C25.011253,47.2733028 25.011253,47.2733028 25.0167563,47.3178099 C25.0245353,47.3781477 25.0291282,47.4124603 25.0291282,47.4124603 C25.0480224,47.5351143 25.0545935,47.5738059 25.0658746,47.6253459 C25.0791313,47.6813396 25.0791313,47.6813396 25.0918264,47.7280747 C25.1042157,47.7719748 25.1042157,47.7719748 25.1154552,47.8105219 C25.1416048,47.8998261 25.1638502,47.9687396 25.2023682,48.0764811 C25.2372973,48.1588432 25.2372973,48.1588432 25.2557539,48.1934207 C25.3122995,48.3117382 25.3359607,48.3592564 25.3642599,48.4105069 C25.3918456,48.4601235 25.4171265,48.5008517 25.4568528,48.5619118 Z" id="arrow" sketch:type="MSShapeGroup" transform="translate(41.500000, 47.000000) scale(-1, 1) translate(-41.500000, -47.000000) "></path>
        </g>
    </g>
</svg>