<?xml version="1.0" encoding="UTF-8" standalone="no"?>
<svg width="300px" height="275px" viewBox="0 0 300 275" version="1.1" xmlns="http://www.w3.org/2000/svg" xmlns:xlink="http://www.w3.org/1999/xlink" xmlns:sketch="http://www.bohemiancoding.com/sketch/ns">
    <title>icon-service-bespoke-interfaces</title>
    <description>Created with Sketch (http://www.bohemiancoding.com/sketch)</description>
    <defs></defs>
    <g id="Page-1" stroke="none" stroke-width="1" fill="none" fill-rule="evenodd" sketch:type="MSPage">
        <g id="bespoke-cms" sketch:type="MSLayerGroup" transform="translate(0.000000, 16.000000)">
            <g id="mac" sketch:type="MSShapeGroup">
                <path d="M200.647768,243.504095 C196.387551,241.528418 192.127335,241.707829 187.246192,238.655686 C181.713237,235.196231 181.432062,212.255319 181.432062,212.255319 L150.473603,212.255319 L119.631235,212.255319 C119.631235,212.255319 119.350061,235.196231 113.817637,238.655686 C108.936495,241.707829 104.676278,241.528418 100.416062,243.504095 C99.8111113,243.784795 99.9138891,245.756162 100.416062,246.197955 C102.251683,247.814271 110.090481,247.275499 110.090481,247.275499 L150.473603,247.275499 L190.973349,247.275499 C190.973349,247.275499 198.812147,247.814271 200.647768,246.197955 C201.149941,245.756162 201.252718,243.784795 200.647768,243.504095 C200.647768,243.504095 201.252718,243.784795 200.647768,243.504095 L200.647768,243.504095 L200.647768,243.504095 Z" id="base" fill="#D1D1D1"></path>
                <path d="M181.914894,217.574468 L119.148936,217.574468 L119.303708,211.191489 L181.64243,211.191489 L181.914894,217.574468 Z" id="shadow" opacity="0.7" fill="#A5A5A5"></path>
                <path d="M290.941385,214.382979 L9.05861456,214.382979 C4.05559503,214.382979 0,210.324113 0,205.31706 L0,19.0917978 C0,14.0847441 4.05559503,10.0258788 9.05861456,10.0258788 L290.941385,10.0258788 C295.944405,10.0258788 300,14.0847441 300,19.0917978 L300,205.31706 C300,210.324113 295.944405,214.382979 290.941385,214.382979 Z" id="monitor" fill="#E2E2E2"></path>
                <path d="M300,19.5722656 C300,14.34684 295.944405,10.1109561 290.941385,10.1109561 L9.05861456,10.1109561 C4.05559503,10.1109561 0,14.34684 0,19.5722656 L0,187 L300,187 L300,19.5722656 Z" id="glass" fill="#000000"></path>
                <circle id="logo" fill="#1A1A1A" cx="150" cy="199.489362" r="6.38297872"></circle>
            </g>
            <g id="window" transform="translate(10.000000, 20.000000)" sketch:type="MSShapeGroup">
                <rect id="top-bar" fill="#CFCFCF" x="0" y="-0.165217391" width="279.525131" height="13.0029617"></rect>
                <path d="M26.0213523,12.8347826 L30.0570257,4.71189182 C30.2932227,4.23648098 30.9148266,3.85043478 31.4450187,3.85043478 L55.0071174,3.85043478 L67.7808766,3.85043478 C68.3110687,3.85043478 68.9326725,4.23648098 69.1688696,4.71189182 L73.2045429,12.8347826 L55.0071174,12.8347826 L26.0213523,12.8347826 Z" id="tab" fill="#EBEBEB"></path>
                <ellipse id="exit" fill="#D5635D" cx="8.08540925" cy="6.09652174" rx="1.92170819" ry="1.92521739"></ellipse>
                <ellipse id="minimize" fill="#DDA85A" cx="14.4911032" cy="6.09652174" rx="1.92170819" ry="1.92521739"></ellipse>
                <ellipse id="expand" fill="#76B24F" cx="21.2170819" cy="6.09652174" rx="1.92170819" ry="1.92521739"></ellipse>
                <rect id="screen" fill="#ACD7F2" x="0" y="27.4547826" width="279.525131" height="128.859942"></rect>
                <rect id="address-back" fill="#EBEBEB" x="0" y="12.2086957" width="279.525131" height="13.0029617"></rect>
                <rect id="address-bar" fill="#FFFFFF" x="31.1459075" y="15.0808696" width="139.323843" height="7.38"></rect>
                <g id="icons" transform="translate(5.202847, 3.208696)">
                    <path d="M265.021436,2.89921696 C264.793531,2.67089534 264.424059,2.67089534 264.196543,2.89921696 L263.41482,3.68197826 L262.469751,2.73518385 L262.469751,5.45478261 L265.184004,5.45478261 L264.239713,4.50876745 L265.021436,3.72561652 C265.248953,3.49807416 265.248953,3.12753857 265.021436,2.89921696 L265.021436,2.89921696 Z M265.212395,0 L266.152407,0.946015155 L265.374573,1.72916609 C265.147834,1.95709807 265.147834,2.32724404 265.374573,2.55556565 C265.601701,2.78388727 265.969227,2.78388727 266.195966,2.55556565 L266.9738,1.77280435 L267.914591,2.71959876 L267.914591,0 L265.212395,0 L265.212395,0 Z" id="full-screen" fill="#B0B0B0"></path>
                    <path d="M167.585463,14.1182609 L170.78831,14.1182609 C171.053505,14.1182609 171.268737,13.9026365 171.268737,13.6369565 C171.268737,13.3712765 171.053505,13.1556522 170.78831,13.1556522 L167.585463,13.1556522 C167.320267,13.1556522 167.105036,13.3712765 167.105036,13.6369565 C167.105036,13.9026365 167.320267,14.1182609 167.585463,14.1182609 L167.585463,14.1182609 Z M170.78831,14.76 L167.585463,14.76 C167.320267,14.76 167.105036,14.9756243 167.105036,15.2413043 C167.105036,15.5069843 167.320267,15.7226087 167.585463,15.7226087 L170.78831,15.7226087 C171.053505,15.7226087 171.268737,15.5069843 171.268737,15.2413043 C171.268737,14.9756243 171.053505,14.76 170.78831,14.76 L170.78831,14.76 Z M170.78831,16.3643478 L167.585463,16.3643478 C167.320267,16.3643478 167.105036,16.5799722 167.105036,16.8456522 C167.105036,17.1113322 167.320267,17.3269565 167.585463,17.3269565 L170.78831,17.3269565 C171.053505,17.3269565 171.268737,17.1113322 171.268737,16.8456522 C171.268737,16.5799722 171.053505,16.3643478 170.78831,16.3643478 L170.78831,16.3643478 Z" id="options" fill="#C4C4C4"></path>
                    <g id="new-page" transform="translate(27.544484, 13.155652)">
                        <path d="M2.24199288,0 L0.640569395,0 C0.286975089,0 0,0.28749913 0,0.64173913 L0,4.17130435 C0,4.52554435 0.286975089,4.81304348 0.640569395,4.81304348 L2.88256228,4.81304348 C3.23615658,4.81304348 3.52313167,4.52554435 3.52313167,4.17130435 L3.52313167,1.28347826 L2.24199288,0 L2.24199288,0 Z" id="page" fill="#EAEAEA"></path>
                        <path d="M2.19811388,0 L1.92170819,0 L1.92170819,1.28347826 C1.92170819,1.46091913 2.06519573,1.60434783 2.24199288,1.60434783 L3.52313167,1.60434783 L3.52313167,1.32775826 L2.19811388,0 L2.19811388,0 Z" id="fold" fill="#D9D9D9"></path>
                    </g>
                    <path d="M19.8712634,15.399493 L22.1132563,15.399493 L22.1132563,13.1639948 L22.0850712,13.1639948 L21.390694,13.85964 C20.9570285,13.4271078 20.363541,13.1556522 19.7027936,13.1556522 C18.3761744,13.1556522 17.3006584,14.2328113 17.3006584,15.5621739 C17.3006584,16.8915365 18.3761744,17.9686957 19.7027936,17.9686957 C20.5765303,17.9686957 21.3388079,17.4999052 21.7593417,16.8010513 L21.3397687,16.3643478 L20.9006584,16.3643478 C20.6418684,16.7509957 20.2024378,17.006087 19.7027936,17.006087 C18.9068862,17.006087 18.2615125,16.3595348 18.2615125,15.5621739 C18.2615125,14.764813 18.9068862,14.1182609 19.7027936,14.1182609 C20.0986655,14.1182609 20.4516192,14.2822252 20.7104093,14.541167 L19.8712634,15.3818452 L19.8712634,15.399493 L19.8712634,15.399493 Z" id="refresh" fill="#C4C4C4"></path>
                    <path d="M12.9873844,15.0425257 L10.3136478,15.0425257 L11.0570286,14.2981083 C11.2443951,14.1100787 11.2443951,13.8052526 11.0570286,13.6175439 C10.8693417,13.4295143 10.5650713,13.4295143 10.3773844,13.6175439 L8.86051611,15.1368613 C8.78781149,15.1904465 8.73080081,15.2632839 8.6974912,15.3483143 C8.68788266,15.3698126 8.68339867,15.3919526 8.67699298,15.4147343 C8.67475099,15.4237187 8.67314956,15.4330239 8.67154814,15.4420083 C8.64912821,15.5427613 8.6536122,15.6464022 8.69621006,15.7417004 C8.71959085,15.8004196 8.75482216,15.8552883 8.80190401,15.9024561 L10.3873133,17.4904396 C10.5750001,17.6784691 10.8792706,17.6784691 11.0669574,17.4904396 C11.2546442,17.3027309 11.2546442,16.9979048 11.0669574,16.8098752 L10.2636834,16.0051343 L12.9873844,16.0051343 C13.2529005,16.0051343 13.4678115,15.78951 13.4678115,15.52383 C13.4678115,15.25815 13.2529005,15.0425257 12.9873844,15.0425257 L12.9873844,15.0425257 Z" id="forward" fill="#C4C4C4" transform="translate(11.060392, 15.562174) scale(-1, 1) translate(-11.060392, -15.562174) "></path>
                    <path d="M4.34498234,15.0425257 L1.67124568,15.0425257 L2.41462647,14.2981083 C2.60199301,14.1100787 2.60199301,13.8052526 2.41462647,13.6175439 C2.22693963,13.4295143 1.92266917,13.4295143 1.73498234,13.6175439 L0.21811401,15.1368613 C0.145409384,15.1904465 0.0883987077,15.2632839 0.0550890992,15.3483143 C0.0454805583,15.3698126 0.0409965725,15.3919526 0.0345908786,15.4147343 C0.0323488857,15.4237187 0.0307474622,15.4330239 0.0291460387,15.4420083 C0.00672610988,15.5427613 0.0112100956,15.6464022 0.0538079604,15.7417004 C0.0771887433,15.8004196 0.11242006,15.8552883 0.159501911,15.9024561 L1.74491116,17.4904396 C1.932598,17.6784691 2.23686846,17.6784691 2.42455529,17.4904396 C2.61224212,17.3027309 2.61224212,16.9979048 2.42455529,16.8098752 L1.62128127,16.0051343 L4.34498234,16.0051343 C4.61049835,16.0051343 4.82540938,15.78951 4.82540938,15.52383 C4.82540938,15.25815 4.61049835,15.0425257 4.34498234,15.0425257 L4.34498234,15.0425257 Z" id="back" fill="#C4C4C4"></path>
                </g>
            </g>
            <g id="login" transform="translate(101.000000, 89.000000)" sketch:type="MSShapeGroup">
                <rect id="bg" fill="#C1C1C1" x="0" y="10.1556522" width="96" height="48.7721739"></rect>
                <rect id="button" fill="#0097CF" x="62.5116279" y="44.1678261" width="25.5149502" height="9.30521739"></rect>
                <rect id="text-box" fill="#EBEBEB" x="9.56810631" y="30.6913043" width="78.4584718" height="9.30521739"></rect>
                <rect id="text-box" fill="#EBEBEB" x="9.56810631" y="17.2147826" width="78.4584718" height="9.30521739"></rect>
                <rect id="top-bar" fill="#0097CF" x="0" y="-0.112173913" width="96" height="10.2678261"></rect>
                <path d="M69.8343323,50.0462822 L71.4757973,50.0462822 L71.4757973,50.6756522 L69.0717173,50.6756522 L69.0717173,46.5762422 L69.8343323,46.5762422 L69.8343323,50.0462822 Z M73.2051473,47.7215822 C73.4224984,47.7215822 73.6195289,47.7565468 73.7962448,47.8264772 C73.9729607,47.8964075 74.1236867,47.9956315 74.2484273,48.1241522 C74.3731679,48.2526728 74.469557,48.4095412 74.5375973,48.5947622 C74.6056376,48.7799831 74.6396573,48.986936 74.6396573,49.2156272 C74.6396573,49.4462083 74.6056376,49.6541062 74.5375973,49.8393272 C74.469557,50.0245481 74.3731679,50.1823615 74.2484273,50.3127722 C74.1236867,50.4431828 73.9729607,50.5433518 73.7962448,50.6132822 C73.6195289,50.6832125 73.4224984,50.7181772 73.2051473,50.7181772 C72.9877962,50.7181772 72.7902932,50.6832125 72.6126323,50.6132822 C72.4349714,50.5433518 72.2833004,50.4431828 72.1576148,50.3127722 C72.0319292,50.1823615 71.9345952,50.0245481 71.8656098,49.8393272 C71.7966245,49.6541062 71.7621323,49.4462083 71.7621323,49.2156272 C71.7621323,48.986936 71.7966245,48.7799831 71.8656098,48.5947622 C71.9345952,48.4095412 72.0319292,48.2526728 72.1576148,48.1241522 C72.2833004,47.9956315 72.4349714,47.8964075 72.6126323,47.8264772 C72.7902932,47.7565468 72.9877962,47.7215822 73.2051473,47.7215822 L73.2051473,47.7215822 Z M73.2051473,50.1795272 C73.4470685,50.1795272 73.6261442,50.098258 73.7423798,49.9357172 C73.8586154,49.7731764 73.9167323,49.5350387 73.9167323,49.2212972 C73.9167323,48.9075556 73.8586154,48.668473 73.7423798,48.5040422 C73.6261442,48.3396114 73.4470685,48.2573972 73.2051473,48.2573972 C72.9594461,48.2573972 72.7780079,48.3400838 72.6608273,48.5054597 C72.5436467,48.6708355 72.4850573,48.9094456 72.4850573,49.2212972 C72.4850573,49.5331487 72.5436467,49.7708139 72.6608273,49.9342997 C72.7780079,50.0977855 72.9594461,50.1795272 73.2051473,50.1795272 L73.2051473,50.1795272 Z M76.1932373,47.7159122 C76.3179779,47.7159122 76.4351568,47.7286695 76.5447773,47.7541847 C76.6543979,47.7796998 76.7545669,47.8170269 76.8452873,47.8661672 L77.6816123,47.8661672 L77.6816123,48.1269872 C77.6816123,48.1704574 77.6702724,48.2044771 77.6475923,48.2290472 C77.6249122,48.2536173 77.5861676,48.2706271 77.5313573,48.2800772 L77.2705373,48.3282722 C77.2894374,48.3774124 77.3040848,48.4293869 77.3144798,48.4841972 C77.3248749,48.5390074 77.3300723,48.5966519 77.3300723,48.6571322 C77.3300723,48.8007729 77.3012501,48.9307091 77.2436048,49.0469447 C77.1859595,49.1631803 77.1065803,49.2619318 77.0054648,49.3432022 C76.9043493,49.4244726 76.7843355,49.4873145 76.6454198,49.5317297 C76.5065041,49.5761449 76.3557781,49.5983522 76.1932373,49.5983522 C76.0836168,49.5983522 75.9768328,49.5879573 75.8728823,49.5671672 C75.7821619,49.6219774 75.7368023,49.6834018 75.7368023,49.7514422 C75.7368023,49.8100325 75.7637345,49.8530295 75.8175998,49.8804347 C75.8714651,49.9078398 75.9423394,49.9272121 76.0302248,49.9385522 C76.1181102,49.9498922 76.2178068,49.9569797 76.3293173,49.9598147 C76.4408279,49.9626497 76.5551717,49.9687921 76.6723523,49.9782422 C76.7895329,49.9876922 76.9038768,50.0042296 77.0153873,50.0278547 C77.1268979,50.0514798 77.2265944,50.0888069 77.3144798,50.1398372 C77.4023652,50.1908674 77.4732395,50.2603242 77.5271048,50.3482097 C77.5809701,50.4360951 77.6079023,50.5490215 77.6079023,50.6869922 C77.6079023,50.8155128 77.5762451,50.9402516 77.5129298,51.0612122 C77.4496145,51.1821728 77.3579504,51.2899017 77.2379348,51.3844022 C77.1179192,51.4789026 76.9709732,51.5549744 76.7970923,51.6126197 C76.6232114,51.670265 76.4247634,51.6990872 76.2017423,51.6990872 C75.9806112,51.6990872 75.7887781,51.6778249 75.6262373,51.6352997 C75.4636965,51.5927745 75.3290353,51.536075 75.2222498,51.4651997 C75.1154643,51.3943243 75.0356126,51.3125826 74.9826923,51.2199722 C74.929772,51.1273617 74.9033123,51.0309727 74.9033123,50.9308022 C74.9033123,50.7947215 74.9448919,50.6803776 75.0280523,50.5877672 C75.1112127,50.4951567 75.2265016,50.4214474 75.3739223,50.3666372 C75.3021019,50.326947 75.2444575,50.2740275 75.2009873,50.2078772 C75.1575171,50.1417268 75.1357823,50.0557327 75.1357823,49.9498922 C75.1357823,49.906422 75.1433422,49.8615349 75.1584623,49.8152297 C75.1735824,49.7689244 75.1967347,49.7230924 75.2279198,49.6777322 C75.259105,49.6323719 75.2983221,49.5893749 75.3455723,49.5487397 C75.3928225,49.5081045 75.448577,49.4717223 75.5128373,49.4395922 C75.3654166,49.3602118 75.2496552,49.2543728 75.1655498,49.1220722 C75.0814444,48.9897715 75.0393923,48.8347931 75.0393923,48.6571322 C75.0393923,48.5134915 75.0682145,48.3835553 75.1258598,48.2673197 C75.1835051,48.1510841 75.2638293,48.0518601 75.3668348,47.9696447 C75.4698403,47.8874293 75.5917441,47.8245874 75.7325498,47.7811172 C75.8733555,47.737647 76.0269165,47.7159122 76.1932373,47.7159122 L76.1932373,47.7159122 Z M76.9615223,50.8060622 C76.9615223,50.7493619 76.9445125,50.7030574 76.9104923,50.6671472 C76.8764721,50.631237 76.8301676,50.6033598 76.7715773,50.5835147 C76.712987,50.5636696 76.6444752,50.5490222 76.5660398,50.5395722 C76.4876044,50.5301221 76.4044452,50.5230347 76.3165598,50.5183097 C76.2286744,50.5135847 76.1379553,50.5088597 76.0443998,50.5041347 C75.9508443,50.4994097 75.8605977,50.4913772 75.7736573,50.4800372 C75.6942769,50.5235074 75.63049,50.5750094 75.5822948,50.6345447 C75.5340996,50.69408 75.5100023,50.7625918 75.5100023,50.8400822 C75.5100023,50.8911124 75.5227597,50.9388345 75.5482748,50.9832497 C75.5737899,51.0276649 75.6144245,51.065937 75.6701798,51.0980672 C75.7259351,51.1301973 75.7982269,51.1552396 75.8870573,51.1731947 C75.9758878,51.1911498 76.0845617,51.2001272 76.2130823,51.2001272 C76.343493,51.2001272 76.4559468,51.1902048 76.5504473,51.1703597 C76.6449478,51.1505146 76.7229095,51.1231098 76.7843348,51.0881447 C76.8457601,51.0531795 76.8906472,51.0115999 76.9189973,50.9634047 C76.9473475,50.9152094 76.9615223,50.8627625 76.9615223,50.8060622 L76.9615223,50.8060622 Z M76.1932373,49.1504222 C76.2801777,49.1504222 76.355777,49.1386098 76.4200373,49.1149847 C76.4842976,49.0913596 76.5376896,49.0587574 76.5802148,49.0171772 C76.62274,48.975597 76.6548697,48.9255125 76.6766048,48.8669222 C76.6983399,48.8083319 76.7092073,48.7440725 76.7092073,48.6741422 C76.7092073,48.5305015 76.6662102,48.4166301 76.5802148,48.3325247 C76.4942194,48.2484193 76.3652282,48.2063672 76.1932373,48.2063672 C76.0212464,48.2063672 75.8922552,48.2484193 75.8062598,48.3325247 C75.7202644,48.4166301 75.6772673,48.5305015 75.6772673,48.6741422 C75.6772673,48.7421825 75.6881347,48.8054969 75.7098698,48.8640872 C75.7316049,48.9226775 75.7637346,48.9732345 75.8062598,49.0157597 C75.848785,49.0582849 75.9026495,49.0913596 75.9678548,49.1149847 C76.0330601,49.1386098 76.1081869,49.1504222 76.1932373,49.1504222 L76.1932373,49.1504222 Z M78.8666423,47.7669422 L78.8666423,50.6756522 L78.1663973,50.6756522 L78.1663973,47.7669422 L78.8666423,47.7669422 Z M78.9715373,46.9192772 C78.9715373,46.9797575 78.9592524,47.0364569 78.9346823,47.0893772 C78.9101122,47.1422974 78.87751,47.188602 78.8368748,47.2282922 C78.7962396,47.2679824 78.7485176,47.2996396 78.6937073,47.3232647 C78.638897,47.3468898 78.5803076,47.3587022 78.5179373,47.3587022 C78.457457,47.3587022 78.4002851,47.3468898 78.3464198,47.3232647 C78.2925545,47.2996396 78.2457775,47.2679824 78.2060873,47.2282922 C78.1663971,47.188602 78.1347399,47.1422974 78.1111148,47.0893772 C78.0874897,47.0364569 78.0756773,46.9797575 78.0756773,46.9192772 C78.0756773,46.8569069 78.0874897,46.7983174 78.1111148,46.7435072 C78.1347399,46.6886969 78.1663971,46.6414474 78.2060873,46.6017572 C78.2457775,46.562067 78.2925545,46.5304098 78.3464198,46.5067847 C78.4002851,46.4831596 78.457457,46.4713472 78.5179373,46.4713472 C78.5803076,46.4713472 78.638897,46.4831596 78.6937073,46.5067847 C78.7485176,46.5304098 78.7962396,46.562067 78.8368748,46.6017572 C78.87751,46.6414474 78.9101122,46.6886969 78.9346823,46.7435072 C78.9592524,46.7983174 78.9715373,46.8569069 78.9715373,46.9192772 L78.9715373,46.9192772 Z M79.6576073,50.6756522 L79.6576073,47.7669422 L80.0856923,47.7669422 C80.1764128,47.7669422 80.2359472,47.8094667 80.2642973,47.8945172 L80.3124923,48.1241522 C80.3710826,48.0636719 80.4329795,48.0088624 80.4981848,47.9597222 C80.5633901,47.9105819 80.6323744,47.8680574 80.7051398,47.8321472 C80.7779052,47.796237 80.8558669,47.7688323 80.9390273,47.7499322 C81.0221877,47.7310321 81.1129068,47.7215822 81.2111873,47.7215822 C81.3699481,47.7215822 81.5107517,47.7485144 81.6336023,47.8023797 C81.7564529,47.8562449 81.8589844,47.9318442 81.9411998,48.0291797 C82.0234152,48.1265152 82.0857846,48.242749 82.1283098,48.3778847 C82.170835,48.5130203 82.1920973,48.6618564 82.1920973,48.8243972 L82.1920973,50.6756522 L81.4918523,50.6756522 L81.4918523,48.8243972 C81.4918523,48.6467363 81.4507452,48.5092402 81.3685298,48.4119047 C81.2863144,48.3145692 81.1629931,48.2659022 80.9985623,48.2659022 C80.8776017,48.2659022 80.7642028,48.2933069 80.6583623,48.3481172 C80.5525218,48.4029274 80.4523528,48.4775817 80.3578523,48.5720822 L80.3578523,50.6756522 L79.6576073,50.6756522 Z" id="Login" fill="#0C3D50"></path>
                <path d="M33.2526358,3.977135 C33.2179856,4.03257528 33.1816035,4.07415486 33.1434883,4.101875 C33.1053731,4.12959514 33.0562861,4.143455 32.9962258,4.143455 C32.9430955,4.143455 32.8859236,4.12670767 32.8247083,4.0932125 C32.763493,4.05971733 32.6941937,4.02218021 32.6168083,3.9806 C32.5394229,3.93901979 32.4510663,3.90148267 32.3517358,3.8679875 C32.2524053,3.83449233 32.1392164,3.817745 32.0121658,3.817745 C31.7927147,3.817745 31.6292839,3.86452203 31.5218683,3.9580775 C31.4144528,4.05163297 31.3607458,4.1781042 31.3607458,4.337495 C31.3607458,4.43913551 31.3930855,4.52344967 31.4577658,4.59044 C31.5224461,4.65743033 31.6073378,4.71517976 31.7124433,4.76369 C31.8175488,4.81220024 31.9376676,4.8566673 32.0728033,4.8970925 C32.207939,4.9375177 32.3459601,4.98256225 32.4868708,5.0322275 C32.6277815,5.08189275 32.7658026,5.14021967 32.9009383,5.20721 C33.036074,5.27420033 33.1561928,5.35966948 33.2612983,5.46362 C33.3664038,5.56757052 33.4512955,5.69404176 33.5159758,5.8430375 C33.5806561,5.99203324 33.6129958,6.17163395 33.6129958,6.381845 C33.6129958,6.61515617 33.5725712,6.83344898 33.4917208,7.03673 C33.4108704,7.24001102 33.2936391,7.41730174 33.1400233,7.5686075 C32.9864075,7.71991326 32.7969894,7.83887707 32.5717633,7.9255025 C32.3465372,8.01212793 32.0907072,8.05544 31.8042658,8.05544 C31.647185,8.05544 31.4872191,8.03927016 31.3243633,8.00693 C31.1615075,7.97458984 31.0038516,7.92896779 30.8513908,7.8700625 C30.6989301,7.81115721 30.5557115,7.7412804 30.4217308,7.66043 C30.2877501,7.5795796 30.1710963,7.4894905 30.0717658,7.39016 L30.4182658,6.84269 C30.4436759,6.80110979 30.4794806,6.76761513 30.5256808,6.742205 C30.571881,6.71679487 30.6215455,6.70409 30.6746758,6.70409 C30.7439762,6.70409 30.813853,6.72603478 30.8843083,6.769925 C30.9547637,6.81381522 31.0344579,6.86232473 31.1233933,6.915455 C31.2123288,6.96858527 31.3145452,7.01709478 31.4300458,7.060985 C31.5455464,7.10487522 31.681835,7.12682 31.8389158,7.12682 C32.0514369,7.12682 32.2166002,7.08004297 32.3344108,6.9864875 C32.4522214,6.89293203 32.5111258,6.74451602 32.5111258,6.541235 C32.5111258,6.42342441 32.4787861,6.32756037 32.4141058,6.25364 C32.3494255,6.17971963 32.2645338,6.11850524 32.1594283,6.069995 C32.0543228,6.02148476 31.9347815,5.97875018 31.8008008,5.94179 C31.6668201,5.90482982 31.5293765,5.86382773 31.3884658,5.8187825 C31.2475551,5.77373727 31.1101115,5.71829783 30.9761308,5.6524625 C30.8421501,5.58662717 30.7226088,5.50000304 30.6175033,5.3925875 C30.5123978,5.28517196 30.4275061,5.1511933 30.3628258,4.9906475 C30.2981455,4.8301017 30.2658058,4.63202118 30.2658058,4.3964 C30.2658058,4.20697905 30.3039204,4.0221809 30.3801508,3.842 C30.4563812,3.6618191 30.5684151,3.5012757 30.7162558,3.360365 C30.8640966,3.2194543 31.0454297,3.10684292 31.2602608,3.0225275 C31.4750919,2.93821208 31.7211044,2.896055 31.9983058,2.896055 C32.1530766,2.896055 32.3038026,2.90818238 32.4504883,2.9324375 C32.597174,2.95669262 32.7363502,2.99249726 32.8680208,3.0398525 C32.9996915,3.08720774 33.1226977,3.14380217 33.2370433,3.2096375 C33.3513889,3.27547283 33.4536054,3.34996958 33.5436958,3.43313 L33.2526358,3.977135 Z M35.3039158,4.406795 L35.3039158,8 L34.2297658,8 L34.2297658,4.406795 L35.3039158,4.406795 Z M35.4286558,3.422735 C35.4286558,3.50820543 35.411331,3.58847712 35.3766808,3.6635525 C35.3420306,3.73862788 35.2946761,3.80446222 35.2346158,3.8610575 C35.1745555,3.91765278 35.1046787,3.96269733 35.0249833,3.9961925 C34.9452879,4.02968767 34.8603963,4.046435 34.7703058,4.046435 C34.6825254,4.046435 34.6005212,4.02968767 34.5242908,3.9961925 C34.4480604,3.96269733 34.3804936,3.91765278 34.3215883,3.8610575 C34.262683,3.80446222 34.2164835,3.73862788 34.1829883,3.6635525 C34.1494931,3.58847712 34.1327458,3.50820543 34.1327458,3.422735 C34.1327458,3.33495456 34.1494931,3.25295038 34.1829883,3.17672 C34.2164835,3.10048962 34.262683,3.03350029 34.3215883,2.97575 C34.3804936,2.91799971 34.4480604,2.87295516 34.5242908,2.840615 C34.6005212,2.80827484 34.6825254,2.792105 34.7703058,2.792105 C34.8603963,2.792105 34.9452879,2.80827484 35.0249833,2.840615 C35.1046787,2.87295516 35.1745555,2.91799971 35.2346158,2.97575 C35.2946761,3.03350029 35.3420306,3.10048962 35.3766808,3.17672 C35.411331,3.25295038 35.4286558,3.33495456 35.4286558,3.422735 L35.4286558,3.422735 Z M37.4314258,8.05544 C37.260485,8.05544 37.109759,8.03060775 36.9792433,7.9809425 C36.8487277,7.93127725 36.7390038,7.86082296 36.6500683,7.7695775 C36.5611329,7.67833204 36.493566,7.56803065 36.4473658,7.43867 C36.4011656,7.30930935 36.3780658,7.1649358 36.3780658,7.005545 L36.3780658,5.148305 L36.0731458,5.148305 C36.0177055,5.148305 35.970351,5.13040268 35.9310808,5.0945975 C35.8918106,5.05879232 35.8721758,5.00624035 35.8721758,4.93694 L35.8721758,4.517675 L36.4439008,4.406795 L36.6552658,3.53015 C36.682986,3.41926945 36.7615252,3.36383 36.8908858,3.36383 L37.4522158,3.36383 L37.4522158,4.413725 L38.3253958,4.413725 L38.3253958,5.148305 L37.4522158,5.148305 L37.4522158,6.93278 C37.4522158,7.01594042 37.4724281,7.08466223 37.5128533,7.1389475 C37.5532785,7.19323277 37.6116054,7.220375 37.6878358,7.220375 C37.727106,7.220375 37.7600232,7.21633254 37.7865883,7.2082475 C37.8131534,7.20016246 37.8362532,7.19092255 37.8558883,7.1805275 C37.8755234,7.17013245 37.8940032,7.16089254 37.9113283,7.1528075 C37.9286534,7.14472246 37.9488657,7.14068 37.9719658,7.14068 C38.004306,7.14068 38.0302932,7.14818742 38.0499283,7.1632025 C38.0695634,7.17821758 38.0897757,7.20189484 38.1105658,7.234235 L38.4362758,7.74359 C38.2976751,7.84754052 38.1417517,7.92550224 37.9685008,7.9774775 C37.7952499,8.02945276 37.6162267,8.05544 37.4314258,8.05544 L37.4314258,8.05544 Z M40.4806258,4.351355 C40.718557,4.351355 40.9362723,4.38831463 41.1337783,4.462235 C41.3312843,4.53615537 41.5010676,4.6435693 41.6431333,4.78448 C41.785199,4.9253907 41.8960779,5.09806148 41.9757733,5.3024975 C42.0554687,5.50693352 42.0953158,5.73850871 42.0953158,5.99723 C42.0953158,6.0780804 42.0918508,6.14391475 42.0849208,6.194735 C42.0779908,6.24555525 42.0652859,6.28597985 42.0468058,6.31601 C42.0283257,6.34604015 42.0034935,6.36682994 41.9723083,6.37838 C41.9411232,6.38993006 41.9012761,6.395705 41.8527658,6.395705 L39.7806958,6.395705 C39.815346,6.6960065 39.9065901,6.91372182 40.0544308,7.0488575 C40.2022716,7.18399318 40.3928446,7.25156 40.6261558,7.25156 C40.7508964,7.25156 40.8583104,7.23654515 40.9484008,7.206515 C41.0384913,7.17648485 41.118763,7.14299018 41.1892183,7.10603 C41.2596737,7.06906982 41.324353,7.03557515 41.3832583,7.005545 C41.4421636,6.97551485 41.5039555,6.9605 41.5686358,6.9605 C41.6541062,6.9605 41.7187856,6.99168469 41.7626758,7.054055 L42.0745258,7.43867 C41.9636453,7.56572064 41.844104,7.6690921 41.7158983,7.7487875 C41.5876927,7.8284829 41.456024,7.89085227 41.3208883,7.9358975 C41.1857526,7.98094273 41.050619,8.01212741 40.9154833,8.0294525 C40.7803476,8.04677759 40.6515664,8.05544 40.5291358,8.05544 C40.2773446,8.05544 40.0411494,8.01443791 39.8205433,7.9324325 C39.5999372,7.85042709 39.4070541,7.72857581 39.2418883,7.566875 C39.0767225,7.40517419 38.9462088,7.2042062 38.8503433,6.963965 C38.7544778,6.7237238 38.7065458,6.44421659 38.7065458,6.125435 C38.7065458,5.8851938 38.7475479,5.65766107 38.8295533,5.44283 C38.9115587,5.22799893 39.0293675,5.03973581 39.1829833,4.878035 C39.3365991,4.71633419 39.5225522,4.58813047 39.7408483,4.49342 C39.9591444,4.39870953 40.2057344,4.351355 40.4806258,4.351355 L40.4806258,4.351355 Z M40.5014158,5.092865 C40.2958248,5.092865 40.1352814,5.15119192 40.0197808,5.2678475 C39.9042802,5.38450308 39.828051,5.5525539 39.7910908,5.772005 L41.1320458,5.772005 C41.1320458,5.68653457 41.1210734,5.6033754 41.0991283,5.522525 C41.0771832,5.4416746 41.0413786,5.36948782 40.9917133,5.3059625 C40.9420481,5.24243718 40.8767912,5.1910402 40.7959408,5.15177 C40.7150904,5.1124998 40.6169164,5.092865 40.5014158,5.092865 L40.5014158,5.092865 Z M48.7481158,8 L47.8402858,8 C47.7386453,8 47.6549086,7.97632274 47.5890733,7.9289675 C47.523238,7.88161226 47.4776159,7.82097537 47.4522058,7.747055 L47.1542158,6.866945 L45.2346058,6.866945 L44.9366158,7.747055 C44.9135157,7.81173532 44.8684711,7.87006224 44.8014808,7.9220375 C44.7344905,7.97401276 44.6524863,8 44.5554658,8 L43.6407058,8 L45.5949658,2.951495 L46.7938558,2.951495 L48.7481158,8 Z M45.5048758,6.069995 L46.8839458,6.069995 L46.4196358,4.68746 C46.3896057,4.59967956 46.3543785,4.49630809 46.3139533,4.3773425 C46.2735281,4.25837691 46.233681,4.12959569 46.1944108,3.990995 C46.1574506,4.1319057 46.119336,4.2624194 46.0800658,4.38254 C46.0407956,4.5026606 46.003836,4.60660956 45.9691858,4.69439 L45.5048758,6.069995 Z M51.6795058,8 C51.6125155,8 51.5564985,7.98498515 51.5114533,7.954955 C51.4664081,7.92492485 51.4346459,7.8798803 51.4161658,7.81982 L51.3330058,7.546085 C51.2613955,7.62231538 51.1863212,7.69161469 51.1077808,7.753985 C51.0292404,7.81635531 50.9443488,7.87006227 50.8531033,7.9151075 C50.7618579,7.96015273 50.6636838,7.99480238 50.5585783,8.0190575 C50.4534728,8.04331262 50.3397064,8.05544 50.2172758,8.05544 C50.0301649,8.05544 49.8569166,8.01386042 49.6975258,7.9307 C49.538135,7.84753958 49.4006914,7.72742079 49.2851908,7.57034 C49.1696902,7.41325921 49.0790236,7.22095364 49.0131883,6.9934175 C48.947353,6.76588136 48.9144358,6.50658646 48.9144358,6.215525 C48.9144358,5.94756366 48.9513954,5.69866365 49.0253158,5.4688175 C49.0992362,5.23897135 49.2037626,5.04031334 49.3388983,4.8728375 C49.474034,4.70536166 49.6363099,4.57427047 49.8257308,4.47956 C50.0151518,4.38484953 50.2242047,4.337495 50.4528958,4.337495 C50.6376967,4.337495 50.7941977,4.36463723 50.9224033,4.4189225 C51.050609,4.47320777 51.1666853,4.54423956 51.2706358,4.63202 L51.2706358,2.812895 L52.3447858,2.812895 L52.3447858,8 L51.6795058,8 Z M50.5914958,7.23077 C50.6700362,7.23077 50.741068,7.22326258 50.8045933,7.2082475 C50.8681186,7.19323242 50.9264455,7.17186514 50.9795758,7.144145 C51.0327061,7.11642486 51.0829481,7.08177521 51.1303033,7.040195 C51.1776586,6.99861479 51.2244356,6.95010528 51.2706358,6.894665 L51.2706358,5.370065 C51.1874754,5.27997455 51.0991188,5.21702768 51.0055633,5.1812225 C50.9120078,5.14541732 50.8132563,5.127515 50.7093058,5.127515 C50.6099753,5.127515 50.5187312,5.1471498 50.4355708,5.18642 C50.3524104,5.2256902 50.2802236,5.28863707 50.2190083,5.3752625 C50.157793,5.46188793 50.109861,5.57449931 50.0752108,5.7131 C50.0405606,5.85170069 50.0232358,6.01917402 50.0232358,6.215525 C50.0232358,6.40494595 50.0370957,6.56433435 50.0648158,6.693695 C50.092536,6.82305565 50.1312281,6.9275821 50.1808933,7.0072775 C50.2305586,7.0869729 50.2900405,7.14414483 50.3593408,7.178795 C50.4286412,7.21344517 50.5060254,7.23077 50.5914958,7.23077 L50.5914958,7.23077 Z M53.1763858,8 L53.1763858,4.406795 L53.8416658,4.406795 C53.9086561,4.406795 53.9646731,4.42180985 54.0097183,4.45184 C54.0547635,4.48187015 54.0865257,4.5269147 54.1050058,4.586975 L54.1639108,4.781015 C54.2239711,4.71864469 54.2863405,4.66147276 54.3510208,4.6094975 C54.4157011,4.55752224 54.4855779,4.51247769 54.5606533,4.4743625 C54.6357287,4.43624731 54.7165779,4.40621761 54.8032033,4.3842725 C54.8898287,4.36232739 54.9851153,4.351355 55.0890658,4.351355 C55.3062069,4.351355 55.4858076,4.40737194 55.6278733,4.5194075 C55.769939,4.63144306 55.8779304,4.78101406 55.9518508,4.968125 C56.0119111,4.85724445 56.0852529,4.76253539 56.1718783,4.683995 C56.2585037,4.60545461 56.3520578,4.54193024 56.4525433,4.49342 C56.5530288,4.44490976 56.6592878,4.40910512 56.7713233,4.386005 C56.8833589,4.36290488 56.9948153,4.351355 57.1056958,4.351355 C57.3112868,4.351355 57.493775,4.38196219 57.6531658,4.4431775 C57.8125566,4.50439281 57.9459578,4.59332692 58.0533733,4.7099825 C58.1607889,4.82663808 58.2422155,4.96985665 58.2976558,5.1396425 C58.3530961,5.30942835 58.3808158,5.50173393 58.3808158,5.716565 L58.3808158,8 L57.3066658,8 L57.3066658,5.716565 C57.3066658,5.34465314 57.1472774,5.1587 56.8284958,5.1587 C56.6829651,5.1587 56.5622688,5.20663202 56.4664033,5.3024975 C56.3705378,5.39836298 56.3226058,5.5363841 56.3226058,5.716565 L56.3226058,8 L55.2484558,8 L55.2484558,5.716565 C55.2484558,5.51097397 55.2080312,5.36660042 55.1271808,5.28344 C55.0463304,5.20027958 54.9273666,5.1587 54.7702858,5.1587 C54.6732653,5.1587 54.5814437,5.18064478 54.4948183,5.224535 C54.4081929,5.26842522 54.3267662,5.32732963 54.2505358,5.40125 L54.2505358,8 L53.1763858,8 Z M60.2519158,4.406795 L60.2519158,8 L59.1777658,8 L59.1777658,4.406795 L60.2519158,4.406795 Z M60.3766558,3.422735 C60.3766558,3.50820543 60.359331,3.58847712 60.3246808,3.6635525 C60.2900306,3.73862788 60.2426761,3.80446222 60.1826158,3.8610575 C60.1225555,3.91765278 60.0526787,3.96269733 59.9729833,3.9961925 C59.8932879,4.02968767 59.8083963,4.046435 59.7183058,4.046435 C59.6305254,4.046435 59.5485212,4.02968767 59.4722908,3.9961925 C59.3960604,3.96269733 59.3284936,3.91765278 59.2695883,3.8610575 C59.210683,3.80446222 59.1644835,3.73862788 59.1309883,3.6635525 C59.0974931,3.58847712 59.0807458,3.50820543 59.0807458,3.422735 C59.0807458,3.33495456 59.0974931,3.25295038 59.1309883,3.17672 C59.1644835,3.10048962 59.210683,3.03350029 59.2695883,2.97575 C59.3284936,2.91799971 59.3960604,2.87295516 59.4722908,2.840615 C59.5485212,2.80827484 59.6305254,2.792105 59.7183058,2.792105 C59.8083963,2.792105 59.8932879,2.80827484 59.9729833,2.840615 C60.0526787,2.87295516 60.1225555,2.91799971 60.1826158,2.97575 C60.2426761,3.03350029 60.2900306,3.10048962 60.3246808,3.17672 C60.359331,3.25295038 60.3766558,3.33495456 60.3766558,3.422735 L60.3766558,3.422735 Z M61.1181658,8 L61.1181658,4.406795 L61.7834458,4.406795 C61.8504361,4.406795 61.9064531,4.42180985 61.9514983,4.45184 C61.9965435,4.48187015 62.0283057,4.5269147 62.0467858,4.586975 L62.1091558,4.794875 C62.1784562,4.73019468 62.2500654,4.67013528 62.3239858,4.614695 C62.3979062,4.55925472 62.4770229,4.51247769 62.5613383,4.4743625 C62.6456537,4.43624731 62.7368978,4.40621761 62.8350733,4.3842725 C62.9332488,4.36232739 63.0400852,4.351355 63.1555858,4.351355 C63.3519368,4.351355 63.5257626,4.38542716 63.6770683,4.4535725 C63.8283741,4.52171784 63.9560003,4.61642689 64.0599508,4.7377025 C64.1639013,4.85897811 64.2424405,5.00335166 64.2955708,5.1708275 C64.3487011,5.33830334 64.3752658,5.52021402 64.3752658,5.716565 L64.3752658,8 L63.3011158,8 L63.3011158,5.716565 C63.3011158,5.54100412 63.2606912,5.40413799 63.1798408,5.3059625 C63.0989904,5.20778701 62.9800266,5.1587 62.8229458,5.1587 C62.7051352,5.1587 62.5942563,5.18410975 62.4903058,5.23493 C62.3863553,5.28575025 62.2870263,5.35389457 62.1923158,5.439365 L62.1923158,8 L61.1181658,8 Z" id="Site-Admin" fill="#0C3D50"></path>
                <path d="M12.9973507,23.1757687 C13.1283914,23.1757687 13.2455702,23.1539289 13.3488907,23.1102487 C13.4522112,23.0665685 13.5395703,23.0052491 13.6109707,22.9262887 C13.6823711,22.8473283 13.7369705,22.7515693 13.7747707,22.6390087 C13.8125709,22.5264481 13.8314707,22.4004494 13.8314707,22.2610087 L13.8314707,20.0786887 L14.5093507,20.0786887 L14.5093507,22.2610087 C14.5093507,22.4777298 14.474491,22.6780678 14.4047707,22.8620287 C14.3350503,23.0459896 14.2346714,23.204748 14.1036307,23.3383087 C13.97259,23.4718694 13.8138316,23.5760283 13.6273507,23.6507887 C13.4408698,23.7255491 13.2308719,23.7629287 12.9973507,23.7629287 C12.7638295,23.7629287 12.5538316,23.7255491 12.3673507,23.6507887 C12.1808698,23.5760283 12.0225313,23.4718694 11.8923307,23.3383087 C11.76213,23.204748 11.662171,23.0459896 11.5924507,22.8620287 C11.5227303,22.6780678 11.4878707,22.4777298 11.4878707,22.2610087 L11.4878707,20.0786887 L12.1657507,20.0786887 L12.1657507,22.2584887 C12.1657507,22.3979294 12.1846505,22.5239281 12.2224507,22.6364887 C12.2602509,22.7490493 12.3144303,22.8452283 12.3849907,22.9250287 C12.4555511,23.0048291 12.5424902,23.0665685 12.6458107,23.1102487 C12.7491312,23.1539289 12.86631,23.1757687 12.9973507,23.1757687 L12.9973507,23.1757687 Z M16.6992307,21.6410887 C16.6824306,21.6679688 16.6647908,21.6868686 16.6463107,21.6977887 C16.6278306,21.7087088 16.6043108,21.7141687 16.5757507,21.7141687 C16.5455105,21.7141687 16.5131709,21.7057688 16.4787307,21.6889687 C16.4442905,21.6721686 16.4043909,21.6532688 16.3590307,21.6322687 C16.3136705,21.6112686 16.262011,21.5923688 16.2040507,21.5755687 C16.1460904,21.5587686 16.0776311,21.5503687 15.9986707,21.5503687 C15.8760301,21.5503687 15.7794311,21.5764084 15.7088707,21.6284887 C15.6383103,21.680569 15.6030307,21.7486083 15.6030307,21.8326087 C15.6030307,21.888049 15.6210905,21.9346685 15.6572107,21.9724687 C15.6933309,22.0102689 15.7412104,22.0434486 15.8008507,22.0720087 C15.860491,22.1005688 15.9281103,22.1261886 16.0037107,22.1488687 C16.0793111,22.1715488 16.1565903,22.1963286 16.2355507,22.2232087 C16.3145111,22.2500888 16.3917903,22.2807485 16.4673907,22.3151887 C16.5429911,22.3496289 16.6106104,22.3933084 16.6702507,22.4462287 C16.729891,22.499149 16.7777705,22.5625683 16.8138907,22.6364887 C16.8500109,22.7104091 16.8680707,22.7994482 16.8680707,22.9036087 C16.8680707,23.0279293 16.8453909,23.1425882 16.8000307,23.2475887 C16.7546705,23.3525892 16.6883111,23.4433083 16.6009507,23.5197487 C16.5135903,23.5961891 16.4056513,23.6558285 16.2771307,23.6986687 C16.1486101,23.7415089 16.0011915,23.7629287 15.8348707,23.7629287 C15.7458303,23.7629287 15.6588911,23.7549488 15.5740507,23.7389887 C15.4892103,23.7230286 15.4077311,23.7007688 15.3296107,23.6722087 C15.2514903,23.6436486 15.179251,23.6100489 15.1128907,23.5714087 C15.0465304,23.5327685 14.9881509,23.4907689 14.9377507,23.4454087 L15.0813907,23.2085287 C15.0998708,23.1799686 15.1217106,23.1581288 15.1469107,23.1430087 C15.1721108,23.1278886 15.2040305,23.1203287 15.2426707,23.1203287 C15.2813109,23.1203287 15.3178505,23.1312486 15.3522907,23.1530887 C15.3867309,23.1749288 15.4266305,23.1984486 15.4719907,23.2236487 C15.5173509,23.2488488 15.5706904,23.2723686 15.6320107,23.2942087 C15.693331,23.3160488 15.7710302,23.3269687 15.8651107,23.3269687 C15.9390311,23.3269687 16.0024504,23.3181488 16.0553707,23.3005087 C16.108291,23.2828686 16.1519705,23.2597688 16.1864107,23.2312087 C16.2208509,23.2026486 16.2460506,23.1694689 16.2620107,23.1316687 C16.2779708,23.0938685 16.2859507,23.0548089 16.2859507,23.0144887 C16.2859507,22.9540084 16.2678909,22.9044489 16.2317707,22.8658087 C16.1956505,22.8271685 16.147771,22.7935688 16.0881307,22.7650087 C16.0284904,22.7364486 15.9604511,22.7108288 15.8840107,22.6881487 C15.8075703,22.6654686 15.7294511,22.6406888 15.6496507,22.6138087 C15.5698503,22.5869286 15.4917311,22.5554289 15.4152907,22.5193087 C15.3388503,22.4831885 15.270811,22.437409 15.2111707,22.3819687 C15.1515304,22.3265284 15.1036509,22.2584891 15.0675307,22.1778487 C15.0314105,22.0972083 15.0133507,21.9997693 15.0133507,21.8855287 C15.0133507,21.7796882 15.0343505,21.6788892 15.0763507,21.5831287 C15.1183509,21.4873682 15.1800903,21.4037891 15.2615707,21.3323887 C15.3430511,21.2609883 15.4446901,21.2038689 15.5664907,21.1610287 C15.6882913,21.1181885 15.8289899,21.0967687 15.9885907,21.0967687 C16.1666716,21.0967687 16.32879,21.1261684 16.4749507,21.1849687 C16.6211114,21.243769 16.7429102,21.3210482 16.8403507,21.4168087 L16.6992307,21.6410887 Z M18.4355107,21.0967687 C18.5984715,21.0967687 18.74841,21.1228084 18.8853307,21.1748887 C19.0222514,21.226969 19.1402702,21.3029882 19.2393907,21.4029487 C19.3385112,21.5029092 19.4157904,21.625548 19.4712307,21.7708687 C19.526671,21.9161894 19.5543907,22.0820878 19.5543907,22.2685687 C19.5543907,22.3156089 19.5522907,22.3546685 19.5480907,22.3857487 C19.5438907,22.4168289 19.5363308,22.4411886 19.5254107,22.4588287 C19.5144906,22.4764688 19.4997908,22.4890687 19.4813107,22.4966287 C19.4628306,22.5041887 19.4393108,22.5079687 19.4107507,22.5079687 L17.8130707,22.5079687 C17.8315508,22.77341 17.9029501,22.9682881 18.0272707,23.0926087 C18.1515913,23.2169293 18.3162297,23.2790887 18.5211907,23.2790887 C18.6219912,23.2790887 18.7089303,23.2673288 18.7820107,23.2438087 C18.8550911,23.2202886 18.9189304,23.1942488 18.9735307,23.1656887 C19.028131,23.1371286 19.0760105,23.1110888 19.1171707,23.0875687 C19.1583309,23.0640486 19.1982305,23.0522887 19.2368707,23.0522887 C19.2620708,23.0522887 19.2839106,23.0573286 19.3023907,23.0674087 C19.3208708,23.0774887 19.3368306,23.0917686 19.3502707,23.1102487 L19.5317107,23.3370487 C19.4628304,23.4176891 19.3855511,23.4853084 19.2998707,23.5399087 C19.2141903,23.594509 19.1247312,23.6381885 19.0314907,23.6709487 C18.9382502,23.7037089 18.8433312,23.7268086 18.7467307,23.7402487 C18.6501302,23.7536888 18.5564712,23.7604087 18.4657507,23.7604087 C18.2859898,23.7604087 18.1188315,23.730589 17.9642707,23.6709487 C17.8097099,23.6113084 17.6753113,23.5231093 17.5610707,23.4063487 C17.4468301,23.2895881 17.356951,23.1451096 17.2914307,22.9729087 C17.2259104,22.8007078 17.1931507,22.6012098 17.1931507,22.3744087 C17.1931507,22.1980078 17.2217104,22.0321095 17.2788307,21.8767087 C17.335951,21.7213079 17.4178502,21.5860693 17.5245307,21.4709887 C17.6312112,21.3559081 17.7614099,21.264769 17.9151307,21.1975687 C18.0688515,21.1303684 18.2423097,21.0967687 18.4355107,21.0967687 L18.4355107,21.0967687 Z M18.4481107,21.5428087 C18.2666698,21.5428087 18.1247112,21.5940482 18.0222307,21.6965287 C17.9197502,21.7990092 17.8542308,21.9443278 17.8256707,22.1324887 L18.9949507,22.1324887 C18.9949507,22.0518483 18.9840308,21.9758291 18.9621907,21.9044287 C18.9403506,21.8330283 18.9067509,21.770449 18.8613907,21.7166887 C18.8160305,21.6629284 18.758911,21.6205089 18.6900307,21.5894287 C18.6211504,21.5583485 18.5405112,21.5428087 18.4481107,21.5428087 L18.4481107,21.5428087 Z M20.0609107,23.7226087 L20.0609107,21.1370887 L20.4263107,21.1370887 C20.490151,21.1370887 20.5346706,21.1488486 20.5598707,21.1723687 C20.5850708,21.1958888 20.6018707,21.2362084 20.6102707,21.2933287 L20.6480707,21.6058087 C20.7404712,21.4462079 20.8488301,21.3202092 20.9731507,21.2278087 C21.0974713,21.1354082 21.2369099,21.0892087 21.3914707,21.0892087 C21.5191513,21.0892087 21.6249903,21.1186084 21.7089907,21.1774087 L21.6283507,21.6436087 C21.6233107,21.6738488 21.6123908,21.6952686 21.5955907,21.7078687 C21.5787906,21.7204688 21.5561108,21.7267687 21.5275507,21.7267687 C21.5023506,21.7267687 21.4679109,21.7208888 21.4242307,21.7091287 C21.3805505,21.6973686 21.3225911,21.6914887 21.2503507,21.6914887 C21.1209901,21.6914887 21.0101112,21.7271883 20.9177107,21.7985887 C20.8253102,21.8699891 20.747191,21.974568 20.6833507,22.1123287 L20.6833507,23.7226087 L20.0609107,23.7226087 Z M22.1197507,23.7226087 L22.1197507,21.1370887 L22.5002707,21.1370887 C22.5809111,21.1370887 22.6338306,21.1748883 22.6590307,21.2504887 L22.7018707,21.4546087 C22.753951,21.4008484 22.8089704,21.3521289 22.8669307,21.3084487 C22.924891,21.2647685 22.9862104,21.2269689 23.0508907,21.1950487 C23.115571,21.1631285 23.1848703,21.1387688 23.2587907,21.1219687 C23.3327111,21.1051686 23.4133503,21.0967687 23.5007107,21.0967687 C23.6418314,21.0967687 23.7669902,21.1207085 23.8761907,21.1685887 C23.9853912,21.2164689 24.0765303,21.2836683 24.1496107,21.3701887 C24.2226911,21.4567091 24.2781305,21.5600281 24.3159307,21.6801487 C24.3537309,21.8002693 24.3726307,21.932568 24.3726307,22.0770487 L24.3726307,23.7226087 L23.7501907,23.7226087 L23.7501907,22.0770487 C23.7501907,21.9191279 23.7136511,21.7969091 23.6405707,21.7103887 C23.5674903,21.6238683 23.4578714,21.5806087 23.3117107,21.5806087 C23.2041902,21.5806087 23.1033912,21.6049685 23.0093107,21.6536887 C22.9152302,21.7024089 22.8261911,21.7687683 22.7421907,21.8527687 L22.7421907,23.7226087 L22.1197507,23.7226087 Z M27.0110707,23.7226087 L26.7313507,23.7226087 C26.6725504,23.7226087 26.6263509,23.7137888 26.5927507,23.6961487 C26.5591505,23.6785086 26.5339508,23.642809 26.5171507,23.5890487 L26.4617107,23.4050887 C26.3961904,23.463889 26.331931,23.5155485 26.2689307,23.5600687 C26.2059304,23.6045889 26.140831,23.6419685 26.0736307,23.6722087 C26.0064304,23.7024488 25.9350311,23.7251286 25.8594307,23.7402487 C25.7838303,23.7553688 25.6998312,23.7629287 25.6074307,23.7629287 C25.4982302,23.7629287 25.3974312,23.7482288 25.3050307,23.7188287 C25.2126302,23.6894285 25.133251,23.645329 25.0668907,23.5865287 C25.0005304,23.5277284 24.9488709,23.4546491 24.9119107,23.3672887 C24.8749505,23.2799283 24.8564707,23.1782893 24.8564707,23.0623687 C24.8564707,22.9649282 24.8820904,22.8687492 24.9333307,22.7738287 C24.984571,22.6789082 25.0698301,22.5932291 25.1891107,22.5167887 C25.3083913,22.4403483 25.4671497,22.3769289 25.6653907,22.3265287 C25.8636317,22.2761284 26.1097492,22.2475687 26.4037507,22.2408487 L26.4037507,22.0896487 C26.4037507,21.9166078 26.3672111,21.7885091 26.2941307,21.7053487 C26.2210503,21.6221883 26.1147914,21.5806087 25.9753507,21.5806087 C25.8745502,21.5806087 25.790551,21.5923686 25.7233507,21.6158887 C25.6561504,21.6394088 25.5977709,21.6658685 25.5482107,21.6952687 C25.4986504,21.7246688 25.4528709,21.7511286 25.4108707,21.7746487 C25.3688705,21.7981688 25.3226709,21.8099287 25.2722707,21.8099287 C25.2302705,21.8099287 25.1941508,21.7990088 25.1639107,21.7771687 C25.1336705,21.7553286 25.1093108,21.7284489 25.0908307,21.6965287 L24.9774307,21.4974487 C25.2747922,21.2252873 25.6334686,21.0892087 26.0534707,21.0892087 C26.2046715,21.0892087 26.3394901,21.1139884 26.4579307,21.1635487 C26.5763713,21.2131089 26.6767503,21.2819883 26.7590707,21.3701887 C26.8413911,21.4583891 26.9039705,21.5638081 26.9468107,21.6864487 C26.9896509,21.8090893 27.0110707,21.943488 27.0110707,22.0896487 L27.0110707,23.7226087 Z M25.8014707,23.3345287 C25.865311,23.3345287 25.9241104,23.3286488 25.9778707,23.3168887 C26.031631,23.3051286 26.0824505,23.2874888 26.1303307,23.2639687 C26.1782109,23.2404486 26.2244105,23.2114689 26.2689307,23.1770287 C26.3134509,23.1425885 26.3583905,23.1018489 26.4037507,23.0548087 L26.4037507,22.6188487 C26.2223098,22.6272487 26.0706913,22.6427886 25.9488907,22.6654687 C25.8270901,22.6881488 25.7292311,22.7171285 25.6553107,22.7524087 C25.5813903,22.7876889 25.5288909,22.8288485 25.4978107,22.8758887 C25.4667305,22.9229289 25.4511907,22.9741684 25.4511907,23.0296087 C25.4511907,23.1388092 25.4835304,23.2169285 25.5482107,23.2639687 C25.612891,23.3110089 25.6973102,23.3345287 25.8014707,23.3345287 L25.8014707,23.3345287 Z M27.6234307,23.7226087 L27.6234307,21.1370887 L28.0039507,21.1370887 C28.0845911,21.1370887 28.1375106,21.1748883 28.1627107,21.2504887 L28.2030307,21.4420087 C28.2483909,21.3916084 28.2958504,21.3454089 28.3454107,21.3034087 C28.3949709,21.2614085 28.4478904,21.2252888 28.5041707,21.1950487 C28.560451,21.1648085 28.6209304,21.1408688 28.6856107,21.1232287 C28.750291,21.1055886 28.8212703,21.0967687 28.8985507,21.0967687 C29.0615115,21.0967687 29.1954902,21.1408683 29.3004907,21.2290687 C29.4054912,21.3172691 29.4840304,21.434448 29.5361107,21.5806087 C29.5764309,21.4949283 29.6268304,21.421429 29.6873107,21.3601087 C29.747791,21.2987884 29.8141503,21.2488089 29.8863907,21.2101687 C29.9586311,21.1715285 30.0354903,21.1429688 30.1169707,21.1244887 C30.1984511,21.1060086 30.2803503,21.0967687 30.3626707,21.0967687 C30.5054714,21.0967687 30.6323101,21.1186085 30.7431907,21.1622887 C30.8540713,21.2059689 30.9473103,21.2698083 31.0229107,21.3538087 C31.0985111,21.4378091 31.1560505,21.5402881 31.1955307,21.6612487 C31.2350109,21.7822093 31.2547507,21.9208079 31.2547507,22.0770487 L31.2547507,23.7226087 L30.6323107,23.7226087 L30.6323107,22.0770487 C30.6323107,21.9124079 30.5961911,21.7885091 30.5239507,21.7053487 C30.4517103,21.6221883 30.3458714,21.5806087 30.2064307,21.5806087 C30.1425904,21.5806087 30.083371,21.5915286 30.0287707,21.6133687 C29.9741704,21.6352088 29.9262909,21.6667085 29.8851307,21.7078687 C29.8439705,21.7490289 29.8116308,21.8006884 29.7881107,21.8628487 C29.7645906,21.925009 29.7528307,21.9964083 29.7528307,22.0770487 L29.7528307,23.7226087 L29.1278707,23.7226087 L29.1278707,22.0770487 C29.1278707,21.9040078 29.093011,21.7780091 29.0232907,21.6990487 C28.9535703,21.6200883 28.8506714,21.5806087 28.7145907,21.5806087 C28.6255503,21.5806087 28.5419711,21.6028685 28.4638507,21.6473887 C28.3857303,21.6919089 28.313071,21.7528083 28.2458707,21.8300887 L28.2458707,23.7226087 L27.6234307,23.7226087 Z M32.9355907,21.0967687 C33.0985515,21.0967687 33.24849,21.1228084 33.3854107,21.1748887 C33.5223314,21.226969 33.6403502,21.3029882 33.7394707,21.4029487 C33.8385912,21.5029092 33.9158704,21.625548 33.9713107,21.7708687 C34.026751,21.9161894 34.0544707,22.0820878 34.0544707,22.2685687 C34.0544707,22.3156089 34.0523707,22.3546685 34.0481707,22.3857487 C34.0439707,22.4168289 34.0364108,22.4411886 34.0254907,22.4588287 C34.0145706,22.4764688 33.9998708,22.4890687 33.9813907,22.4966287 C33.9629106,22.5041887 33.9393908,22.5079687 33.9108307,22.5079687 L32.3131507,22.5079687 C32.3316308,22.77341 32.4030301,22.9682881 32.5273507,23.0926087 C32.6516713,23.2169293 32.8163097,23.2790887 33.0212707,23.2790887 C33.1220712,23.2790887 33.2090103,23.2673288 33.2820907,23.2438087 C33.3551711,23.2202886 33.4190104,23.1942488 33.4736107,23.1656887 C33.528211,23.1371286 33.5760905,23.1110888 33.6172507,23.0875687 C33.6584109,23.0640486 33.6983105,23.0522887 33.7369507,23.0522887 C33.7621508,23.0522887 33.7839906,23.0573286 33.8024707,23.0674087 C33.8209508,23.0774887 33.8369106,23.0917686 33.8503507,23.1102487 L34.0317907,23.3370487 C33.9629104,23.4176891 33.8856311,23.4853084 33.7999507,23.5399087 C33.7142703,23.594509 33.6248112,23.6381885 33.5315707,23.6709487 C33.4383302,23.7037089 33.3434112,23.7268086 33.2468107,23.7402487 C33.1502102,23.7536888 33.0565512,23.7604087 32.9658307,23.7604087 C32.7860698,23.7604087 32.6189115,23.730589 32.4643507,23.6709487 C32.3097899,23.6113084 32.1753913,23.5231093 32.0611507,23.4063487 C31.9469101,23.2895881 31.857031,23.1451096 31.7915107,22.9729087 C31.7259904,22.8007078 31.6932307,22.6012098 31.6932307,22.3744087 C31.6932307,22.1980078 31.7217904,22.0321095 31.7789107,21.8767087 C31.836031,21.7213079 31.9179302,21.5860693 32.0246107,21.4709887 C32.1312912,21.3559081 32.2614899,21.264769 32.4152107,21.1975687 C32.5689315,21.1303684 32.7423897,21.0967687 32.9355907,21.0967687 L32.9355907,21.0967687 Z M32.9481907,21.5428087 C32.7667498,21.5428087 32.6247912,21.5940482 32.5223107,21.6965287 C32.4198302,21.7990092 32.3543108,21.9443278 32.3257507,22.1324887 L33.4950307,22.1324887 C33.4950307,22.0518483 33.4841108,21.9758291 33.4622707,21.9044287 C33.4404306,21.8330283 33.4068309,21.770449 33.3614707,21.7166887 C33.3161105,21.6629284 33.258991,21.6205089 33.1901107,21.5894287 C33.1212304,21.5583485 33.0405912,21.5428087 32.9481907,21.5428087 L32.9481907,21.5428087 Z" id="Username" fill="#1B1B1B"></path>
                <path d="M12.2312707,35.5955809 L12.2312707,36.8782609 L11.5533907,36.8782609 L11.5533907,33.2343409 L12.7403107,33.2343409 C12.9839119,33.2343409 13.1947498,33.2629006 13.3728307,33.3200209 C13.5509116,33.3771412 13.6979101,33.4569404 13.8138307,33.5594209 C13.9297513,33.6619014 14.0154304,33.7845402 14.0708707,33.9273409 C14.126311,34.0701416 14.1540307,34.22638 14.1540307,34.3960609 C14.1540307,34.5724618 14.124631,34.7341601 14.0658307,34.8811609 C14.0070304,35.0281616 13.9188313,35.1545803 13.8012307,35.2604209 C13.6836301,35.3662614 13.5366316,35.4485806 13.3602307,35.5073809 C13.1838298,35.5661812 12.9771919,35.5955809 12.7403107,35.5955809 L12.2312707,35.5955809 Z M12.2312707,35.0663809 L12.7403107,35.0663809 C12.8646313,35.0663809 12.9729902,35.050841 13.0653907,35.0197609 C13.1577912,34.9886807 13.2342304,34.9441612 13.2947107,34.8862009 C13.355191,34.8282406 13.4005505,34.7576813 13.4307907,34.6745209 C13.4610308,34.5913605 13.4761507,34.4985414 13.4761507,34.3960609 C13.4761507,34.2986204 13.4610308,34.2104213 13.4307907,34.1314609 C13.4005505,34.0525005 13.355191,33.9853011 13.2947107,33.9298609 C13.2342304,33.8744206 13.1577912,33.832001 13.0653907,33.8026009 C12.9729902,33.7732007 12.8646313,33.7585009 12.7403107,33.7585009 L12.2312707,33.7585009 L12.2312707,35.0663809 Z M16.6715107,36.8782609 L16.3917907,36.8782609 C16.3329904,36.8782609 16.2867909,36.869441 16.2531907,36.8518009 C16.2195905,36.8341608 16.1943908,36.7984611 16.1775907,36.7447009 L16.1221507,36.5607409 C16.0566304,36.6195412 15.992371,36.6712006 15.9293707,36.7157209 C15.8663704,36.7602411 15.801271,36.7976207 15.7340707,36.8278609 C15.6668704,36.858101 15.5954711,36.8807808 15.5198707,36.8959009 C15.4442703,36.9110209 15.3602712,36.9185809 15.2678707,36.9185809 C15.1586702,36.9185809 15.0578712,36.903881 14.9654707,36.8744809 C14.8730702,36.8450807 14.793691,36.8009812 14.7273307,36.7421809 C14.6609704,36.6833806 14.6093109,36.6103013 14.5723507,36.5229409 C14.5353905,36.4355804 14.5169107,36.3339414 14.5169107,36.2180209 C14.5169107,36.1205804 14.5425304,36.0244013 14.5937707,35.9294809 C14.645011,35.8345604 14.7302701,35.7488813 14.8495507,35.6724409 C14.9688313,35.5960005 15.1275897,35.5325811 15.3258307,35.4821809 C15.5240717,35.4317806 15.7701892,35.4032209 16.0641907,35.3965009 L16.0641907,35.2453009 C16.0641907,35.07226 16.0276511,34.9441613 15.9545707,34.8610009 C15.8814903,34.7778405 15.7752314,34.7362609 15.6357907,34.7362609 C15.5349902,34.7362609 15.450991,34.7480208 15.3837907,34.7715409 C15.3165904,34.795061 15.2582109,34.8215207 15.2086507,34.8509209 C15.1590904,34.880321 15.1133109,34.9067808 15.0713107,34.9303009 C15.0293105,34.953821 14.9831109,34.9655809 14.9327107,34.9655809 C14.8907105,34.9655809 14.8545908,34.954661 14.8243507,34.9328209 C14.7941105,34.9109808 14.7697508,34.884101 14.7512707,34.8521809 L14.6378707,34.6531009 C14.9352322,34.3809395 15.2939086,34.2448609 15.7139107,34.2448609 C15.8651115,34.2448609 15.9999301,34.2696406 16.1183707,34.3192009 C16.2368113,34.3687611 16.3371903,34.4376404 16.4195107,34.5258409 C16.5018311,34.6140413 16.5644105,34.7194603 16.6072507,34.8421009 C16.6500909,34.9647415 16.6715107,35.0991401 16.6715107,35.2453009 L16.6715107,36.8782609 Z M15.4619107,36.4901809 C15.525751,36.4901809 15.5845504,36.4843009 15.6383107,36.4725409 C15.692071,36.4607808 15.7428905,36.443141 15.7907707,36.4196209 C15.8386509,36.3961008 15.8848505,36.367121 15.9293707,36.3326809 C15.9738909,36.2982407 16.0188305,36.2575011 16.0641907,36.2104609 L16.0641907,35.7745009 C15.8827498,35.7829009 15.7311313,35.7984408 15.6093307,35.8211209 C15.4875301,35.843801 15.3896711,35.8727807 15.3157507,35.9080609 C15.2418303,35.943341 15.1893309,35.9845006 15.1582507,36.0315409 C15.1271705,36.0785811 15.1116307,36.1298206 15.1116307,36.1852609 C15.1116307,36.2944614 15.1439704,36.3725806 15.2086507,36.4196209 C15.273331,36.4666611 15.3577502,36.4901809 15.4619107,36.4901809 L15.4619107,36.4901809 Z M18.8185507,34.7967409 C18.8017506,34.823621 18.7841108,34.8425208 18.7656307,34.8534409 C18.7471506,34.8643609 18.7236308,34.8698209 18.6950707,34.8698209 C18.6648305,34.8698209 18.6324909,34.861421 18.5980507,34.8446209 C18.5636105,34.8278208 18.5237109,34.808921 18.4783507,34.7879209 C18.4329905,34.7669208 18.381331,34.748021 18.3233707,34.7312209 C18.2654104,34.7144208 18.1969511,34.7060209 18.1179907,34.7060209 C17.9953501,34.7060209 17.8987511,34.7320606 17.8281907,34.7841409 C17.7576303,34.8362211 17.7223507,34.9042604 17.7223507,34.9882609 C17.7223507,35.0437011 17.7404105,35.0903207 17.7765307,35.1281209 C17.8126509,35.1659211 17.8605304,35.1991007 17.9201707,35.2276609 C17.979811,35.256221 18.0474303,35.2818408 18.1230307,35.3045209 C18.1986311,35.327201 18.2759103,35.3519807 18.3548707,35.3788609 C18.4338311,35.405741 18.5111103,35.4364007 18.5867107,35.4708409 C18.6623111,35.505281 18.7299304,35.5489606 18.7895707,35.6018809 C18.849211,35.6548011 18.8970905,35.7182205 18.9332107,35.7921409 C18.9693309,35.8660612 18.9873907,35.9551003 18.9873907,36.0592609 C18.9873907,36.1835815 18.9647109,36.2982403 18.9193507,36.4032409 C18.8739905,36.5082414 18.8076311,36.5989605 18.7202707,36.6754009 C18.6329103,36.7518413 18.5249713,36.8114807 18.3964507,36.8543209 C18.2679301,36.8971611 18.1205115,36.9185809 17.9541907,36.9185809 C17.8651503,36.9185809 17.7782111,36.9106009 17.6933707,36.8946409 C17.6085303,36.8786808 17.5270511,36.856421 17.4489307,36.8278609 C17.3708103,36.7993007 17.298571,36.7657011 17.2322107,36.7270609 C17.1658504,36.6884207 17.1074709,36.6464211 17.0570707,36.6010609 L17.2007107,36.3641809 C17.2191908,36.3356207 17.2410306,36.3137809 17.2662307,36.2986609 C17.2914308,36.2835408 17.3233505,36.2759809 17.3619907,36.2759809 C17.4006309,36.2759809 17.4371705,36.2869008 17.4716107,36.3087409 C17.5060509,36.330581 17.5459505,36.3541007 17.5913107,36.3793009 C17.6366709,36.404501 17.6900104,36.4280208 17.7513307,36.4498609 C17.812651,36.471701 17.8903502,36.4826209 17.9844307,36.4826209 C18.0583511,36.4826209 18.1217704,36.473801 18.1746907,36.4561609 C18.227611,36.4385208 18.2712905,36.415421 18.3057307,36.3868609 C18.3401709,36.3583007 18.3653706,36.3251211 18.3813307,36.2873209 C18.3972908,36.2495207 18.4052707,36.2104611 18.4052707,36.1701409 C18.4052707,36.1096606 18.3872109,36.0601011 18.3510907,36.0214609 C18.3149705,35.9828207 18.267091,35.949221 18.2074507,35.9206609 C18.1478104,35.8921007 18.0797711,35.866481 18.0033307,35.8438009 C17.9268903,35.8211208 17.8487711,35.796341 17.7689707,35.7694609 C17.6891703,35.7425807 17.6110511,35.7110811 17.5346107,35.6749609 C17.4581703,35.6388407 17.390131,35.5930611 17.3304907,35.5376209 C17.2708504,35.4821806 17.2229709,35.4141413 17.1868507,35.3335009 C17.1507305,35.2528605 17.1326707,35.1554214 17.1326707,35.0411809 C17.1326707,34.9353403 17.1536705,34.8345413 17.1956707,34.7387809 C17.2376709,34.6430204 17.2994103,34.5594412 17.3808907,34.4880409 C17.4623711,34.4166405 17.5640101,34.3595211 17.6858107,34.3166809 C17.8076113,34.2738407 17.9483099,34.2524209 18.1079107,34.2524209 C18.2859916,34.2524209 18.44811,34.2818206 18.5942707,34.3406209 C18.7404314,34.3994212 18.8622302,34.4767004 18.9596707,34.5724609 L18.8185507,34.7967409 Z M21.0210307,34.7967409 C21.0042306,34.823621 20.9865908,34.8425208 20.9681107,34.8534409 C20.9496306,34.8643609 20.9261108,34.8698209 20.8975507,34.8698209 C20.8673105,34.8698209 20.8349709,34.861421 20.8005307,34.8446209 C20.7660905,34.8278208 20.7261909,34.808921 20.6808307,34.7879209 C20.6354705,34.7669208 20.583811,34.748021 20.5258507,34.7312209 C20.4678904,34.7144208 20.3994311,34.7060209 20.3204707,34.7060209 C20.1978301,34.7060209 20.1012311,34.7320606 20.0306707,34.7841409 C19.9601103,34.8362211 19.9248307,34.9042604 19.9248307,34.9882609 C19.9248307,35.0437011 19.9428905,35.0903207 19.9790107,35.1281209 C20.0151309,35.1659211 20.0630104,35.1991007 20.1226507,35.2276609 C20.182291,35.256221 20.2499103,35.2818408 20.3255107,35.3045209 C20.4011111,35.327201 20.4783903,35.3519807 20.5573507,35.3788609 C20.6363111,35.405741 20.7135903,35.4364007 20.7891907,35.4708409 C20.8647911,35.505281 20.9324104,35.5489606 20.9920507,35.6018809 C21.051691,35.6548011 21.0995705,35.7182205 21.1356907,35.7921409 C21.1718109,35.8660612 21.1898707,35.9551003 21.1898707,36.0592609 C21.1898707,36.1835815 21.1671909,36.2982403 21.1218307,36.4032409 C21.0764705,36.5082414 21.0101111,36.5989605 20.9227507,36.6754009 C20.8353903,36.7518413 20.7274513,36.8114807 20.5989307,36.8543209 C20.4704101,36.8971611 20.3229915,36.9185809 20.1566707,36.9185809 C20.0676303,36.9185809 19.9806911,36.9106009 19.8958507,36.8946409 C19.8110103,36.8786808 19.7295311,36.856421 19.6514107,36.8278609 C19.5732903,36.7993007 19.501051,36.7657011 19.4346907,36.7270609 C19.3683304,36.6884207 19.3099509,36.6464211 19.2595507,36.6010609 L19.4031907,36.3641809 C19.4216708,36.3356207 19.4435106,36.3137809 19.4687107,36.2986609 C19.4939108,36.2835408 19.5258305,36.2759809 19.5644707,36.2759809 C19.6031109,36.2759809 19.6396505,36.2869008 19.6740907,36.3087409 C19.7085309,36.330581 19.7484305,36.3541007 19.7937907,36.3793009 C19.8391509,36.404501 19.8924904,36.4280208 19.9538107,36.4498609 C20.015131,36.471701 20.0928302,36.4826209 20.1869107,36.4826209 C20.2608311,36.4826209 20.3242504,36.473801 20.3771707,36.4561609 C20.430091,36.4385208 20.4737705,36.415421 20.5082107,36.3868609 C20.5426509,36.3583007 20.5678506,36.3251211 20.5838107,36.2873209 C20.5997708,36.2495207 20.6077507,36.2104611 20.6077507,36.1701409 C20.6077507,36.1096606 20.5896909,36.0601011 20.5535707,36.0214609 C20.5174505,35.9828207 20.469571,35.949221 20.4099307,35.9206609 C20.3502904,35.8921007 20.2822511,35.866481 20.2058107,35.8438009 C20.1293703,35.8211208 20.0512511,35.796341 19.9714507,35.7694609 C19.8916503,35.7425807 19.8135311,35.7110811 19.7370907,35.6749609 C19.6606503,35.6388407 19.592611,35.5930611 19.5329707,35.5376209 C19.4733304,35.4821806 19.4254509,35.4141413 19.3893307,35.3335009 C19.3532105,35.2528605 19.3351507,35.1554214 19.3351507,35.0411809 C19.3351507,34.9353403 19.3561505,34.8345413 19.3981507,34.7387809 C19.4401509,34.6430204 19.5018903,34.5594412 19.5833707,34.4880409 C19.6648511,34.4166405 19.7664901,34.3595211 19.8882907,34.3166809 C20.0100913,34.2738407 20.1507899,34.2524209 20.3103907,34.2524209 C20.4884716,34.2524209 20.65059,34.2818206 20.7967507,34.3406209 C20.9429114,34.3994212 21.0647102,34.4767004 21.1621507,34.5724609 L21.0210307,34.7967409 Z M21.3738307,34.2927409 L21.8677507,34.2927409 C21.9147909,34.2927409 21.9542705,34.3036608 21.9861907,34.3255009 C22.0181109,34.347341 22.0382707,34.3750607 22.0466707,34.4086609 L22.4171107,35.7896209 C22.4372708,35.8652212 22.4536506,35.9391405 22.4662507,36.0113809 C22.4788508,36.0836212 22.4910306,36.1558605 22.5027907,36.2281009 C22.5212708,36.1558605 22.5410106,36.0836212 22.5620107,36.0113809 C22.5830108,35.9391405 22.6052706,35.8652212 22.6287907,35.7896209 L23.0571907,34.4036209 C23.0672707,34.3700207 23.0874305,34.342301 23.1176707,34.3204609 C23.1479108,34.2986208 23.1831905,34.2877009 23.2235107,34.2877009 L23.4981907,34.2877009 C23.5435509,34.2877009 23.5813505,34.2986208 23.6115907,34.3204609 C23.6418308,34.342301 23.6619906,34.3700207 23.6720707,34.4036209 L24.0954307,35.8148209 C24.1172708,35.8870612 24.1370106,35.9572005 24.1546507,36.0252409 C24.1722908,36.0932812 24.1895106,36.1617405 24.2063107,36.2306209 C24.2180708,36.1583805 24.2310906,36.0861412 24.2453707,36.0139009 C24.2596508,35.9416605 24.2777106,35.8669013 24.2995507,35.7896209 L24.6825907,34.4086609 C24.6909907,34.3750607 24.7111505,34.347341 24.7430707,34.3255009 C24.7749909,34.3036608 24.8119505,34.2927409 24.8539507,34.2927409 L25.3251907,34.2927409 L24.5061907,36.8782609 L24.0047107,36.8782609 C23.9509504,36.8782609 23.9123108,36.8413012 23.8887907,36.7673809 L23.4225907,35.2730209 C23.4074706,35.2243006 23.3936108,35.1751611 23.3810107,35.1256009 C23.3684106,35.0760406 23.3579107,35.0269011 23.3495107,34.9781809 C23.3394306,35.0285811 23.3285108,35.0785606 23.3167507,35.1281209 C23.3049906,35.1776811 23.2915508,35.2276606 23.2764307,35.2780609 L22.8051907,36.7673809 C22.7816706,36.8413012 22.736311,36.8782609 22.6691107,36.8782609 L22.1928307,36.8782609 L21.3738307,34.2927409 Z M26.7792307,34.2524209 C26.9724317,34.2524209 27.1475699,34.2835006 27.3046507,34.3456609 C27.4617315,34.4078212 27.5957101,34.4960203 27.7065907,34.6102609 C27.8174713,34.7245014 27.9031504,34.86394 27.9636307,35.0285809 C28.024111,35.1932217 28.0543507,35.3771799 28.0543507,35.5804609 C28.0543507,35.7854219 28.024111,35.97022 27.9636307,36.1348609 C27.9031504,36.2995017 27.8174713,36.4397803 27.7065907,36.5557009 C27.5957101,36.6716214 27.4617315,36.7606606 27.3046507,36.8228209 C27.1475699,36.8849812 26.9724317,36.9160609 26.7792307,36.9160609 C26.5860297,36.9160609 26.4104715,36.8849812 26.2525507,36.8228209 C26.0946299,36.7606606 25.9598113,36.6716214 25.8480907,36.5557009 C25.7363701,36.4397803 25.649851,36.2995017 25.5885307,36.1348609 C25.5272104,35.97022 25.4965507,35.7854219 25.4965507,35.5804609 C25.4965507,35.3771799 25.5272104,35.1932217 25.5885307,35.0285809 C25.649851,34.86394 25.7363701,34.7245014 25.8480907,34.6102609 C25.9598113,34.4960203 26.0946299,34.4078212 26.2525507,34.3456609 C26.4104715,34.2835006 26.5860297,34.2524209 26.7792307,34.2524209 L26.7792307,34.2524209 Z M26.7792307,36.4372609 C26.9942718,36.4372609 27.1534502,36.3650216 27.2567707,36.2205409 C27.3600912,36.0760601 27.4117507,35.8643823 27.4117507,35.5855009 C27.4117507,35.3066195 27.3600912,35.0941016 27.2567707,34.9479409 C27.1534502,34.8017801 26.9942718,34.7287009 26.7792307,34.7287009 C26.5608296,34.7287009 26.3995512,34.8022001 26.2953907,34.9492009 C26.1912302,35.0962016 26.1391507,35.3082995 26.1391507,35.5855009 C26.1391507,35.8627023 26.1912302,36.0739601 26.2953907,36.2192809 C26.3995512,36.3646016 26.5608296,36.4372609 26.7792307,36.4372609 L26.7792307,36.4372609 Z M28.5407107,36.8782609 L28.5407107,34.2927409 L28.9061107,34.2927409 C28.969951,34.2927409 29.0144706,34.3045008 29.0396707,34.3280209 C29.0648708,34.351541 29.0816707,34.3918606 29.0900707,34.4489809 L29.1278707,34.7614609 C29.2202712,34.6018601 29.3286301,34.4758613 29.4529507,34.3834609 C29.5772713,34.2910604 29.7167099,34.2448609 29.8712707,34.2448609 C29.9989513,34.2448609 30.1047903,34.2742606 30.1887907,34.3330609 L30.1081507,34.7992609 C30.1031107,34.829501 30.0921908,34.8509208 30.0753907,34.8635209 C30.0585906,34.8761209 30.0359108,34.8824209 30.0073507,34.8824209 C29.9821506,34.8824209 29.9477109,34.8765409 29.9040307,34.8647809 C29.8603505,34.8530208 29.8023911,34.8471409 29.7301507,34.8471409 C29.6007901,34.8471409 29.4899112,34.8828405 29.3975107,34.9542409 C29.3051102,35.0256412 29.226991,35.1302202 29.1631507,35.2679809 L29.1631507,36.8782609 L28.5407107,36.8782609 Z M32.4189907,36.8782609 C32.3383503,36.8782609 32.2854308,36.8404612 32.2602307,36.7648609 L32.2098307,36.5153809 C32.1560704,36.5758612 32.099791,36.6304606 32.0409907,36.6791809 C31.9821904,36.7279011 31.918771,36.7699007 31.8507307,36.8051809 C31.7826904,36.840461 31.7096111,36.8677608 31.6314907,36.8870809 C31.5533703,36.906401 31.4689512,36.9160609 31.3782307,36.9160609 C31.23711,36.9160609 31.1077513,36.8866612 30.9901507,36.8278609 C30.8725501,36.7690606 30.7713311,36.6838014 30.6864907,36.5720809 C30.6016503,36.4603603 30.5361309,36.3221817 30.4899307,36.1575409 C30.4437305,35.9929 30.4206307,35.8047419 30.4206307,35.5930609 C30.4206307,35.4015399 30.4466704,35.2234617 30.4987507,35.0588209 C30.550831,34.89418 30.6255902,34.7513815 30.7230307,34.6304209 C30.8204712,34.5094603 30.93723,34.4149612 31.0733107,34.3469209 C31.2093914,34.2788805 31.3622698,34.2448609 31.5319507,34.2448609 C31.6764314,34.2448609 31.7999102,34.2679606 31.9023907,34.3141609 C32.0048712,34.3603611 32.0964303,34.4221005 32.1770707,34.4993809 L32.1770707,33.1335409 L32.7995107,33.1335409 L32.7995107,36.8782609 L32.4189907,36.8782609 Z M31.5899107,36.4221409 C31.7192713,36.4221409 31.8293102,36.3952611 31.9200307,36.3415009 C32.0107512,36.2877406 32.0964303,36.2113014 32.1770707,36.1121809 L32.1770707,34.9529809 C32.1065103,34.8673004 32.0296511,34.806821 31.9464907,34.7715409 C31.8633303,34.7362607 31.7738712,34.7186209 31.6781107,34.7186209 C31.5840302,34.7186209 31.4987711,34.7362607 31.4223307,34.7715409 C31.3458903,34.806821 31.281211,34.8601605 31.2282907,34.9315609 C31.1753704,35.0029612 31.1346308,35.0936803 31.1060707,35.2037209 C31.0775106,35.3137614 31.0632307,35.4435401 31.0632307,35.5930609 C31.0632307,35.7442616 31.0754106,35.8723603 31.0997707,35.9773609 C31.1241308,36.0823614 31.1589905,36.1680405 31.2043507,36.2344009 C31.2497109,36.3007612 31.3051504,36.3486407 31.3706707,36.3780409 C31.436191,36.407441 31.5092703,36.4221409 31.5899107,36.4221409 L31.5899107,36.4221409 Z" id="Password" fill="#1B1B1B"></path>
            </g>
            <g id="nav" transform="translate(10.000000, 45.000000)" sketch:type="MSShapeGroup">
                <rect id="bg" fill="#0097CF" x="0" y="0.208695652" width="279.525131" height="14.7946742"></rect>
                <rect id="link-3" fill="#105D7A" x="257.86121" y="6.4173913" width="16.3345196" height="1.92521739" rx="5"></rect>
                <rect id="link-2" fill="#105D7A" x="238.964413" y="6.4173913" width="16.3345196" height="1.92521739" rx="5"></rect>
                <rect id="link-1" fill="#105D7A" x="220.067616" y="6.4173913" width="16.3345196" height="1.92521739" rx="5"></rect>
                <path d="M6.28945321,6.38 C5.49082912,6.38 4.84341637,7.02090221 4.84341637,7.82391304 L4.84341637,7.82391304 C4.84341637,8.6213642 5.49383583,9.26782609 6.28945321,9.26782609 L40.8706891,9.26782609 C41.6693132,9.26782609 42.316726,8.62692388 42.316726,7.82391304 L42.316726,7.82391304 C42.316726,7.02646189 41.6663065,6.38 40.8706891,6.38 L6.28945321,6.38 Z" id="name" fill="#105D7A"></path>
            </g>
        </g>
    </g>
</svg>