<?xml version="1.0" encoding="UTF-8" standalone="no"?>
<svg width="47px" height="46px" viewBox="0 0 47 46" version="1.1" xmlns="http://www.w3.org/2000/svg" xmlns:xlink="http://www.w3.org/1999/xlink" xmlns:sketch="http://www.bohemiancoding.com/sketch/ns">
    <title>icon-social-github-gray</title>
    <description>Created with Sketch (http://www.bohemiancoding.com/sketch)</description>
    <defs></defs>
    <g id="Page-1" stroke="none" stroke-width="1" fill="none" fill-rule="evenodd" sketch:type="MSPage">
        <g id="Artboard-6" sketch:type="MSArtboardGroup" transform="translate(-123.000000, -9.000000)">
            <g id="gray" sketch:type="MSLayerGroup" transform="translate(24.000000, 10.000000)">
                <path d="M144.025641,21.647945 C144.025641,33.6038253 134.37689,43.296 122.474332,43.296 C110.571718,43.296 100.923077,33.6038253 100.923077,21.647945 C100.923077,9.6922846 110.571718,0 122.474332,0 C134.37689,0 144.025641,9.6922846 144.025641,21.647945" id="bg" stroke="#C5C5C5" stroke-width="2.02752" sketch:type="MSShapeGroup"></path>
                <path d="M128.721897,10.56 C129.104551,11.4141105 129.352314,12.8321595 128.982473,13.8704887 C130.495173,15.1395821 131.015269,18.2251385 130.285071,20.7463204 C132.441001,20.9082477 135.009036,20.6689812 136.666667,21.3190884 C135.116916,21.1233695 133.000588,20.7392351 131.001847,20.872821 C130.622909,20.8982737 130.062212,20.8587048 130.089612,21.3824204 C132.40334,21.5609165 134.702314,21.7552183 136.602216,22.3376877 C134.718288,22.0351982 132.430961,21.5748692 130.089612,21.5104471 C129.122467,23.3858275 127.175973,24.3075212 124.489132,24.5015505 C124.777883,25.1191741 125.331259,25.3542439 125.466649,26.347663 C125.667766,27.8318237 125.151053,30.0056059 125.660722,30.9946649 C125.905378,31.4687286 126.304117,31.4813187 126.573067,31.8864911 C125.915029,32.6519803 124.283467,31.800813 124.097659,30.9946649 C123.779566,29.6143317 124.582479,27.4743411 123.707351,26.5388037 C123.769361,28.0441114 123.345163,30.1589218 123.772522,31.5038828 C123.941136,32.0331031 124.427288,32.2368884 124.293673,32.7140043 C121.235159,33.0193279 122.512687,28.8238258 122.013113,26.347663 C121.551976,26.3798196 121.754535,27.0268746 121.753259,27.3027668 C121.739725,29.7209933 122.25666,33.0376408 119.604263,32.7140043 C119.526334,32.2061489 119.960182,32.0331031 120.124914,31.5687954 C120.609124,30.2079741 120.034117,28.1807494 120.256477,26.5388037 C119.244072,27.2887597 120.362471,29.9071197 119.735327,31.2493011 C119.373694,32.0218211 118.209093,32.3581022 117.325755,32.0131552 C117.440679,31.4377711 118.045637,31.5307526 118.30183,30.9946649 C118.660135,30.247434 118.304382,29.1713344 118.432728,28.066621 C116.558451,28.4339686 115.105209,28.0133174 114.394257,26.8567174 C114.076164,26.3376345 113.996794,25.7255702 113.612309,25.2656226 C113.229822,24.8054571 112.61843,24.7435966 112.44072,24.1203047 C114.761547,23.5714634 114.850291,26.4669147 116.934837,26.5388037 C117.573573,26.5614223 117.905809,26.35731 118.49729,26.2208899 C118.662742,25.4905549 119.01722,24.9462918 119.539091,24.5647735 C116.946207,24.2160113 114.804366,23.4226168 113.808434,21.5104471 C111.450556,21.6244665 109.293462,21.9338779 107.295164,22.4010198 C109.108874,21.7535832 111.345838,21.5215656 113.743318,21.4455345 C113.602215,20.611263 112.363512,20.84061 111.594377,20.872821 C110.165485,20.934954 108.366584,21.1094714 107.230769,21.3190884 C108.877529,20.7421237 111.187374,20.8140127 113.418126,20.8096525 C112.735905,18.7079227 112.972353,15.3690381 114.459983,14.125234 C114.038337,13.0811819 114.169401,11.3732335 114.720558,10.56 C116.381517,10.6333605 117.38893,11.3452192 118.432728,12.0245942 C119.726896,11.6629149 121.087677,11.4830563 122.860953,11.5789264 C123.607014,11.6193673 124.382472,11.9486721 124.944001,11.8966221 C125.495435,11.8458257 126.102779,11.238067 126.637518,11.0060494 C127.335158,10.7035599 127.924753,10.5882324 128.721897,10.56" id="Fill-6" fill="#C5C5C5" sketch:type="MSShapeGroup"></path>
            </g>
        </g>
    </g>
</svg>