<?xml version="1.0" encoding="UTF-8" standalone="no"?>
<svg width="308px" height="278px" viewBox="0 0 308 278" version="1.1" xmlns="http://www.w3.org/2000/svg" xmlns:xlink="http://www.w3.org/1999/xlink" xmlns:sketch="http://www.bohemiancoding.com/sketch/ns">
    <title>design-and-develop</title>
    <description>Created with Sketch (http://www.bohemiancoding.com/sketch)</description>
    <defs></defs>
    <g id="Page-1" stroke="none" stroke-width="1" fill="none" fill-rule="evenodd" sketch:type="MSPage">
        <g id="Artboard-1" sketch:type="MSArtboardGroup" transform="translate(-718.000000, -41.000000)" fill="#242424">
            <g id="dd" sketch:type="MSLayerGroup" transform="translate(718.000000, 111.000000)">
                <path d="M28.8158646,68.4986291 L85.3306435,34.3796559 C89.9127588,31.6127963 91.3717529,25.6774362 88.5872833,21.1230936 L88.2923286,20.6406421 C85.5066453,16.0862995 79.533509,14.6365326 74.9513936,17.4045983 L4.66477876,59.8386239 C1.55258174,61.7189788 -0.115186862,65.0599557 0.00619367709,68.4383226 C-0.115186862,71.9397147 1.55136794,75.2806916 4.66477876,77.1598404 L74.9501798,119.595072 C79.5322951,122.363138 85.5054315,120.914577 88.2911148,116.360234 L88.5860695,115.877783 C91.3705391,111.319822 89.9127588,105.385668 85.3306435,102.617602 L28.8158646,68.4986291 Z M28.8158646,68.4986291" id="Shape" sketch:type="MSShapeGroup"></path>
                <path d="M222.669419,34.3817672 L279.184961,68.5011759 L222.669419,102.619378 C218.087242,105.38748 216.628229,111.324122 219.412736,115.877316 L219.707694,116.359774 C222.493415,120.912968 228.466632,122.362754 233.048809,119.597065 L303.335158,77.1624978 C306.447397,75.2821189 308.115188,71.9398932 307.993806,68.5614831 C307.99502,68.5421848 307.992592,68.5216803 307.993806,68.4999697 C307.992592,68.4806714 307.99502,68.460167 307.993806,68.4408687 C308.115188,65.0624586 306.448611,61.7202329 303.335158,59.839854 L233.048809,17.4040806 C228.466632,14.6371857 222.493415,16.0857649 219.707694,20.6401656 L219.412736,21.1226233 C216.628229,25.6782302 218.087242,31.6136661 222.669419,34.3817672 L222.669419,34.3817672 Z M222.669419,34.3817672" id="Shape" sketch:type="MSShapeGroup"></path>
                <path d="M194.155738,69.1875 L204.139344,69.1875 L204.139344,51.4208333 L147.680328,51.4208333 C139.590164,51.4208333 124.442623,48.0041667 124.442623,35.875 C124.270492,28.8708333 130.122951,19.1333333 147.852459,19.1333333 C160.07377,19.1333333 170.918033,22.8916667 170.918033,33.825 L192.434426,33.825 C192.262295,8.02916667 169.368852,0 148.368852,0 C126.852459,0 102.581967,10.4208333 102.409836,35.875 C102.409836,45.2708333 107.745902,56.7166667 118.590164,60.1333333 C107.401639,63.8916667 100,74.9958333 100,85.075 C100.172131,114.629167 121.516393,123 147.852459,123 C160.590164,123 174.360656,119.070833 182.278689,106.258333 C186.065574,119.925 196.04918,121.975 205,121.975 L205,99.5958333 C197.254098,99.5958333 194.155738,93.6166667 194.155738,86.6125 C194.155738,86.6125 194.155738,93.6166667 194.155738,86.6125 L194.155738,69.1875 Z M146.972603,69 L173,69 L173,86.4314721 C173,98.6852792 156.047945,103 148,103 C135.5,103 123,97.9949239 123,85.2233503 C123,77.9746193 130.363014,69 146.972603,69 C146.972603,69 130.363014,69 146.972603,69 Z M146.972603,69" id="&amp;" sketch:type="MSShapeGroup"></path>
            </g>
        </g>
    </g>
</svg>