<?xml version="1.0" encoding="UTF-8" standalone="no"?>
<svg width="300px" height="275px" viewBox="0 0 300 275" version="1.1" xmlns="http://www.w3.org/2000/svg" xmlns:xlink="http://www.w3.org/1999/xlink" xmlns:sketch="http://www.bohemiancoding.com/sketch/ns">
    <title>icon-service-ios-apps</title>
    <description>Created with Sketch (http://www.bohemiancoding.com/sketch)</description>
    <defs></defs>
    <g id="Page-1" stroke="none" stroke-width="1" fill="none" fill-rule="evenodd" sketch:type="MSPage">
        <g id="ios-app" sketch:type="MSLayerGroup" transform="translate(84.000000, 0.000000)">
            <g id="Group-+-Shape" sketch:type="MSShapeGroup">
                <g id="Group">
                    <g>
                        <g id="Shape">
                            <path d="M113.009032,0.550236045 L18.8603871,0.550236045 C14.3042581,0.550236045 10.1256774,2.23762658 6.91935484,5.01279146 L124.950065,269.97261 C128.796516,266.642977 131.237806,261.754341 131.237806,256.314058 L131.237806,18.672754 C131.237806,8.70360554 123.032516,0.550236045 113.009032,0.550236045 L113.009032,0.550236045 Z" fill="#3A3A3A"></path>
                            <path d="M124.950065,269.97261 L6.91935484,5.01279146 C3.07290323,8.34242496 0.627354839,13.2381149 0.627354839,18.672754 L0.627354839,256.314058 C0.627354839,266.283207 8.83264516,274.437987 18.8603871,274.437987 L113.009032,274.437987 C117.563742,274.437987 121.742323,272.747775 124.950065,269.97261 L124.950065,269.97261 Z" fill="#000000"></path>
                        </g>
                        <path d="M18.8603871,272.527681 C9.86451613,272.527681 2.54774194,265.25751 2.54774194,256.314058 L2.54774194,18.672754 C2.54774194,9.73071283 9.86451613,2.45631014 18.8603871,2.45631014 L113.009032,2.45631014 C122.000645,2.45631014 129.318839,9.73071283 129.318839,18.672754 L129.318839,256.314058 C129.318839,265.25751 122.000645,272.527681 113.009032,272.527681 L18.8603871,272.527681 L18.8603871,272.527681 Z" id="Shape" fill="#141414"></path>
                        <g transform="translate(53.935484, 11.286893)">
                            <path d="M25.9670968,12.7443133 C25.9670968,13.7107536 25.1836129,14.4923709 24.2127742,14.4923709 L5.12670968,14.4923709 C4.15303226,14.4923709 3.36812903,13.7093427 3.36812903,12.7443133 L3.36812903,12.7443133 C3.36812903,11.779284 4.15445161,10.9948449 5.12670968,10.9948449 L24.2127742,10.9948449 C25.1836129,10.993434 25.9670968,11.779284 25.9670968,12.7443133 L25.9670968,12.7443133 L25.9670968,12.7443133 Z" id="Shape" fill="#282828"></path>
                            <ellipse id="Oval" fill="#282828" cx="14.6690323" cy="2.44643411" rx="1.97290323" ry="1.9610977"></ellipse>
                            <g transform="translate(0.000000, 231.381311)" id="Shape">
                                <path d="M23.9771613,11.8653465 C23.9771613,18.4371401 18.6134194,23.7701971 11.9992258,23.7701971 C5.3836129,23.7701971 0.0198709677,18.438551 0.0198709677,11.8653465 C0.0198709677,5.28649862 5.38503226,-0.0451475729 11.9992258,-0.0451475729 C18.612,-0.0451475729 23.9771613,5.28649862 23.9771613,11.8653465 L23.9771613,11.8653465 Z" fill="#1C1C1C"></path>
                                <path d="M13.9664516,16.4830967 L10.0305806,16.4830967 C8.55445161,16.4830967 7.35509677,15.286686 7.35509677,13.8193899 L7.35509677,9.90424881 C7.35509677,8.43977442 8.55445161,7.24618546 10.0305806,7.24618546 L13.9664516,7.24618546 C15.4425806,7.24618546 16.6433548,8.43977442 16.6433548,9.90424881 L16.6433548,13.8193899 C16.6433548,15.286686 15.4425806,16.4830967 13.9664516,16.4830967 L13.9664516,16.4830967 Z M10.0305806,7.56645105 C8.73045161,7.56645105 7.67303226,8.61189954 7.67303226,9.90283795 L7.67303226,13.817979 C7.67303226,15.1089175 8.73045161,16.1600094 10.0305806,16.1600094 L13.9664516,16.1600094 C15.2665806,16.1600094 16.3197419,15.1089175 16.3197419,13.817979 L16.3197419,9.90283795 C16.3197419,8.61189954 15.2665806,7.56645105 13.9664516,7.56645105 L10.0305806,7.56645105 L10.0305806,7.56645105 Z" opacity="0.23" fill="#FFFFFF"></path>
                            </g>
                        </g>
                    </g>
                    <g transform="translate(9.935484, 39.504126)">
                        <g>
                            <g>
                                <rect id="Rectangle" fill="#262626" x="0.21716129" y="-0.664515839" width="111.56129" height="197.306181"></rect>
                                <path d="M111.778452,196.641665 L108.337935,181.09538 L3.65909677,181.09538 L0.21716129,196.641665" id="Shape" opacity="0.14" fill="#FFFFFF"></path>
                            </g>
                            <g transform="translate(5.677419, 11.286893)">
                                <g transform="translate(42.580645, 150.962197)" id="Oval">
                                    <ellipse fill="#EFEFEF" cx="1.716" cy="1.48986991" rx="1.26748387" ry="1.25989946"></ellipse>
                                    <ellipse fill="#686868" cx="7.09677419" cy="1.48986991" rx="1.26748387" ry="1.25989946"></ellipse>
                                    <ellipse fill="#686868" cx="12.4789677" cy="1.48986991" rx="1.26890323" ry="1.26131032"></ellipse>
                                </g>
                                <g>
                                    <g transform="translate(26.967742, 0.000000)" id="Shape">
                                        <path d="M16.7483871,0.270885438 L3.3,0.270885438 C1.55987097,0.270885438 0.146193548,1.67469278 0.146193548,3.40864176 L0.146193548,5.56726009 L19.9021935,5.56726009 L19.9021935,3.40864176 C19.9021935,1.67469278 18.4885161,0.270885438 16.7483871,0.270885438 L16.7483871,0.270885438 Z" fill="#BC4E42"></path>
                                        <path d="M0.147612903,5.56726009 L0.147612903,16.7695016 C0.147612903,18.5034506 1.56129032,19.9086688 3.30141935,19.9086688 L16.7498065,19.9086688 C18.4899355,19.9086688 19.9036129,18.5034506 19.9036129,16.7695016 L19.9036129,5.56726009 L0.147612903,5.56726009 L0.147612903,5.56726009 Z" fill="#EFEFEF"></path>
                                    </g>
                                    <g transform="translate(53.935484, 0.000000)">
                                        <path d="M19.5899355,16.7695016 C19.5899355,18.5034506 18.1790968,19.9086688 16.4347097,19.9086688 L2.98916129,19.9086688 C1.24619355,19.9086688 -0.166064516,18.5034506 -0.166064516,16.7695016 L-0.166064516,3.40864176 C-0.166064516,1.67469278 1.24619355,0.270885438 2.98916129,0.270885438 L16.4347097,0.270885438 C18.1790968,0.270885438 19.5899355,1.67469278 19.5899355,3.40864176 L19.5899355,16.7695016 L19.5899355,16.7695016 Z" id="Shape" fill="#A2CCDB"></path>
                                        <ellipse id="Oval" fill="#E2AB23" cx="9.71406452" cy="10.0904826" rx="7.31393548" ry="7.2701701"></ellipse>
                                        <ellipse id="Oval" fill="#332F20" cx="9.71406452" cy="10.0904826" rx="3.00335484" ry="2.98538326"></ellipse>
                                    </g>
                                    <g transform="translate(80.903226, 0.000000)">
                                        <path d="M19.2790968,16.7695016 C19.2790968,18.5034506 17.8668387,19.9086688 16.1224516,19.9086688 L2.67690323,19.9086688 C0.933935484,19.9086688 -0.476903226,18.5034506 -0.476903226,16.7695016 L-0.476903226,3.40864176 C-0.476903226,1.67469278 0.933935484,0.270885438 2.67690323,0.270885438 L16.1224516,0.270885438 C17.8668387,0.270885438 19.2790968,1.67469278 19.2790968,3.40864176 L19.2790968,16.7695016 L19.2790968,16.7695016 Z" id="Shape" fill="#D1D1D1"></path>
                                        <ellipse id="Oval" fill="#353535" cx="9.40322581" cy="10.0904826" rx="6.7916129" ry="6.75097302"></ellipse>
                                        <ellipse id="Oval" fill="#4F7D8E" cx="9.40180645" cy="10.0904826" rx="2.7876129" ry="2.77093229"></ellipse>
                                    </g>
                                    <g transform="translate(53.935484, 31.038956)">
                                        <path d="M19.5899355,16.2841652 C19.5899355,18.0167033 18.1790968,19.4190998 16.4347097,19.4190998 L2.98916129,19.4190998 C1.24619355,19.4190998 -0.166064516,18.0167033 -0.166064516,16.2841652 L-0.166064516,2.91907276 C-0.166064516,1.18512379 1.24619355,-0.217272695 2.98916129,-0.217272695 L16.4347097,-0.217272695 C18.1790968,-0.217272695 19.5899355,1.18653465 19.5899355,2.91907276 L19.5899355,16.2841652 L19.5899355,16.2841652 Z" id="Shape" fill="#5EAFD3"></path>
                                        <ellipse id="Oval" fill="#F4B400" cx="9.71264516" cy="9.60091356" rx="6.19548387" ry="6.15841112"></ellipse>
                                    </g>
                                    <g transform="translate(53.935484, 60.667051)">
                                        <path d="M19.5899355,17.2054579 C19.5899355,18.9394068 18.1790968,20.3432142 16.4347097,20.3432142 L2.98916129,20.3432142 C1.24619355,20.3432142 -0.166064516,18.9394068 -0.166064516,17.2054579 L-0.166064516,3.84177628 C-0.166064516,2.10923817 1.24619355,0.705430827 2.98916129,0.705430827 L16.4347097,0.705430827 C18.1790968,0.705430827 19.5899355,2.10923817 19.5899355,3.84177628 L19.5899355,17.2054579 L19.5899355,17.2054579 Z" id="Shape" fill="#3F3F3F"></path>
                                        <ellipse id="Oval" fill="#EFEFEF" cx="9.71406452" cy="10.5250279" rx="7.31393548" ry="7.2701701"></ellipse>
                                    </g>
                                    <g transform="translate(80.903226, 60.667051)" id="Shape">
                                        <path d="M19.2790968,17.2054579 C19.2790968,18.9394068 17.8668387,20.3432142 16.1224516,20.3432142 L2.67690323,20.3432142 C0.933935484,20.3432142 -0.476903226,18.9394068 -0.476903226,17.2054579 L-0.476903226,3.84177628 C-0.476903226,2.10923817 0.933935484,0.705430827 2.67690323,0.705430827 L16.1224516,0.705430827 C17.8668387,0.705430827 19.2790968,2.10923817 19.2790968,3.84177628 L19.2790968,17.2054579 L19.2790968,17.2054579 Z" fill="#559EE0"></path>
                                        <path d="M19.2790968,9.50779669 L17.9037419,11.7623536 L16.8505806,9.30040002 C16.783871,9.14379438 16.6405161,9.03374717 16.4687742,9.01258425 C16.299871,8.99142132 16.1309677,9.0619644 16.0287742,9.19740712 L15.2694194,10.1850103 L14.1992258,6.53228946 C14.1396129,6.34464486 13.9763871,6.20920214 13.7819355,6.19086094 C13.5889032,6.17251974 13.3972903,6.27410178 13.312129,6.4462269 L9.69845161,13.3989531 L7.22025806,9.24537642 C7.13225806,9.09864681 6.9803871,9.01258425 6.79729032,9.01117338 C6.62554839,9.01399511 6.46941935,9.10711198 6.38709677,9.25807417 L4.65264516,12.380311 L3.42916129,11.4336228 C3.32696774,11.3560255 3.20064516,11.3235756 3.07432258,11.3390951 C2.94658065,11.3532037 2.82877419,11.4195142 2.75354839,11.5196854 L1.04464516,13.7178079 L-0.476903226,12.5594904 L-0.476903226,13.7629554 L0.83883871,14.7646672 C0.925419355,14.8295668 1.02903226,14.8620167 1.1283871,14.8620167 C1.27316129,14.8620167 1.41367742,14.7985279 1.51303226,14.6771938 L3.22051613,12.4818931 L4.50787097,13.4751397 C4.62141935,13.5612022 4.76477419,13.5922412 4.90103226,13.5654348 C5.03587097,13.5372176 5.15509677,13.4497441 5.22180645,13.3298209 L6.82425806,10.4502523 L9.31806452,14.6278136 C9.40606452,14.7759541 9.5763871,14.8662492 9.74387097,14.8620167 C9.91703226,14.8563732 10.0745806,14.7590238 10.1569032,14.603829 L13.6144516,7.9473837 L14.6094194,11.3588472 C14.6647742,11.533794 14.8109677,11.6621824 14.9869677,11.697454 C15.1629677,11.7284929 15.3446452,11.6579498 15.4539355,11.5154528 L16.2885161,10.4276785 L17.3842581,12.9940358 C17.4580645,13.1605175 17.6141935,13.2719756 17.7930323,13.2846733 C17.9775484,13.298782 18.1450323,13.2084868 18.2372903,13.0561137 L19.2776774,11.350382 L19.2776774,9.50779669 L19.2790968,9.50779669 Z" fill="#EFEFEF"></path>
                                    </g>
                                    <g transform="translate(26.967742, 91.706008)" id="Shape">
                                        <path d="M19.9021935,16.7172997 C19.9021935,18.4498379 18.4885161,19.8550561 16.7483871,19.8550561 L3.3,19.8550561 C1.55987097,19.8550561 0.146193548,18.4498379 0.146193548,16.7172997 L0.146193548,3.35502901 C0.146193548,1.62108004 1.55987097,0.217272695 3.3,0.217272695 L16.7483871,0.217272695 C18.4885161,0.217272695 19.9021935,1.62108004 19.9021935,3.35502901 L19.9021935,16.7172997 L19.9021935,16.7172997 Z" fill="#A64CAC"></path>
                                        <path d="M16.3850323,10.0340481 C16.3850323,13.5287524 13.5378065,16.35753 10.0263226,16.35753 C6.512,16.35753 3.66477419,13.5273415 3.66477419,10.0340481 C3.66477419,6.54498721 6.512,3.71197701 10.0263226,3.71197701 C13.5392258,3.71197701 16.3850323,6.54639808 16.3850323,10.0340481 L16.3850323,10.0340481 Z" fill="#EFEFEF"></path>
                                    </g>
                                    <g transform="translate(53.935484, 91.706008)" id="Shape">
                                        <path d="M19.5899355,16.7172997 C19.5899355,18.4498379 18.1790968,19.8550561 16.4375484,19.8550561 L2.98916129,19.8550561 C1.24619355,19.8550561 -0.166064516,18.4498379 -0.166064516,16.7172997 L-0.166064516,3.35502901 C-0.166064516,1.62108004 1.24619355,0.217272695 2.98916129,0.217272695 L16.4375484,0.217272695 C18.1790968,0.217272695 19.5899355,1.62108004 19.5899355,3.35502901 L19.5899355,16.7172997 L19.5899355,16.7172997 Z" fill="#3D99D8"></path>
                                        <path d="M16.0727742,10.0340481 C16.0727742,13.5287524 13.2255484,16.35753 9.71264516,16.35753 C6.20116129,16.35753 3.35393548,13.5273415 3.35393548,10.0340481 C3.35393548,6.54498721 6.20258065,3.71197701 9.71264516,3.71197701 C13.2255484,3.71197701 16.0727742,6.54639808 16.0727742,10.0340481 L16.0727742,10.0340481 Z" fill="#EFEFEF"></path>
                                    </g>
                                    <g transform="translate(0.000000, 62.077913)" id="Shape">
                                        <path d="M17.0592258,-0.705430827 L3.61367742,-0.705430827 C1.87212903,-0.705430827 0.459870968,0.698376519 0.459870968,2.43091463 L0.459870968,4.58953296 L20.2130323,4.58953296 L20.2130323,2.43091463 C20.2130323,0.698376519 18.8036129,-0.705430827 17.0592258,-0.705430827 L17.0592258,-0.705430827 Z" fill="#5E4735"></path>
                                        <path d="M0.459870968,4.58953296 L0.459870968,15.7931854 C0.459870968,17.5271343 1.87212903,18.9309417 3.61367742,18.9309417 L17.0592258,18.9309417 C18.8036129,18.9309417 20.2130323,17.5271343 20.2130323,15.7931854 L20.2130323,4.58953296 L0.459870968,4.58953296 L0.459870968,4.58953296 Z" fill="#F9EB9D"></path>
                                    </g>
                                    <g transform="translate(80.903226, 158.016505)" id="Shape">
                                        <path d="M19.2790968,16.8866031 C19.2790968,18.6177304 17.8668387,20.0229486 16.1224516,20.0229486 L2.67690323,20.0229486 C0.933935484,20.0229486 -0.476903226,18.6177304 -0.476903226,16.8866031 L-0.476903226,3.52292155 C-0.476903226,1.78897258 0.933935484,0.389397817 2.67690323,0.389397817 L16.1224516,0.389397817 C17.8668387,0.389397817 19.2790968,1.78756172 19.2790968,3.52292155 L19.2790968,16.8866031 L19.2790968,16.8866031 Z" fill="#DC7500"></path>
                                        <path d="M7.28554839,5.66460954 L7.28554839,5.66460954 L6.49496774,5.88470396 L6.49496774,8.23943206 L6.49496774,14.2398267 C6.27922581,14.1227252 6.03651613,14.0507712 5.77251613,14.0507712 C4.93793548,14.0507712 4.25806452,14.7265739 4.25806452,15.551928 C4.25806452,16.3829255 4.93793548,17.0573174 5.77251613,17.0573174 C6.60709677,17.0573174 7.28412903,16.3815147 7.28412903,15.551928 L7.28412903,8.65140366 L12.4732903,7.19962702 L12.4732903,12.5665448 C12.2632258,12.452265 12.0162581,12.3760784 11.7508387,12.3760784 C10.9162581,12.3760784 10.2378065,13.0518812 10.2378065,13.880057 C10.2378065,14.7082327 10.9176774,15.3798029 11.7508387,15.3798029 C12.5868387,15.3798029 13.2610323,14.7082327 13.2610323,13.880057 L13.2610323,6.34041227 L13.2610323,3.9885059 L7.28554839,5.66460954 L7.28554839,5.66460954 Z" fill="#841F01"></path>
                                    </g>
                                    <g transform="translate(26.967742, 60.667051)">
                                        <path d="M19.9021935,17.2054579 C19.9021935,18.9394068 18.4885161,20.3432142 16.7483871,20.3432142 L3.3,20.3432142 C1.55987097,20.3432142 0.146193548,18.9394068 0.146193548,17.2054579 L0.146193548,3.84177628 C0.146193548,2.10923817 1.55987097,0.705430827 3.3,0.705430827 L16.7483871,0.705430827 C18.4885161,0.705430827 19.9021935,2.10923817 19.9021935,3.84177628 L19.9021935,17.2054579 L19.9021935,17.2054579 Z" id="Shape" fill="#EFEFEF"></path>
                                        <rect id="Rectangle" fill="#BC4E42" x="6.15006452" y="0.705430827" width="1.19509677" height="19.6363725"></rect>
                                        <g transform="translate(8.516129, 4.232585)" id="Rectangle" fill="#C1C1C1">
                                            <rect x="0.512387097" y="-0.1876446" width="8.31741935" height="2.11770334"></rect>
                                            <rect x="0.512387097" y="5.23288588" width="6.39845161" height="2.11770334"></rect>
                                            <rect x="0.512387097" y="10.6520055" width="8.31741935" height="2.1191142"></rect>
                                        </g>
                                    </g>
                                    <g transform="translate(80.903226, 91.706008)" id="Shape">
                                        <path d="M9.4003871,10.0340481 L9.4003871,19.8536452 L16.1224516,19.8536452 C17.8668387,19.8536452 19.2790968,18.448427 19.2790968,16.7158889 L19.2790968,10.0340481 L9.4003871,10.0340481 L9.4003871,10.0340481 Z" fill="#DD9334"></path>
                                        <path d="M16.1224516,0.217272695 L9.4003871,0.217272695 L9.4003871,10.0340481 L19.2790968,10.0340481 L19.2790968,3.35502901 C19.2790968,1.62108004 17.8668387,0.217272695 16.1224516,0.217272695 L16.1224516,0.217272695 Z" fill="#749500"></path>
                                        <path d="M-0.475483871,16.7172997 C-0.475483871,18.4498379 0.935354839,19.8550561 2.67832258,19.8550561 L9.4003871,19.8550561 L9.4003871,10.0354589 L-0.475483871,10.0354589 L-0.475483871,16.7172997 L-0.475483871,16.7172997 Z" fill="#0964BF"></path>
                                        <path d="M9.4003871,10.0340481 L9.4003871,0.217272695 L2.67832258,0.217272695 C0.935354839,0.217272695 -0.475483871,1.62108004 -0.475483871,3.35502901 L-0.475483871,10.0340481 L9.4003871,10.0340481 L9.4003871,10.0340481 Z" fill="#915023"></path>
                                    </g>
                                    <g transform="translate(53.935484, 158.016505)" id="Shape">
                                        <path d="M19.5899355,16.8866031 C19.5899355,18.6177304 18.1790968,20.0229486 16.4375484,20.0229486 L2.98916129,20.0229486 C1.24619355,20.0229486 -0.166064516,18.6177304 -0.166064516,16.8866031 L-0.166064516,3.52292155 C-0.166064516,1.78897258 1.24619355,0.389397817 2.98916129,0.389397817 L16.4375484,0.389397817 C18.1790968,0.389397817 19.5899355,1.78756172 19.5899355,3.52292155 L19.5899355,16.8866031 L19.5899355,16.8866031 Z" fill="#56A8D6"></path>
                                        <g transform="translate(2.838710, 2.821723)">
                                            <path d="M6.00245161,6.5125374 L13.7847742,0.516375365 L7.75109677,8.2563624 L6.00245161,6.5125374 Z" fill="#BC4E42"></path>
                                            <path d="M7.75109677,8.2563624 L-0.035483871,14.2525244 L6.00245161,6.5125374 L7.75109677,8.2563624 Z" fill="#EFEFEF"></path>
                                        </g>
                                    </g>
                                    <g transform="translate(26.967742, 158.016505)" id="Shape">
                                        <path d="M19.9021935,16.8866031 C19.9021935,18.6177304 18.4899355,20.0229486 16.7483871,20.0229486 L3.3,20.0229486 C1.55987097,20.0229486 0.146193548,18.6177304 0.146193548,16.8866031 L0.146193548,3.52292155 C0.146193548,1.78897258 1.55987097,0.389397817 3.3,0.389397817 L16.7483871,0.389397817 C18.4913548,0.389397817 19.9021935,1.78756172 19.9021935,3.52292155 L19.9021935,16.8866031 L19.9021935,16.8866031 Z" fill="#56A8D6"></path>
                                        <path d="M16.5411613,13.4765505 C16.5411613,14.0042128 16.1096774,14.4331147 15.5816774,14.4331147 L4.46670968,14.4331147 C3.93870968,14.4331147 3.50722581,14.0042128 3.50722581,13.4765505 L3.50722581,7.03596707 C3.50722581,6.51112653 3.93870968,6.08504631 4.46670968,6.08504631 L15.5816774,6.08504631 C16.1096774,6.08504631 16.5411613,6.51112653 16.5411613,7.03596707 L16.5411613,13.4765505 L16.5411613,13.4765505 Z" fill="#EFEFEF"></path>
                                    </g>
                                    <g transform="translate(0.000000, 158.016505)" id="Shape">
                                        <path d="M20.2130323,16.8866031 C20.2130323,18.6177304 18.8021935,20.0229486 17.0592258,20.0229486 L3.61367742,20.0229486 C1.87212903,20.0229486 0.459870968,18.6177304 0.459870968,16.8866031 L0.459870968,3.52292155 C0.459870968,1.78897258 1.87212903,0.389397817 3.61367742,0.389397817 L17.0592258,0.389397817 C18.8036129,0.389397817 20.2130323,1.78756172 20.2130323,3.52292155 L20.2130323,16.8866031 L20.2130323,16.8866031 Z" fill="#5AAF5A"></path>
                                        <path d="M9.04270968,11.492879 C10.4109677,12.8501279 12.0858065,14.0112671 12.9814194,11.8724008 C13.1815484,11.401173 14.2886452,11.8258424 15.1658065,12.4057065 C16.0387097,12.9898032 16.832129,13.9435457 16.5340645,14.7279848 C15.5745806,17.2477837 11.508129,17.1800624 7.41612903,13.1097265 C3.32129032,9.04221234 3.25458065,5.00432629 5.78954839,4.0435295 C6.57587097,3.74865942 7.53535484,4.54297453 8.12154839,5.40783272 C8.70916129,6.27833436 9.13354839,7.37880645 8.66090323,7.57914881 C6.50774194,8.46799165 7.67445161,10.1342193 9.04270968,11.492879 L9.04270968,11.492879 Z" fill="#EFEFEF"></path>
                                    </g>
                                    <g transform="translate(26.967742, 31.038956)" id="Shape">
                                        <path d="M19.9021935,16.2841652 C19.9021935,18.0167033 18.4899355,19.4190998 16.7483871,19.4190998 L3.3,19.4190998 C1.55987097,19.4190998 0.146193548,18.0167033 0.146193548,16.2841652 L0.146193548,2.91907276 C0.146193548,1.18512379 1.55987097,-0.217272695 3.3,-0.217272695 L16.7483871,-0.217272695 C18.4913548,-0.217272695 19.9021935,1.18653465 19.9021935,2.91907276 L19.9021935,16.2841652 L19.9021935,16.2841652 Z" fill="#EFEFEF"></path>
                                        <path d="M16.1763871,13.8631266 C16.1763871,14.8168691 16.1735484,15.8284569 15.9606452,16.7539821 C15.8087742,17.4058002 15.2765161,17.8854932 14.6292903,17.9560363 C13.1049032,18.1239288 11.5592258,18.1253397 10.0234839,18.1239288 C8.48632258,18.1253397 6.94206452,18.1239288 5.41625806,17.9560363 C4.77045161,17.8854932 4.23535484,17.4058002 4.08632258,16.7539821 C3.87058065,15.8284569 3.87058065,14.8168691 3.87058065,13.8631266 L3.87058065,13.8631266 C3.87058065,12.910795 3.87483871,11.8977963 4.08774194,10.9736819 C4.23677419,10.3232747 4.77329032,9.8421709 5.41767742,9.77021695 C6.94348387,9.60232442 8.48774194,9.60232442 10.0263226,9.60232442 C11.5620645,9.60232442 13.1063226,9.60232442 14.632129,9.77021695 C15.2765161,9.8421709 15.8101935,10.3232747 15.9620645,10.9736819 C16.1763871,11.8977963 16.1763871,12.9093841 16.1763871,13.8631266 L16.1763871,13.8631266 L16.1763871,13.8631266 Z" fill="#BC4E42"></path>
                                    </g>
                                    <g transform="translate(53.935484, 122.744964)" id="Shape">
                                        <path d="M19.5899355,16.2291416 C19.5899355,17.9630906 18.1790968,19.3668979 16.4347097,19.3668979 L2.98916129,19.3668979 C1.24619355,19.3668979 -0.166064516,17.9630906 -0.166064516,16.2291416 L-0.166064516,2.86404916 C-0.166064516,1.13151105 1.24619355,-0.269474576 2.98916129,-0.269474576 L16.4347097,-0.269474576 C18.1790968,-0.269474576 19.5899355,1.13151105 19.5899355,2.86404916 L19.5899355,16.2291416 L19.5899355,16.2291416 Z" fill="#F4689B"></path>
                                        <path d="M8.49341935,19.3668979 C8.76025806,16.9980612 9.72258065,14.6941241 11.3818065,12.7838174 L17.7263226,19.090369 C18.4303226,18.7757469 18.9938065,18.214224 19.3103226,17.5172583 L12.9956129,11.2389239 C14.8876129,9.72506938 17.1670968,8.81647448 19.5899355,8.61754298 L19.5899355,6.38132726 C16.568129,6.59859996 13.7265806,7.73575445 11.4016774,9.6545263 L9.62890323,7.89377095 C11.7196129,5.54186458 12.9019355,2.67076111 13.1829677,-0.266652853 L10.9276129,-0.266652853 C10.6621935,2.100773 9.70412903,4.40471008 8.04206452,6.31501676 L1.69754839,0.00564344662 C0.996387097,0.32449818 0.431483871,0.881788534 0.114967742,1.58016505 L6.43109677,7.86414286 C4.53909677,9.37376483 2.26103226,10.2823597 -0.164645161,10.4869347 L-0.164645161,12.7146852 C2.85858065,12.4988234 5.69870968,11.3644906 8.0236129,9.44148619 L9.79922581,11.2050633 C7.70851613,13.5541479 6.52619355,16.4252514 6.24658065,19.3668979 L8.49341935,19.3668979 L8.49341935,19.3668979 Z" fill="#CC4079"></path>
                                    </g>
                                    <g transform="translate(0.000000, 91.706008)" id="Shape">
                                        <path d="M20.2130323,16.7172997 C20.2130323,18.4498379 18.8021935,19.8550561 17.0592258,19.8550561 L3.61367742,19.8550561 C1.87212903,19.8550561 0.459870968,18.4498379 0.459870968,16.7172997 L0.459870968,3.35502901 C0.459870968,1.62108004 1.87212903,0.217272695 3.61367742,0.217272695 L17.0592258,0.217272695 C18.8036129,0.217272695 20.2130323,1.62108004 20.2130323,3.35502901 L20.2130323,16.7172997 L20.2130323,16.7172997 Z" fill="#666666"></path>
                                        <path d="M17.7092903,9.32156295 C17.6950968,9.21715919 17.5971613,9.11839887 17.4779355,9.11839887 C16.915871,9.11839887 16.4077419,8.88983928 16.0387097,8.5286587 L16.0387097,8.52724784 C15.2424516,7.73575445 15.243871,6.45469207 16.0387097,5.66319868 C16.1224516,5.57854698 16.128129,5.44592598 16.0543226,5.35139825 C15.9052903,5.17221882 15.7477419,4.99445026 15.576,4.823736 C15.4070968,4.65584346 15.2296774,4.49923782 15.048,4.34968648 C14.9543226,4.2791434 14.8209032,4.28478684 14.7357419,4.36661682 C13.9394839,5.15952107 12.6507097,5.15952107 11.8544516,4.36661682 L11.8544516,4.36661682 C11.484,4.00120365 11.2583226,3.49752604 11.2583226,2.93882483 C11.2583226,2.81890158 11.1674839,2.72155213 11.0496774,2.70603265 C10.8154839,2.68486973 10.5770323,2.67217197 10.3385806,2.67217197 C10.0987097,2.67217197 9.86025806,2.68628059 9.62464516,2.70603265 C9.50825806,2.72155213 9.41741935,2.81890158 9.41741935,2.93882483 C9.41741935,3.49752604 9.19032258,4.00120365 8.82412903,4.36661682 L8.82270968,4.36661682 C8.43948387,4.74754947 7.94696774,4.94365924 7.44593548,4.96058958 C6.90374194,4.97610905 6.35445161,4.77858842 5.94,4.36661682 C5.85341935,4.28478684 5.72,4.2791434 5.62774194,4.34968648 C5.44748387,4.49782695 5.26864516,4.65584346 5.09832258,4.823736 C4.928,4.99445026 4.77045161,5.17221882 4.62141935,5.35139825 C4.5476129,5.44451512 4.55329032,5.57854698 4.63845161,5.66319868 C5.05148387,6.07517028 5.25019355,6.62117374 5.23316129,7.16012289 C5.21754839,7.65956792 5.01883871,8.14772605 4.63845161,8.5286587 L4.63845161,8.53006956 C4.27083871,8.89125014 3.76129032,9.11980973 3.20064516,9.11980973 C3.07858065,9.11980973 2.98064516,9.21715919 2.96787097,9.32297381 C2.94374194,9.56140943 2.93096774,9.79702333 2.93096774,10.0354589 C2.93096774,10.2781272 2.94374194,10.5109193 2.96787097,10.7465332 C2.98064516,10.8622239 3.07858065,10.952519 3.20064516,10.952519 C3.76270968,10.952519 4.27083871,11.1810786 4.63845161,11.5464918 L4.63845161,11.5479026 C5.43329032,12.3379852 5.43329032,13.6190475 4.63845161,14.4077192 C4.55187097,14.4951926 4.5476129,14.6292245 4.62141935,14.7181088 C4.77045161,14.9001099 4.92941935,15.0764676 5.09832258,15.2471819 C5.26864516,15.4150744 5.44748387,15.5730909 5.62774194,15.7240531 C5.72,15.7960071 5.85341935,15.7889528 5.94,15.7028902 C6.73625806,14.9128077 8.02645161,14.9128077 8.82270968,15.7028902 L8.82412903,15.7028902 C9.19032258,16.0697142 9.41741935,16.5762136 9.41741935,17.1349148 C9.41741935,17.2534272 9.50825806,17.3535983 9.62464516,17.3648852 C9.86025806,17.387459 10.0972903,17.4001568 10.3385806,17.4001568 C10.5770323,17.4001568 10.8154839,17.3860482 11.0496774,17.3648852 C11.1674839,17.3535983 11.2583226,17.2534272 11.2583226,17.1349148 C11.2583226,16.5762136 11.484,16.0697142 11.8530323,15.7028902 L11.855871,15.7028902 L11.904129,15.6577426 C12.7018065,14.9128077 13.9565161,14.9269163 14.7357419,15.7028902 C14.8223226,15.7875419 14.9543226,15.7931854 15.048,15.7212314 C15.2282581,15.5730909 15.4056774,15.4136636 15.5774194,15.245771 C15.7477419,15.0736459 15.9067097,14.9001099 16.0543226,14.7166979 C16.128129,14.6292245 16.123871,14.4937818 16.0387097,14.4063084 C15.2580645,13.6317453 15.243871,12.3845436 15.9932903,11.5930502 L16.0387097,11.5479026 L16.0387097,11.5464918 C16.4077419,11.1810786 16.915871,10.952519 17.4779355,10.952519 C17.5971613,10.952519 17.6950968,10.8636347 17.7092903,10.7465332 C17.7334194,10.5109193 17.7461935,10.2781272 17.7461935,10.0354589 C17.7447742,9.79561246 17.7334194,9.55999857 17.7092903,9.32156295 L17.7092903,9.32156295 Z M12.7898065,12.4734279 C11.4329032,13.817979 9.23858065,13.817979 7.88593548,12.4734279 C6.53187097,11.1274659 6.53187097,8.94909547 7.88593548,7.59749001 C9.23858065,6.25293885 11.4343226,6.25293885 12.7898065,7.59749001 C14.1424516,8.94909547 14.1424516,11.1274659 12.7898065,12.4734279 L12.7898065,12.4734279 Z" fill="#DDDDDD"></path>
                                    </g>
                                    <g transform="translate(26.967742, 122.744964)" id="Shape">
                                        <path d="M19.9021935,16.2291416 C19.9021935,17.9630906 18.4885161,19.3668979 16.7483871,19.3668979 L3.3,19.3668979 C1.55987097,19.3668979 0.146193548,17.9630906 0.146193548,16.2291416 L0.146193548,2.86404916 C0.146193548,1.13151105 1.55987097,-0.269474576 3.3,-0.269474576 L16.7483871,-0.269474576 C18.4885161,-0.269474576 19.9021935,1.13151105 19.9021935,2.86404916 L19.9021935,16.2291416 L19.9021935,16.2291416 Z" fill="#D7A862"></path>
                                        <path d="M10.0263226,6.12172872 C10.0263226,6.12172872 7.98387097,4.38354716 4.52774194,4.38354716 L4.20696774,4.38495802 L4.20696774,14.0112671 L4.52774194,14.0112671 C7.98387097,14.0112671 10.0263226,15.7452161 10.0263226,15.7452161 C10.0263226,15.7452161 12.0673548,14.0112671 15.8428387,14.0112671 L15.8428387,4.38495802 C12.0673548,4.38354716 10.0263226,6.12172872 10.0263226,6.12172872" fill="#EFEFEF"></path>
                                    </g>
                                    <g transform="translate(80.903226, 31.038956)" id="Shape">
                                        <path d="M19.2790968,16.2841652 C19.2790968,18.0167033 17.8668387,19.4190998 16.1224516,19.4190998 L2.67690323,19.4190998 C0.933935484,19.4190998 -0.476903226,18.0167033 -0.476903226,16.2841652 L-0.476903226,2.91907276 C-0.476903226,1.18512379 0.933935484,-0.217272695 2.67690323,-0.217272695 L16.1224516,-0.217272695 C17.8668387,-0.217272695 19.2790968,1.18653465 19.2790968,2.91907276 L19.2790968,16.2841652 L19.2790968,16.2841652 Z" fill="#3F3F3F"></path>
                                        <path d="M3.40929032,13.5414502 L5.31122581,12.4099391 L4.63135484,4.35674079 L1.22774194,5.55597319 C0.904129032,5.67025299 0.733806452,6.02437926 0.845935484,6.34464486 L3.40929032,13.5414502 L3.40929032,13.5414502 Z" fill="#167F36"></path>
                                        <path d="M8.6083871,10.4474305 L9.72967742,2.64254388 L5.14232258,3.02629825 C4.80025806,3.05310462 4.54477419,3.35361815 4.576,3.69363581 L5.31264516,12.4099391 L8.6083871,10.4474305 L8.6083871,10.4474305 Z" fill="#F7C41B"></path>
                                        <path d="M17.1926452,5.3387005 L17.5020645,3.18431475 C17.5517419,2.84711882 17.3147097,2.53108581 16.9783226,2.48452737 L10.5117419,1.56605644 C10.1753548,1.519498 9.85741935,1.7551119 9.80916129,2.09089697 L8.6083871,10.4474305 L17.1926452,5.3387005 L17.1926452,5.3387005 Z" fill="#107DD8"></path>
                                    </g>
                                    <g transform="translate(0.000000, 31.038956)" id="Shape">
                                        <path d="M0.459870968,6.66914304 L0.459870968,16.2841652 C0.459870968,18.0167033 1.87212903,19.4190998 3.61367742,19.4190998 L17.0592258,19.4190998 C18.8036129,19.4190998 20.2130323,18.0167033 20.2130323,16.2841652 L20.2130323,6.66914304 L0.459870968,6.66914304 L0.459870968,6.66914304 Z" fill="#74B3C4"></path>
                                        <g>
                                            <path d="M11.2625806,-0.217272695 L7.66167742,-0.217272695 L11.2710968,3.2266406 L7.66167742,6.66914304 L11.2625806,6.66914304 L14.8734194,3.2266406 L11.2625806,-0.217272695 Z" fill="#353535"></path>
                                            <path d="M14.8649032,-0.217272695 L11.2625806,-0.217272695 L14.8734194,3.2266406 L11.2625806,6.66914304 L14.8649032,6.66914304 L18.4729032,3.2266406 L14.8649032,-0.217272695 Z" fill="#EFEFEF"></path>
                                            <path d="M7.66167742,-0.217272695 L4.06077419,-0.217272695 L7.6716129,3.2266406 L4.06077419,6.66914304 L7.66167742,6.66914304 L11.2710968,3.2266406 L7.66167742,-0.217272695 Z" fill="#EFEFEF"></path>
                                            <path d="M1.40374194,0.682857041 C0.820387097,1.25002343 0.459870968,2.04433854 0.459870968,2.9176619 L0.459870968,6.66773218 L4.06929032,3.22522974 L1.40374194,0.682857041 L1.40374194,0.682857041 Z" fill="#EFEFEF"></path>
                                            <path d="M4.06077419,-0.217272695 L3.61367742,-0.217272695 C2.75212903,-0.217272695 1.97290323,0.128388411 1.40374194,0.684267902 L4.06929032,3.2266406 L0.459870968,6.66914304 L4.06077419,6.66914304 L7.6716129,3.2266406 L4.06077419,-0.217272695 L4.06077419,-0.217272695 Z" fill="#353535"></path>
                                            <path d="M20.2130323,2.91907276 C20.2130323,1.18512379 18.8021935,-0.217272695 17.0592258,-0.217272695 L14.8649032,-0.217272695 L18.4729032,3.2266406 L14.8649032,6.66914304 L18.4643871,6.66914304 L20.2144516,5.0000937 L20.2144516,2.91907276 L20.2130323,2.91907276 Z" fill="#353535"></path>
                                            <path d="M18.4629677,6.66914304 L20.2130323,6.66914304 L20.2130323,4.99868284 L18.4629677,6.66914304 Z" fill="#EFEFEF"></path>
                                        </g>
                                    </g>
                                    <g id="Shape">
                                        <path d="M20.2130323,16.7695016 C20.2130323,18.5034506 18.8021935,19.9086688 17.0592258,19.9086688 L3.61367742,19.9086688 C1.87212903,19.9086688 0.459870968,18.5034506 0.459870968,16.7695016 L0.459870968,3.40864176 C0.459870968,1.67469278 1.87212903,0.270885438 3.61367742,0.270885438 L17.0592258,0.270885438 C18.8036129,0.270885438 20.2130323,1.67469278 20.2130323,3.40864176 L20.2130323,16.7695016 L20.2130323,16.7695016 Z" fill="#5AAF5A"></path>
                                        <path d="M10.3371613,4.22270893 C7.07690323,4.22270893 4.43406452,6.84973333 4.43406452,10.0904826 C4.43406452,11.1514505 4.72077419,12.1432863 5.21612903,13.0010901 C5.22322581,13.1069048 5.21754839,13.2141303 5.192,13.2959602 L4.57458065,15.5914321 C4.52632258,15.7607355 4.63135484,15.8609067 4.80025806,15.8143483 L7.10954839,15.2006235 C7.19470968,15.1780497 7.29974194,15.1709954 7.4076129,15.1780497 C8.27058065,15.6690295 9.2683871,15.9554344 10.3357419,15.9554344 C13.596,15.9554344 16.2374194,13.32841 16.2374194,10.0890717 C16.2388387,6.84973333 13.5988387,4.22270893 10.3371613,4.22270893 L10.3371613,4.22270893 Z" fill="#EFEFEF"></path>
                                    </g>
                                    <g transform="translate(0.000000, 122.744964)">
                                        <path d="M20.2130323,16.2291416 C20.2130323,17.9630906 18.8021935,19.3668979 17.0592258,19.3668979 L3.61367742,19.3668979 C1.87212903,19.3668979 0.459870968,17.9630906 0.459870968,16.2291416 L0.459870968,2.86404916 C0.459870968,1.13151105 1.87212903,-0.269474576 3.61367742,-0.269474576 L17.0592258,-0.269474576 C18.8036129,-0.269474576 20.2130323,1.13151105 20.2130323,2.86404916 L20.2130323,16.2291416 L20.2130323,16.2291416 Z" id="Shape" fill="#3F3F3F"></path>
                                        <g id="XMLID_2_" transform="translate(2.838710, 1.410862)">
                                            <g id="Group">
                                                <path d="M14.4575484,5.38243721 C15.2736774,7.42395402 15.1785806,9.80972108 13.9849032,11.8597031 C12.408,14.5798443 9.36206452,15.9314498 6.41548387,15.5025479 L9.89574194,9.51344013 C10.6593548,8.19287363 10.2065806,6.5125374 8.88090323,5.75490469 C8.44658065,5.50094959 7.96825806,5.38243721 7.49987097,5.38243721 L14.4575484,5.38243721 L14.4575484,5.38243721 Z" id="Shape" fill="#F9D128"></path>
                                                <path d="M14.4575484,5.38243721 L7.49987097,5.38243721 C6.54322581,5.38243721 5.61212903,5.88047137 5.10116129,6.76367077 C4.60012903,7.62006379 4.62141935,8.64576022 5.07135484,9.46264911 L1.61806452,3.52009983 C3.88335484,0.664515839 7.97819355,-0.183412015 11.239871,1.68739054 C12.7614194,2.55930304 13.8571613,3.88269127 14.4575484,5.38243721 L14.4575484,5.38243721 Z" id="Shape" fill="#D84839"></path>
                                                <path d="M8.88090323,5.75490469 C10.2065806,6.5125374 10.6593548,8.19428449 9.89574194,9.51344013 C9.13070968,10.8283632 7.43741935,11.2798389 6.11458065,10.5193845 C5.67741935,10.2710728 5.33393548,9.91835743 5.09974194,9.51344013 L5.06993548,9.46405998 C4.62,8.64717108 4.59729032,7.62147466 5.09974194,6.76508163 C5.61212903,5.88047137 6.54322581,5.38384807 7.49845161,5.38384807 C7.96967742,5.38243721 8.448,5.50094959 8.88090323,5.75490469 L8.88090323,5.75490469 Z" id="Shape" fill="#4793C6"></path>
                                                <path d="M9.89574194,9.51344013 L6.41548387,15.5025479 C5.50283871,15.3713377 4.60296774,15.0680025 3.7556129,14.5854878 C0.170322581,12.5284515 -1.056,7.97560093 1.012,4.41599698 C1.19651613,4.09432052 1.39948387,3.8008613 1.61948387,3.52151069 L5.07277419,9.46405998 L5.10258065,9.51344013 C5.33677419,9.91835743 5.68025806,10.2710728 6.11741935,10.5193845 C7.43741935,11.2798389 9.13212903,10.8283632 9.89574194,9.51344013 L9.89574194,9.51344013 Z" id="Shape" fill="#5AAF5A"></path>
                                            </g>
                                        </g>
                                    </g>
                                    <g transform="translate(80.903226, 122.744964)" id="Shape">
                                        <path d="M16.1224516,-0.268063714 L2.67690323,-0.268063714 C0.933935484,-0.268063714 -0.476903226,1.13292191 -0.476903226,2.86546002 L-0.476903226,16.2305525 C-0.476903226,17.9645014 0.933935484,19.3683088 2.67690323,19.3683088 L16.1224516,19.3683088 C17.8668387,19.3683088 19.2790968,17.9645014 19.2790968,16.2305525 L19.2790968,2.86546002 C19.2790968,1.13292191 17.8668387,-0.268063714 16.1224516,-0.268063714 L16.1224516,-0.268063714 Z M18.0016774,16.2291416 C18.0016774,17.2576598 17.1585806,18.0957116 16.123871,18.0957116 L2.67832258,18.0957116 C1.64503226,18.0957116 0.804774194,17.2562489 0.804774194,16.2291416 L0.804774194,2.86404916 C0.804774194,1.83694187 1.64645161,1.00171177 2.67832258,1.00171177 L16.123871,1.00171177 C17.1585806,1.00171177 18.0016774,1.83835274 18.0016774,2.86404916 L18.0016774,16.2291416 L18.0016774,16.2291416 Z" fill="#B79065"></path>
                                        <path d="M16.1224516,18.0957116 C17.1571613,18.0957116 18.0002581,17.2562489 18.0002581,16.2291416 L18.0002581,2.86404916 C18.0002581,1.83694187 17.1571613,1.00171177 16.1224516,1.00171177 L2.67690323,1.00171177 C1.6436129,1.00171177 0.803354839,1.83835274 0.803354839,2.86404916 L0.803354839,16.2291416 C0.803354839,17.2576598 1.64503226,18.0957116 2.67690323,18.0957116 L16.1224516,18.0957116 L16.1224516,18.0957116 Z" fill="#EFEFEF"></path>
                                        <path d="M3.91174194,1.00171177 L3.91174194,16.5917331 L9.4003871,14.8196908 L14.8904516,16.5917331 L14.8904516,1.00171177 L3.91174194,1.00171177 L3.91174194,1.00171177 Z M11.8132903,12.2293488 L9.40322581,10.503865 L6.99174194,12.2293488 L7.89729032,9.41750154 L5.5,7.66803309 L8.47212903,7.65392447 L9.40464516,4.85336409 L10.3343226,7.65392447 L13.3092903,7.66803309 L10.9105806,9.41750154 L11.8132903,12.2293488 L11.8132903,12.2293488 Z" fill="#D84839"></path>
                                    </g>
                                </g>
                            </g>
                        </g>
                        <g>
                            <rect id="Rectangle" fill="#191919" x="0.21716129" y="-0.664515839" width="111.56129" height="6.75802732"></rect>
                            <g transform="translate(1.419355, 1.410862)" id="Shape" fill="#EFEFEF">
                                <path d="M7.49703226,3.24921439 L0.520903226,3.24921439 L7.49703226,-0.640531191 L7.49703226,3.24921439 Z"></path>
                                <path d="M108.941161,0.589740171 L108.230065,0.589740171 L108.230065,-0.335785074 L101.825935,-0.335785074 L101.825935,2.94729 L108.230065,2.94729 L108.230065,2.02035389 L108.941161,2.02035389 L108.941161,0.589740171 L108.941161,0.589740171 Z M107.700645,2.46336445 L106.101032,2.46336445 L106.101032,0.148140474 L107.700645,0.148140474 L107.700645,2.46336445 L107.700645,2.46336445 Z"></path>
                            </g>
                        </g>
                    </g>
                </g>
                <path d="M113.054628,2.06766917 L18.4591643,2.06766917 C14.1366175,2.06766917 10.2033994,3.73533235 7.27559055,6.45164474 L124.236776,268.221059 C127.435546,265.250357 129.442086,261.035974 129.442086,256.359451 L129.442086,18.3118391 C129.442086,9.35450928 122.08905,2.06766917 113.054628,2.06766917 L113.054628,2.06766917 Z" id="Shape" opacity="0.07" fill="#FFFFFF"></path>
            </g>
        </g>
    </g>
</svg>