<?xml version="1.0" encoding="UTF-8" standalone="no"?>
<svg width="300px" height="275px" viewBox="0 0 300 275" version="1.1" xmlns="http://www.w3.org/2000/svg" xmlns:xlink="http://www.w3.org/1999/xlink" xmlns:sketch="http://www.bohemiancoding.com/sketch/ns">
    <title>icon-service-web-development</title>
    <description>Created with Sketch (http://www.bohemiancoding.com/sketch)</description>
    <defs></defs>
    <g id="Page-1" stroke="none" stroke-width="1" fill="none" fill-rule="evenodd" sketch:type="MSPage">
        <g id="web-development" sketch:type="MSLayerGroup" transform="translate(0.000000, 15.000000)">
            <g id="mac" sketch:type="MSShapeGroup">
                <path d="M200.647768,243.504095 C196.387551,241.528418 192.127335,241.707829 187.246192,238.655686 C181.713237,235.196231 181.432062,212.255319 181.432062,212.255319 L150.473603,212.255319 L119.631235,212.255319 C119.631235,212.255319 119.350061,235.196231 113.817637,238.655686 C108.936495,241.707829 104.676278,241.528418 100.416062,243.504095 C99.8111113,243.784795 99.9138891,245.756162 100.416062,246.197955 C102.251683,247.814271 110.090481,247.275499 110.090481,247.275499 L150.473603,247.275499 L190.973349,247.275499 C190.973349,247.275499 198.812147,247.814271 200.647768,246.197955 C201.149941,245.756162 201.252718,243.784795 200.647768,243.504095 C200.647768,243.504095 201.252718,243.784795 200.647768,243.504095 L200.647768,243.504095 L200.647768,243.504095 Z" id="base" fill="#D1D1D1"></path>
                <path d="M181.914894,217.574468 L119.148936,217.574468 L119.303708,211.191489 L181.64243,211.191489 L181.914894,217.574468 Z" id="shadow" opacity="0.7" fill="#A5A5A5"></path>
                <path d="M290.941385,214.382979 L9.05861456,214.382979 C4.05559503,214.382979 0,210.324113 0,205.31706 L0,19.0917978 C0,14.0847441 4.05559503,10.0258788 9.05861456,10.0258788 L290.941385,10.0258788 C295.944405,10.0258788 300,14.0847441 300,19.0917978 L300,205.31706 C300,210.324113 295.944405,214.382979 290.941385,214.382979 Z" id="monitor" fill="#E2E2E2"></path>
                <path d="M300,19.5722656 C300,14.34684 295.944405,10.1109561 290.941385,10.1109561 L9.05861456,10.1109561 C4.05559503,10.1109561 0,14.34684 0,19.5722656 L0,187 L300,187 L300,19.5722656 Z" id="glass" fill="#000000"></path>
                <circle id="logo" fill="#1A1A1A" cx="150" cy="199.489362" r="6.38297872"></circle>
            </g>
            <g id="sublime" transform="translate(10.000000, 20.000000)">
                <g id="window" transform="translate(0.000000, 3.333333)" sketch:type="MSShapeGroup">
                    <rect id="bg" fill="#0F0F0F" x="0" y="0" width="280" height="153"></rect>
                    <path d="M38.6666667,19.4124443 C39.5877994,19.4124443 40.7046465,18.7935733 41.161363,18.029909 L44.3394745,12.7158686 C44.7961245,11.9523154 45.9128608,11.3333333 46.8344573,11.3333333 L73.0333333,11.3333333 C73.9549299,11.3333333 75.0716661,11.9523154 75.5283162,12.7158686 L78.7064276,18.029909 C79.1631442,18.7935733 80.2799913,19.4124443 81.2011239,19.4124443 L93.1699346,19.4124443 L93.1699346,20.1021321 L38.6666667,20.1021321" id="back-tab-left" fill="#454542"></path>
                    <path d="M160.751634,19.4124443 C161.672767,19.4124443 162.789614,18.7935733 163.24633,18.029909 L166.424442,12.7158686 C166.881092,11.9523154 167.997828,11.3333333 168.919425,11.3333333 L195.118301,11.3333333 C196.039897,11.3333333 197.156633,11.9523154 197.613283,12.7158686 L200.791395,18.029909 C201.248111,18.7935733 202.364959,19.4124443 203.286091,19.4124443 L215.254902,19.4124443 L215.254902,20.1021321 L160.751634,20.1021321" id="back-tab-right" fill="#454542"></path>
                    <path d="M73.8300654,19.4124443 C74.7511981,19.4124443 75.8680452,18.7935733 76.3247617,18.029909 L79.5028732,12.7158686 C79.9595232,11.9523154 81.0762594,11.3333333 81.997856,11.3333333 L108.196732,11.3333333 C109.118329,11.3333333 110.235065,11.9523154 110.691715,12.7158686 L113.869826,18.029909 C114.326543,18.7935733 115.44339,19.4124443 116.364523,19.4124443 L128.333333,19.4124443 L128.333333,20.1021321 L73.8300654,20.1021321" id="tab" fill="#272822"></path>
                    <rect id="bg" fill="#272822" x="0" y="19.3333333" width="280" height="133.666667"></rect>
                </g>
                <g id="sidebar" transform="translate(0.000000, 3.225252)" sketch:type="MSShapeGroup">
                    <rect id="bg" fill="#CFCFCF" x="0" y="0.108081097" width="38.6666667" height="152.891919"></rect>
                    <path d="M12.5196078,69.7230073 L12.5196078,69.805452 C12.5196078,70.2685287 12.8977153,70.6439265 13.3539654,70.6439265 L18.71793,70.6439265 C19.178733,70.6439265 19.5522876,70.2708043 19.5522876,69.805452 L19.5522876,69.7230073 C19.5522876,69.2599307 19.1741802,68.8845329 18.71793,68.8845329 L13.3539654,68.8845329 C12.8931625,68.8845329 12.5196078,69.257655 12.5196078,69.7230073 Z" id="Rectangle-62-copy-8" fill="#7D7D76"></path>
                    <path d="M12.5196078,66.2042201 L12.5196078,66.2866648 C12.5196078,66.7497415 12.895053,67.1251393 13.3473717,67.1251393 L22.2408636,67.1251393 C22.6980249,67.1251393 23.0686275,66.7520171 23.0686275,66.2866648 L23.0686275,66.2042201 C23.0686275,65.7411435 22.6931823,65.3657457 22.2408636,65.3657457 L13.3473717,65.3657457 C12.8902104,65.3657457 12.5196078,65.7388678 12.5196078,66.2042201 Z" id="Rectangle-62-copy-7" fill="#7D7D76"></path>
                    <path d="M12.5196078,62.6854329 L12.5196078,62.7678776 C12.5196078,63.2309543 12.9014332,63.6063521 13.3462276,63.6063521 L24.0001776,63.6063521 C24.4567071,63.6063521 24.8267974,63.2332299 24.8267974,62.7678776 L24.8267974,62.6854329 C24.8267974,62.2223563 24.4449721,61.8469585 24.0001776,61.8469585 L13.3462276,61.8469585 C12.8896981,61.8469585 12.5196078,62.2200806 12.5196078,62.6854329 Z" id="Rectangle-62-copy-6" fill="#7D7D76"></path>
                    <path d="M12.5196078,59.1666457 L12.5196078,59.2490905 C12.5196078,59.7121671 12.8878054,60.0875649 13.3626495,60.0875649 L31.8955205,60.0875649 C32.3611195,60.0875649 32.7385621,59.7144428 32.7385621,59.2490905 L32.7385621,59.1666457 C32.7385621,58.7035691 32.3703645,58.3281713 31.8955205,58.3281713 L13.3626495,58.3281713 C12.8970504,58.3281713 12.5196078,58.7012934 12.5196078,59.1666457 Z" id="Rectangle-62-copy-5" fill="#7D7D76"></path>
                    <path d="M12.5196078,55.6478585 L12.5196078,55.7303033 C12.5196078,56.1933799 12.8868266,56.5687777 13.3557818,56.5687777 L29.2651332,56.5687777 C29.7269393,56.5687777 30.1013072,56.1956556 30.1013072,55.7303033 L30.1013072,55.6478585 C30.1013072,55.1847819 29.7340884,54.8093841 29.2651332,54.8093841 L13.3557818,54.8093841 C12.8939757,54.8093841 12.5196078,55.1825062 12.5196078,55.6478585 Z" id="Rectangle-62-copy-4" fill="#7D7D76"></path>
                    <g id="folder-copy-4" transform="translate(6.366013, 50.410900)">
                        <path d="M2.6372549,1.71817123 L2.6372549,1.80061596 C2.6372549,2.2636926 3.00451979,2.63909039 3.47848213,2.63909039 L11.4659623,2.63909039 C11.9305593,2.63909039 12.3071895,2.26596826 12.3071895,1.80061596 L12.3071895,1.71817123 C12.3071895,1.25509459 11.9399247,0.879696797 11.4659623,0.879696797 L3.47848213,0.879696797 C3.01388516,0.879696797 2.6372549,1.25281893 2.6372549,1.71817123 Z" id="Rectangle-62-copy-3" fill="#7D7D76"></path>
                        <polygon id="Triangle-17-copy" fill="#454542" transform="translate(1.318627, 1.759394) scale(1, -1) rotate(-270.000000) translate(-1.318627, -1.759394) " points="1.31862745 0.879696797 2.6372549 2.63909039 0 2.63909039 "></polygon>
                    </g>
                    <g id="folder-copy-3" transform="translate(5.486928, 45.132719)">
                        <path d="M3.51633987,1.71817123 L3.51633987,1.80061596 C3.51633987,2.2636926 3.88453745,2.63909039 4.35938149,2.63909039 L22.8922525,2.63909039 C23.3578515,2.63909039 23.7352941,2.26596826 23.7352941,1.80061596 L23.7352941,1.71817123 C23.7352941,1.25509459 23.3670965,0.879696797 22.8922525,0.879696797 L4.35938149,0.879696797 C3.89378246,0.879696797 3.51633987,1.25281893 3.51633987,1.71817123 Z" id="Rectangle-62-copy-3" fill="#7D7D76"></path>
                        <polygon id="Triangle-17-copy" fill="#454542" transform="translate(1.318627, 1.759394) scale(1, -1) rotate(-270.000000) translate(-1.318627, -1.759394) " points="1.31862745 0.879696797 2.6372549 2.63909039 0 2.63909039 "></polygon>
                    </g>
                    <path d="M11.6405229,42.4524066 L11.6405229,42.5348513 C11.6405229,42.997928 12.0223482,43.3733257 12.4671426,43.3733257 L23.1210927,43.3733257 C23.5776222,43.3733257 23.9477124,43.0002036 23.9477124,42.5348513 L23.9477124,42.4524066 C23.9477124,41.9893299 23.5658871,41.6139321 23.1210927,41.6139321 L12.4671426,41.6139321 C12.0106131,41.6139321 11.6405229,41.9870543 11.6405229,42.4524066 Z" id="Rectangle-62-copy-8" fill="#7D7D76"></path>
                    <path d="M11.6405229,38.9336194 L11.6405229,39.0160641 C11.6405229,39.4791408 12.0087205,39.8545386 12.4835645,39.8545386 L31.0164355,39.8545386 C31.4820345,39.8545386 31.8594771,39.4814164 31.8594771,39.0160641 L31.8594771,38.9336194 C31.8594771,38.4705428 31.4912795,38.095145 31.0164355,38.095145 L12.4835645,38.095145 C12.0179655,38.095145 11.6405229,38.4682671 11.6405229,38.9336194 Z" id="Rectangle-62-copy-7" fill="#7D7D76"></path>
                    <path d="M11.6405229,34.5351354 L11.6405229,34.6175801 C11.6405229,35.0806568 12.0087205,35.4560546 12.4835645,35.4560546 L31.0164355,35.4560546 C31.4820345,35.4560546 31.8594771,35.0829324 31.8594771,34.6175801 L31.8594771,34.5351354 C31.8594771,34.0720588 31.4912795,33.696661 31.0164355,33.696661 L12.4835645,33.696661 C12.0179655,33.696661 11.6405229,34.0697831 11.6405229,34.5351354 Z" id="Rectangle-62-copy-6" fill="#7D7D76"></path>
                    <path d="M11.6405229,31.0163482 L11.6405229,31.0987929 C11.6405229,31.5618696 12.0099382,31.9372674 12.4760236,31.9372674 L25.7494666,31.9372674 C26.2109009,31.9372674 26.5849673,31.5641453 26.5849673,31.0987929 L26.5849673,31.0163482 C26.5849673,30.5532716 26.215552,30.1778738 25.7494666,30.1778738 L12.4760236,30.1778738 C12.0145893,30.1778738 11.6405229,30.5509959 11.6405229,31.0163482 Z" id="Rectangle-62-copy-5" fill="#7D7D76"></path>
                    <g id="folder-copy-2" transform="translate(6.366013, 26.659087)">
                        <rect id="Rectangle-62-copy-3" fill="#7D7D76" x="3.51633987" y="0" width="16.7026144" height="1.75939359" rx="31"></rect>
                        <path d="M2.6372549,0 L0,0 L1.31862745,1.75939359 L2.6372549,0 Z" id="Triangle-17-copy" fill="#454542"></path>
                    </g>
                    <g id="folder-copy" transform="translate(5.486928, 21.380906)">
                        <path d="M3.51633987,1.71817123 L3.51633987,1.80061596 C3.51633987,2.2636926 3.88575515,2.63909039 4.35184057,2.63909039 L17.6252836,2.63909039 C18.0867179,2.63909039 18.4607843,2.26596826 18.4607843,1.80061596 L18.4607843,1.71817123 C18.4607843,1.25509459 18.091369,0.879696797 17.6252836,0.879696797 L4.35184057,0.879696797 C3.89040627,0.879696797 3.51633987,1.25281893 3.51633987,1.71817123 Z" id="Rectangle-62-copy-3" fill="#7D7D76"></path>
                        <polygon id="Triangle-17-copy" fill="#454542" transform="translate(1.318627, 1.759394) scale(1, -1) rotate(-270.000000) translate(-1.318627, -1.759394) " points="1.31862745 0.879696797 2.6372549 2.63909039 0 2.63909039 "></polygon>
                    </g>
                    <g id="folder" transform="translate(5.486928, 16.982422)">
                        <path d="M3.51633987,1.71817123 L3.51633987,1.80061596 C3.51633987,2.2636926 3.88355865,2.63909039 4.35251385,2.63909039 L20.2618652,2.63909039 C20.7236714,2.63909039 21.0980392,2.26596826 21.0980392,1.80061596 L21.0980392,1.71817123 C21.0980392,1.25509459 20.7308204,0.879696797 20.2618652,0.879696797 L4.35251385,0.879696797 C3.89070771,0.879696797 3.51633987,1.25281893 3.51633987,1.71817123 Z" id="Rectangle-62-copy-3" fill="#7D7D76"></path>
                        <polygon id="Triangle-17-copy" fill="#454542" transform="translate(1.318627, 1.759394) scale(1, -1) rotate(-270.000000) translate(-1.318627, -1.759394) " points="1.31862745 0.879696797 2.6372549 2.63909039 0 2.63909039 "></polygon>
                    </g>
                    <g id="root" transform="translate(2.849673, 12.583938)">
                        <path d="M3.51633987,0.838474433 L3.51633987,0.920919161 C3.51633987,1.3839958 3.89657954,1.75939359 4.34462511,1.75939359 L19.390669,1.75939359 C19.8481183,1.75939359 20.2189542,1.38627147 20.2189542,0.920919161 L20.2189542,0.838474433 C20.2189542,0.375397791 19.8387146,0 19.390669,0 L4.34462511,0 C3.8871758,0 3.51633987,0.373122129 3.51633987,0.838474433 Z" id="Rectangle-62-copy-2" fill="#7D7D76"></path>
                        <polygon id="Triangle-17" fill="#454542" transform="translate(1.318627, 0.879697) scale(1, -1) translate(-1.318627, -0.879697) " points="1.31862745 0 2.6372549 1.75939359 0 1.75939359 "></polygon>
                    </g>
                </g>
                <g id="top" sketch:type="MSShapeGroup">
                    <path d="M0,2.19011859 L0,8.76879878 L280,8.76879883 L280,2.19011864 C280,0.980549539 278.616151,4.6476419e-08 276.910295,4.6476419e-08 L3.08970475,0 C1.38330794,0 0,0.9888473 0,2.19011859 Z" id="bg" fill="#CFCFCF"></path>
                    <ellipse id="exit" fill="#D5635D" cx="5.41383648" cy="4.71813725" rx="2.03018868" ry="2.02205882"></ellipse>
                    <ellipse id="minimize" fill="#DDA85A" cx="12.1811321" cy="4.71813725" rx="2.03018868" ry="2.02205882"></ellipse>
                    <ellipse id="expand" fill="#76B24F" cx="19.2867925" cy="4.71813725" rx="2.03018868" ry="2.02205882"></ellipse>
                </g>
                <g id="lines" transform="translate(54.715686, 27.183276)" sketch:type="MSShapeGroup">
                    <path d="M0,1.75375976 C0,2.72233452 0.733297205,3.50751951 1.63854686,3.50751951 L20.4010613,3.50751951 C21.3060057,3.50751951 22.0396082,2.72908725 22.0396082,1.75375976 C22.0396082,0.785184988 21.306311,0 20.4010613,0 L1.63854686,0 C0.733602419,0 0,0.778432263 0,1.75375976 Z" id="Rectangle-62-copy" fill="#E94646"></path>
                    <path d="M8.16281784,7.01503903 C8.16281784,7.98361379 8.89508578,8.76879878 9.7925949,8.76879878 L75.9169924,8.76879878 C76.8170934,8.76879878 77.5467695,7.99036652 77.5467695,7.01503903 C77.5467695,6.04646426 76.8145015,5.26127927 75.9169924,5.26127927 L9.7925949,5.26127927 C8.89249388,5.26127927 8.16281784,6.03971153 8.16281784,7.01503903 Z" id="Rectangle-62-copy-2" fill="#85A157"></path>
                    <path d="M8.16281784,13.1531982 C8.16281784,14.1217729 8.89474534,14.9069579 9.79333432,14.9069579 L40.8161363,14.9069579 C41.7166457,14.9069579 42.4466528,14.1285257 42.4466528,13.1531982 C42.4466528,12.1846234 41.7147253,11.3994384 40.8161363,11.3994384 L9.79333432,11.3994384 C8.89282493,11.3994384 8.16281784,12.1778707 8.16281784,13.1531982 Z" id="Rectangle-62-copy-3" fill="#85A157"></path>
                    <path d="M8.16281784,19.2913573 C8.16281784,20.2599321 8.89343205,21.0451171 9.79337165,21.0451171 L88.1604424,21.0451171 C89.0609724,21.0451171 89.7909962,20.2666848 89.7909962,19.2913573 C89.7909962,18.3227826 89.060382,17.5375976 88.1604424,17.5375976 L9.79337165,17.5375976 C8.89284165,17.5375976 8.16281784,18.3160298 8.16281784,19.2913573 Z" id="Rectangle-62-copy-4" fill="#85A157"></path>
                    <path d="M8.16281784,25.4295165 C8.16281784,26.3980912 8.89089315,27.1832762 9.79531643,27.1832762 L34.2838999,27.1832762 C35.185504,27.1832762 35.9163985,26.404844 35.9163985,25.4295165 C35.9163985,24.4609417 35.1883232,23.6757567 34.2838999,23.6757567 L9.79531643,23.6757567 C8.89371235,23.6757567 8.16281784,24.454189 8.16281784,25.4295165 Z" id="Rectangle-62-copy-5" fill="#E94646"></path>
                    <path d="M23.6721717,30.6907957 C23.6721717,31.6593705 24.4066498,32.4445555 25.3066008,32.4445555 L48.9750416,32.4445555 C49.8777118,32.4445555 50.6094706,31.6661232 50.6094706,30.6907957 C50.6094706,29.722221 49.8749926,28.937036 48.9750416,28.937036 L25.3066008,28.937036 C24.4039305,28.937036 23.6721717,29.7154682 23.6721717,30.6907957 Z" id="Rectangle-62-copy-6" fill="#E6DB72"></path>
                    <path d="M23.6721717,36.8289549 C23.6721717,37.7975297 24.4067417,38.5827146 25.2975882,38.5827146 L44.9026452,38.5827146 C45.8003379,38.5827146 46.5280617,37.8042824 46.5280617,36.8289549 C46.5280617,35.8603801 45.7934917,35.0751951 44.9026452,35.0751951 L25.2975882,35.0751951 C24.3998955,35.0751951 23.6721717,35.8536274 23.6721717,36.8289549 Z" id="Rectangle-62-copy" fill="#BEB5B5"></path>
                    <path d="M23.6721717,42.967114 C23.6721717,43.9356888 24.4066498,44.7208738 25.3066008,44.7208738 L48.9750416,44.7208738 C49.8777118,44.7208738 50.6094706,43.9424415 50.6094706,42.967114 C50.6094706,41.9985393 49.8749926,41.2133543 48.9750416,41.2133543 L25.3066008,41.2133543 C24.4039305,41.2133543 23.6721717,41.9917865 23.6721717,42.967114 Z" id="Rectangle-62-copy-2" fill="#E6DB72"></path>
                    <path d="M23.6721717,49.1052732 C23.6721717,50.0738479 24.4067417,50.8590329 25.2975882,50.8590329 L44.9026452,50.8590329 C45.8003379,50.8590329 46.5280617,50.0806007 46.5280617,49.1052732 C46.5280617,48.1366984 45.7934917,47.3515134 44.9026452,47.3515134 L25.2975882,47.3515134 C24.3998955,47.3515134 23.6721717,48.1299457 23.6721717,49.1052732 Z" id="Rectangle-62-copy-3" fill="#BEB5B5"></path>
                    <path d="M23.6721717,54.3665524 C23.6721717,55.3351272 24.4067417,56.1203122 25.2975882,56.1203122 L44.9026452,56.1203122 C45.8003379,56.1203122 46.5280617,55.3418799 46.5280617,54.3665524 C46.5280617,53.3979777 45.7934917,52.6127927 44.9026452,52.6127927 L25.2975882,52.6127927 C24.3998955,52.6127927 23.6721717,53.391225 23.6721717,54.3665524 Z" id="Rectangle-62-copy-4" fill="#BEB5B5"></path>
                    <path d="M8.16281784,60.5047116 C8.16281784,61.4732864 8.89284937,62.2584713 9.79392339,62.2584713 L31.8364476,62.2584713 C32.7372823,62.2584713 33.4675531,61.4800391 33.4675531,60.5047116 C33.4675531,59.5361368 32.7375216,58.7509518 31.8364476,58.7509518 L9.79392339,58.7509518 C8.89308867,58.7509518 8.16281784,59.5293841 8.16281784,60.5047116 Z" id="Rectangle-62-copy-5" fill="#E94646"></path>
                    <path d="M8.16281784,65.7659909 C8.16281784,66.7345656 8.89898221,67.5197506 9.79771534,67.5197506 L37.5466281,67.5197506 C38.4495571,67.5197506 39.1815256,66.7413184 39.1815256,65.7659909 C39.1815256,64.7974161 38.4453613,64.0122311 37.5466281,64.0122311 L9.79771534,64.0122311 C8.89478638,64.0122311 8.16281784,64.7906634 8.16281784,65.7659909 Z" id="Rectangle-62-copy-6" fill="#E94646"></path>
                    <path d="M22.8558899,71.90415 C22.8558899,72.8727248 23.5830024,73.6579098 24.4933223,73.6579098 L94.6838181,73.6579098 C95.588147,73.6579098 96.3212505,72.8794775 96.3212505,71.90415 C96.3212505,70.9355752 95.594138,70.1503903 94.6838181,70.1503903 L24.4933223,70.1503903 C23.5889934,70.1503903 22.8558899,70.9288225 22.8558899,71.90415 Z" id="Rectangle-62-copy-7" fill="#B9B0B0"></path>
                    <path d="M22.8558899,78.0423092 C22.8558899,79.0108839 23.5830024,79.7960689 24.4933223,79.7960689 L94.6838181,79.7960689 C95.588147,79.7960689 96.3212505,79.0176367 96.3212505,78.0423092 C96.3212505,77.0737344 95.594138,76.2885494 94.6838181,76.2885494 L24.4933223,76.2885494 C23.5889934,76.2885494 22.8558899,77.0669817 22.8558899,78.0423092 Z" id="Rectangle-62-copy" fill="#B9B0B0"></path>
                    <path d="M22.9869942,83.5283284 C22.9869942,84.4969032 23.7141066,85.2820882 24.6244265,85.2820882 L94.8149223,85.2820882 C95.7192513,85.2820882 96.4523547,84.5036559 96.4523547,83.5283284 C96.4523547,82.5597537 95.7252422,81.7745687 94.8149223,81.7745687 L24.6244265,81.7745687 C23.7200976,81.7745687 22.9869942,82.5530009 22.9869942,83.5283284 Z" id="Rectangle-62-copy-2" fill="#B9B0B0"></path>
                    <path d="M22.8558899,89.4417476 C22.8558899,90.4103223 23.5830024,91.1955073 24.4933223,91.1955073 L94.6838181,91.1955073 C95.588147,91.1955073 96.3212505,90.4170751 96.3212505,89.4417476 C96.3212505,88.4731728 95.594138,87.6879878 94.6838181,87.6879878 L24.4933223,87.6879878 C23.5889934,87.6879878 22.8558899,88.4664201 22.8558899,89.4417476 Z" id="Rectangle-62-copy-3" fill="#B9B0B0"></path>
                    <path d="M22.8558899,94.7030268 C22.8558899,95.6716016 23.5830024,96.4567866 24.4933223,96.4567866 L94.6838181,96.4567866 C95.588147,96.4567866 96.3212505,95.6783543 96.3212505,94.7030268 C96.3212505,93.7344521 95.594138,92.9492671 94.6838181,92.9492671 L24.4933223,92.9492671 C23.5889934,92.9492671 22.8558899,93.7276993 22.8558899,94.7030268 Z" id="Rectangle-62-copy-4" fill="#B9B0B0"></path>
                    <path d="M8.16281784,101.718066 C8.16281784,102.686641 8.89295995,103.471826 9.79968312,103.471826 L39.9935057,103.471826 C40.8975214,103.471826 41.630371,102.693393 41.630371,101.718066 C41.630371,100.749491 40.9002289,99.9643061 39.9935057,99.9643061 L9.79968312,99.9643061 C8.89566739,99.9643061 8.16281784,100.742738 8.16281784,101.718066 Z" id="Rectangle-62-copy-5" fill="#E94646"></path>
                    <path d="M8.16281784,106.979345 C8.16281784,107.94792 8.89495639,108.733105 9.79905145,108.733105 L44.8918281,108.733105 C45.7954949,108.733105 46.5280617,107.954673 46.5280617,106.979345 C46.5280617,106.01077 45.7959231,105.225585 44.8918281,105.225585 L9.79905145,105.225585 C8.89538458,105.225585 8.16281784,106.004018 8.16281784,106.979345 Z" id="Rectangle-62-copy-6" fill="#85A157"></path>
                    <path d="M8.16281784,113.117504 C8.16281784,114.086079 8.89738779,114.871264 9.78823429,114.871264 L29.3932913,114.871264 C30.2909841,114.871264 31.0187078,114.092832 31.0187078,113.117504 C31.0187078,112.14893 30.2841378,111.363745 29.3932913,111.363745 L9.78823429,111.363745 C8.89054157,111.363745 8.16281784,112.142177 8.16281784,113.117504 Z" id="Rectangle-62-copy-7" fill="#E94646"></path>
                    <path d="M23.6721717,118.378784 C23.6721717,119.347358 24.4081536,120.132543 25.3054407,120.132543 L40.8133837,120.132543 C41.7154133,120.132543 42.4466528,119.354111 42.4466528,118.378784 C42.4466528,117.410209 41.7106709,116.625024 40.8133837,116.625024 L25.3054407,116.625024 C24.4034112,116.625024 23.6721717,117.403456 23.6721717,118.378784 Z" id="Rectangle-62-copy-2" fill="#E94646"></path>
                    <path d="M32.6512714,124.516943 C32.6512714,125.485517 33.3890603,126.270702 34.2757971,126.270702 L98.7781337,126.270702 C99.6753345,126.270702 100.402659,125.49227 100.402659,124.516943 C100.402659,123.548368 99.6648704,122.763183 98.7781337,122.763183 L34.2757971,122.763183 C33.3785963,122.763183 32.6512714,123.541615 32.6512714,124.516943 Z" id="Rectangle-62-copy-3" fill="#E6DB72"></path>
                </g>
                <g id="lines" transform="translate(168.715686, 28.161761)" sketch:type="MSShapeGroup">
                    <path d="M0,1.75375976 C0,2.72233452 0.733297205,3.50751951 1.63854686,3.50751951 L20.4010613,3.50751951 C21.3060057,3.50751951 22.0396082,2.72908725 22.0396082,1.75375976 C22.0396082,0.785184988 21.306311,0 20.4010613,0 L1.63854686,0 C0.733602419,0 0,0.778432263 0,1.75375976 Z" id="Rectangle-62-copy" fill="#E94646"></path>
                    <path d="M0.162817838,7.01503903 C0.162817838,7.98361379 0.895085776,8.76879878 1.7925949,8.76879878 L67.9169924,8.76879878 C68.8170934,8.76879878 69.5467695,7.99036652 69.5467695,7.01503903 C69.5467695,6.04646426 68.8145015,5.26127927 67.9169924,5.26127927 L1.7925949,5.26127927 C0.892493881,5.26127927 0.162817838,6.03971153 0.162817838,7.01503903 Z" id="Rectangle-62-copy-2" fill="#85A157"></path>
                    <path d="M8.16281784,13.1531982 C8.16281784,14.1217729 8.89474534,14.9069579 9.79333432,14.9069579 L40.8161363,14.9069579 C41.7166457,14.9069579 42.4466528,14.1285257 42.4466528,13.1531982 C42.4466528,12.1846234 41.7147253,11.3994384 40.8161363,11.3994384 L9.79333432,11.3994384 C8.89282493,11.3994384 8.16281784,12.1778707 8.16281784,13.1531982 Z" id="Rectangle-62-copy-3" fill="#85A157"></path>
                    <path d="M0.162817838,19.2913573 C0.162817838,20.2599321 0.89343205,21.0451171 1.79337165,21.0451171 L80.1604424,21.0451171 C81.0609724,21.0451171 81.7909962,20.2666848 81.7909962,19.2913573 C81.7909962,18.3227826 81.060382,17.5375976 80.1604424,17.5375976 L1.79337165,17.5375976 C0.892841645,17.5375976 0.162817838,18.3160298 0.162817838,19.2913573 Z" id="Rectangle-62-copy-4" fill="#85A157"></path>
                    <path d="M8.16281784,25.4295165 C8.16281784,26.3980912 8.89089315,27.1832762 9.79531643,27.1832762 L34.2838999,27.1832762 C35.185504,27.1832762 35.9163985,26.404844 35.9163985,25.4295165 C35.9163985,24.4609417 35.1883232,23.6757567 34.2838999,23.6757567 L9.79531643,23.6757567 C8.89371235,23.6757567 8.16281784,24.454189 8.16281784,25.4295165 Z" id="Rectangle-62-copy-5" fill="#E94646"></path>
                    <path d="M23.6721717,30.6907957 C23.6721717,31.6593705 24.4066498,32.4445555 25.3066008,32.4445555 L62.409649,32.4445555 C63.3123192,32.4445555 64.044078,31.6661232 64.044078,30.6907957 C64.044078,29.722221 63.3096,28.937036 62.409649,28.937036 L25.3066008,28.937036 C24.4039305,28.937036 23.6721717,29.7154682 23.6721717,30.6907957 Z" id="Rectangle-62-copy-6" fill="#E6DB72"></path>
                    <path d="M23.6721717,36.8289549 C23.6721717,37.7975297 24.4067417,38.5827146 25.2975882,38.5827146 L62.3004975,38.5827146 C63.1981902,38.5827146 63.9259139,37.8042824 63.9259139,36.8289549 C63.9259139,35.8603801 63.191344,35.0751951 62.3004975,35.0751951 L25.2975882,35.0751951 C24.3998955,35.0751951 23.6721717,35.8536274 23.6721717,36.8289549 Z" id="Rectangle-62-copy" fill="#B26BC3"></path>
                    <path d="M23.6721717,42.967114 C23.6721717,43.9356888 24.4066498,44.7208738 25.3066008,44.7208738 L50.6733228,44.7208738 C51.575993,44.7208738 52.3077518,43.9424415 52.3077518,42.967114 C52.3077518,41.9985392 51.5732737,41.2133542 50.6733228,41.2133542 L25.3066008,41.2133543 C24.4039305,41.2133543 23.6721717,41.9917865 23.6721717,42.967114 Z" id="Rectangle-62-copy-2" fill="#85A157"></path>
                    <path d="M23.6721717,49.1052732 C23.6721717,50.0738479 24.4067417,50.8590329 25.2975882,50.8590329 L62.1129975,50.8590329 C63.0106902,50.8590329 63.7384139,50.0806007 63.7384139,49.1052732 C63.7384139,48.1366984 63.003844,47.3515134 62.1129975,47.3515134 L25.2975882,47.3515134 C24.3998955,47.3515134 23.6721717,48.1299457 23.6721717,49.1052732 Z" id="Rectangle-62-copy-3" fill="#B26BC3"></path>
                    <path d="M8.67217173,54.8590329 C8.67217173,55.8276077 9.40674168,56.6127927 10.2975882,56.6127927 L46.5504975,56.6127927 C47.4481902,56.6127927 48.1759139,55.8343604 48.1759139,54.8590329 C48.1759139,53.8904582 47.441344,53.1052732 46.5504975,53.1052732 L10.2975882,53.1052732 C9.39989547,53.1052732 8.67217173,53.8837054 8.67217173,54.8590329 Z" id="Rectangle-62-copy-4" fill="#B26BC3"></path>
                    <path d="M8.16281784,60.5047116 C8.16281784,61.4732864 8.89284937,62.2584713 9.79392339,62.2584713 L31.8364476,62.2584713 C32.7372823,62.2584713 33.4675531,61.4800391 33.4675531,60.5047116 C33.4675531,59.5361368 32.7375216,58.7509518 31.8364476,58.7509518 L9.79392339,58.7509518 C8.89308867,58.7509518 8.16281784,59.5293841 8.16281784,60.5047116 Z" id="Rectangle-62-copy-5" fill="#B26BC4"></path>
                    <path d="M8.16281784,65.7659909 C8.16281784,66.7345656 8.89898221,67.5197506 9.79771534,67.5197506 L37.5466281,67.5197506 C38.4495571,67.5197506 39.1815256,66.7413184 39.1815256,65.7659909 C39.1815256,64.7974161 38.4453613,64.0122311 37.5466281,64.0122311 L9.79771534,64.0122311 C8.89478638,64.0122311 8.16281784,64.7906634 8.16281784,65.7659909 Z" id="Rectangle-62-copy-6" fill="#E94646"></path>
                    <path d="M22.8558899,71.90415 C22.8558899,72.8727248 23.5830024,73.6579098 24.4933223,73.6579098 L61.8617262,73.6579098 C62.7660551,73.6579098 63.4991585,72.8794775 63.4991585,71.90415 C63.4991585,70.9355752 62.7720461,70.1503902 61.8617262,70.1503902 L24.4933223,70.1503903 C23.5889934,70.1503903 22.8558899,70.9288225 22.8558899,71.90415 Z" id="Rectangle-62-copy-7" fill="#B9B0B0"></path>
                    <path d="M22.8558899,78.0423092 C22.8558899,79.0108839 23.5830024,79.7960689 24.4933223,79.7960689 L62.3568433,79.7960689 C63.2611723,79.7960689 63.9942757,79.0176366 63.9942757,78.0423091 C63.9942757,77.0737344 63.2671632,76.2885494 62.3568433,76.2885494 L24.4933223,76.2885494 C23.5889934,76.2885494 22.8558899,77.0669817 22.8558899,78.0423092 Z" id="Rectangle-62-copy" fill="#B9B0B0"></path>
                    <path d="M22.9869942,83.5283284 C22.9869942,84.4969032 23.7141066,85.2820882 24.6244265,85.2820882 L55.7440511,85.2820882 C56.64838,85.2820882 57.3814834,84.5036559 57.3814834,83.5283284 C57.3814834,82.5597536 56.654371,81.7745687 55.7440511,81.7745687 L24.6244265,81.7745687 C23.7200976,81.7745687 22.9869942,82.5530009 22.9869942,83.5283284 Z" id="Rectangle-62-copy-2" fill="#B9B0B0"></path>
                    <path d="M8.85588995,89.4417476 C8.85588995,90.4103223 9.58300243,91.1955073 10.4933223,91.1955073 L80.6838181,91.1955073 C81.588147,91.1955073 82.3212505,90.4170751 82.3212505,89.4417476 C82.3212505,88.4731728 81.594138,87.6879878 80.6838181,87.6879878 L10.4933223,87.6879878 C9.58899339,87.6879878 8.85588995,88.4664201 8.85588995,89.4417476 Z" id="Rectangle-62-copy-3" fill="#B9B0B0"></path>
                    <path d="M8.79071865,95.247353 C8.79071865,96.2159278 9.51783113,97.0011128 10.428151,97.0011128 L80.6186468,97.0011128 C81.5229758,97.0011128 82.2560792,96.2226805 82.2560792,95.247353 C82.2560792,94.2787782 81.5289667,93.4935933 80.6186468,93.4935933 L10.428151,93.4935933 C9.5238221,93.4935933 8.79071865,94.2720255 8.79071865,95.247353 Z" id="Rectangle-62-copy-4" fill="#B9B0B0"></path>
                    <path d="M8.16281784,101.718066 C8.16281784,102.686641 8.89295995,103.471826 9.79968312,103.471826 L39.9935057,103.471826 C40.8975214,103.471826 41.630371,102.693393 41.630371,101.718066 C41.630371,100.749491 40.9002289,99.9643061 39.9935057,99.9643061 L9.79968312,99.9643061 C8.89566739,99.9643061 8.16281784,100.742738 8.16281784,101.718066 Z" id="Rectangle-62-copy-5" fill="#E94646"></path>
                    <path d="M8.16281784,106.979345 C8.16281784,107.94792 8.89495639,108.733105 9.79905145,108.733105 L44.8918281,108.733105 C45.7954949,108.733105 46.5280617,107.954673 46.5280617,106.979345 C46.5280617,106.01077 45.7959231,105.225585 44.8918281,105.225585 L9.79905145,105.225585 C8.89538458,105.225585 8.16281784,106.004018 8.16281784,106.979345 Z" id="Rectangle-62-copy-6" fill="#85A157"></path>
                    <path d="M23.1628178,113.117504 C23.1628178,114.086079 23.8973878,114.871264 24.7882343,114.871264 L44.3932913,114.871264 C45.2909841,114.871264 46.0187078,114.092832 46.0187078,113.117504 C46.0187078,112.14893 45.2841378,111.363745 44.3932913,111.363745 L24.7882343,111.363745 C23.8905416,111.363745 23.1628178,112.142177 23.1628178,113.117504 Z" id="Rectangle-62-copy-7" fill="#E6DB72"></path>
                    <path d="M23.6721717,118.378784 C23.6721717,119.347358 24.4081536,120.132543 25.3054407,120.132543 L43.6280961,120.132543 C44.5301256,120.132543 45.2613651,119.354111 45.2613651,118.378784 C45.2613651,117.410209 44.5253832,116.625024 43.6280961,116.625024 L25.3054407,116.625024 C24.4034112,116.625024 23.6721717,117.403456 23.6721717,118.378784 Z" id="Rectangle-62-copy-2" fill="#E6DB72"></path>
                    <path d="M8.65127135,124.516943 C8.65127135,125.485517 9.38906034,126.270702 10.2757971,126.270702 L44.5152558,126.270702 C45.4124566,126.270702 46.1397815,125.49227 46.1397815,124.516943 C46.1397815,123.548368 45.4019925,122.763183 44.5152558,122.763183 L10.2757971,122.763183 C9.37859628,122.763183 8.65127135,123.541615 8.65127135,124.516943 Z" id="Rectangle-62-copy-3" fill="#E6DB72"></path>
                </g>
                <path d="M194.554848,4.7301011 C194.314077,4.49029456 193.923749,4.49029456 193.683389,4.7301011 L192.857537,5.55223652 L191.859119,4.55781688 L191.859119,7.41421569 L194.726592,7.41421569 L193.728996,6.4206145 L194.554848,5.59806985 C194.795207,5.35908176 194.795207,4.96990765 194.554848,4.7301011 L194.554848,4.7301011 Z M194.756585,1.68504902 L195.749662,2.67865021 L194.927919,3.50119485 C194.688381,3.74059217 194.688381,4.12935706 194.927919,4.3691636 C195.167868,4.60897015 195.556141,4.60897015 195.79568,4.3691636 L196.617423,3.54702819 L197.611321,4.54144783 L197.611321,1.68504902 L194.756585,1.68504902 L194.756585,1.68504902 Z" id="full-screen" fill="#B0B0B0" sketch:type="MSShapeGroup"></path>
                <text id="line-number" fill="#777575" sketch:type="MSTextLayer" font-family="Courier" font-size="3.60912437" font-weight="bold" sketch:alignment="right" line-spacing="6.084">
                    <tspan x="44.4134439" y="28.5526366"> 1</tspan>
                    <tspan x="44.4134439" y="34.6366366"> 2</tspan>
                    <tspan x="44.4134439" y="40.7206366"> 3</tspan>
                    <tspan x="44.4134439" y="46.8046366"> 4</tspan>
                    <tspan x="44.4134439" y="52.8886366"> 5</tspan>
                    <tspan x="44.4134439" y="58.9726366"> 6</tspan>
                    <tspan x="44.4134439" y="65.0566366"> 7 </tspan>
                    <tspan x="44.4134439" y="71.1406366"> 8</tspan>
                    <tspan x="44.4134439" y="77.2246366"> 9</tspan>
                    <tspan x="44.4134439" y="83.3086366">10</tspan>
                    <tspan x="44.4134439" y="89.3926366">11</tspan>
                    <tspan x="44.4134439" y="95.4766366">12</tspan>
                    <tspan x="44.4134439" y="101.560637">13</tspan>
                    <tspan x="44.4134439" y="107.644637">14</tspan>
                    <tspan x="44.4134439" y="113.728637">15</tspan>
                    <tspan x="44.4134439" y="119.812637">16</tspan>
                    <tspan x="44.4134439" y="125.896637">17</tspan>
                    <tspan x="44.4134439" y="131.980637">18</tspan>
                    <tspan x="44.4134439" y="138.064637">19</tspan>
                    <tspan x="44.4134439" y="144.148637">20</tspan>
                    <tspan x="44.4134439" y="150.232637">21</tspan>
                    <tspan x="48.745098" y="156.316637"></tspan>
                    <tspan x="48.745098" y="162.400637"></tspan>
                </text>
                <rect id="Rectangle-51" fill-opacity="0.387321921" fill="#0F0F0F" sketch:type="MSShapeGroup" x="160" y="22" width="1" height="135"></rect>
            </g>
        </g>
    </g>
</svg>