<?xml version="1.0" encoding="UTF-8" standalone="no"?>
<svg width="105px" height="105px" viewBox="0 0 105 105" version="1.1" xmlns="http://www.w3.org/2000/svg" xmlns:xlink="http://www.w3.org/1999/xlink" xmlns:sketch="http://www.bohemiancoding.com/sketch/ns">
    <title>icon-skill-databases</title>
    <description>Created with Sketch (http://www.bohemiancoding.com/sketch)</description>
    <defs></defs>
    <g id="Page-1" stroke="none" stroke-width="1" fill="none" fill-rule="evenodd" sketch:type="MSPage">
        <g id="Artboard-5" sketch:type="MSArtboardGroup" transform="translate(-276.000000, -15.000000)">
            <g id="skills" sketch:type="MSLayerGroup" transform="translate(18.000000, 17.000000)">
                <g id="databases" transform="translate(260.000000, 0.000000)" sketch:type="MSShapeGroup">
                    <path d="M50.5,101 C78.3903812,101 101,78.3903812 101,50.5 C101,22.6096188 78.3903812,0 50.5,0 C22.6096188,0 0,22.6096188 0,50.5 C0,78.3903812 22.6096188,101 50.5,101 Z" id="bg" stroke="#253136" stroke-width="4"></path>
                    <path d="M73,26.7365591 C72.993709,26.6206648 73,26.5041609 73,26.3870968 C73,21.7550309 63.1502651,18 51,18 C38.8497349,18 29,21.7550309 29,26.3870968 C29,26.5041609 29.006291,26.6206648 29.0187509,26.7365591 L29,74.6129032 C29,79.2449691 38.8497349,83 51,83 C63.1502651,83 73,79.2449691 73,74.6129032 L73,26.7365591 Z M30.7741935,37.0560674 C30.7741935,41.6788164 39.8555372,45.0937018 51,45.0937018 C62.1444628,45.0937018 71.2258065,41.6788164 71.2258065,37.0560674 L71.2258065,31.9095347 L69.8064516,33.5407068 L69.8064516,37.0560674 C69.8064516,40.5394337 61.4124592,43.6958523 51,43.6958523 C40.5875408,43.6958523 32.1935484,40.5394337 32.1935484,37.0560674 L32.1935484,33.5407068 L30.7741935,31.7797465 L30.7741935,37.0560674 Z M30.7741935,45.7816972 C30.7741935,50.4044462 39.8555372,53.8193316 51,53.8193316 C62.1444628,53.8193316 71.2258065,50.4044462 71.2258065,45.7816972 L71.2258065,40.6351646 L69.8064516,42.2663366 L69.8064516,45.7816972 C69.8064516,49.2650635 61.4124592,52.4214822 51,52.4214822 C40.5875408,52.4214822 32.1935484,49.2650635 32.1935484,45.7816972 L32.1935484,42.2663366 L30.7741935,40.5053763 L30.7741935,45.7816972 Z M30.7741935,54.5182564 C30.7741935,59.1410053 39.8555372,62.5558908 51,62.5558908 C62.1444628,62.5558908 71.2258065,59.1410053 71.2258065,54.5182564 L71.2258065,49.3717237 L69.8064516,51.0028958 L69.8064516,54.5182564 C69.8064516,58.0016227 61.4124592,61.1580413 51,61.1580413 C40.5875408,61.1580413 32.1935484,58.0016227 32.1935484,54.5182564 L32.1935484,51.0028958 L30.7741935,49.2419355 L30.7741935,54.5182564 Z M30.7741935,63.2548155 C30.7741935,67.8775645 39.8555372,71.2924499 51,71.2924499 C62.1444628,71.2924499 71.2258065,67.8775645 71.2258065,63.2548155 L71.2258065,58.1082828 L69.8064516,59.7394549 L69.8064516,63.2548155 C69.8064516,66.7381818 61.4124592,69.8946005 51,69.8946005 C40.5875408,69.8946005 32.1935484,66.7381818 32.1935484,63.2548155 L32.1935484,59.7394549 L30.7741935,57.9784946 L30.7741935,63.2548155 Z M30.7741935,71.9913747 C30.7741935,76.6141236 39.8555372,80.0290091 51,80.0290091 C62.1444628,80.0290091 71.2258065,76.6141236 71.2258065,71.9913747 L71.2258065,66.844842 L69.8064516,68.4760141 L69.8064516,71.9913747 C69.8064516,75.474741 61.4124592,78.6311596 51,78.6311596 C40.5875408,78.6311596 32.1935484,75.474741 32.1935484,71.9913747 L32.1935484,68.4760141 L30.7741935,66.7150538 L30.7741935,71.9913747 Z M71.2258065,29.1827957 C71.2258065,24.5600467 62.1444628,21.1451613 51,21.1451613 C39.8555372,21.1451613 30.7741935,24.5600467 30.7741935,29.1827957 C30.7741935,33.8055447 39.8555372,37.2204301 51,37.2204301 C62.1444628,37.2204301 71.2258065,33.8055447 71.2258065,29.1827957 Z M32.1935484,29.1827957 C32.1935484,25.6994294 40.5875408,22.5430108 51,22.5430108 C61.4124592,22.5430108 69.8064516,25.6994294 69.8064516,29.1827957 C69.8064516,32.666162 61.4124592,35.8225806 51,35.8225806 C40.5875408,35.8225806 32.1935484,32.666162 32.1935484,29.1827957 Z" id="Oval-1" fill="#253136"></path>
                </g>
            </g>
        </g>
    </g>
</svg>