<?xml version="1.0" encoding="UTF-8" standalone="no"?>
<svg width="46px" height="46px" viewBox="0 0 46 46" version="1.1" xmlns="http://www.w3.org/2000/svg" xmlns:xlink="http://www.w3.org/1999/xlink" xmlns:sketch="http://www.bohemiancoding.com/sketch/ns">
    <title>icon-social-dribble-gray</title>
    <description>Created with Sketch (http://www.bohemiancoding.com/sketch)</description>
    <defs></defs>
    <g id="Page-1" stroke="none" stroke-width="1" fill="none" fill-rule="evenodd" sketch:type="MSPage">
        <g id="Artboard-6" sketch:type="MSArtboardGroup" transform="translate(-224.000000, -9.000000)">
            <g id="gray" sketch:type="MSLayerGroup" transform="translate(24.000000, 10.000000)">
                <path d="M244.948718,21.647945 C244.948718,33.6038253 235.300034,43.296 223.397436,43.296 C211.494947,43.296 201.846154,33.6038253 201.846154,21.647945 C201.846154,9.6922846 211.494947,0 223.397436,0 C235.300034,0 244.948718,9.6922846 244.948718,21.647945" id="bg" stroke="#C5C5C5" stroke-width="2.02752" sketch:type="MSShapeGroup"></path>
                <path d="M223.448137,8.448 C216.1904,8.44861098 210.307692,14.358083 210.307692,21.6485832 C210.307692,28.937917 216.1904,34.848 223.448137,34.848 C230.70593,34.848 236.589246,28.937917 236.589744,21.6485832 C236.589246,14.358083 230.70593,8.44861098 223.448137,8.448 C223.448137,8.448 230.70593,8.44861098 223.448137,8.448 L223.448137,8.448 L223.448137,8.448 Z M232.075819,14.784 C233.431372,16.5483685 234.379797,18.7335866 234.487179,21.12 C232.91733,20.7788612 231.379882,20.6126669 230.151654,20.6126669 L230.151654,20.6151841 L229.94385,20.6151841 C228.831544,20.6151841 227.786498,20.7171901 226.80263,20.8960303 C226.563126,20.2952616 226.321165,19.7175072 226.076923,19.1651044 C228.268665,18.1798054 230.372209,16.776114 232.075819,14.784 C232.075819,14.784 230.372209,16.776114 232.075819,14.784 L232.075819,14.784 L232.075819,14.784 Z M222.958219,11.616 C225.331543,11.616 227.507823,12.5316997 229.230769,14.0559496 C227.912437,15.7985397 226.171532,17.0607333 224.291254,17.952 C222.969883,15.1317216 221.692945,13.1141999 220.820513,11.8808708 C221.511796,11.7119955 222.224618,11.616 222.958219,11.616 C222.958219,11.616 222.224618,11.616 222.958219,11.616 L222.958219,11.616 L222.958219,11.616 Z M219.109734,12.672 C219.851214,13.4801552 221.336826,15.2576607 222.923077,18.0331191 C219.697085,18.9189478 216.448555,19.0084238 214.482976,19.0079985 C214.427065,19.0079985 214.371212,18.8890161 214.317146,18.8890161 L214.314782,18.8890161 C213.984217,18.8890161 213.699476,19.002682 213.461538,18.9958238 C214.228553,16.1659249 216.330855,13.9403481 219.109734,12.672 C219.109734,12.672 216.330855,13.9403481 219.109734,12.672 L219.109734,12.672 L219.109734,12.672 Z M213.461538,21.5707123 C213.461538,21.5201687 213.463121,21.5020218 213.465705,21.4487445 C213.744842,21.4600281 214.102716,21.5038249 214.533683,21.5038249 L214.536373,21.5038249 C216.501726,21.5038249 219.933802,21.2748953 223.411391,20.064 C223.601191,20.520754 223.788197,20.9801834 223.974359,21.4745689 C221.652187,22.3312516 219.82258,23.6874962 218.469821,25.0467653 C217.167637,26.3552581 216.287508,27.6465929 215.773374,28.512 C214.334601,26.6331609 213.462066,24.2146855 213.461538,21.5707123 C213.461538,21.5707123 213.462066,24.2146855 213.461538,21.5707123 L213.461538,21.5707123 L213.461538,21.5707123 Z M223.588927,31.68 C221.370539,31.68 219.32551,30.9001653 217.666667,29.5914305 C218.019406,28.9740089 218.775269,27.7895699 219.978777,26.565242 C221.217291,25.3035396 222.927325,24.0050342 225.159693,23.232 C225.918513,25.4925263 226.605064,28.077079 227.128205,30.9861151 C226.026593,31.4319227 224.835936,31.68 223.588927,31.68 L223.588927,31.68 L223.588927,31.68 L223.588927,31.68 Z M229.067099,30.624 C228.534164,27.9578534 227.863901,25.5441391 227.128205,23.3990142 C227.810874,23.2986551 228.526629,23.232 229.282607,23.232 L229.313199,23.232 C230.566138,23.232 231.942807,23.4013306 233.435897,23.7482731 C232.919335,26.5873987 231.310559,29.0424033 229.067099,30.624 L229.067099,30.624 Z" id="Fill-10" fill="#C5C5C5" sketch:type="MSShapeGroup"></path>
            </g>
        </g>
    </g>
</svg>