<?xml version="1.0" encoding="UTF-8" standalone="no"?>
<svg width="35px" height="35px" viewBox="0 0 35 35" version="1.1" xmlns="http://www.w3.org/2000/svg" xmlns:xlink="http://www.w3.org/1999/xlink" xmlns:sketch="http://www.bohemiancoding.com/sketch/ns">
    <title>icon-social-twitter-color</title>
    <description>Created with Sketch (http://www.bohemiancoding.com/sketch)</description>
    <defs></defs>
    <g id="Page-1" stroke="none" stroke-width="1" fill="none" fill-rule="evenodd" sketch:type="MSPage">
        <g id="Artboard-3" sketch:type="MSArtboardGroup" transform="translate(-41.000000, -44.000000)">
            <g id="social" sketch:type="MSLayerGroup" transform="translate(4.000000, 5.000000)">
                <g id="color" transform="translate(0.000000, 40.000000)" sketch:type="MSShapeGroup">
                    <path d="M71.1239316,16.3999584 C71.1239316,25.4574434 63.7893953,32.8 54.7414322,32.8 C45.6935938,32.8 38.3589744,25.4574434 38.3589744,16.3999584 C38.3589744,7.34263985 45.6935938,0 54.7414322,0 C63.7893953,0 71.1239316,7.34263985 71.1239316,16.3999584" id="bg" stroke="#49CCFF" stroke-width="1.536"></path>
                    <path d="M65.4323929,14.1277631 C64.9787651,14.4024808 63.5716015,14.7015785 62.7946388,14.4164181 C62.7563639,14.2365072 62.7139614,14.0655179 62.6722677,13.9111383 C62.0798831,11.766885 60.0524835,10.0395186 57.928021,10.2480853 C58.099966,10.1795086 58.2742458,10.1157833 58.4481086,10.0586361 C58.6816352,9.97603994 60.0538594,9.75583823 59.8378859,9.27847414 C59.6552256,8.8584217 57.9793877,9.59582609 57.6638495,9.69240073 C58.080495,9.53789774 58.7695673,9.27218384 58.8433235,8.8 C58.2047423,8.88633749 57.5782939,9.18403737 57.0941463,9.61662931 C57.2690932,9.43108593 57.4014708,9.20521062 57.4296975,8.96165667 C55.7267169,10.0340505 54.7322796,12.1961468 53.9277156,14.2937778 C53.2955552,13.6897854 52.7356501,13.2142303 52.2328653,12.9499553 C50.8233252,12.2044928 49.1377726,11.4268798 46.4918048,10.4581732 C46.4107522,11.3215892 46.9249611,12.4694255 48.4060893,13.2325256 C48.0850058,13.190138 47.4984584,13.2847803 47.0289035,13.3956212 C47.2201944,14.3846377 47.8441828,15.1993758 49.5349888,15.5932392 C48.7623206,15.6434794 48.3632698,15.8168122 48.001535,16.1902835 C48.3530965,16.8778588 49.2116539,17.6875811 50.7557397,17.5212376 C49.039292,18.2509127 50.0560771,19.6027522 51.4531508,19.4009281 C49.0698952,21.8285327 45.3119139,21.6503897 43.1538462,19.6198553 C48.7882124,27.190173 61.0353716,24.0969474 62.8600562,16.8051298 C64.227444,16.8166003 65.0317995,16.338044 65.5299145,15.810563 C64.7422782,15.942536 63.600662,15.8062873 62.9952273,15.5577997 C64.2518765,15.4555104 65.1040547,14.892261 65.4323929,14.1277631 Z" id="Fill-2" fill="#49CCFF"></path>
                </g>
            </g>
        </g>
    </g>
</svg>