<?xml version="1.0" encoding="UTF-8" standalone="no"?>
<svg width="33px" height="28px" viewBox="0 0 33 28" version="1.1" xmlns="http://www.w3.org/2000/svg" xmlns:xlink="http://www.w3.org/1999/xlink" xmlns:sketch="http://www.bohemiancoding.com/sketch/ns">
    <title>icon-arrow-left-charcoal</title>
    <description>Created with Sketch (http://www.bohemiancoding.com/sketch)</description>
    <defs></defs>
    <g id="Page-1" stroke="none" stroke-width="1" fill="none" fill-rule="evenodd" sketch:type="MSPage">
        <g id="Artboard-7" sketch:type="MSArtboardGroup" transform="translate(-195.000000, -33.000000)" fill="#3B474C">
            <path d="M195.456853,48.5619118 C195.520456,48.6596055 195.555782,48.7104733 195.596859,48.7631006 C195.635139,48.81456 195.677345,48.8641325 195.744848,48.9391315 C195.783477,48.9860251 195.783477,48.9860251 195.817731,49.0237958 L206.780003,60.156084 C207.31899,60.7033018 208.041131,61.0000604 208.790593,61.0000604 C209.540928,61.0000604 210.26327,60.7023629 210.803111,60.1532885 C211.908651,59.0318811 211.908034,57.214993 210.802954,56.0920234 L204.681711,49.8765469 L225.158854,49.8765465 C225.924426,49.8765465 226.64231,49.5679821 227.170591,49.0305864 C227.697784,48.4953441 228.000029,47.7707907 228.000029,47.0004794 C228.000029,46.4203473 227.829533,45.864551 227.515653,45.3938317 C226.992899,44.6065893 226.116646,44.1235742 225.158873,44.1235742 L204.681711,44.1195596 L210.801949,37.9066032 C211.907596,36.786101 211.907596,34.967168 210.801811,33.8455118 C209.693423,32.7181627 207.891597,32.7181627 206.780201,33.8455121 L195.824641,44.9692 C195.778948,45.0187505 195.778948,45.0187505 195.755758,45.0477944 C195.684845,45.126546 195.636444,45.1828044 195.58932,45.2452941 C195.566249,45.273792 195.543259,45.3064386 195.506041,45.3620915 C195.434977,45.4678871 195.395377,45.5313429 195.359435,45.5974214 C195.332086,45.6475793 195.309739,45.6925545 195.276118,45.7632626 C195.247328,45.8173502 195.215,45.8865386 195.178403,45.9905744 C195.15941,46.0428421 195.141126,46.1005387 195.122838,46.1649783 C195.096412,46.2481292 195.077897,46.3139226 195.06225,46.3893828 C195.052718,46.4332001 195.046113,46.4728206 195.036266,46.5391251 C195.018045,46.6594577 195.00966,46.7275617 195.004949,46.8021873 C195.001719,46.852859 195.001719,46.852859 195.000793,46.9034388 C194.999255,47.0899861 194.999769,47.1430337 195.0055,47.215761 C195.011253,47.2733028 195.011253,47.2733028 195.016756,47.3178099 C195.024535,47.3781477 195.029128,47.4124603 195.029128,47.4124603 C195.048022,47.5351143 195.054594,47.5738059 195.065875,47.6253459 C195.079131,47.6813396 195.079131,47.6813396 195.091826,47.7280747 C195.104216,47.7719748 195.104216,47.7719748 195.115455,47.8105219 C195.141605,47.8998261 195.16385,47.9687396 195.202368,48.0764811 C195.237297,48.1588432 195.237297,48.1588432 195.255754,48.1934207 C195.312299,48.3117382 195.335961,48.3592564 195.36426,48.4105069 C195.391846,48.4601235 195.417127,48.5008517 195.456853,48.5619118 Z" id="arrow" sketch:type="MSShapeGroup"></path>
        </g>
    </g>
</svg>