<?xml version="1.0" encoding="UTF-8" standalone="no"?>
<svg width="35px" height="35px" viewBox="0 0 35 35" version="1.1" xmlns="http://www.w3.org/2000/svg" xmlns:xlink="http://www.w3.org/1999/xlink" xmlns:sketch="http://www.bohemiancoding.com/sketch/ns">
    <title>icon-social-strava</title>
    <description>Created with Sketch (http://www.bohemiancoding.com/sketch)</description>
    <defs></defs>
    <g id="Page-1" stroke="none" stroke-width="1" fill="none" fill-rule="evenodd" sketch:type="MSPage">
        <g id="Artboard-3" sketch:type="MSArtboardGroup" transform="translate(-3.000000, -4.000000)">
            <g id="social" sketch:type="MSLayerGroup" transform="translate(4.000000, 5.000000)">
                <g id="white" sketch:type="MSShapeGroup">
                    <path d="M32.7649573,16.3999584 C32.7649573,25.4574434 25.430421,32.8 16.3824578,32.8 C7.3345779,32.8 0,25.4574434 0,16.3999584 C0,7.34263985 7.3345779,0 16.3824578,0 C25.430421,0 32.7649573,7.34263985 32.7649573,16.3999584" id="bg" stroke="#FFFFFF" stroke-width="1.536"></path>
                    <g id="strava" transform="translate(7.991453, 4.800000)" fill="#FFFFFF">
                        <path d="M10.0272025,13.4511596 C9.37962802,12.0674101 8.58775059,10.7516939 7.87955297,9.39665917 C7.65405474,8.96509374 7.41494115,8.54009705 7.1822874,8.11247286 C6.99256677,8.14419043 6.98610693,8.29048538 6.93283806,8.39014237 C6.09107076,9.96391575 5.24671952,11.5363754 4.42313917,13.1186881 C4.277743,13.3981406 4.10710375,13.4937625 3.77914246,13.4888828 C2.62114098,13.4718042 1.46244382,13.4816572 0.304243566,13.4944193 C-0.00622645119,13.4978914 -0.073110677,13.4333302 0.0763601635,13.1537839 C2.39305881,8.82264619 4.70180688,4.48756726 7.01333765,0.153989751 C7.03361162,0.116172646 7.06591084,0.0839858788 7.13021113,0 C9.55950981,4.50436443 11.9721123,8.97766817 14.3846154,13.4508781 C14.3615587,13.471335 14.3384027,13.4917919 14.3155448,13.5125303 C14.1656764,13.5921996 13.9999069,13.5954839 13.8355287,13.5962346 C12.7490824,13.6013958 11.6627355,13.6010204 10.5762892,13.5965161 C10.4117122,13.5958593 10.2463403,13.5912612 10.0957762,13.5133748 C10.0728189,13.4929179 10.049961,13.4719918 10.0272025,13.4511596 L10.0272025,13.4511596 Z" id="Shape"></path>
                        <path d="M14.5067628,13.6051641 C15.4275309,13.6084769 16.3483961,13.6172461 17.2691642,13.6115949 C17.5356257,13.609841 17.673032,13.6312769 17.5127085,13.9500867 C15.8469358,17.26261 14.1892231,20.5794204 12.5276261,23.8942822 C12.5069423,23.9354001 12.4643123,23.9654103 12.4325584,24 C12.3003958,23.9316001 12.2696129,23.7964567 12.212514,23.6843082 C10.5898569,20.495236 8.96914189,17.3049945 7.34920375,14.1144608 C7.10507688,13.6336153 7.10769877,13.633323 7.63256183,13.6290359 C8.50467935,13.6220205 9.37669976,13.6134461 10.2489144,13.6055538 L10.240369,13.6005846 C10.4486634,13.7215998 10.5428571,13.9290405 10.6388959,14.1339479 C11.2009509,15.3329923 11.8927408,16.464806 12.4513,17.7037016 C12.449455,17.7290349 12.5342293,17.6498197 12.4736346,17.6728145 C12.4478042,17.6826555 12.444017,17.6695017 12.4434343,17.6338402 C12.4427546,17.5851223 12.438579,17.5343583 12.4599425,17.4917789 C13.0970612,16.2222884 13.6588249,14.9133365 14.4172302,13.7070819 C14.442478,13.6670358 14.4834572,13.6367333 14.515114,13.6 L14.5067628,13.6051641 L14.5067628,13.6051641 Z" id="Shape"></path>
                    </g>
                </g>
            </g>
        </g>
    </g>
</svg>