<?xml version="1.0" encoding="UTF-8" standalone="no"?>
<svg width="105px" height="105px" viewBox="0 0 105 105" version="1.1" xmlns="http://www.w3.org/2000/svg" xmlns:xlink="http://www.w3.org/1999/xlink" xmlns:sketch="http://www.bohemiancoding.com/sketch/ns">
    <title>icon-skill-back-end</title>
    <description>Created with Sketch (http://www.bohemiancoding.com/sketch)</description>
    <defs></defs>
    <g id="Page-1" stroke="none" stroke-width="1" fill="none" fill-rule="evenodd" sketch:type="MSPage">
        <g id="Artboard-5" sketch:type="MSArtboardGroup" transform="translate(-146.000000, -15.000000)">
            <g id="skills" sketch:type="MSLayerGroup" transform="translate(18.000000, 17.000000)">
                <g id="back-end" transform="translate(130.000000, 0.000000)" sketch:type="MSShapeGroup">
                    <path d="M50.5,101 C78.3903812,101 101,78.3903812 101,50.5 C101,22.6096188 78.3903812,0 50.5,0 C22.6096188,0 0,22.6096188 0,50.5 C0,78.3903812 22.6096188,101 50.5,101 Z" id="bg" stroke="#253136" stroke-width="4"></path>
                    <path d="M19.927656,43.0793416 C19.5187669,44.3667227 19.3484158,45.7215675 19.4267351,47.0716649 L19.4267351,47.0716648 L16.9552101,47.733908 L18.0767754,51.9196468 L20.5262455,51.2633133 C20.8302445,51.8836385 21.1972317,52.4842236 21.6284192,53.0564288 C22.0562406,53.6241669 22.528339,54.1388523 23.0362758,54.5992972 L21.7460182,56.834089 L25.4988489,59.0007869 L26.7595432,56.8172003 L26.7595432,56.8172003 C28.1396502,57.3032716 29.6056577,57.5111282 31.0661264,57.4278987 L31.0661264,57.4278987 L31.7291945,59.9025024 L35.9149333,58.780937 L35.2587407,56.3319928 C35.880563,56.027762 36.4825413,55.6602049 37.0559693,55.2280959 C37.6229294,54.8008609 38.1369231,54.3294033 38.5967697,53.8221388 L40.8261977,55.1092997 L42.9928956,51.3564689 L40.8139338,50.0984447 L40.8139338,50.0984447 C41.3002348,48.7161067 41.507396,47.2474429 41.4225222,45.7843543 L41.4225222,45.7843543 L43.8940472,45.1221112 L42.7724819,40.9363724 L40.3230118,41.5927059 C40.0190127,40.9723807 39.6520256,40.3717956 39.220838,39.7995904 C38.7930167,39.2318523 38.3209183,38.7171669 37.8129815,38.256722 L39.1032391,36.0219302 L35.3504083,33.8552323 L34.089714,36.0388189 L34.089714,36.0388189 C32.7096071,35.5527476 31.2435996,35.344891 29.7831309,35.4281205 L29.7831309,35.4281205 L29.1200628,32.9535168 L24.934324,34.0750822 L25.5905166,36.5240264 C24.9686943,36.8282572 24.3667159,37.1958143 23.793288,37.6279233 C23.1325148,38.1258515 22.5436865,38.6838478 22.0286724,39.2885897 L19.7346592,37.9641405 L17.5679614,41.7169713 L19.927656,43.0793416 Z M37.8625021,61.9700288 C36.8801089,63.4441765 36.1923364,65.1012769 35.843415,66.8419277 L35.8434151,66.8419277 L32.6796794,66.7867045 L32.5851441,72.2026241 L35.8667503,72.2599048 C36.0138412,72.9609991 36.2185852,73.6595866 36.483561,74.349872 C36.8299214,75.2521717 37.2622526,76.0961508 37.767614,76.8760443 L35.2695092,79.288436 L39.0322962,83.1849161 L41.5674255,80.7367702 L41.5674255,80.7367702 C42.9437074,81.6613843 44.4807826,82.3283354 46.0972312,82.7013514 L46.0972312,82.7013514 L46.0378275,82.7003145 L45.9747763,86.312519 L51.3906959,86.4070542 L51.4528582,82.8457817 C52.3009307,82.6971457 53.1470841,82.4650352 53.981086,82.1448919 C54.740659,81.8533191 55.4588617,81.5007365 56.1322537,81.0948756 L58.342489,83.3836413 L62.238969,79.6208543 L60.1144861,77.4208878 L60.1144861,77.4208878 C61.1507609,75.9797924 61.896027,74.3464471 62.3059612,72.6204624 L62.3059612,72.6204624 L65.3645579,72.6738504 L65.4590931,67.2579308 L62.4754882,67.2058518 C62.3269092,66.3465252 62.0927885,65.489008 61.7683949,64.6439336 C61.4462794,63.8047941 61.0498076,63.0160961 60.5893883,62.2824769 L62.774728,60.1721189 L59.011941,56.2756389 L56.8460332,58.3672317 L56.8460332,58.3672317 C55.3897343,57.3581333 53.7463654,56.6413303 52.0151237,56.2610141 L52.0151237,56.2610141 L52.069461,53.1480359 L46.6535413,53.0535007 L46.5988865,56.1846744 C45.8179013,56.3337435 45.0392285,56.5539685 44.2708698,56.8489138 C43.3549835,57.2004896 42.4992468,57.6407697 41.7096911,58.1561994 L39.7017482,56.0769136 L35.8052682,59.8397007 L37.8625021,61.9700288 L37.8625021,61.9700288 Z M53.4230476,26.5139967 C51.9626114,27.544287 50.6992083,28.8354158 49.7005455,30.3196459 L49.7005455,30.3196459 L46.7046176,29.1092124 L44.4049162,34.8011731 L47.4222994,36.020275 C47.2869916,36.8199678 47.2165371,37.6417271 47.2165371,38.4799492 C47.2165371,39.5453704 47.330361,40.5841948 47.5465067,41.5849154 L44.3686934,42.9338172 L46.7673829,48.5847755 L50.080497,47.1784421 L50.080497,47.1784421 C51.1302219,48.5966801 52.4301485,49.8183805 53.9150182,50.7782559 L53.9150182,50.7782559 L52.4735574,54.3459966 L58.165518,56.645698 L59.6542159,52.9610414 L59.6066293,52.9418152 C60.3353436,53.053615 61.0817763,53.1116058 61.8417476,53.1116058 C62.8563433,53.1116058 63.8468087,53.0082462 64.8031974,52.8114776 L66.2927507,56.3206453 L71.943709,53.9219558 L70.4198101,50.3318749 L70.4198101,50.3318749 C71.8982171,49.259046 73.1680562,47.9161224 74.1569564,46.375507 L74.1569564,46.375507 L74.0164537,46.7232636 L77.7011103,48.2119615 L80.0008116,42.5200009 L76.316155,41.031303 L76.1840647,41.358238 C76.3696288,40.4276168 76.4669582,39.4651543 76.4669582,38.4799492 C76.4669582,37.5819506 76.3860966,36.7028465 76.2312606,35.8495272 L79.6759181,34.3873568 L77.2772286,28.7363984 L73.8852108,30.1762246 L73.8852108,30.1762246 C72.9071822,28.759167 71.685727,27.5231773 70.2812912,26.5287282 L70.2812912,26.5287282 L71.5710542,23.3364528 L65.8790935,21.0367514 L64.6354282,24.1149312 C63.7311342,23.9399417 62.7971391,23.8482927 61.8417476,23.8482927 C60.8947461,23.8482927 59.9687668,23.9383391 59.0718977,24.1103403 L57.7518609,21.0005286 L52.1009025,23.3992181 L53.4230476,26.5139967 L53.4230476,26.5139967 Z M62.0223058,46.2473719 C66.2105256,46.2473719 69.6057483,42.8506528 69.6057483,38.660587 C69.6057483,34.4705212 66.2105256,31.0738021 62.0223058,31.0738021 C57.8340859,31.0738021 54.4388633,34.4705212 54.4388633,38.660587 C54.4388633,42.8506528 57.8340859,46.2473719 62.0223058,46.2473719 Z M51.6506341,76.0738571 C55.2813856,74.6801422 57.0943639,70.6057106 55.7000347,66.9733589 C54.3057055,63.3410071 50.2320732,61.5262336 46.6013217,62.9199485 C42.9705702,64.3136634 41.1575919,68.3880951 42.5519211,72.0204468 C43.9462503,75.6527986 48.0198826,77.4675721 51.6506341,76.0738571 Z M33.7946542,50.9001846 C36.2634803,49.0397907 36.7560473,45.5293829 34.8948334,43.0594687 C33.0336196,40.5895545 29.5234291,40.0954407 27.054603,41.9558346 C24.585777,43.8162285 24.09321,47.3266363 25.9544239,49.7965505 C27.8156377,52.2664647 31.3258282,52.7605785 33.7946542,50.9001846 Z" id="Oval-6" fill="#253136"></path>
                </g>
            </g>
        </g>
    </g>
</svg>