<?xml version="1.0" encoding="UTF-8" standalone="no"?>
<svg width="46px" height="46px" viewBox="0 0 46 46" version="1.1" xmlns="http://www.w3.org/2000/svg" xmlns:xlink="http://www.w3.org/1999/xlink" xmlns:sketch="http://www.bohemiancoding.com/sketch/ns">
    <title>icon-social-linkedin-gray</title>
    <description>Created with Sketch (http://www.bohemiancoding.com/sketch)</description>
    <defs></defs>
    <g id="Page-1" stroke="none" stroke-width="1" fill="none" fill-rule="evenodd" sketch:type="MSPage">
        <g id="Artboard-6" sketch:type="MSArtboardGroup" transform="translate(-173.000000, -9.000000)">
            <g id="gray" sketch:type="MSLayerGroup" transform="translate(24.000000, 10.000000)">
                <path d="M193.435897,21.647945 C193.435897,33.6038253 183.787201,43.296 171.884643,43.296 C159.981975,43.296 150.333333,33.6038253 150.333333,21.647945 C150.333333,9.6922846 159.981975,0 171.884643,0 C183.787201,0 193.435897,9.6922846 193.435897,21.647945" id="bg" stroke="#C5C5C5" stroke-width="2.02752" sketch:type="MSShapeGroup"></path>
                <path d="M185.025641,22.8004753 L185.025641,31.68 L180.166088,31.68 L180.166088,23.3942095 C180.166088,21.3158783 179.498473,19.8976196 177.749361,19.8976196 C176.414185,19.8976196 175.717959,20.853659 175.368125,21.7781557 C175.240958,22.10886 175.306535,22.56893 175.306535,23.031614 L175.306535,31.68 L170.307692,31.68 C170.307692,31.68 170.372832,17.6803961 170.307692,16.1119757 L175.306535,16.1119757 L175.306535,18.3953634 C175.306535,18.4117447 175.11865,18.3193821 175.109368,18.3193821 L175.306535,18.3193821 L175.306535,18.3953634 C175.579543,17.3432438 176.994874,15.84 179.561701,15.84 C182.742197,15.84 185.025641,18.0504852 185.025641,22.8004753 C185.025641,22.8004753 185.025641,18.0504852 185.025641,22.8004753 L185.025641,22.8004753 L185.025641,22.8004753 Z M164.541687,9.504 C162.943144,9.504 161.897436,10.623353 161.897436,12.1431855 C161.897436,13.6297417 162.912742,14.784 164.479774,14.784 L164.510915,14.784 C166.140176,14.784 167.153846,13.6297417 167.153846,12.1431855 C167.123127,10.623353 166.140176,9.504 164.541687,9.504 L164.541687,9.504 L164.541687,9.504 L164.541687,9.504 Z M161.897436,31.68 L166.102564,31.68 L166.102564,16.896 L161.897436,16.896 L161.897436,16.896 L161.897436,31.68 L161.897436,31.68 Z" id="Fill-4" fill="#C5C5C5" sketch:type="MSShapeGroup"></path>
            </g>
        </g>
    </g>
</svg>