<?xml version="1.0" encoding="UTF-8" standalone="no"?>
<svg width="35px" height="35px" viewBox="0 0 35 35" version="1.1" xmlns="http://www.w3.org/2000/svg" xmlns:xlink="http://www.w3.org/1999/xlink" xmlns:sketch="http://www.bohemiancoding.com/sketch/ns">
    <title>icon-social-linkedin</title>
    <description>Created with Sketch (http://www.bohemiancoding.com/sketch)</description>
    <defs></defs>
    <g id="Page-1" stroke="none" stroke-width="1" fill="none" fill-rule="evenodd" sketch:type="MSPage">
        <g id="Artboard-3" sketch:type="MSArtboardGroup" transform="translate(-117.000000, -4.000000)">
            <g id="social" sketch:type="MSLayerGroup" transform="translate(4.000000, 5.000000)">
                <g id="white" sketch:type="MSShapeGroup">
                    <path d="M147.042735,16.3999584 C147.042735,25.4574434 139.708157,32.8 130.660277,32.8 C121.612314,32.8 114.277778,25.4574434 114.277778,16.3999584 C114.277778,7.34263985 121.612314,0 130.660277,0 C139.708157,0 147.042735,7.34263985 147.042735,16.3999584" id="bg" stroke="#FFFFFF" stroke-width="1.536"></path>
                    <path d="M140.649573,17.2730873 L140.649573,24 L136.955522,24 L136.955522,17.722886 C136.955522,16.1483926 136.448026,15.0739543 135.118417,15.0739543 C134.103466,15.0739543 133.57422,15.7982265 133.30829,16.4986028 C133.211622,16.7491364 133.261471,17.0976742 133.261471,17.4481924 L133.261471,24 L129.461538,24 C129.461538,24 129.511055,13.3942394 129.461538,12.2060422 L133.261471,12.2060422 L133.261471,13.9358814 C133.261471,13.9482914 133.118649,13.8783198 133.111593,13.8783198 L133.261471,13.8783198 L133.261471,13.9358814 C133.469002,13.138821 134.544884,12 136.49609,12 C138.913784,12 140.649573,13.67461 140.649573,17.2730873 C140.649573,17.2730873 140.649573,13.67461 140.649573,17.2730873 L140.649573,17.2730873 L140.649573,17.2730873 Z M125.078437,7.2 C123.863284,7.2 123.068376,8.04799471 123.068376,9.19938299 C123.068376,10.3255619 123.840174,11.2 125.031373,11.2 L125.055045,11.2 C126.293549,11.2 127.064103,10.3255619 127.064103,9.19938299 C127.040751,8.04799471 126.293549,7.2 125.078437,7.2 L125.078437,7.2 L125.078437,7.2 L125.078437,7.2 Z M123.068376,24 L126.264957,24 L126.264957,12.8 L123.068376,12.8 L123.068376,12.8 L123.068376,24 L123.068376,24 Z" id="Fill-4" fill="#FFFFFF"></path>
                </g>
            </g>
        </g>
    </g>
</svg>