<?xml version="1.0" encoding="UTF-8" standalone="no"?>
<svg width="46px" height="46px" viewBox="0 0 46 46" version="1.1" xmlns="http://www.w3.org/2000/svg" xmlns:xlink="http://www.w3.org/1999/xlink" xmlns:sketch="http://www.bohemiancoding.com/sketch/ns">
    <title>icon-social-strava-gray</title>
    <description>Created with Sketch (http://www.bohemiancoding.com/sketch)</description>
    <defs></defs>
    <g id="Page-1" stroke="none" stroke-width="1" fill="none" fill-rule="evenodd" sketch:type="MSPage">
        <g id="Artboard-6" sketch:type="MSArtboardGroup" transform="translate(-23.000000, -9.000000)">
            <g id="gray" sketch:type="MSLayerGroup" transform="translate(24.000000, 10.000000)">
                <path d="M43.1025641,21.647945 C43.1025641,33.6038253 33.4539227,43.296 21.5512547,43.296 C9.64869606,43.296 0,33.6038253 0,21.647945 C0,9.6922846 9.64869606,0 21.5512547,0 C33.4539227,0 43.1025641,9.6922846 43.1025641,21.647945" id="bg" stroke="#C5C5C5" stroke-width="2.02752" sketch:type="MSShapeGroup"></path>
                <g id="strava" transform="translate(10.512821, 6.336000)" fill="#C5C5C5" sketch:type="MSShapeGroup">
                    <path d="M13.1908653,17.7555306 C12.3389759,15.9289814 11.2972548,14.192236 10.3656151,12.4035901 C10.0689704,11.8339237 9.75441456,11.2729281 9.44835669,10.7084642 C9.19877767,10.7503314 9.1902797,10.9434407 9.12020408,11.0749879 C8.01285245,13.1523688 6.90210162,15.2280155 5.81867506,17.3166683 C5.62740523,17.6855455 5.40292792,17.8117665 4.97149222,17.8053254 C3.44813198,17.7827815 1.92385657,17.7957876 0.400234851,17.8126335 C-0.00819094648,17.8172166 -0.0961776821,17.7319958 0.100452408,17.3629947 C3.14808806,11.645893 6.18526466,5.92358878 9.22610194,0.203266471 C9.25277251,0.153347892 9.29526239,0.11086136 9.37984993,0 C12.5756118,5.94576105 15.7494098,11.850522 18.9230769,17.755159 C18.8927457,17.7821621 18.8622837,17.8091652 18.8322139,17.8365399 C18.6350609,17.9417034 18.4169898,17.9460388 18.200749,17.9470297 C16.7715202,17.9538424 15.3424221,17.9533469 13.9131933,17.9474013 C13.696691,17.9465342 13.4791428,17.9404647 13.2810746,17.8376548 C13.2508741,17.8106517 13.2208043,17.7830292 13.1908653,17.7555306 L13.1908653,17.7555306 Z" id="Shape"></path>
                    <path d="M19.0837629,17.9588166 C20.2950407,17.9631895 21.5064462,17.9747649 22.7177241,17.9673052 C23.0682563,17.9649901 23.2490154,17.9932855 23.0381085,18.4141144 C20.8467712,22.7866452 18.6660368,27.164835 16.4801926,31.5404525 C16.4529829,31.5947281 16.3969029,31.6343416 16.3551303,31.68 C16.1812694,31.5897121 16.1407742,31.4113229 16.0656602,31.2632868 C13.9310417,27.0537115 11.7989781,22.8425928 9.66793648,18.6310882 C9.34678563,17.9963722 9.35023474,17.9959864 10.0406963,17.9903273 C11.1879739,17.981067 12.3351237,17.9697489 13.4825291,17.9593311 L13.4712875,17.9527717 C13.7453005,18.1125118 13.8692131,18.3863335 13.9955529,18.6568113 C14.7349408,20.2395498 15.644996,21.7335439 16.379785,23.3688861 C16.3773579,23.4023261 16.4888792,23.2977619 16.4091664,23.3281151 C16.3751862,23.3411053 16.3702042,23.3237422 16.3694377,23.276669 C16.3685435,23.2123614 16.3630505,23.1453529 16.3911543,23.0891481 C17.2292891,21.4134207 17.9682938,19.6856042 18.965982,18.0933481 C18.9991957,18.0404873 19.0531041,18.0004879 19.0947489,17.952 L19.0837629,17.9588166 L19.0837629,17.9588166 Z" id="Shape"></path>
                </g>
            </g>
        </g>
    </g>
</svg>