<?xml version="1.0" encoding="UTF-8" standalone="no"?>
<svg width="35px" height="35px" viewBox="0 0 35 35" version="1.1" xmlns="http://www.w3.org/2000/svg" xmlns:xlink="http://www.w3.org/1999/xlink" xmlns:sketch="http://www.bohemiancoding.com/sketch/ns">
    <title>icon-social-dribbble</title>
    <description>Created with Sketch (http://www.bohemiancoding.com/sketch)</description>
    <defs></defs>
    <g id="Page-1" stroke="none" stroke-width="1" fill="none" fill-rule="evenodd" sketch:type="MSPage">
        <g id="Artboard-3" sketch:type="MSArtboardGroup" transform="translate(-156.000000, -4.000000)">
            <g id="social" sketch:type="MSLayerGroup" transform="translate(4.000000, 5.000000)">
                <g id="white" sketch:type="MSShapeGroup">
                    <path d="M186.200855,16.3999584 C186.200855,25.4574434 178.866286,32.8 169.818376,32.8 C160.770549,32.8 153.435897,25.4574434 153.435897,16.3999584 C153.435897,7.34263985 160.770549,0 169.818376,0 C178.866286,0 186.200855,7.34263985 186.200855,16.3999584" id="bg" stroke="#FFFFFF" stroke-width="1.536"></path>
                    <path d="M169.61708,6.4 C164.100019,6.40046286 159.628205,10.8773356 159.628205,16.4004418 C159.628205,21.9226644 164.100019,26.4 169.61708,26.4 C175.134183,26.4 179.606459,21.9226644 179.606838,16.4004418 C179.606459,10.8773356 175.134183,6.40046286 169.61708,6.4 C169.61708,6.4 175.134183,6.40046286 169.61708,6.4 L169.61708,6.4 L169.61708,6.4 Z M176.175521,11.2 C177.205962,12.5366428 177.926919,14.1921111 178.008547,16 C176.815206,15.7415615 175.646495,15.6156567 174.712843,15.6156567 L174.712843,15.6175637 L174.554878,15.6175637 C173.709345,15.6175637 172.91494,15.694841 172.16704,15.830326 C171.984978,15.3751982 171.801048,14.9375054 171.615385,14.5190185 C173.281465,13.7725799 174.8805,12.7091772 176.175521,11.2 C176.175521,11.2 174.8805,12.7091772 176.175521,11.2 L176.175521,11.2 L176.175521,11.2 Z M169.244662,8.8 C171.048775,8.8 172.703101,9.4937119 174.012821,10.6484466 C173.010673,11.9685907 171.687303,12.924798 170.257986,13.6 C169.253529,11.4634254 168.282849,9.93499995 167.619658,9.00065972 C168.145146,8.87272384 168.687007,8.8 169.244662,8.8 C169.244662,8.8 168.687007,8.8 169.244662,8.8 L169.244662,8.8 L169.244662,8.8 Z M166.319188,9.6 C166.882833,10.2122388 168.01214,11.5588339 169.217949,13.6614538 C166.76567,14.3325362 164.29626,14.4003211 162.8021,14.3999989 C162.759598,14.3999989 162.717141,14.3098607 162.676042,14.3098607 L162.674245,14.3098607 C162.422962,14.3098607 162.206512,14.3959712 162.025641,14.3907756 C162.608697,12.2469128 164.206788,10.5608697 166.319188,9.6 C166.319188,9.6 164.206788,10.5608697 166.319188,9.6 L166.319188,9.6 L166.319188,9.6 Z M162.025641,16.3414487 C162.025641,16.3031581 162.026844,16.2894105 162.028808,16.2490489 C162.240998,16.2575971 162.51304,16.2907764 162.840645,16.2907764 L162.84269,16.2907764 C164.336678,16.2907764 166.945614,16.1173449 169.589147,15.2 C169.733426,15.5460257 169.875581,15.8940784 170.017094,16.2686128 C168.251866,16.9176148 166.861067,17.9450729 165.83275,18.9748222 C164.842878,19.9661046 164.173837,20.9443885 163.783012,21.6 C162.68931,20.176637 162.026042,18.3444587 162.025641,16.3414487 C162.025641,16.3414487 162.026042,18.3444587 162.025641,16.3414487 L162.025641,16.3414487 L162.025641,16.3414487 Z M169.724103,24 C168.037768,24 166.483213,23.4092161 165.222222,22.4177504 C165.490362,21.9500068 166.06494,21.0527045 166.979802,20.1251833 C167.921274,19.1693482 169.221178,18.185632 170.91814,17.6 C171.494967,19.31252 172.016858,21.2705144 172.41453,23.4743296 C171.577126,23.8120627 170.672033,24 169.724103,24 L169.724103,24 L169.724103,24 L169.724103,24 Z M173.888404,23.2 C173.483287,21.1801919 172.973779,19.3516205 172.41453,17.7265259 C172.933469,17.6504963 173.477559,17.6 174.052225,17.6 L174.075481,17.6 C175.027918,17.6 176.07441,17.7282808 177.209402,17.991116 C176.81673,20.1419687 175.593799,22.0018207 173.888404,23.2 L173.888404,23.2 Z" id="Fill-10" fill="#FFFFFF"></path>
                </g>
            </g>
        </g>
    </g>
</svg>