<?xml version="1.0" encoding="UTF-8" standalone="no"?>
<svg width="33px" height="28px" viewBox="0 0 33 28" version="1.1" xmlns="http://www.w3.org/2000/svg" xmlns:xlink="http://www.w3.org/1999/xlink" xmlns:sketch="http://www.bohemiancoding.com/sketch/ns">
    <title>icon-arrow-left-gray</title>
    <description>Created with Sketch (http://www.bohemiancoding.com/sketch)</description>
    <defs></defs>
    <g id="Page-1" stroke="none" stroke-width="1" fill="none" fill-rule="evenodd" sketch:type="MSPage">
        <g id="Artboard-7" sketch:type="MSArtboardGroup" transform="translate(-139.000000, -33.000000)" fill="#C5C5C5">
            <path d="M139.456853,48.5619118 C139.520456,48.6596055 139.555782,48.7104733 139.596859,48.7631006 C139.635139,48.81456 139.677345,48.8641325 139.744848,48.9391315 C139.783477,48.9860251 139.783477,48.9860251 139.817731,49.0237958 L150.780003,60.156084 C151.31899,60.7033018 152.041131,61.0000604 152.790593,61.0000604 C153.540928,61.0000604 154.26327,60.7023629 154.803111,60.1532885 C155.908651,59.0318811 155.908034,57.214993 154.802954,56.0920234 L148.681711,49.8765469 L169.158854,49.8765465 C169.924426,49.8765465 170.64231,49.5679821 171.170591,49.0305864 C171.697784,48.4953441 172.000029,47.7707907 172.000029,47.0004794 C172.000029,46.4203473 171.829533,45.864551 171.515653,45.3938317 C170.992899,44.6065893 170.116646,44.1235742 169.158873,44.1235742 L148.681711,44.1195596 L154.801949,37.9066032 C155.907596,36.786101 155.907596,34.967168 154.801811,33.8455118 C153.693423,32.7181627 151.891597,32.7181627 150.780201,33.8455121 L139.824641,44.9692 C139.778948,45.0187505 139.778948,45.0187505 139.755758,45.0477944 C139.684845,45.126546 139.636444,45.1828044 139.58932,45.2452941 C139.566249,45.273792 139.543259,45.3064386 139.506041,45.3620915 C139.434977,45.4678871 139.395377,45.5313429 139.359435,45.5974214 C139.332086,45.6475793 139.309739,45.6925545 139.276118,45.7632626 C139.247328,45.8173502 139.215,45.8865386 139.178403,45.9905744 C139.15941,46.0428421 139.141126,46.1005387 139.122838,46.1649783 C139.096412,46.2481292 139.077897,46.3139226 139.06225,46.3893828 C139.052718,46.4332001 139.046113,46.4728206 139.036266,46.5391251 C139.018045,46.6594577 139.00966,46.7275617 139.004949,46.8021873 C139.001719,46.852859 139.001719,46.852859 139.000793,46.9034388 C138.999255,47.0899861 138.999769,47.1430337 139.0055,47.215761 C139.011253,47.2733028 139.011253,47.2733028 139.016756,47.3178099 C139.024535,47.3781477 139.029128,47.4124603 139.029128,47.4124603 C139.048022,47.5351143 139.054594,47.5738059 139.065875,47.6253459 C139.079131,47.6813396 139.079131,47.6813396 139.091826,47.7280747 C139.104216,47.7719748 139.104216,47.7719748 139.115455,47.8105219 C139.141605,47.8998261 139.16385,47.9687396 139.202368,48.0764811 C139.237297,48.1588432 139.237297,48.1588432 139.255754,48.1934207 C139.312299,48.3117382 139.335961,48.3592564 139.36426,48.4105069 C139.391846,48.4601235 139.417127,48.5008517 139.456853,48.5619118 Z" id="arrow" sketch:type="MSShapeGroup"></path>
        </g>
    </g>
</svg>