<?xml version="1.0" encoding="UTF-8" standalone="no"?>
<svg width="207px" height="278px" viewBox="0 0 207 278" version="1.1" xmlns="http://www.w3.org/2000/svg" xmlns:xlink="http://www.w3.org/1999/xlink" xmlns:sketch="http://www.bohemiancoding.com/sketch/ns">
    <title>icon-blog-bucket-list</title>
    <description>Created with Sketch (http://www.bohemiancoding.com/sketch)</description>
    <defs></defs>
    <g id="Page-1" stroke="none" stroke-width="1" fill="none" fill-rule="evenodd" sketch:type="MSPage">
        <g id="Artboard-3" sketch:type="MSArtboardGroup" transform="translate(-69.000000, -24.000000)" fill="#FFFFFF">
            <path d="M91.8842027,214.806106 L96.0219669,237.292049 L96.0219669,237.292049 C99.0101148,239.003858 102.650726,240.209961 106.614296,240.619587 L90.123103,147.093384 C84.3340651,143.992918 80.0293956,140.542639 77.5377686,136.842962 L77.5377686,136.842962 L88.0916968,194.196407 C87.7055532,194.517327 87.3226645,194.842962 86.7954289,195.324705 C84.4245564,197.491009 82.0532124,199.925095 79.8421198,202.568615 C72.6822367,211.128771 68.8515955,219.80871 70.036003,227.930356 C72.6542876,245.884289 89.4620138,257.840688 112.460265,257.840118 C119.738318,257.78177 127.578954,253.354759 136.029888,245.335905 C139.360287,242.175783 142.682096,238.562815 146.237669,234.329584 C147.621068,232.682523 148.995281,230.99645 150.582922,229.009865 C151.340123,228.062394 153.828727,224.924093 154.299485,224.334621 L154.599737,223.958654 L155.080883,223.958654 C166.747611,223.958654 173.197243,217.724716 173.197243,208.417281 C173.197243,199.822748 166.313575,192.860097 157.82788,192.860097 C149.342185,192.860097 142.458518,199.822748 142.458518,208.417281 C142.458518,210.981059 143.071054,213.453265 144.226822,215.669304 L144.530343,216.251265 L144.117158,216.761248 C132.14566,231.537354 120.818637,241.882516 112.406922,242.645592 C99.4570503,243.820353 87.8935357,236.684521 86.2409508,228.267319 C85.5542366,224.769639 87.0763226,220.959652 89.9884606,217.096215 C90.5971329,216.28871 91.2364191,215.522138 91.8842027,214.806106 Z M139.380463,244.861342 L145.114818,299.420072 L145.114818,299.420072 C132.517485,297.471597 123.684416,294.409027 117.511759,291.213804 L117.511765,291.213808 L111.901887,259.839415 C112.03991,259.840267 112.178141,259.840695 112.316577,259.840695 C120.378138,259.776705 128.62223,255.121893 137.406527,246.78672 C138.064689,246.162208 138.722057,245.520836 139.380463,244.861342 L139.380463,244.861342 Z M136.991399,222.130919 L130.387025,159.294517 C114.794058,156.700933 101.533277,152.80828 91.9070965,148.014463 L108.488963,240.75194 C109.713002,240.798537 110.961777,240.768477 112.226232,240.653771 C118.700995,240.066407 127.41927,233.000452 136.991399,222.130919 L136.991399,222.130919 Z M99.9460748,258.616915 L103.56543,278.285656 C103.56543,278.285656 105.267379,284.166642 115.323823,290.013772 L115.323823,290.013772 L109.996363,259.800241 C106.49341,259.67735 103.133363,259.275983 99.9460748,258.616915 L99.9460748,258.616915 Z M138.784936,220.061736 L132.432801,159.625221 C145.64014,161.699112 160.438902,162.852413 176.067383,162.852413 L176.067383,301.541066 L176.067383,301.541066 C164.780038,301.541068 155.231546,300.856169 147.157511,299.721445 L147.157511,299.721445 L141.195874,243.000275 C143.337775,240.755 145.508154,238.307803 147.76914,235.615896 C149.16429,233.954844 150.548286,232.256768 152.145284,230.258475 C152.905576,229.307135 155.119145,226.544439 155.586958,225.958656 C168.343319,225.958656 175.197243,218.844795 175.197243,208.417281 C175.197243,198.723253 167.423285,190.860097 157.82788,190.860097 C148.232476,190.860097 140.458518,198.723253 140.458518,208.417281 C140.458518,211.304841 140.852985,213.503955 142.156889,216.004024 C141.024132,217.402155 139.899439,218.75609 138.784936,220.061736 L138.784936,220.061736 Z M91.0456764,123.935502 C92.061425,122.567084 93.4540612,121.239567 95.190337,119.962642 L98.1174353,141.151917 L98.1174353,141.151917 L91.3524093,144.912262 L91.4734453,145.58918 L91.4734453,145.58918 C101.018961,150.574085 114.790055,154.687593 131.201791,157.383123 L131.201791,157.383123 L134.332796,151.690602 L134.332796,151.690602 C121.874079,149.685745 111.271464,146.821398 103.466437,143.371937 C102.101227,133.887963 90.1344827,50.6382197 90.6729219,50.2357287 C91.6563848,49.5005762 92.8605331,48.6747665 94.2904243,47.780291 C98.418726,45.1978116 103.510621,42.6048266 109.607408,40.177209 C127.134755,33.1981725 149.175003,29.0000041 176.067383,29 C202.970118,28.9999959 225.020117,33.0550556 242.555123,39.7961572 C248.65438,42.1409364 253.748137,44.6453404 257.877717,47.1394586 C259.307859,48.0032127 260.512132,48.8006027 261.495608,49.510391 C262.044376,49.9064444 249.545498,137.117714 248.581024,143.841081 C241.198775,146.951482 231.504979,149.56036 220.223389,151.456791 L220.223389,151.456791 L223.265347,156.987414 C238.514398,154.316582 251.343544,150.40575 260.420061,145.714521 L253.867978,142.072541 L256.9939,119.291808 C259.282494,120.843603 261.057756,122.474882 262.257395,124.167489 L262.257395,124.167489 L272.30611,122.031569 C269.483003,118.344114 264.583826,114.889283 258.020649,111.809183 L266.67141,48.7651669 L266.858268,47.4034047 L265.808543,46.5160542 C265.557564,46.3038974 265.09697,45.9433639 264.421707,45.4560171 C263.328459,44.6670052 262.010445,43.7943033 260.46266,42.8594972 C256.083881,40.2148714 250.725845,37.5805317 244.349292,35.1291499 C226.239105,28.1669275 203.580785,23.9999958 176.067383,24 C148.543646,24.0000042 125.875587,28.3177563 107.757746,35.5319157 C101.37871,38.0719191 96.0188041,40.8013853 91.6387383,43.541357 C90.0907009,44.5097394 88.772559,45.4137264 87.6792969,46.2309554 C87.0042283,46.7355787 86.5439238,47.1087659 86.2933149,47.3281831 L85.2792239,48.2160566 L85.4636651,49.5512274 L94.0670667,111.831284 C87.7718732,114.790926 83.012196,118.095848 80.1529877,121.62019 L91.0456764,123.935502 L91.0456764,123.935502 Z M90.1750045,125.283946 C89.4461034,126.608779 89.0673829,127.967707 89.0673829,129.352413 C89.0673829,133.131781 91.8886333,136.719114 96.9508586,139.945306 L89.5513085,143.850576 L89.6866022,144.617865 C81.6503922,140.06685 77.0673829,134.848491 77.0673829,129.352413 C77.0673829,127.164662 77.793557,125.020916 79.1746462,122.945748 L90.1750045,125.283946 L90.1750045,125.283946 Z M263.088033,125.524443 C263.733042,126.773076 264.067383,128.051366 264.067383,129.352413 C264.067383,133.458908 260.736603,137.338687 254.819416,140.774819 L254.819416,140.774819 L262.280382,144.712503 L262.280389,144.712499 C270.420555,140.139251 275.067383,134.886625 275.067383,129.352413 C275.067383,127.312839 274.436245,125.31151 273.231709,123.368338 L263.088033,125.524443 L263.088033,125.524443 Z M129.046733,58.1337647 L130.86441,75.427806 L105.00684,78.1455461 L102.498157,54.2770206 L126.227186,51.7829992 L130.390744,43.77104 L136.217233,47.2719476 L129.046733,58.1337647 L129.046733,58.1337647 Z M126.44451,62.0755905 L127.567259,72.7578257 L107.676821,74.848395 L105.795308,56.9470009 L124.569027,54.9738035 L118.968085,65.7517291 L111.56642,60.3078453 L108.572899,65.4927768 L120.625424,71.2093938 L122.094161,68.6654656 L126.44451,62.0755905 L126.44451,62.0755905 Z M134.940414,90.1222093 L136.86441,108.427806 L111.00684,111.145546 L108.498157,87.2770206 L131.408358,84.8690614 L135.61664,76.77104 L141.443129,80.2719476 L134.940414,90.1222093 Z M132.338192,94.0640351 L133.567259,105.757826 L113.676821,107.848395 L111.795308,89.9470009 L129.750199,88.0598658 L124.193981,98.7517291 L116.792317,93.3078453 L113.798795,98.4927768 L125.85132,104.209394 L127.320057,101.665466 L132.338192,94.0640351 L132.338192,94.0640351 Z M136.207104,151.98359 L133.237406,157.708068 C146.199037,159.717971 160.726022,160.852413 176.067383,160.852413 L176.067383,154.852006 C161.695762,154.828571 148.144711,153.79541 136.207104,151.98359 L136.207104,151.98359 Z M178.067383,154.848742 L178.067383,160.845983 L178.067383,160.845978 C193.591173,160.746001 208.23937,159.485064 221.222768,157.335333 L221.222768,157.335333 L218.333284,151.765478 C206.332515,153.668801 192.633173,154.77739 178.067383,154.848742 L178.067383,154.848742 Z M178.067381,301.533814 C189.395151,301.451182 198.911406,300.667294 206.902429,299.433368 L206.902429,299.433368 L221.629553,159.314143 C208.499098,161.490965 193.719733,162.747305 178.067383,162.846107 L178.067383,301.533814 L178.067381,301.533814 Z M208.948256,299.102173 C221.267028,297.013899 229.773833,293.837617 235.628018,290.590667 L235.628018,290.590667 L261.210515,147.515326 C251.902393,152.336721 238.966259,156.283096 223.67728,158.964869 L208.948256,299.102173 L208.948256,299.102173 Z M237.828402,289.292142 C246.739255,283.692569 248.223633,278.285656 248.223633,278.285656 L274.571468,136.880768 C272.220215,140.353194 268.271329,143.605415 262.996936,146.554293 L237.828402,289.292142 L237.828402,289.292142 Z M186.728173,116.852413 C154.222798,116.852413 153.902638,117.819861 153.902638,117.819861 L154.573862,121.252804 C154.573862,121.252804 153.78545,119.852414 186.728173,119.852413 C219.670895,119.852413 239.64613,128.235226 239.64613,128.235226 L239.646127,125.026609 C239.646127,125.026609 219.233548,116.852414 186.728173,116.852413 Z M186.728173,122.852413 C154.222798,122.852413 154.937794,124.104041 154.937794,124.104041 L155.609018,127.536984 C155.609018,127.536984 153.78545,125.852414 186.728173,125.852413 C219.670895,125.852413 237.889291,133.706905 237.889291,133.706905 L237.889288,130.498289 C237.889288,130.498289 219.233548,122.852414 186.728173,122.852413 Z M186.728173,128.852413 C154.222798,128.852413 155.833302,130.416541 155.833302,130.416541 L156.504526,133.849484 C156.504526,133.849484 153.78545,131.852414 186.728173,131.852413 C219.670895,131.852413 236.194959,138.613155 236.194959,138.613155 L236.194956,135.404539 C236.194956,135.404539 219.233548,128.852414 186.728173,128.852413 Z M114.399107,120.277021 L116.90779,144.145546 L142.765359,141.427806 L140.256676,117.559281 L114.399107,120.277021 Z M117.696258,122.947001 L119.57777,140.848395 L139.468208,138.757826 L137.586696,120.856432 L117.696258,122.947001 Z M191.728173,85.6583309 C159.222798,85.6583303 151.058888,86.2710328 151.058888,86.2710328 L151.730112,89.7039756 C151.730112,89.7039756 158.78545,88.6583316 191.728173,88.6583309 C224.670895,88.6583302 244.77113,96.9569053 244.77113,96.9569053 L244.771127,93.7482888 C244.771127,93.7482888 224.233548,85.6583314 191.728173,85.6583309 Z M191.728173,91.6583309 C159.222798,91.6583303 151.583302,92.656775 151.583302,92.656775 L152.254526,96.0897178 C152.254526,96.0897178 158.78545,94.6583316 191.728173,94.6583309 C224.670895,94.6583302 243.087536,102.724483 243.087536,102.724483 L243.087533,99.5158669 C243.087533,99.5158669 224.233548,91.6583314 191.728173,91.6583309 Z M191.728173,97.6583309 C159.222798,97.6583303 152.340138,99.0766968 152.340138,99.0766968 L153.011362,102.50964 C153.011362,102.50964 158.78545,100.658332 191.728173,100.658331 C224.670895,100.65833 242.108044,108.190304 242.108044,108.190304 L242.108041,104.981687 C242.108041,104.981687 224.233548,97.6583314 191.728173,97.6583309 Z M193.728173,48.0759428 C161.222798,48.0759423 147.206674,49.9546269 147.206674,49.9546269 L147.877898,53.3875697 C147.877898,53.3875697 160.78545,51.0759435 193.728173,51.0759428 C226.670895,51.0759421 249.636609,60.7563421 249.636609,60.7563421 L249.636606,57.5477255 C249.636606,57.5477255 226.233548,48.0759434 193.728173,48.0759428 Z M193.728173,54.0759428 C161.222798,54.0759423 147.206674,55.9546269 147.206674,55.9546269 L147.877898,59.3875697 C147.877898,59.3875697 160.78545,57.0759435 193.728173,57.0759428 C226.670895,57.0759421 248.275033,66.0096396 248.275033,66.0096396 L248.275031,62.801023 C248.275031,62.801023 226.233548,54.0759434 193.728173,54.0759428 Z M193.728173,61.0759428 C161.222798,61.0759423 147.206674,62.9546269 147.206674,62.9546269 L147.877898,66.3875697 C147.877898,66.3875697 160.78545,64.0759435 193.728173,64.0759428 C226.670895,64.0759421 246.271127,72.1658896 246.271127,72.1658896 L246.271124,68.957273 C246.271124,68.957273 226.233548,61.0759434 193.728173,61.0759428 Z" id="Path-1" sketch:type="MSShapeGroup"></path>
        </g>
    </g>
</svg>