<?xml version="1.0" encoding="UTF-8" standalone="no"?>
<svg width="33px" height="28px" viewBox="0 0 33 28" version="1.1" xmlns="http://www.w3.org/2000/svg" xmlns:xlink="http://www.w3.org/1999/xlink" xmlns:sketch="http://www.bohemiancoding.com/sketch/ns">
    <title>icon-arrow-charcoal</title>
    <description>Created with Sketch (http://www.bohemiancoding.com/sketch)</description>
    <defs></defs>
    <g id="Page-1" stroke="none" stroke-width="1" fill="none" fill-rule="evenodd" sketch:type="MSPage">
        <g id="Artboard-7" sketch:type="MSArtboardGroup" transform="translate(-81.000000, -33.000000)" fill="#3B474C">
            <path d="M81.4568528,48.5619118 C81.5204556,48.6596055 81.5557815,48.7104733 81.5968589,48.7631006 C81.6351389,48.81456 81.6773453,48.8641325 81.7448481,48.9391315 C81.7834765,48.9860251 81.7834765,48.9860251 81.817731,49.0237958 L92.7800027,60.156084 C93.3189902,60.7033018 94.0411314,61.0000604 94.7905932,61.0000604 C95.5409279,61.0000604 96.2632696,60.7023629 96.8031114,60.1532885 C97.9086511,59.0318811 97.9080344,57.214993 96.8029537,56.0920234 L90.6817112,49.8765469 L111.158854,49.8765465 C111.924426,49.8765465 112.64231,49.5679821 113.170591,49.0305864 C113.697784,48.4953441 114.000029,47.7707907 114.000029,47.0004794 C114.000029,46.4203473 113.829533,45.864551 113.515653,45.3938317 C112.992899,44.6065893 112.116646,44.1235742 111.158873,44.1235742 L90.681711,44.1195596 L96.8019489,37.9066032 C97.9075962,36.786101 97.9075962,34.967168 96.8018111,33.8455118 C95.6934225,32.7181627 93.8915966,32.7181627 92.7802006,33.8455121 L81.8246408,44.9692 C81.7789475,45.0187505 81.7789475,45.0187505 81.755758,45.0477944 C81.6848453,45.126546 81.6364445,45.1828044 81.5893203,45.2452941 C81.5662487,45.273792 81.5432589,45.3064386 81.5060407,45.3620915 C81.4349773,45.4678871 81.3953772,45.5313429 81.3594349,45.5974214 C81.3320863,45.6475793 81.3097391,45.6925545 81.2761176,45.7632626 C81.2473279,45.8173502 81.2149996,45.8865386 81.1784028,45.9905744 C81.1594101,46.0428421 81.1411261,46.1005387 81.122838,46.1649783 C81.0964125,46.2481292 81.0778971,46.3139226 81.0622497,46.3893828 C81.0527183,46.4332001 81.0461128,46.4728206 81.0362656,46.5391251 C81.0180454,46.6594577 81.0096604,46.7275617 81.0049487,46.8021873 C81.0017195,46.852859 81.0017195,46.852859 81.0007935,46.9034388 C80.9992555,47.0899861 80.9997694,47.1430337 81.0055001,47.215761 C81.011253,47.2733028 81.011253,47.2733028 81.0167563,47.3178099 C81.0245353,47.3781477 81.0291282,47.4124603 81.0291282,47.4124603 C81.0480224,47.5351143 81.0545935,47.5738059 81.0658746,47.6253459 C81.0791313,47.6813396 81.0791313,47.6813396 81.0918264,47.7280747 C81.1042157,47.7719748 81.1042157,47.7719748 81.1154552,47.8105219 C81.1416048,47.8998261 81.1638502,47.9687396 81.2023682,48.0764811 C81.2372973,48.1588432 81.2372973,48.1588432 81.2557539,48.1934207 C81.3122995,48.3117382 81.3359607,48.3592564 81.3642599,48.4105069 C81.3918456,48.4601235 81.4171265,48.5008517 81.4568528,48.5619118 Z" id="arrow" sketch:type="MSShapeGroup" transform="translate(97.500000, 47.000000) scale(-1, 1) translate(-97.500000, -47.000000) "></path>
        </g>
    </g>
</svg>