<?xml version="1.0" encoding="UTF-8" standalone="no"?>
<svg width="300px" height="275px" viewBox="0 0 300 275" version="1.1" xmlns="http://www.w3.org/2000/svg" xmlns:xlink="http://www.w3.org/1999/xlink" xmlns:sketch="http://www.bohemiancoding.com/sketch/ns">
    <title>icon-service-responsive-design</title>
    <description>Created with Sketch (http://www.bohemiancoding.com/sketch)</description>
    <defs></defs>
    <g id="Page-1" stroke="none" stroke-width="1" fill="none" fill-rule="evenodd" sketch:type="MSPage">
        <g id="responsive-design" sketch:type="MSLayerGroup" transform="translate(0.000000, 16.000000)">
            <g id="mac" sketch:type="MSShapeGroup">
                <path d="M200.647768,243.504095 C196.387551,241.528418 192.127335,241.707829 187.246192,238.655686 C181.713237,235.196231 181.432062,212.255319 181.432062,212.255319 L150.473603,212.255319 L119.631235,212.255319 C119.631235,212.255319 119.350061,235.196231 113.817637,238.655686 C108.936495,241.707829 104.676278,241.528418 100.416062,243.504095 C99.8111113,243.784795 99.9138891,245.756162 100.416062,246.197955 C102.251683,247.814271 110.090481,247.275499 110.090481,247.275499 L150.473603,247.275499 L190.973349,247.275499 C190.973349,247.275499 198.812147,247.814271 200.647768,246.197955 C201.149941,245.756162 201.252718,243.784795 200.647768,243.504095 C200.647768,243.504095 201.252718,243.784795 200.647768,243.504095 L200.647768,243.504095 L200.647768,243.504095 Z" id="base" fill="#D1D1D1"></path>
                <path d="M181.914894,217.574468 L119.148936,217.574468 L119.303708,211.191489 L181.64243,211.191489 L181.914894,217.574468 Z" id="shadow" opacity="0.7" fill="#A5A5A5"></path>
                <path d="M290.941385,214.382979 L9.05861456,214.382979 C4.05559503,214.382979 0,210.324113 0,205.31706 L0,19.0917978 C0,14.0847441 4.05559503,10.0258788 9.05861456,10.0258788 L290.941385,10.0258788 C295.944405,10.0258788 300,14.0847441 300,19.0917978 L300,205.31706 C300,210.324113 295.944405,214.382979 290.941385,214.382979 Z" id="monitor" fill="#E2E2E2"></path>
                <path d="M300,19.5722656 C300,14.34684 295.944405,10.1109561 290.941385,10.1109561 L9.05861456,10.1109561 C4.05559503,10.1109561 0,14.34684 0,19.5722656 L0,187 L300,187 L300,19.5722656 Z" id="glass" fill="#000000"></path>
                <circle id="logo" fill="#1A1A1A" cx="150" cy="199.489362" r="6.38297872"></circle>
            </g>
            <path d="M289.525131,32.52322 L289.525131,19.8347826 L10,19.8347826 L10,32.52322 L10,45.2101765 L10,53.7290762 L10,176.314725 L289.525131,176.314725 L289.525131,53.7290762 L289.525131,45.2101765 L289.525131,32.52322 Z" id="bg" fill="#B3B3B3" sketch:type="MSShapeGroup"></path>
            <path d="M19,30 L19,47 L281,47 L281,30 L19,30 Z M19,55 L19,92 L56.1417625,92 L56.1417625,55 L19,55 Z M64.1724138,55 L64.1724138,92 L101.314176,92 L101.314176,55 L64.1724138,55 Z M109.344828,55 L109.344828,92 L146.48659,92 L146.48659,55 L109.344828,55 Z M154.517241,55 L154.517241,92 L191.659004,92 L191.659004,55 L154.517241,55 Z M198.685824,55 L198.685824,92 L235.827586,92 L235.827586,55 L198.685824,55 Z M243.858238,55 L243.858238,164 L281,164 L281,55 L243.858238,55 Z M19,100 L19,164 L94,164 L94,100 L19,100 Z M101,100 L101,128 L155,128 L155,100 L101,100 Z M162,99 L162,127 L237,127 L237,99 L162,99 Z M101,136 L101,164 L155,164 L155,136 L101,136 Z M162,136 L162,164 L237,164 L237,136 L162,136 Z" id="full" fill="#278F9F" sketch:type="MSShapeGroup"></path>
            <g id="ipad" transform="translate(172.000000, 92.000000)" sketch:type="MSShapeGroup">
                <rect id="Rectangle-60" fill="#000000" x="0" y="0" width="114" height="163" rx="5"></rect>
                <rect id="Rectangle-61" fill="#B3B3B3" x="9" y="11" width="96" height="141"></rect>
                <path d="M16,19 L16,31 L98,31 L98,19 L16,19 Z M16,37 L16,61 L40,61 L40,37 L16,37 Z M16,67 L16,115 L98,115 L98,67 L16,67 Z M16,121 L16,145 L98,145 L98,121 L16,121 Z M45,37 L45,61 L69,61 L69,37 L45,37 Z M74,36 L74,60 L98,60 L98,36 L74,36 Z" id="Rectangle-62" fill="#278F9F"></path>
            </g>
            <g id="iphone" transform="translate(117.000000, 158.000000)" sketch:type="MSShapeGroup">
                <rect id="Rectangle-68" fill="#000000" x="0" y="0" width="50" height="97" rx="5"></rect>
                <rect id="Rectangle-69" fill="#B3B3B3" x="6" y="12" width="38" height="76"></rect>
                <path d="M9,16 L9,25 L41,25 L41,16 L9,16 Z M9,28 L9,50 L41,50 L41,28 L9,28 Z M9,53 L9,75 L41,75 L41,53 L9,53 Z M9,78 L9,88 L41,88 L41,78 L9,78 Z" id="Rectangle-70" fill="#278F9F"></path>
            </g>
        </g>
    </g>
</svg>