<?xml version="1.0" encoding="UTF-8" standalone="no"?>
<svg width="350px" height="350px" viewBox="0 0 350 350" version="1.1" xmlns="http://www.w3.org/2000/svg" xmlns:xlink="http://www.w3.org/1999/xlink" xmlns:sketch="http://www.bohemiancoding.com/sketch/ns">
    <title>icon-blog-the-wheels-spin-inline</title>
    <description>Created with Sketch (http://www.bohemiancoding.com/sketch)</description>
    <defs></defs>
    <g id="Page-1" stroke="none" stroke-width="1" fill="none" fill-rule="evenodd" sketch:type="MSPage">
        <g id="Artboard-3" sketch:type="MSArtboardGroup" transform="translate(-350.000000, 0.000000)" fill="#FFFFFF">
            <g id="bike" sketch:type="MSLayerGroup" transform="translate(377.000000, 84.000000)">
                <path d="M210.986636,44.3694801 C211.207784,47.6230371 208.657942,50.4309652 205.288767,50.6467802 L117.517409,56.9894082 C114.145817,57.2040566 111.235855,54.111486 111.013499,51.7783508 L111.013499,51.7783508 C110.791143,48.278648 113.342194,45.4240572 116.712577,45.2094087 L204.483935,39.0137683 C207.854319,38.7991199 210.76428,41.1170896 210.986636,44.3694801 L210.986636,44.3694801 L210.986636,44.3694801 Z" id="Shape" sketch:type="MSShapeGroup"></path>
                <path d="M236.976321,12.1974766 C247.924551,12.7456863 256.50371,22.1664606 255.976983,32.6619671 C255.43823,43.39724 246.506716,51.8866601 235.636654,51.9794341 C232.430593,52.005941 229.224532,51.9288301 226.020876,51.997507 C221.897251,52.0866664 219.125319,49.778161 219.234754,46.0672024 C219.334567,42.691194 220.931585,39.1633737 225.774349,39.4501296 C229.149972,39.6501358 232.597751,39.7188126 235.932487,39.2621719 C239.98997,38.7055282 243.203247,36.4910016 242.960327,31.9113414 C242.71861,27.3449346 240.020035,24.7195519 235.226577,24.7171422 C223.533954,24.7123228 211.843737,24.593042 200.155924,24.7749753 C195.422595,24.8484716 192.077035,23.0086555 192.001273,18.3362213 C191.920701,13.3854652 195.675135,11.9179498 200.213648,12.0034946 C206.245757,12.1119317 230.769839,11.8866235 236.976321,12.1974766 L236.976321,12.1974766 Z" id="Shape" sketch:type="MSShapeGroup"></path>
                <path d="M208.637925,41.244855 C211.278236,43.2776126 211.780359,47.0727316 209.762348,49.7300327 L152.804707,124.622614 C150.783127,127.279915 147.006496,127.786011 144.363806,125.753253 L144.363806,125.753253 C141.721116,123.722889 141.218993,119.922984 143.239383,117.268076 L200.197024,42.3754941 C202.216225,39.7193894 205.995236,39.2156867 208.637925,41.244855 L208.637925,41.244855 L208.637925,41.244855 Z" id="Shape" sketch:type="MSShapeGroup"></path>
                <path d="M99.2888947,2.28210167 C102.522264,1.27595661 105.965371,3.04629279 106.98618,6.23840775 L142.714483,119.113509 C143.732867,122.309217 141.940997,125.710946 138.707628,126.717091 L138.707628,126.717091 C135.477896,127.725632 132.032363,125.951702 131.015192,122.76318 L95.2856759,9.88688135 C94.2660796,6.69237081 96.0627999,3.2906423 99.2888947,2.28210167 L99.2888947,2.28210167 L99.2888947,2.28210167 Z" id="Shape" sketch:type="MSShapeGroup"></path>
                <path d="M198.898798,29.4182569 C202.056071,28.1990599 205.612246,29.7356313 206.848965,32.8530868 L240.576247,116.728567 C241.811754,119.849616 240.25373,123.36349 237.096458,124.581489 L237.096458,124.581489 C233.942823,125.801884 230.383011,124.261719 229.152353,121.15145 L195.423859,37.2723763 C194.187139,34.151328 195.750013,30.6386515 198.898798,29.4182569 L198.898798,29.4182569 L198.898798,29.4182569 Z" id="Shape" sketch:type="MSShapeGroup"></path>
                <path d="M49.0006075,122.106362 C48.9535864,118.802274 51.6422246,116.086892 55.0108592,116.037242 L148.812985,116.000595 C152.182825,115.954492 154.952243,118.591852 154.999264,121.895941 L154.999264,121.895941 C155.051108,125.197665 152.357647,127.915412 148.995041,127.962697 L55.192915,127.999344 C51.8206634,128.047812 49.0524512,125.405723 49.0006075,122.106362 L49.0006075,122.106362 L49.0006075,122.106362 Z" id="Shape" sketch:type="MSShapeGroup"></path>
                <path d="M75.0006035,6.10636236 C74.9538899,2.80227353 77.6249491,0.086891767 80.9715586,0.0372417739 L123.853437,0.000595350416 C127.201244,-0.0455082146 129.952555,2.59185213 129.999269,5.89594096 L129.999269,5.89594096 C130.050774,9.1976655 127.374923,11.9154115 124.034303,11.9626973 L81.1524241,11.9993437 C77.8022212,12.0478115 75.0521082,9.40572261 75.0006035,6.10636236 L75.0006035,6.10636236 L75.0006035,6.10636236 Z" id="Shape" sketch:type="MSShapeGroup"></path>
                <path d="M51.0050204,124.43485 C48.506344,122.191216 48.3166476,118.378233 50.5845468,115.905462 L113.358355,51.979807 C115.627462,49.5106167 119.493886,49.3256362 121.993771,51.5680764 L121.993771,51.5680764 C124.494864,53.8057428 124.682144,57.6282738 122.416661,60.0938839 L59.642853,124.017152 C57.3725372,126.491116 53.5049051,126.672516 51.0050204,124.43485 L51.0050204,124.43485 L51.0050204,124.43485 Z" id="Shape" sketch:type="MSShapeGroup"></path>
                <path d="M237,61 C204.966062,61 179,86.9660619 179,119 C179,151.033938 204.966062,177 237,177 C269.032742,177 295,151.033938 295,119 C295,86.9672577 269.032742,61 237,61 L237,61 Z M236,162 C211.703676,162 192,142.296324 192,118 C192,93.7048649 211.703676,74 236,74 C260.295135,74 280,93.7048649 280,118 C280,142.295135 260.295135,162 236,162 L236,162 Z" id="Shape" sketch:type="MSShapeGroup"></path>
                <path d="M58,61 C25.9660619,61 0,86.9660619 0,119 C0,151.033938 25.9660619,177 58,177 C90.0327423,177 116,151.033938 116,119 C116,86.9672577 90.0339381,61 58,61 L58,61 Z M57,162 C32.7036757,162 13,142.296324 13,118 C13,93.7048649 32.7036757,74 57,74 C81.2951351,74 101,93.7048649 101,118 C101,142.295135 81.2951351,162 57,162 L57,162 Z" id="Shape" sketch:type="MSShapeGroup"></path>
            </g>
        </g>
    </g>
</svg>