<?xml version="1.0" encoding="UTF-8" standalone="no"?>
<svg width="36px" height="35px" viewBox="0 0 36 35" version="1.1" xmlns="http://www.w3.org/2000/svg" xmlns:xlink="http://www.w3.org/1999/xlink" xmlns:sketch="http://www.bohemiancoding.com/sketch/ns">
    <title>icon-social-github-color</title>
    <description>Created with Sketch (http://www.bohemiancoding.com/sketch)</description>
    <defs></defs>
    <g id="Page-1" stroke="none" stroke-width="1" fill="none" fill-rule="evenodd" sketch:type="MSPage">
        <g id="Artboard-3" sketch:type="MSArtboardGroup" transform="translate(-79.000000, -44.000000)">
            <g id="social" sketch:type="MSLayerGroup" transform="translate(4.000000, 5.000000)">
                <g id="color" transform="translate(0.000000, 40.000000)" sketch:type="MSShapeGroup">
                    <path d="M109.482906,16.3999584 C109.482906,25.4574434 102.148286,32.8 93.1004066,32.8 C84.052485,32.8 76.7179487,25.4574434 76.7179487,16.3999584 C76.7179487,7.34263985 84.052485,0 93.1004066,0 C102.148286,0 109.482906,7.34263985 109.482906,16.3999584" id="bg" stroke="#1B1B1B" stroke-width="1.536"></path>
                    <path d="M97.8495724,8 C98.1404516,8.64705338 98.3287915,9.72133292 98.0476519,10.507946 C99.1975502,11.4693804 99.5929081,13.8069231 99.0378386,15.7169094 C100.676696,15.8395816 102.62882,15.6583191 103.888889,16.1508245 C102.710826,16.0025527 101.102073,15.7115417 99.5827047,15.8127432 C99.2946504,15.8320256 98.8684296,15.8020491 98.8892579,16.1988034 C100.648067,16.3340277 102.395661,16.481226 103.839896,16.9224907 C102.407804,16.693332 100.669064,16.3445979 98.8892579,16.2957932 C98.1540701,17.716536 96.6744188,18.4147888 94.6319822,18.5617807 C94.8514803,19.0296774 95.2721357,19.2077605 95.3750544,19.9603508 C95.5279357,21.0847149 95.1351497,22.7315196 95.522581,23.4808067 C95.7085599,23.8399459 96.0116662,23.8494839 96.2161122,24.1564327 C95.7158962,24.7363487 94.4756436,24.091525 94.3343992,23.4808067 C94.0925972,22.4350997 94.7029417,20.8138947 94.0377016,20.1051543 C94.0848393,21.2455389 93.7623803,22.847668 94.0872425,23.8665779 C94.2154166,24.2675024 94.584971,24.4218852 94.4834015,24.7833366 C92.1584339,25.0146424 93.1295632,21.8362316 92.7498054,19.9603508 C92.3992662,19.9847118 92.5532437,20.474905 92.552274,20.6839143 C92.5419863,22.515904 92.934941,25.0285158 90.9186874,24.7833366 C90.859449,24.3985977 91.1892442,24.2675024 91.3144669,23.9157541 C91.6825456,22.8848289 91.2454468,21.3490526 91.4144764,20.1051543 C90.644884,20.6733028 91.4950489,22.6569089 91.0183174,23.6737129 C90.7434178,24.2589554 89.8581314,24.5137138 89.1866512,24.2523903 C89.274012,23.8164933 89.7338785,23.8869338 89.9286272,23.4808067 C90.200997,22.9147227 89.9305666,22.0994958 90.0281307,21.2625916 C88.603375,21.5408853 87.4986749,21.2222101 86.9582358,20.3459981 C86.7164338,19.9527534 86.6560992,19.4890683 86.3638287,19.1406232 C86.073076,18.7920129 85.6083186,18.7451489 85.4732299,18.2729581 C87.237436,17.8571692 87.304896,20.050693 88.8894898,20.1051543 C89.3750333,20.1222896 89.6275868,19.9676591 90.0772079,19.8643106 C90.2029787,19.3110265 90.4724393,18.8987059 90.8691464,18.6096769 C88.8981331,18.3454631 87.2699855,17.7444066 86.5129153,16.2957932 C84.7205447,16.3821716 83.0808023,16.6165742 81.5617712,16.9704695 C82.9404854,16.4799873 84.6409418,16.3042164 86.4634165,16.246617 C86.3561551,15.6145932 85.4145397,15.7883409 84.8298721,15.8127432 C83.7436813,15.8598136 82.3762245,15.9920238 81.5128205,16.1508245 C82.7646256,15.7137301 84.5204835,15.7681914 86.2162177,15.7648882 C85.6976188,14.1726687 85.8773576,11.6432107 87.0081984,10.7009348 C86.687679,9.90998628 86.787309,8.61608598 87.2062779,8 C88.4688766,8.05557615 89.2346743,8.59486299 90.0281307,9.10954108 C91.0119087,8.83554158 92.0463238,8.69928505 93.3943016,8.77191391 C93.9614296,8.80255098 94.5509037,9.05202431 94.977757,9.01259249 C95.3969367,8.97411035 95.8586163,8.51368713 96.2651051,8.3379162 C96.7954252,8.10875749 97.2436127,8.02138815 97.8495724,8" id="Fill-6" fill="#1B1B1B"></path>
                </g>
            </g>
        </g>
    </g>
</svg>