<?xml version="1.0" encoding="UTF-8" standalone="no"?>
<svg width="46px" height="46px" viewBox="0 0 46 46" version="1.1" xmlns="http://www.w3.org/2000/svg" xmlns:xlink="http://www.w3.org/1999/xlink" xmlns:sketch="http://www.bohemiancoding.com/sketch/ns">
    <title>icon-social-twitter-gray</title>
    <description>Created with Sketch (http://www.bohemiancoding.com/sketch)</description>
    <defs></defs>
    <g id="Page-1" stroke="none" stroke-width="1" fill="none" fill-rule="evenodd" sketch:type="MSPage">
        <g id="Artboard-6" sketch:type="MSArtboardGroup" transform="translate(-73.000000, -9.000000)">
            <g id="gray" sketch:type="MSLayerGroup" transform="translate(24.000000, 10.000000)">
                <path d="M93.5641026,21.647945 C93.5641026,33.6038253 83.9154612,43.296 72.0127932,43.296 C60.1102892,43.296 50.4615385,33.6038253 50.4615385,21.647945 C50.4615385,9.6922846 60.1102892,0 72.0127932,0 C83.9154612,0 93.5641026,9.6922846 93.5641026,21.647945" id="bg" stroke="#C5C5C5" stroke-width="2.02752" sketch:type="MSShapeGroup"></path>
                <path d="M86.0768377,18.6486473 C85.4800866,19.0112746 83.6289517,19.4060836 82.606851,19.0296719 C82.5565001,18.7921896 82.5007193,18.5664836 82.4458708,18.3627025 C81.6665842,15.5322882 78.9995238,13.2521645 76.2047763,13.5274725 C76.4309713,13.4369514 76.6602377,13.352834 76.8889557,13.2773997 C77.1961619,13.1683727 79.0013338,12.8777065 78.7172189,12.2475859 C78.4769278,11.6931166 76.2723496,12.6664904 75.8572565,12.793969 C76.405357,12.590025 77.3118372,12.2392827 77.4088641,11.616 C76.5688054,11.7299655 75.7447075,12.1229293 75.1078074,12.6939507 C75.3379515,12.4490334 75.5120953,12.150878 75.5492277,11.8293868 C73.3089431,13.2449467 72.0007529,16.0989138 70.9423425,18.8677867 C70.1107304,18.0705167 69.3741707,17.4427839 68.7127533,17.093941 C66.858492,16.1099305 64.641134,15.0834813 61.1603422,13.8047886 C61.0537168,14.9444977 61.7301627,16.4596417 63.6785987,17.4669338 C63.2562109,17.4109821 62.484603,17.53591 61.8668998,17.68222 C62.1185445,18.9877218 62.9394063,20.0631761 65.1636752,20.5830758 C64.1472238,20.6493928 63.6222694,20.8781921 63.1464043,21.3711742 C63.6088864,22.2787737 64.7383255,23.3476071 66.7695827,23.1280336 C64.511582,24.0912048 65.849171,25.8756329 67.6870326,25.609225 C64.5518408,28.8136632 59.6081861,28.5785144 56.7692308,25.898209 C64.1812847,35.8910284 80.292521,31.8079706 82.6929082,22.1827713 C84.4917177,22.1979124 85.5498539,21.566218 86.2051282,20.8699432 C85.1689863,21.0441476 83.6671811,20.8642992 82.8707269,20.5362957 C84.5238589,20.4012737 85.6449062,19.6577846 86.0768377,18.6486473 Z" id="Fill-2" fill="#C5C5C5" sketch:type="MSShapeGroup"></path>
            </g>
        </g>
    </g>
</svg>