<?xml version="1.0" encoding="UTF-8" standalone="no"?>
<svg width="100px" height="100px" viewBox="0 0 100 100" version="1.1" xmlns="http://www.w3.org/2000/svg" xmlns:xlink="http://www.w3.org/1999/xlink" xmlns:sketch="http://www.bohemiancoding.com/sketch/ns">
    <title>logo-ian-forsyth-gray</title>
    <description>Created with Sketch (http://www.bohemiancoding.com/sketch)</description>
    <defs></defs>
    <g id="Page-1" stroke="none" stroke-width="1" fill="none" fill-rule="evenodd" sketch:type="MSPage">
        <g id="Artboard-8" sketch:type="MSArtboardGroup" transform="translate(-138.000000, -6.000000)">
            <g id="logo" sketch:type="MSLayerGroup" transform="translate(138.000000, 6.000000)">
                <path d="M50,100 C77.6142389,100 100,77.6142389 100,50 C100,22.3857611 77.6142389,0 50,0 C22.3857611,0 0,22.3857611 0,50 C0,77.6142389 22.3857611,100 50,100 Z" id="Oval-1" fill="#C5C5C5" sketch:type="MSShapeGroup"></path>
                <path d="M50,96 C75.4050997,96 96,75.4050997 96,50 C96,24.5949003 75.4050997,4 50,4 C24.5949003,4 4,24.5949003 4,50 C4,75.4050997 24.5949003,96 50,96 Z" id="Oval-1" fill="#E1E1E1" sketch:type="MSShapeGroup"></path>
                <path d="M85.6956535,81.9403646 C85.6956535,81.9403646 79.1673331,89.7466172 69.1650403,94.2441413 C61.5855931,97.6522351 51.0144456,98.0647306 45.5007375,98.0312507 C34.6061773,97.9650968 14.6421903,81.508919 14.6421903,81.508919 L45.5007383,42.1008112 C47.9856119,38.9274873 52.0095381,38.9212936 54.4992617,42.1008112 L85.6956535,81.9403646 Z" id="Triangle-6" fill="#C5C5C5" sketch:type="MSShapeGroup"></path>
                <path d="M49.7061695,82.3286659 L62.0096507,63.1556127 L72.3271061,90.0872521 C72.3271061,90.0872521 62.0096516,97.1079084 45.617188,95.7827131 C29.2247243,94.4575176 19.4471563,84.6832677 17.8739438,82.8860004 C28.4846852,69.1791822 49.7061704,41.765547 49.7061704,41.765547 L49.7061695,82.3286659 Z" id="Triangle-6" fill="#E1E1E1" sketch:type="MSShapeGroup"></path>
                <path d="M46.388,32 L43.148,32 L43.148,14.648 L46.388,14.648 L46.388,32 Z M61.232,14.648 L61.2320002,17.5288086 L53.5400002,17.5288086 L53.54,22.352 L60.032,22.352 L60.032,24.932 L53.54,24.932 L53.54,32 L50.288,32 L50.288,14.648 L61.232,14.648 Z" id="IF" fill="#C5C5C5" sketch:type="MSShapeGroup"></path>
            </g>
        </g>
    </g>
</svg>