<?xml version="1.0" encoding="UTF-8" standalone="no"?>
<svg width="20px" height="18px" viewBox="0 0 20 18" version="1.1" xmlns="http://www.w3.org/2000/svg" xmlns:xlink="http://www.w3.org/1999/xlink" xmlns:sketch="http://www.bohemiancoding.com/sketch/ns">
    <title>open-quote</title>
    <description>Created with Sketch (http://www.bohemiancoding.com/sketch)</description>
    <defs></defs>
    <g id="Page-1" stroke="none" stroke-width="1" fill="none" fill-rule="evenodd" sketch:type="MSPage">
        <g id="Rectangle-1-+-Rectangle-1" sketch:type="MSLayerGroup" transform="translate(10.000000, 9.000000) rotate(-180.000000) translate(-10.000000, -9.000000) translate(0.000000, -0.000000)" fill="#ADADAD">
            <path d="M0,8.39912161 L0,1.06754505 C0,0.477569188 0.468584511,0 1.0466128,0 L8.23443295,0 C8.81284067,0 9.28104575,0.477956201 9.28104575,1.06754505 L9.28104575,8.39912161 C9.28104575,8.4226488 9.28030057,8.44599723 9.278833,8.46914374 C9.25860862,9.96073392 9.06505234,12.7178111 8.01555808,14.8014447 C6.5036464,17.8031479 3.19427611,17.9180491 3.19427611,17.9180491 C2.62292658,18.00032 2.09430024,17.5944453 2.01347867,17.0109431 L1.83349675,15.7115397 C1.75270987,15.1282879 2.14516478,14.5579163 2.70304634,14.4002406 C2.70304634,14.4002406 4.53573912,14.1967407 5.25463079,12.5663607 C5.6037017,11.7747001 5.7001587,10.5338387 5.70702164,9.46666667 L1.0466128,9.46666667 C0.468205086,9.46666667 0,8.98871047 0,8.39912161 Z M0,8.39912161" id="Rectangle-1" sketch:type="MSShapeGroup"></path>
            <path d="M10.7189542,8.39912161 L10.7189542,1.06754505 C10.7189542,0.477569188 11.1875388,-3.55271368e-15 11.765567,-3.55271368e-15 L18.9533872,-3.55271368e-15 C19.5317949,-3.55271368e-15 20,0.477956201 20,1.06754505 L20,8.39912161 C20,8.4226488 19.9992548,8.44599723 19.9977872,8.46914374 C19.9775629,9.96073392 19.7840066,12.7178111 18.7345123,14.8014447 C17.2226007,17.8031479 13.9132304,17.9180491 13.9132304,17.9180491 C13.3418808,18.00032 12.8132545,17.5944453 12.7324329,17.0109431 L12.552451,15.7115397 C12.4716641,15.1282879 12.864119,14.5579163 13.4220006,14.4002406 C13.4220006,14.4002406 15.2546934,14.1967407 15.973585,12.5663607 C16.3226559,11.7747001 16.4191129,10.5338387 16.4259759,9.46666667 L11.765567,9.46666667 C11.1871593,9.46666667 10.7189542,8.98871047 10.7189542,8.39912161 Z M10.7189542,8.39912161" id="Rectangle-1" sketch:type="MSShapeGroup"></path>
        </g>
    </g>
</svg>